<?xml version="1.0" standalone="no"?>
<!DOCTYPE svg PUBLIC "-//W3C//DTD SVG 20010904//EN"
 "http://www.w3.org/TR/2001/REC-SVG-20010904/DTD/svg10.dtd">

<svg version="1.0" xmlns="http://www.w3.org/2000/svg"
 width="295.000000pt" height="171.000000pt" viewBox="0 0 295.000000 171.000000"
 preserveAspectRatio="xMidYMid meet">
 <style type='text/css'>
  .svg {
    transition: all 0.5s ease;
    }
 </style>
<g class='svg' transform="translate(0.000000,171.000000) scale(0.100000,-0.100000)"
fill="#000000" stroke="none">
<path d="M2330 1689 c-30 -11 -74 -26 -97 -35 l-43 -16 0 -169 0 -169 -70 0
-70 0 0 -65 0 -65 70 0 70 0 1 -37 c1 -21 4 -220 8 -443 7 -389 8 -407 30
-462 78 -199 351 -277 654 -187 l67 20 0 73 0 74 -87 -32 c-76 -27 -102 -31
-188 -31 -140 0 -212 33 -258 118 l-22 42 -5 701 -5 701 -55 -18z"/>
<path d="M345 1314 c-11 -2 -45 -9 -75 -15 -30 -6 -88 -25 -128 -41 l-72 -30
0 -70 c0 -80 -7 -77 96 -34 100 42 182 59 276 59 186 -1 268 -86 268 -278 l0
-72 -117 -6 c-308 -18 -486 -100 -559 -260 -26 -56 -29 -72 -29 -167 0 -96 3
-110 31 -170 80 -169 233 -238 499 -226 132 5 238 26 325 64 l45 19 -5 474
c-5 464 -6 475 -28 530 -61 152 -204 230 -417 228 -49 -1 -99 -3 -110 -5z
m365 -878 l0 -274 -27 -11 c-49 -19 -117 -31 -184 -31 -183 0 -287 93 -297
266 -10 175 68 271 243 303 95 17 106 18 188 20 l77 1 0 -274z"/>
<path d="M1344 1305 c-34 -8 -95 -27 -135 -42 l-74 -28 -3 -74 c-2 -57 0 -72
10 -68 133 58 275 97 355 97 58 0 153 -28 189 -55 51 -39 75 -100 81 -208 l6
-94 -124 -6 c-386 -19 -574 -146 -587 -395 -9 -173 58 -301 193 -370 88 -44
153 -56 300 -56 150 1 240 16 341 56 l59 23 0 475 c0 471 0 475 -23 531 -43
108 -131 181 -257 214 -73 18 -245 18 -331 0z m426 -869 l0 -274 -47 -17
c-140 -48 -312 -23 -391 56 -53 54 -72 111 -72 213 0 203 128 292 423 295 l87
1 0 -274z"/>
<path d="M2470 1235 l0 -65 240 0 240 0 0 65 0 65 -240 0 -240 0 0 -65z"/>
<path d="M2470 1015 l0 -65 240 0 240 0 0 65 0 65 -240 0 -240 0 0 -65z"/>
</g>
</svg>
