<?xml version="1.0" encoding="UTF-8" ?>
<!DOCTYPE svg PUBLIC "-//W3C//DTD SVG 1.1//EN" "http://www.w3.org/Graphics/SVG/1.1/DTD/svg11.dtd">
<svg width="1000pt" height="1000pt" viewBox="0 0 1000 1000" version="1.1" xmlns="http://www.w3.org/2000/svg">
<path fill="#ffffff" stroke="#ffffff" stroke-width="0.09375" opacity="1.00" d=" M 0.0 0.0 L 1000.0 0.0 L 1000.0 1000.0 L 0.0 1000.0 L 0.0 0.0 Z" />
<path fill="#d92e10" stroke="#d92e10" stroke-width="0.09375" opacity="1.00" d=" M 13.9 13.9 C 338.0 13.9 662.0 13.9 986.1 13.9 C 986.1 338.0 986.1 662.0 986.1 986.1 C 662.0 986.1 338.0 986.1 13.9 986.1 C 13.9 662.0 13.9 338.0 13.9 13.9 Z" />
<path fill="#ffffff" stroke="#ffffff" stroke-width="0.09375" opacity="1.00" d=" M 378.4 388.6 C 398.5 387.3 418.9 391.1 436.9 400.2 C 462.6 412.8 482.7 436.0 491.7 463.1 C 492.8 465.5 490.4 467.9 488.0 467.5 C 471.0 467.5 454.0 467.5 437.0 467.5 C 434.2 467.9 433.1 465.0 431.7 463.1 C 424.3 451.2 412.6 441.5 398.8 438.2 C 381.6 434.0 362.3 438.2 349.1 450.1 C 329.9 467.3 323.1 496.1 330.4 520.5 C 334.7 534.9 343.9 548.2 357.0 556.0 C 369.2 563.2 384.2 565.0 398.0 561.9 C 412.6 558.6 425.0 548.3 432.4 535.5 C 433.6 533.7 434.4 531.0 437.0 531.2 C 454.4 531.1 471.7 531.1 489.0 531.2 C 491.5 530.9 493.4 533.7 492.2 535.9 C 482.9 564.5 461.2 588.6 434.0 601.2 C 396.8 618.3 350.2 614.6 317.2 589.8 C 288.3 568.3 271.1 532.0 272.6 496.0 C 273.7 464.4 289.0 433.6 313.6 413.6 C 331.8 398.6 354.9 389.9 378.4 388.6 Z" />
<path fill="#ffffff" stroke="#ffffff" stroke-width="0.09375" opacity="1.00" d=" M 612.4 388.5 C 632.2 387.4 652.3 391.1 670.0 400.0 C 693.2 411.3 711.9 431.3 722.0 455.0 C 723.3 458.2 725.0 461.4 725.3 465.0 C 724.8 466.9 722.8 467.7 721.0 467.5 C 705.0 467.5 689.0 467.5 673.0 467.5 C 671.3 467.5 669.7 467.5 668.1 467.2 C 665.6 464.4 664.0 461.1 661.7 458.2 C 653.7 447.7 642.1 439.7 628.9 437.5 C 612.0 434.4 593.7 439.3 581.3 451.2 C 561.3 470.1 555.6 501.7 566.0 526.8 C 571.7 541.0 582.6 553.3 596.9 559.2 C 608.4 563.9 621.6 564.7 633.6 561.3 C 646.9 557.6 658.2 548.1 665.3 536.3 C 666.3 534.7 667.1 532.9 668.5 531.6 C 669.9 531.0 671.5 531.2 672.9 531.1 C 689.0 531.2 705.0 531.1 721.0 531.1 C 722.5 531.2 724.5 531.1 725.4 532.6 C 726.5 534.3 725.3 536.3 724.9 538.1 C 714.3 568.0 690.1 593.0 660.3 604.2 C 640.9 611.7 619.4 613.3 598.9 610.1 C 577.4 606.7 557.0 596.8 541.2 581.8 C 515.0 557.3 501.6 519.6 507.1 484.0 C 511.9 451.0 532.1 420.6 560.9 403.9 C 576.5 394.7 594.3 389.5 612.4 388.5 Z" />
<path fill="#ffffff" stroke="#ffffff" stroke-width="0.09375" opacity="1.00" d=" M 149.4 392.6 C 161.3 392.1 173.2 392.6 185.0 392.4 C 187.7 392.5 191.6 391.7 192.5 395.0 C 220.0 464.1 247.4 533.1 274.8 602.2 C 276.3 604.4 275.0 607.9 272.1 607.5 C 255.4 607.7 238.7 607.5 222.0 607.6 C 220.0 607.6 217.2 607.7 216.6 605.2 C 213.4 596.4 210.8 587.3 207.5 578.4 C 206.8 576.6 204.7 576.4 203.1 576.5 C 180.7 576.5 158.4 576.5 136.0 576.5 C 134.4 576.4 132.2 576.5 131.6 578.4 C 127.9 587.3 125.1 596.6 121.5 605.5 C 120.8 607.9 118.0 607.5 116.0 607.6 C 99.4 607.5 82.7 607.7 66.1 607.5 C 63.4 607.3 62.8 604.0 64.0 602.0 C 91.3 534.0 118.6 466.1 145.8 398.1 C 146.8 396.2 147.1 393.3 149.4 392.6 Z" />
<path fill="#ffffff" stroke="#ffffff" stroke-width="0.09375" opacity="1.00" d=" M 810.4 392.7 C 823.6 392.1 836.9 392.5 850.1 392.4 C 852.3 392.2 853.5 394.1 854.1 395.9 C 881.4 464.9 908.9 533.8 936.2 602.8 C 937.5 605.0 935.6 607.9 933.1 607.5 C 916.0 607.6 899.0 607.5 882.0 607.6 C 880.2 607.7 878.2 607.1 877.8 605.1 C 874.7 596.5 872.0 587.7 868.9 579.0 C 868.5 577.3 866.8 576.3 865.1 576.5 C 842.7 576.4 820.3 576.5 798.0 576.5 C 796.1 576.5 793.5 576.2 792.7 578.5 C 789.1 587.4 786.2 596.7 782.6 605.6 C 782.0 607.6 779.8 607.6 778.1 607.6 C 762.1 607.6 746.0 607.6 730.0 607.6 C 728.2 607.5 725.9 607.9 724.9 606.0 C 724.0 604.6 725.0 602.9 725.4 601.5 C 752.9 533.0 780.4 464.4 807.9 395.9 C 808.5 394.7 809.0 393.0 810.4 392.7 Z" />
<path fill="#d92e10" stroke="#d92e10" stroke-width="0.09375" opacity="1.00" d=" M 169.4 462.4 C 171.4 461.8 171.9 464.4 172.3 465.7 C 178.6 486.8 184.9 507.9 191.2 529.1 C 191.8 530.3 191.9 532.9 190.0 532.7 C 176.6 532.9 163.3 532.9 149.9 532.8 C 147.3 532.9 148.0 530.0 148.6 528.4 C 154.9 507.5 161.1 486.5 167.4 465.6 C 168.0 464.5 167.9 462.6 169.4 462.4 Z" />
<path fill="#d92e10" stroke="#d92e10" stroke-width="0.09375" opacity="1.00" d=" M 830.4 462.4 C 832.3 461.8 833.0 464.0 833.4 465.4 C 839.7 486.5 846.0 507.6 852.3 528.7 C 852.8 530.2 853.4 532.8 851.0 532.8 C 838.6 533.0 826.3 532.7 813.9 532.9 C 812.3 532.7 810.3 533.2 809.1 531.8 C 809.5 528.4 810.8 525.1 811.8 521.8 C 817.4 503.0 823.0 484.2 828.6 465.4 C 829.1 464.4 829.1 462.7 830.4 462.4 Z" />
</svg>
