<?xml version="1.0" encoding="UTF-8" ?>
<!DOCTYPE svg PUBLIC "-//W3C//DTD SVG 1.1//EN" "http://www.w3.org/Graphics/SVG/1.1/DTD/svg11.dtd">
<svg width="1215pt" height="234pt" viewBox="0 0 1215 234" version="1.1" xmlns="http://www.w3.org/2000/svg" xmlns:xlink="http://www.w3.org/1999/xlink">
  <defs>
    <style type="text/css">
      .blur {
        filter: url(#svgFilter);
      }
    </style>
    <filter id="svgFilter" x="-50%" y="-50%" width="200%" height="200%">
      <feGaussianBlur id="svgFilterBlur" in="SourceGraphic" result="Blur" stdDeviation="10"/>
    </filter>
    <animate
      xlink:href="#svgFilterBlur"
      attributeName="stdDeviation"
      values="10;0;10"
      dur="3s"
      fill="freeze"
      repeatCount="indefinite"
      />
  </defs>
<g id="#ffffffff" class="">
<path fill="#ffffff" opacity="1.00" d=" M 0.00 0.00 L 111.31 0.00 C 83.24 1.36 55.84 13.14 35.70 32.75 C 17.07 50.63 4.62 74.82 1.08 100.41 C -1.51 120.17 0.44 140.64 7.78 159.23 C 18.79 187.94 41.63 211.83 69.81 224.13 C 82.89 229.96 97.07 233.12 111.34 234.00 L 0.00 234.00 L 0.00 0.00 Z" />
<path fill="#ffffff" opacity="1.00" d=" M 122.75 0.00 L 1215.00 0.00 L 1215.00 113.92 C 1214.00 104.67 1209.01 95.58 1200.50 91.30 C 1189.08 85.05 1175.68 87.72 1163.27 87.10 C 1163.30 107.92 1163.17 128.74 1163.33 149.56 C 1175.19 148.98 1187.83 151.20 1198.85 145.57 C 1208.36 141.14 1214.34 131.11 1215.00 120.79 L 1215.00 234.00 L 123.44 234.00 C 129.03 233.53 134.61 232.87 140.12 231.78 C 168.94 226.15 195.27 209.09 212.31 185.19 C 228.90 162.28 236.63 133.17 233.62 105.05 C 231.13 79.12 219.45 54.26 201.32 35.59 C 180.89 14.33 152.20 1.37 122.75 0.00 M 384.53 86.68 C 376.34 107.58 368.54 128.63 360.36 149.53 C 363.81 149.46 367.26 149.46 370.72 149.53 C 372.87 144.23 374.74 138.82 376.79 133.48 C 384.41 133.54 392.03 133.41 399.65 133.52 C 402.17 138.64 403.80 144.16 405.89 149.47 C 409.51 149.48 413.13 149.47 416.75 149.52 C 408.28 128.62 400.39 107.46 391.71 86.65 C 389.31 86.72 386.92 86.72 384.53 86.68 M 912.07 88.89 C 904.03 91.91 897.40 98.46 894.45 106.54 C 891.25 115.18 891.38 125.16 895.17 133.59 C 898.84 141.71 906.62 147.57 915.27 149.42 C 925.65 151.69 936.78 150.05 946.31 145.47 C 946.25 136.78 946.23 128.08 946.32 119.39 C 942.96 119.35 939.60 119.36 936.25 119.32 C 936.28 126.08 936.16 132.84 936.33 139.61 C 931.92 141.96 926.74 142.00 921.88 141.69 C 914.96 141.16 908.42 136.88 905.45 130.57 C 902.19 123.54 902.05 115.14 904.88 107.95 C 907.04 102.59 911.60 98.34 917.06 96.49 C 925.82 93.54 935.58 95.04 943.73 99.11 C 943.73 95.95 943.73 92.79 943.75 89.64 C 933.67 86.02 922.22 85.02 912.07 88.89 M 306.55 87.17 C 306.68 107.95 306.59 128.73 306.59 149.51 C 313.03 149.43 319.47 149.52 325.92 149.47 C 331.63 149.44 337.64 147.90 341.90 143.90 C 348.37 137.96 349.16 126.55 342.82 120.22 C 340.84 118.02 338.03 116.93 335.27 116.11 C 343.07 112.34 345.47 101.51 340.68 94.48 C 337.32 89.36 330.97 87.10 325.05 87.13 C 318.88 87.13 312.71 87.09 306.55 87.17 M 433.27 87.10 C 433.30 107.92 433.17 128.75 433.34 149.56 C 436.68 149.45 440.03 149.46 443.38 149.51 C 443.31 133.88 443.52 118.26 443.21 102.63 C 454.52 117.67 466.17 132.46 477.59 147.41 C 479.63 151.18 484.48 148.86 487.90 149.52 C 488.50 128.75 487.96 107.94 488.17 87.16 C 484.82 87.11 481.48 87.13 478.14 87.09 C 478.23 102.50 477.93 117.90 478.32 133.30 C 473.60 125.99 468.02 119.29 462.75 112.37 C 456.30 104.11 450.00 95.73 443.48 87.55 C 440.34 86.54 436.63 87.40 433.27 87.10 M 511.47 87.16 C 511.58 107.95 511.50 128.74 511.51 149.52 C 514.85 149.47 518.19 149.46 521.54 149.52 C 521.56 140.25 521.54 130.98 521.54 121.71 C 529.31 130.94 537.01 140.23 544.73 149.50 C 548.84 149.45 552.96 149.48 557.08 149.53 C 548.10 138.95 539.34 128.17 530.20 117.72 C 538.45 107.39 546.99 97.29 555.50 87.17 C 551.60 87.08 547.70 87.17 543.80 87.06 C 536.30 96.12 528.92 105.27 521.54 114.42 C 521.54 105.32 521.53 96.22 521.56 87.12 C 518.19 87.12 514.83 87.11 511.47 87.16 M 615.45 87.71 C 607.46 89.93 600.52 95.68 597.00 103.21 C 592.76 112.29 592.62 123.14 596.37 132.41 C 599.37 139.72 605.50 145.67 612.95 148.36 C 622.07 151.67 632.71 151.12 641.20 146.29 C 659.92 135.75 661.10 105.55 644.30 92.70 C 636.25 86.45 625.13 85.04 615.45 87.71 M 676.66 87.12 C 676.66 107.92 676.65 128.72 676.66 149.52 C 679.99 149.46 683.32 149.47 686.66 149.53 C 686.69 140.21 686.68 130.90 686.66 121.59 C 694.32 121.68 701.99 121.51 709.65 121.69 C 709.71 118.90 709.72 116.11 709.69 113.32 C 702.01 113.46 694.34 113.32 686.66 113.41 C 686.67 107.39 686.73 101.37 686.62 95.35 C 694.43 95.29 702.25 95.35 710.07 95.32 C 710.94 92.60 711.89 89.90 712.90 87.22 C 700.82 87.01 688.74 87.20 676.66 87.12 M 757.71 87.12 C 757.73 107.92 757.74 128.71 757.70 149.50 C 770.40 149.47 783.11 149.46 795.81 149.51 C 795.80 146.74 795.81 143.97 795.80 141.21 C 786.47 141.30 777.15 141.22 767.82 141.26 C 767.98 134.69 767.48 128.09 768.14 121.54 C 776.31 121.70 784.49 121.54 792.66 121.64 C 792.65 118.87 792.65 116.10 792.66 113.33 C 784.38 113.44 776.10 113.35 767.82 113.39 C 767.81 107.39 767.87 101.38 767.78 95.38 C 776.04 95.29 784.32 95.27 792.59 95.40 C 793.75 92.70 794.64 89.89 795.58 87.10 C 782.95 87.16 770.33 87.12 757.71 87.12 M 816.76 87.14 C 816.78 107.92 816.81 128.69 816.75 149.47 C 820.09 149.48 823.43 149.47 826.78 149.52 C 826.71 133.74 827.03 117.94 826.60 102.17 C 838.28 118.23 850.78 133.69 862.79 149.50 C 865.73 149.47 868.68 149.48 871.63 149.53 C 871.71 128.73 871.63 107.92 871.67 87.11 C 868.31 87.12 864.96 87.12 861.61 87.14 C 861.67 102.42 861.61 117.70 861.67 132.98 C 850.74 117.21 838.33 102.52 826.86 87.14 C 823.49 87.11 820.12 87.12 816.76 87.14 M 968.84 87.16 C 968.88 107.93 968.87 128.70 968.85 149.47 C 979.73 149.52 990.61 149.41 1001.49 149.53 C 1001.49 146.76 1001.49 143.99 1001.52 141.23 C 994.07 141.29 986.62 141.19 979.18 141.30 C 978.53 123.26 979.10 105.19 979.13 87.15 C 975.69 87.10 972.26 87.11 968.84 87.16 M 1036.13 86.75 C 1028.23 107.71 1020.18 128.61 1012.14 149.52 C 1015.57 149.47 1019.02 149.44 1022.47 149.55 C 1024.60 144.21 1026.49 138.77 1028.60 133.42 C 1036.24 133.53 1043.88 133.54 1051.52 133.41 C 1053.73 138.73 1055.60 144.18 1057.74 149.53 C 1061.33 149.45 1064.93 149.47 1068.54 149.51 C 1060.02 128.63 1052.12 107.50 1043.51 86.65 C 1041.04 86.71 1038.58 86.72 1036.13 86.75 M 1085.14 87.09 C 1085.16 107.90 1085.08 128.72 1085.17 149.53 C 1088.40 149.46 1091.63 149.46 1094.87 149.54 C 1095.45 142.36 1095.00 135.14 1095.15 127.95 C 1095.00 119.54 1095.51 111.10 1094.73 102.72 C 1097.01 104.62 1098.38 107.31 1100.21 109.61 C 1110.41 122.91 1120.74 136.12 1130.90 149.46 C 1133.86 149.48 1136.83 149.48 1139.80 149.52 C 1139.87 128.71 1139.82 107.90 1139.82 87.09 C 1136.45 87.13 1133.09 87.13 1129.73 87.13 C 1129.67 102.41 1129.87 117.69 1129.72 132.96 C 1126.17 127.10 1121.78 121.84 1117.63 116.42 C 1110.11 106.64 1102.51 96.93 1095.02 87.12 C 1091.72 87.13 1088.42 87.13 1085.14 87.09 Z" />
<path fill="#ffffff" opacity="1.00" d=" M 106.98 5.93 C 129.76 3.88 153.15 8.91 172.93 20.45 C 198.18 34.96 217.37 59.72 224.81 87.91 C 230.75 109.89 229.75 133.67 221.96 155.06 C 212.53 181.23 192.85 203.48 168.08 216.14 C 144.02 228.60 115.36 231.73 89.15 224.92 C 61.13 217.83 36.32 199.24 21.47 174.46 C 8.60 153.27 3.23 127.67 6.39 103.08 C 9.48 77.04 22.36 52.38 41.73 34.74 C 59.56 18.34 82.85 8.06 106.98 5.93 M 98.90 11.36 C 72.96 15.66 48.93 30.09 32.74 50.78 C 16.91 70.74 8.70 96.51 9.96 121.94 C 10.79 138.36 15.19 154.74 23.44 169.00 C 20.75 155.83 22.67 141.02 31.33 130.36 C 37.20 122.96 47.66 119.17 56.74 122.23 C 58.99 125.44 59.96 129.61 62.19 132.97 C 58.49 130.77 54.45 128.91 50.06 128.83 C 42.19 128.66 35.29 134.23 31.72 140.92 C 25.24 153.31 26.32 169.24 34.05 180.85 C 38.32 187.24 45.03 192.65 52.96 193.15 C 59.72 193.20 66.26 189.60 70.05 184.03 C 75.97 175.43 77.01 164.37 75.16 154.31 C 77.23 156.04 79.25 158.11 79.66 160.92 C 80.51 165.29 82.68 169.65 81.59 174.18 C 79.64 184.11 73.93 193.96 64.61 198.57 C 59.99 201.07 54.60 200.96 49.53 200.40 C 55.73 205.00 62.14 209.39 69.09 212.80 C 91.45 224.09 117.83 227.00 142.17 221.15 C 163.08 216.27 182.11 204.62 196.70 188.95 C 195.24 187.58 192.96 186.30 193.51 183.93 C 195.35 180.03 200.25 179.73 204.01 179.77 C 221.53 155.69 228.30 124.17 222.05 95.04 C 216.28 66.53 198.14 40.88 173.34 25.72 C 151.38 12.07 124.36 6.91 98.90 11.36 Z" />
<path fill="#ffffff" opacity="1.00" d=" M 84.46 34.47 C 87.05 32.13 90.83 32.15 94.11 32.28 C 97.68 32.34 100.48 34.89 103.65 36.15 C 102.78 36.68 101.91 37.20 101.04 37.74 L 102.93 36.78 C 102.26 38.50 101.63 40.23 101.07 41.99 C 102.61 41.39 104.09 40.65 105.50 39.78 L 103.59 39.36 C 104.01 38.62 104.44 37.89 104.86 37.15 C 105.55 37.83 106.91 39.19 107.60 39.87 C 106.08 41.85 104.73 43.97 106.04 46.58 C 104.43 46.37 102.81 46.27 101.20 46.18 C 101.67 46.66 102.62 47.63 103.10 48.12 C 102.43 48.31 101.11 48.68 100.45 48.87 C 101.49 50.01 105.11 52.17 104.07 48.12 C 105.59 49.97 106.71 52.10 107.73 54.26 C 107.09 54.54 105.83 55.10 105.19 55.38 C 104.35 57.50 104.13 59.95 102.97 61.87 C 99.47 63.21 96.16 60.34 93.04 59.03 C 93.96 60.81 95.10 62.45 96.36 64.01 C 95.39 67.08 93.46 69.82 93.15 73.07 C 94.43 71.55 95.64 69.98 96.94 68.47 C 98.67 70.83 99.99 73.44 101.01 76.17 C 101.87 72.49 99.73 69.25 98.08 66.16 C 101.66 66.98 103.89 70.41 103.78 74.01 C 104.24 77.57 100.63 79.30 98.95 81.91 C 101.59 81.28 103.70 79.33 105.15 77.11 C 106.50 74.73 105.09 72.05 104.74 69.59 C 107.71 72.04 109.93 75.57 114.04 76.22 C 106.21 78.50 103.15 88.03 94.77 89.18 C 94.33 87.78 93.90 86.37 93.50 84.95 C 94.87 84.54 96.13 83.91 97.28 83.05 C 87.57 83.88 83.54 73.04 75.28 70.14 C 80.12 69.12 83.48 65.20 84.38 60.43 C 88.37 59.21 92.09 56.82 94.16 53.10 C 96.07 49.66 97.92 46.18 100.04 42.85 C 95.91 44.20 95.53 50.28 90.70 50.30 C 92.17 48.23 93.83 46.29 95.04 44.05 C 92.84 44.95 91.02 46.50 89.26 48.05 C 89.54 46.43 89.75 44.80 89.88 43.16 C 88.50 44.71 86.99 46.14 85.74 47.79 C 85.96 49.35 86.19 50.90 86.45 52.44 C 82.11 51.33 81.71 46.59 82.10 42.89 C 82.70 43.50 83.89 44.70 84.48 45.31 C 84.71 42.77 84.90 39.83 87.05 38.10 C 90.09 35.21 94.54 35.30 98.43 35.53 C 95.93 33.03 92.10 33.62 88.94 34.03 C 84.38 35.32 81.33 39.74 80.22 44.17 C 79.23 47.46 80.28 50.83 80.53 54.14 C 77.22 50.94 76.72 45.57 78.75 41.57 C 80.30 38.95 82.32 36.63 84.46 34.47 Z" />
<path fill="#ffffff" opacity="1.00" d=" M 52.63 40.27 C 57.37 43.99 59.89 49.73 61.00 55.52 C 60.25 55.08 58.76 54.22 58.02 53.79 C 59.61 62.38 62.27 70.74 64.01 79.30 C 65.54 77.14 67.90 74.23 70.88 75.84 C 75.42 77.97 75.72 83.64 75.48 88.00 C 74.99 88.12 74.00 88.35 73.51 88.46 C 71.82 92.16 70.64 96.09 69.28 99.91 C 71.80 110.66 74.78 121.31 77.28 132.06 C 76.97 132.59 76.35 133.66 76.04 134.19 C 74.31 131.20 73.65 127.79 72.79 124.49 C 67.02 101.15 61.17 77.82 55.32 54.49 C 54.41 55.43 53.49 56.36 52.58 57.30 C 51.00 51.76 50.79 45.78 52.63 40.27 Z" />
<path fill="#ffffff" opacity="1.00" d=" M 72.93 69.32 C 77.00 65.34 74.90 58.36 79.92 55.00 C 77.92 59.79 79.17 67.69 72.93 69.32 Z" />
<path fill="#ffffff" opacity="1.00" d=" M 190.95 65.68 C 192.40 65.23 193.84 64.55 195.39 64.51 C 194.24 66.84 192.78 69.00 191.12 70.99 C 192.12 70.76 193.12 70.53 194.13 70.29 C 196.04 68.32 198.08 66.09 200.96 65.69 C 203.52 65.49 206.00 66.41 208.49 66.89 C 205.52 69.40 201.88 71.16 197.89 70.68 C 200.29 72.01 202.32 73.92 202.81 76.73 C 199.17 75.87 195.64 74.34 192.96 71.66 C 191.54 72.12 190.13 72.57 188.74 73.08 C 192.28 73.65 196.20 75.05 196.74 79.15 C 192.73 79.12 189.09 77.37 186.80 74.08 C 186.29 74.11 185.28 74.19 184.77 74.23 C 186.39 71.22 187.15 66.76 190.95 65.68 Z" />
<path fill="#ffffff" opacity="1.00" d=" M 180.67 76.84 C 178.18 72.28 180.80 66.05 185.99 64.94 C 185.82 67.94 184.96 70.84 183.42 73.41 C 183.22 73.54 182.83 73.82 182.64 73.95 L 183.02 74.77 C 183.13 75.11 183.35 75.80 183.46 76.14 C 187.07 75.88 189.55 78.77 191.03 81.69 C 187.08 81.33 183.57 79.48 180.67 76.84 Z" />
<path fill="#ffffff" opacity="1.00" d=" M 64.10 74.35 C 66.37 71.52 70.25 69.12 73.84 71.14 C 81.28 74.93 84.29 84.05 91.96 87.46 C 87.48 88.50 82.59 86.77 79.82 83.10 C 77.27 79.76 75.05 75.71 70.91 74.11 C 68.72 73.14 66.34 74.14 64.10 74.35 Z" />
<path fill="#ffffff" opacity="1.00" d=" M 173.46 77.41 C 172.83 73.99 174.71 70.88 177.82 69.42 C 178.26 72.51 177.25 75.37 175.93 78.10 C 176.47 77.66 177.55 76.77 178.09 76.33 C 178.58 76.94 179.08 77.55 179.58 78.15 L 177.30 78.24 C 180.45 79.28 183.63 80.97 184.92 84.24 C 182.08 84.12 179.22 83.72 176.75 82.23 C 174.11 82.41 171.58 81.22 168.94 81.66 C 165.80 82.28 162.71 81.42 159.68 80.70 C 159.31 80.84 158.58 81.13 158.22 81.27 C 161.21 81.93 163.89 83.87 167.01 83.88 C 169.16 82.45 171.57 81.95 174.14 82.53 C 173.42 85.04 171.06 85.16 169.00 84.48 C 167.91 87.07 165.80 89.01 164.31 91.35 C 163.08 93.05 162.18 95.11 160.29 96.20 C 160.18 92.18 163.83 89.49 165.93 86.44 C 162.99 85.89 159.92 82.94 157.00 85.08 C 149.61 89.26 142.58 94.64 134.01 96.16 C 130.76 97.00 127.69 95.25 124.59 94.59 C 118.41 93.05 112.18 91.46 106.66 88.18 C 107.20 91.82 109.19 96.14 106.46 99.38 C 102.62 103.32 105.27 110.42 100.30 113.51 C 100.41 111.73 100.56 109.94 100.73 108.16 C 98.58 111.19 96.23 114.20 92.86 115.95 C 94.47 111.48 96.34 106.85 95.03 102.02 C 92.77 106.11 92.11 111.64 87.81 114.21 C 87.74 112.27 86.41 111.13 84.83 110.25 C 84.75 111.10 84.60 112.79 84.52 113.64 C 83.44 115.39 81.43 113.48 80.43 112.57 C 78.12 109.84 75.07 107.45 73.84 104.01 C 73.46 96.94 78.65 90.75 77.59 83.57 C 80.43 85.32 80.06 89.05 79.29 91.83 C 77.67 97.32 78.61 103.73 82.52 108.05 C 80.74 102.20 80.48 95.82 82.71 90.05 C 83.19 90.14 84.16 90.33 84.64 90.42 C 87.41 94.82 88.01 100.08 88.47 105.14 C 91.95 100.48 88.92 94.63 87.11 89.92 C 91.30 90.52 93.43 94.58 95.08 98.00 C 95.84 94.50 97.93 91.56 100.63 89.27 C 100.50 90.22 100.23 92.10 100.09 93.05 C 101.94 91.69 104.38 90.57 104.84 88.07 C 106.13 83.41 109.57 79.63 113.97 77.69 C 118.34 80.15 123.08 81.95 127.14 84.94 C 128.81 86.02 130.85 87.57 132.93 86.58 C 139.59 83.49 146.98 82.58 153.79 79.89 C 159.95 77.10 166.88 77.72 173.46 77.41 M 171.37 79.79 C 172.57 80.45 173.95 80.90 175.25 81.37 C 177.50 79.61 172.20 77.47 171.37 79.79 Z" />
<path fill="#ffffff" opacity="1.00" d=" M 49.48 94.41 C 51.78 89.79 54.11 84.94 58.00 81.44 C 57.71 84.22 56.13 86.58 55.11 89.12 C 52.89 94.16 51.33 99.49 50.87 104.99 C 51.22 107.25 51.52 109.52 51.69 111.81 C 50.77 110.82 50.15 109.68 49.83 108.38 L 47.83 108.09 C 47.93 111.86 48.46 115.61 48.65 119.38 C 44.38 111.69 46.09 102.11 49.48 94.41 Z" />
<path fill="#ffffff" opacity="1.00" d=" M 55.68 110.09 C 57.35 102.60 56.86 94.21 61.24 87.60 C 62.55 93.45 64.16 99.22 65.61 105.03 C 66.73 108.01 62.49 110.59 64.74 113.46 C 70.83 123.20 72.89 135.40 81.35 143.61 C 84.12 146.62 84.46 151.13 84.19 155.02 C 83.29 153.88 82.61 152.60 82.01 151.29 C 81.68 151.27 81.01 151.23 80.67 151.21 C 80.76 152.62 80.85 154.03 80.95 155.44 L 82.16 154.15 C 85.26 159.41 84.94 165.89 87.42 171.38 C 87.61 159.87 88.02 147.82 93.38 137.35 C 95.30 133.90 97.65 130.22 101.56 128.85 C 101.01 128.41 100.47 127.98 99.92 127.55 C 92.48 132.54 88.36 140.81 86.05 149.22 C 84.23 143.69 87.44 138.19 86.70 132.63 C 90.50 125.68 97.90 120.51 106.00 120.76 C 108.54 121.04 110.49 118.92 112.97 118.83 C 116.33 119.16 119.51 120.91 122.95 120.38 C 125.73 120.27 129.24 120.14 131.05 122.69 C 126.53 123.63 122.38 126.55 117.57 125.64 C 117.66 126.06 117.85 126.90 117.94 127.32 C 119.45 126.34 120.49 126.63 121.03 128.20 C 113.48 128.04 104.39 129.00 99.91 135.96 C 95.76 142.83 95.69 151.19 95.30 158.98 C 95.19 164.50 94.74 170.00 94.41 175.51 C 92.84 175.97 91.26 176.39 89.69 176.84 C 90.97 177.79 92.52 178.17 94.03 178.59 C 93.35 181.54 92.47 184.46 91.21 187.22 C 92.99 195.48 95.68 203.56 96.95 211.91 C 96.71 212.40 96.24 213.38 96.00 213.87 C 95.00 212.38 94.25 210.74 93.90 208.98 C 90.02 193.24 86.00 177.54 82.15 161.80 C 81.59 159.06 79.46 157.06 78.47 154.49 C 77.67 151.93 75.54 150.22 73.86 148.24 C 74.33 143.30 71.74 139.01 68.39 135.64 C 62.93 130.18 58.52 123.50 56.50 115.98 C 56.03 114.05 55.03 112.10 55.68 110.09 M 109.27 122.38 C 109.02 122.62 108.52 123.08 108.27 123.31 C 103.28 122.99 97.40 123.49 93.95 127.59 C 96.46 126.83 98.93 125.95 101.49 125.36 C 102.22 127.67 104.34 126.01 105.75 125.48 C 105.47 125.85 104.91 126.59 104.63 126.96 C 108.03 125.60 111.93 127.13 115.10 125.11 L 111.70 124.61 C 114.30 123.93 116.96 123.46 119.45 122.40 C 116.07 122.19 112.66 122.22 109.27 122.38 Z" />
<path fill="#ffffff" opacity="1.00" d=" M 73.46 94.28 C 75.28 94.65 74.14 99.18 72.36 98.74 C 71.77 97.29 72.38 95.35 73.46 94.28 Z" />
<path fill="#ffffff" opacity="1.00" d=" M 316.60 95.28 C 320.98 95.51 325.91 94.60 329.74 97.27 C 334.42 100.53 334.29 108.51 329.57 111.67 C 325.76 114.30 320.94 113.27 316.61 113.51 C 316.63 107.43 316.64 101.36 316.60 95.28 Z" />
<path fill="#ffffff" opacity="1.00" d=" M 1173.30 95.26 C 1180.83 95.31 1189.05 94.70 1195.56 99.27 C 1203.52 104.49 1205.60 115.19 1203.75 123.99 C 1202.69 130.06 1199.02 135.81 1193.37 138.52 C 1187.20 141.75 1180.06 141.23 1173.33 141.30 C 1173.21 125.95 1173.28 110.60 1173.30 95.26 Z" />
<path fill="#ffffff" opacity="1.00" d=" M 616.49 96.64 C 623.55 93.64 632.45 94.56 638.27 99.76 C 643.32 104.31 645.40 111.34 645.41 117.98 C 645.59 124.75 643.67 132.00 638.63 136.79 C 632.97 142.16 624.08 143.13 616.96 140.43 C 609.50 137.62 605.23 129.74 604.60 122.10 C 603.43 112.41 606.79 100.74 616.49 96.64 Z" />
<path fill="#ffffff" opacity="1.00" d=" M 112.95 100.14 C 113.24 100.33 113.83 100.72 114.12 100.91 C 114.58 103.73 115.01 106.79 113.48 109.37 C 111.61 112.65 108.83 115.29 106.36 118.11 C 106.14 113.88 110.47 111.69 111.60 107.96 C 112.35 105.44 113.48 102.80 112.95 100.14 Z" />
<path fill="#ffffff" opacity="1.00" d=" M 379.92 125.30 C 382.37 117.12 386.04 109.33 388.18 101.04 C 391.11 109.10 393.81 117.25 396.74 125.31 C 391.13 125.23 385.52 125.23 379.92 125.30 Z" />
<path fill="#ffffff" opacity="1.00" d=" M 1040.00 101.03 C 1042.84 109.12 1045.54 117.26 1048.53 125.30 C 1042.83 125.23 1037.14 125.23 1031.45 125.30 C 1034.39 117.25 1037.61 109.28 1040.00 101.03 Z" />
<path fill="#ffffff" opacity="1.00" d=" M 76.21 124.33 C 76.13 119.59 80.73 117.05 84.92 116.78 C 90.57 118.32 96.43 118.44 102.20 117.59 C 103.71 116.71 104.11 119.64 102.71 119.67 C 98.07 121.74 92.80 120.77 87.94 121.87 C 85.12 122.40 83.08 125.30 80.04 124.76 C 80.66 123.36 81.33 121.98 81.96 120.59 C 79.75 121.34 78.03 122.93 76.21 124.33 Z" />
<path fill="#ffffff" opacity="1.00" d=" M 316.57 140.86 C 316.82 134.53 316.34 128.17 316.80 121.85 C 322.00 121.93 327.66 120.92 332.46 123.44 C 338.61 126.59 338.40 137.14 331.96 139.83 C 327.09 141.75 321.67 141.26 316.57 140.86 Z" />
<path fill="#ffffff" opacity="1.00" d=" M 88.63 124.38 C 88.63 124.68 88.64 125.28 88.64 125.58 C 85.21 127.74 83.85 131.69 81.14 134.44 C 81.24 132.37 81.15 130.09 82.46 128.35 C 83.87 126.22 86.46 125.48 88.63 124.38 Z" />
<path fill="#ffffff" opacity="1.00" d=" M 123.84 127.70 C 126.94 125.90 130.24 123.60 133.97 123.73 C 139.06 125.13 143.97 127.14 148.92 128.96 C 151.13 129.55 152.69 131.68 152.49 133.98 C 152.51 140.04 152.91 146.09 153.44 152.14 C 155.93 152.22 158.42 152.86 159.94 155.01 C 158.32 156.92 155.93 157.60 153.54 157.88 C 153.69 158.41 154.00 159.48 154.15 160.01 C 155.57 159.71 156.93 159.21 158.33 158.84 C 158.42 159.45 158.60 160.65 158.70 161.26 C 160.62 162.70 163.04 162.88 165.21 163.76 C 166.90 165.41 165.05 167.74 163.09 167.86 C 160.94 168.80 158.96 167.46 157.25 166.33 C 157.32 165.73 157.48 164.53 157.55 163.94 C 156.43 163.41 155.57 162.07 154.22 162.17 C 154.07 164.11 154.38 166.05 154.36 168.00 C 151.87 164.31 149.98 160.19 148.61 155.96 C 147.76 151.00 148.64 145.95 149.52 141.05 C 147.12 142.83 147.23 146.02 145.55 148.25 C 145.37 145.44 145.00 142.22 146.79 139.81 C 148.25 137.78 149.62 135.67 150.51 133.32 C 148.72 134.25 147.10 135.68 145.06 136.00 C 141.64 135.01 140.34 131.08 137.09 129.82 C 132.96 127.87 128.29 128.03 123.84 127.70 Z" />
<path fill="#ffffff" opacity="1.00" d=" M 111.21 131.25 C 118.67 128.89 126.63 129.76 134.26 130.71 C 132.48 131.77 130.61 132.68 128.83 133.75 C 131.89 133.62 135.28 132.06 138.18 133.74 C 139.54 134.52 139.91 136.09 140.28 137.49 C 142.70 147.85 147.02 157.64 149.93 167.85 C 146.99 168.04 144.37 166.70 141.82 165.42 C 143.93 170.24 149.68 169.49 153.87 170.67 C 153.83 171.52 153.74 173.21 153.69 174.06 C 154.19 174.36 155.19 174.95 155.68 175.25 C 155.62 175.87 155.50 177.12 155.43 177.75 C 157.15 179.99 158.88 182.27 160.00 184.89 C 156.82 189.92 151.34 193.93 145.12 193.85 C 146.02 192.57 146.94 191.31 147.83 190.03 C 141.75 192.61 135.19 194.07 128.56 193.57 C 129.75 194.43 130.98 195.24 132.21 196.07 C 128.82 196.20 123.29 196.60 122.75 192.01 C 126.93 191.76 131.14 191.29 135.09 189.84 C 139.78 188.34 143.57 185.05 147.99 182.98 C 149.95 182.10 151.62 180.73 152.93 179.04 C 145.53 182.20 137.13 182.77 129.42 180.33 C 118.96 177.20 109.53 170.96 102.02 163.09 C 108.02 165.73 115.61 164.95 120.53 160.43 C 123.46 157.93 124.54 153.98 127.38 151.40 C 129.83 149.01 130.62 145.58 131.52 142.41 C 129.12 144.96 126.20 147.03 122.61 147.41 C 121.09 150.96 118.53 154.35 114.66 155.47 C 109.38 156.99 102.79 156.51 98.83 152.31 C 102.58 153.87 106.90 154.71 110.69 152.75 C 113.31 151.30 116.99 149.84 117.53 146.54 C 114.69 145.61 111.95 147.78 109.05 147.66 C 105.92 148.03 101.33 146.89 101.09 143.10 C 101.25 137.41 106.02 132.88 111.21 131.25 Z" />
<path fill="#ffffff" opacity="1.00" d=" M 43.74 131.81 C 46.40 131.20 49.13 131.02 51.86 131.09 C 49.64 138.81 48.49 146.84 48.67 154.88 C 56.58 154.40 64.51 154.10 72.42 154.61 C 72.81 157.32 73.11 160.05 73.25 162.79 C 65.31 163.00 57.36 163.37 49.43 163.85 C 50.83 172.44 53.38 180.91 57.76 188.47 C 54.97 188.75 51.97 189.75 49.29 188.49 C 45.32 181.06 43.00 172.83 41.45 164.59 C 37.74 165.14 34.01 165.62 30.34 166.40 C 29.80 163.75 29.46 161.05 29.21 158.35 C 32.87 157.11 36.67 156.37 40.50 155.95 C 40.32 147.79 41.25 139.60 43.74 131.81 Z" />
<path fill="#ffffff" opacity="1.00" d=" M 53.96 131.46 C 63.33 134.50 69.83 143.34 71.97 152.71 C 65.02 152.33 58.04 152.20 51.09 152.71 C 50.89 145.52 51.99 138.36 53.96 131.46 Z" />
<path fill="#ffffff" opacity="1.00" d=" M 29.29 156.11 C 29.64 147.23 33.30 138.02 41.02 133.08 C 39.26 139.94 37.98 146.95 38.28 154.06 C 35.25 154.57 32.25 155.27 29.29 156.11 Z" />
<path fill="#ffffff" opacity="1.00" d=" M 156.96 150.01 C 157.75 145.56 163.53 144.97 167.15 143.95 C 167.48 144.34 168.12 145.12 168.45 145.51 C 170.96 145.33 173.84 145.08 175.91 146.85 C 176.67 149.34 173.61 149.39 171.93 149.59 C 169.63 149.77 167.35 149.12 165.83 147.33 C 163.07 148.78 160.09 149.77 156.96 150.01 Z" />
<path fill="#ffffff" opacity="1.00" d=" M 171.38 151.70 C 174.22 151.71 176.93 150.74 178.04 147.93 C 179.80 148.14 181.54 148.58 182.90 149.79 C 181.91 152.02 179.80 153.17 177.81 154.33 C 180.43 154.85 182.52 152.82 184.95 152.29 C 185.80 153.25 187.22 154.25 186.52 155.72 C 185.15 157.95 182.16 157.72 179.87 157.71 C 177.48 161.92 170.81 161.62 168.48 157.51 C 171.01 157.24 173.56 156.67 175.41 154.79 C 174.11 154.32 172.81 153.85 171.52 153.39 C 171.49 152.97 171.42 152.12 171.38 151.70 Z" />
<path fill="#ffffff" opacity="1.00" d=" M 160.59 152.72 C 162.09 152.20 163.60 151.67 165.09 151.10 C 166.30 152.40 167.61 153.66 168.34 155.32 C 165.56 156.13 161.72 155.87 160.59 152.72 Z" />
<path fill="#ffffff" opacity="1.00" d=" M 159.31 158.04 C 161.21 156.11 163.96 156.41 166.25 157.34 C 166.35 158.39 166.53 160.49 166.63 161.54 C 164.05 161.38 158.79 161.99 159.31 158.04 Z" />
<path fill="#ffffff" opacity="1.00" d=" M 185.48 157.68 C 188.82 156.38 192.80 157.42 195.05 160.21 C 195.76 161.00 195.84 162.35 195.14 163.17 C 193.52 163.99 191.75 163.56 190.07 163.29 C 188.06 164.77 185.68 164.92 183.36 164.18 C 183.01 167.39 180.31 170.38 176.88 169.95 C 175.16 170.01 174.37 168.36 173.44 167.23 C 174.22 163.82 176.99 161.15 180.64 161.44 C 180.59 160.92 180.50 159.88 180.45 159.35 C 182.66 159.11 184.62 159.94 186.48 161.02 C 186.14 159.91 185.80 158.79 185.48 157.68 Z" />
<path fill="#ffffff" opacity="1.00" d=" M 169.66 162.55 C 171.11 162.56 172.57 162.55 174.03 162.51 C 173.78 163.44 173.54 164.38 173.31 165.33 C 171.54 166.81 169.36 168.34 166.93 167.48 C 167.51 166.87 168.68 165.66 169.26 165.06 C 169.36 164.43 169.56 163.17 169.66 162.55 Z" />
<path fill="#ffffff" opacity="1.00" d=" M 52.39 165.82 C 59.23 165.34 66.09 165.07 72.96 165.20 C 72.47 173.00 69.33 181.05 62.86 185.78 C 61.90 186.67 60.58 186.83 59.36 187.11 C 56.06 180.37 53.87 173.16 52.39 165.82 Z" />
<path fill="#ffffff" opacity="1.00" d=" M 186.39 166.68 C 189.43 167.24 192.41 166.61 195.01 164.98 C 198.93 169.22 192.21 174.01 188.12 171.78 C 185.73 171.25 186.01 168.52 186.39 166.68 Z" />
<path fill="#ffffff" opacity="1.00" d=" M 30.84 168.50 C 33.73 168.06 36.63 167.60 39.51 167.08 C 41.08 174.35 43.34 181.47 46.79 188.08 C 38.76 184.51 33.01 176.92 30.84 168.50 Z" />
<path fill="#ffffff" opacity="1.00" d=" M 99.54 168.28 C 106.08 173.26 112.41 178.85 120.24 181.74 C 126.83 184.32 134.04 184.43 140.98 183.63 C 134.91 187.88 127.19 189.97 119.94 187.76 C 109.92 186.21 101.84 178.01 99.54 168.28 Z" />
<path fill="#ffffff" opacity="1.00" d=" M 157.20 169.22 C 159.53 169.25 161.84 169.51 164.17 169.35 C 165.41 170.58 166.89 172.77 165.17 174.27 C 162.40 176.25 159.08 174.84 156.56 173.19 C 156.49 171.87 155.86 170.14 157.20 169.22 Z" />
<path fill="#ffffff" opacity="1.00" d=" M 197.80 169.00 C 199.32 169.82 201.22 170.41 201.98 172.12 C 203.15 173.81 201.87 175.69 201.35 177.35 C 199.64 177.94 197.95 179.06 196.07 178.66 C 193.74 178.51 192.56 176.30 191.28 174.70 C 193.96 173.44 196.62 171.88 197.80 169.00 Z" />
<path fill="#ffffff" opacity="1.00" d=" M 169.29 175.54 C 167.83 174.13 167.67 170.81 170.02 170.31 C 173.42 169.18 176.54 171.98 177.61 175.01 C 176.51 178.98 171.28 178.38 169.29 175.54 Z" />
<path fill="#ffffff" opacity="1.00" d=" M 177.89 174.97 C 180.04 173.48 182.13 171.88 183.96 169.98 C 184.45 171.56 185.10 173.09 185.79 174.60 C 183.31 175.86 180.44 176.24 177.89 174.97 Z" />
<path fill="#ffffff" opacity="1.00" d=" M 188.31 173.77 C 190.32 175.00 192.49 177.46 191.23 179.94 C 188.69 184.63 180.75 183.65 178.70 178.98 C 181.01 178.74 183.65 179.20 185.64 177.74 C 187.02 176.82 187.52 175.14 188.31 173.77 Z" />
<path fill="#ffffff" opacity="1.00" d=" M 158.64 177.85 C 161.00 178.08 163.21 177.40 165.13 176.02 C 166.69 177.04 167.96 178.39 168.86 180.04 C 168.35 180.51 167.35 181.47 166.84 181.95 C 163.58 183.18 159.62 181.21 158.64 177.85 Z" />
<path fill="#ffffff" opacity="1.00" d=" M 95.60 179.02 C 96.95 182.54 98.52 186.45 102.44 187.75 C 101.11 190.77 103.68 192.77 104.54 195.34 C 102.68 196.68 100.85 194.62 99.66 193.33 C 96.58 189.32 95.03 184.05 95.60 179.02 Z" />
<path fill="#ffffff" opacity="1.00" d=" M 169.61 180.94 C 172.14 180.84 174.60 180.20 176.55 178.50 C 177.06 180.73 178.00 182.81 179.11 184.80 C 175.67 185.10 170.59 185.19 169.61 180.94 Z" />
<path fill="#ffffff" opacity="1.00" d=" M 165.45 183.77 C 165.85 183.51 166.65 182.98 167.05 182.72 C 169.13 183.10 169.39 185.94 171.42 186.47 C 173.30 187.03 175.26 187.19 177.18 187.55 C 178.68 185.05 181.39 184.14 184.10 183.61 C 186.71 184.68 190.09 185.77 190.62 189.00 C 191.92 194.58 184.72 198.41 180.19 195.81 C 178.00 194.93 177.03 192.70 176.29 190.63 C 171.79 193.71 163.57 189.55 165.45 183.77 Z" />
<path fill="#ffffff" opacity="1.00" d=" M 103.56 190.83 C 104.12 188.95 104.74 187.09 105.48 185.28 C 108.26 187.03 111.62 187.75 114.19 189.84 C 116.01 191.50 115.88 195.74 112.87 195.76 C 110.20 193.42 107.83 188.81 103.56 190.83 Z" />
<path fill="#ffffff" opacity="1.00" d=" M 85.95 186.77 C 86.50 188.57 86.94 190.40 87.42 192.23 C 82.71 197.86 74.92 199.92 67.82 199.46 C 70.67 197.67 74.03 196.78 76.59 194.46 C 78.12 192.89 80.23 193.16 82.11 193.83 C 83.82 191.73 85.05 189.32 85.95 186.77 Z" />
<path fill="#ffffff" opacity="1.00" d=" M 161.47 187.27 C 163.21 187.70 164.36 189.20 165.69 190.29 C 168.55 193.06 172.03 195.06 175.55 196.87 C 175.49 197.20 175.36 197.87 175.29 198.21 C 172.25 199.15 169.25 200.82 165.96 200.35 C 161.29 200.12 157.73 196.81 153.72 194.84 C 156.17 192.19 158.55 189.42 161.47 187.27 Z" />
<path fill="#ffffff" opacity="1.00" d=" M 117.45 190.19 C 119.55 191.44 120.72 194.39 122.04 196.53 C 121.24 196.58 119.63 196.68 118.82 196.73 C 117.17 194.94 116.29 192.52 117.45 190.19 Z" />
<path fill="#ffffff" opacity="1.00" d=" M 67.94 202.37 C 75.12 202.01 82.28 200.03 88.37 196.15 C 89.00 198.68 89.62 201.22 90.18 203.76 C 81.70 203.43 73.19 204.27 64.72 203.67 C 65.61 202.84 66.69 202.29 67.94 202.37 Z" />
<path fill="#ffffff" opacity="1.00" d=" M 94.82 196.20 C 98.41 198.49 103.00 199.03 106.76 196.78 C 109.16 195.18 110.97 198.34 112.97 199.24 C 114.29 198.98 115.57 198.53 116.85 198.10 C 119.45 199.70 122.44 199.39 124.97 197.82 C 127.53 198.35 130.17 199.47 132.82 198.85 C 138.08 196.93 143.89 198.66 149.03 196.12 C 152.57 197.36 155.96 199.02 159.17 200.96 C 162.14 203.08 166.15 201.59 169.17 203.55 C 164.77 204.16 160.34 203.66 155.94 203.72 C 136.15 203.76 116.37 203.66 96.59 203.77 C 95.89 201.27 95.30 198.74 94.82 196.20 Z" />
<path fill="#ffffff" opacity="1.00" d=" M 97.30 206.61 C 120.19 206.62 143.07 206.66 165.96 206.59 C 136.38 223.06 98.23 223.05 68.62 206.65 C 75.99 206.52 83.36 206.75 90.73 206.55 C 91.68 209.51 92.32 212.59 93.72 215.40 C 95.31 215.29 97.33 215.99 98.25 214.23 C 99.07 211.68 97.68 209.11 97.30 206.61 Z" />
</g>
<g id="#000000ff">
<path fill="#000000" opacity="1.00" d=" M 111.31 0.00 L 122.75 0.00 C 152.20 1.37 180.89 14.33 201.32 35.59 C 219.45 54.26 231.13 79.12 233.62 105.05 C 236.63 133.17 228.90 162.28 212.31 185.19 C 195.27 209.09 168.94 226.15 140.12 231.78 C 134.61 232.87 129.03 233.53 123.44 234.00 L 111.34 234.00 C 97.07 233.12 82.89 229.96 69.81 224.13 C 41.63 211.83 18.79 187.94 7.78 159.23 C 0.44 140.64 -1.51 120.17 1.08 100.41 C 4.62 74.82 17.07 50.63 35.70 32.75 C 55.84 13.14 83.24 1.36 111.31 0.00 M 106.98 5.93 C 82.85 8.06 59.56 18.34 41.73 34.74 C 22.36 52.38 9.48 77.04 6.39 103.08 C 3.23 127.67 8.60 153.27 21.47 174.46 C 36.32 199.24 61.13 217.83 89.15 224.92 C 115.36 231.73 144.02 228.60 168.08 216.14 C 192.85 203.48 212.53 181.23 221.96 155.06 C 229.75 133.67 230.75 109.89 224.81 87.91 C 217.37 59.72 198.18 34.96 172.93 20.45 C 153.15 8.91 129.76 3.88 106.98 5.93 Z" />
<path fill="#000000" opacity="1.00" d=" M 98.90 11.36 C 124.36 6.91 151.38 12.07 173.34 25.72 C 198.14 40.88 216.28 66.53 222.05 95.04 C 228.30 124.17 221.53 155.69 204.01 179.77 C 200.25 179.73 195.35 180.03 193.51 183.93 C 192.96 186.30 195.24 187.58 196.70 188.95 C 182.11 204.62 163.08 216.27 142.17 221.15 C 117.83 227.00 91.45 224.09 69.09 212.80 C 62.14 209.39 55.73 205.00 49.53 200.40 C 54.60 200.96 59.99 201.07 64.61 198.57 C 73.93 193.96 79.64 184.11 81.59 174.18 C 82.68 169.65 80.51 165.29 79.66 160.92 C 79.25 158.11 77.23 156.04 75.16 154.31 C 77.01 164.37 75.97 175.43 70.05 184.03 C 66.26 189.60 59.72 193.20 52.96 193.15 C 45.03 192.65 38.32 187.24 34.05 180.85 C 26.32 169.24 25.24 153.31 31.72 140.92 C 35.29 134.23 42.19 128.66 50.06 128.83 C 54.45 128.91 58.49 130.77 62.19 132.97 C 59.96 129.61 58.99 125.44 56.74 122.23 C 47.66 119.17 37.20 122.96 31.33 130.36 C 22.67 141.02 20.75 155.83 23.44 169.00 C 15.19 154.74 10.79 138.36 9.96 121.94 C 8.70 96.51 16.91 70.74 32.74 50.78 C 48.93 30.09 72.96 15.66 98.90 11.36 M 84.46 34.47 C 82.32 36.63 80.30 38.95 78.75 41.57 C 76.72 45.57 77.22 50.94 80.53 54.14 C 80.28 50.83 79.23 47.46 80.22 44.17 C 81.33 39.74 84.38 35.32 88.94 34.03 C 92.10 33.62 95.93 33.03 98.43 35.53 C 94.54 35.30 90.09 35.21 87.05 38.10 C 84.90 39.83 84.71 42.77 84.48 45.31 C 83.89 44.70 82.70 43.50 82.10 42.89 C 81.71 46.59 82.11 51.33 86.45 52.44 C 86.19 50.90 85.96 49.35 85.74 47.79 C 86.99 46.14 88.50 44.71 89.88 43.16 C 89.75 44.80 89.54 46.43 89.26 48.05 C 91.02 46.50 92.84 44.95 95.04 44.05 C 93.83 46.29 92.17 48.23 90.70 50.30 C 95.53 50.28 95.91 44.20 100.04 42.85 C 97.92 46.18 96.07 49.66 94.16 53.10 C 92.09 56.82 88.37 59.21 84.38 60.43 C 83.48 65.20 80.12 69.12 75.28 70.14 C 83.54 73.04 87.57 83.88 97.28 83.05 C 96.13 83.91 94.87 84.54 93.50 84.95 C 93.90 86.37 94.33 87.78 94.77 89.18 C 103.15 88.03 106.21 78.50 114.04 76.22 C 109.93 75.57 107.71 72.04 104.74 69.59 C 105.09 72.05 106.50 74.73 105.15 77.11 C 103.70 79.33 101.59 81.28 98.95 81.91 C 100.63 79.30 104.24 77.57 103.78 74.01 C 103.89 70.41 101.66 66.98 98.08 66.16 C 99.73 69.25 101.87 72.49 101.01 76.17 C 99.99 73.44 98.67 70.83 96.94 68.47 C 95.64 69.98 94.43 71.55 93.15 73.07 C 93.46 69.82 95.39 67.08 96.36 64.01 C 95.10 62.45 93.96 60.81 93.04 59.03 C 96.16 60.34 99.47 63.21 102.97 61.87 C 104.13 59.95 104.35 57.50 105.19 55.38 C 105.83 55.10 107.09 54.54 107.73 54.26 C 106.71 52.10 105.59 49.97 104.07 48.12 C 105.11 52.17 101.49 50.01 100.45 48.87 C 101.11 48.68 102.43 48.31 103.10 48.12 C 102.62 47.63 101.67 46.66 101.20 46.18 C 102.81 46.27 104.43 46.37 106.04 46.58 C 104.73 43.97 106.08 41.85 107.60 39.87 C 106.91 39.19 105.55 37.83 104.86 37.15 C 104.44 37.89 104.01 38.62 103.59 39.36 L 105.50 39.78 C 104.09 40.65 102.61 41.39 101.07 41.99 C 101.63 40.23 102.26 38.50 102.93 36.78 L 101.04 37.74 C 101.91 37.20 102.78 36.68 103.65 36.15 C 100.48 34.89 97.68 32.34 94.11 32.28 C 90.83 32.15 87.05 32.13 84.46 34.47 M 52.63 40.27 C 50.79 45.78 51.00 51.76 52.58 57.30 C 53.49 56.36 54.41 55.43 55.32 54.49 C 61.17 77.82 67.02 101.15 72.79 124.49 C 73.65 127.79 74.31 131.20 76.04 134.19 C 76.35 133.66 76.97 132.59 77.28 132.06 C 74.78 121.31 71.80 110.66 69.28 99.91 C 70.64 96.09 71.82 92.16 73.51 88.46 C 74.00 88.35 74.99 88.12 75.48 88.00 C 75.72 83.64 75.42 77.97 70.88 75.84 C 67.90 74.23 65.54 77.14 64.01 79.30 C 62.27 70.74 59.61 62.38 58.02 53.79 C 58.76 54.22 60.25 55.08 61.00 55.52 C 59.89 49.73 57.37 43.99 52.63 40.27 M 72.93 69.32 C 79.17 67.69 77.92 59.79 79.92 55.00 C 74.90 58.36 77.00 65.34 72.93 69.32 M 190.95 65.68 C 187.15 66.76 186.39 71.22 184.77 74.23 C 185.28 74.19 186.29 74.11 186.80 74.08 C 189.09 77.37 192.73 79.12 196.74 79.15 C 196.20 75.05 192.28 73.65 188.74 73.08 C 190.13 72.57 191.54 72.12 192.96 71.66 C 195.64 74.34 199.17 75.87 202.81 76.73 C 202.32 73.92 200.29 72.01 197.89 70.68 C 201.88 71.16 205.52 69.40 208.49 66.89 C 206.00 66.41 203.52 65.49 200.96 65.69 C 198.08 66.09 196.04 68.32 194.13 70.29 C 193.12 70.53 192.12 70.76 191.12 70.99 C 192.78 69.00 194.24 66.84 195.39 64.51 C 193.84 64.55 192.40 65.23 190.95 65.68 M 180.67 76.84 C 183.57 79.48 187.08 81.33 191.03 81.69 C 189.55 78.77 187.07 75.88 183.46 76.14 C 183.35 75.80 183.13 75.11 183.02 74.77 L 182.64 73.95 C 182.83 73.82 183.22 73.54 183.42 73.41 C 184.96 70.84 185.82 67.94 185.99 64.94 C 180.80 66.05 178.18 72.28 180.67 76.84 M 64.10 74.35 C 66.34 74.14 68.72 73.14 70.91 74.11 C 75.05 75.71 77.27 79.76 79.82 83.10 C 82.59 86.77 87.48 88.50 91.96 87.46 C 84.29 84.05 81.28 74.93 73.84 71.14 C 70.25 69.12 66.37 71.52 64.10 74.35 M 173.46 77.41 C 166.88 77.72 159.95 77.10 153.79 79.89 C 146.98 82.58 139.59 83.49 132.93 86.58 C 130.85 87.57 128.81 86.02 127.14 84.94 C 123.08 81.95 118.34 80.15 113.97 77.69 C 109.57 79.63 106.13 83.41 104.84 88.07 C 104.38 90.57 101.94 91.69 100.09 93.05 C 100.23 92.10 100.50 90.22 100.63 89.27 C 97.93 91.56 95.84 94.50 95.08 98.00 C 93.43 94.58 91.30 90.52 87.11 89.92 C 88.92 94.63 91.95 100.48 88.47 105.14 C 88.01 100.08 87.41 94.82 84.64 90.42 C 84.16 90.33 83.19 90.14 82.71 90.05 C 80.48 95.82 80.74 102.20 82.52 108.05 C 78.61 103.73 77.67 97.32 79.29 91.83 C 80.06 89.05 80.43 85.32 77.59 83.57 C 78.65 90.75 73.46 96.94 73.84 104.01 C 75.07 107.45 78.12 109.84 80.43 112.57 C 81.43 113.48 83.44 115.39 84.52 113.64 C 84.60 112.79 84.75 111.10 84.83 110.25 C 86.41 111.13 87.74 112.27 87.81 114.21 C 92.11 111.64 92.77 106.11 95.03 102.02 C 96.34 106.85 94.47 111.48 92.86 115.95 C 96.23 114.20 98.58 111.19 100.73 108.16 C 100.56 109.94 100.41 111.73 100.30 113.51 C 105.27 110.42 102.62 103.32 106.46 99.38 C 109.19 96.14 107.20 91.82 106.66 88.18 C 112.18 91.46 118.41 93.05 124.59 94.59 C 127.69 95.25 130.76 97.00 134.01 96.16 C 142.58 94.64 149.61 89.26 157.00 85.08 C 159.92 82.94 162.99 85.89 165.93 86.44 C 163.83 89.49 160.18 92.18 160.29 96.20 C 162.18 95.11 163.08 93.05 164.31 91.35 C 165.80 89.01 167.91 87.07 169.00 84.48 C 171.06 85.16 173.42 85.04 174.14 82.53 C 171.57 81.95 169.16 82.45 167.01 83.88 C 163.89 83.87 161.21 81.93 158.22 81.27 C 158.58 81.13 159.31 80.84 159.68 80.70 C 162.71 81.42 165.80 82.28 168.94 81.66 C 171.58 81.22 174.11 82.41 176.75 82.23 C 179.22 83.72 182.08 84.12 184.92 84.24 C 183.63 80.97 180.45 79.28 177.30 78.24 L 179.58 78.15 C 179.08 77.55 178.58 76.94 178.09 76.33 C 177.55 76.77 176.47 77.66 175.93 78.10 C 177.25 75.37 178.26 72.51 177.82 69.42 C 174.71 70.88 172.83 73.99 173.46 77.41 M 49.48 94.41 C 46.09 102.11 44.38 111.69 48.65 119.38 C 48.46 115.61 47.93 111.86 47.83 108.09 L 49.83 108.38 C 50.15 109.68 50.77 110.82 51.69 111.81 C 51.52 109.52 51.22 107.25 50.87 104.99 C 51.33 99.49 52.89 94.16 55.11 89.12 C 56.13 86.58 57.71 84.22 58.00 81.44 C 54.11 84.94 51.78 89.79 49.48 94.41 M 55.68 110.09 C 55.03 112.10 56.03 114.05 56.50 115.98 C 58.52 123.50 62.93 130.18 68.39 135.64 C 71.74 139.01 74.33 143.30 73.86 148.24 C 75.54 150.22 77.67 151.93 78.47 154.49 C 79.46 157.06 81.59 159.06 82.15 161.80 C 86.00 177.54 90.02 193.24 93.90 208.98 C 94.25 210.74 95.00 212.38 96.00 213.87 C 96.24 213.38 96.71 212.40 96.95 211.91 C 95.68 203.56 92.99 195.48 91.21 187.22 C 92.47 184.46 93.35 181.54 94.03 178.59 C 92.52 178.17 90.97 177.79 89.69 176.84 C 91.26 176.39 92.84 175.97 94.41 175.51 C 94.74 170.00 95.19 164.50 95.30 158.98 C 95.69 151.19 95.76 142.83 99.91 135.96 C 104.39 129.00 113.48 128.04 121.03 128.20 C 120.49 126.63 119.45 126.34 117.94 127.32 C 117.85 126.90 117.66 126.06 117.57 125.64 C 122.38 126.55 126.53 123.63 131.05 122.69 C 129.24 120.14 125.73 120.27 122.95 120.38 C 119.51 120.91 116.33 119.16 112.97 118.83 C 110.49 118.92 108.54 121.04 106.00 120.76 C 97.90 120.51 90.50 125.68 86.70 132.63 C 87.44 138.19 84.23 143.69 86.05 149.22 C 88.36 140.81 92.48 132.54 99.92 127.55 C 100.47 127.98 101.01 128.41 101.56 128.85 C 97.65 130.22 95.30 133.90 93.38 137.35 C 88.02 147.82 87.61 159.87 87.42 171.38 C 84.94 165.89 85.26 159.41 82.16 154.15 L 80.95 155.44 C 80.85 154.03 80.76 152.62 80.67 151.21 C 81.01 151.23 81.68 151.27 82.01 151.29 C 82.61 152.60 83.29 153.88 84.19 155.02 C 84.46 151.13 84.12 146.62 81.35 143.61 C 72.89 135.40 70.83 123.20 64.74 113.46 C 62.49 110.59 66.73 108.01 65.61 105.03 C 64.16 99.22 62.55 93.45 61.24 87.60 C 56.86 94.21 57.35 102.60 55.68 110.09 M 73.46 94.28 C 72.38 95.35 71.77 97.29 72.36 98.74 C 74.14 99.18 75.28 94.65 73.46 94.28 M 112.95 100.14 C 113.48 102.80 112.35 105.44 111.60 107.96 C 110.47 111.69 106.14 113.88 106.36 118.11 C 108.83 115.29 111.61 112.65 113.48 109.37 C 115.01 106.79 114.58 103.73 114.12 100.91 C 113.83 100.72 113.24 100.33 112.95 100.14 M 76.21 124.33 C 78.03 122.93 79.75 121.34 81.96 120.59 C 81.33 121.98 80.66 123.36 80.04 124.76 C 83.08 125.30 85.12 122.40 87.94 121.87 C 92.80 120.77 98.07 121.74 102.71 119.67 C 104.11 119.64 103.71 116.71 102.20 117.59 C 96.43 118.44 90.57 118.32 84.92 116.78 C 80.73 117.05 76.13 119.59 76.21 124.33 M 88.63 124.38 C 86.46 125.48 83.87 126.22 82.46 128.35 C 81.15 130.09 81.24 132.37 81.14 134.44 C 83.85 131.69 85.21 127.74 88.64 125.58 C 88.64 125.28 88.63 124.68 88.63 124.38 M 123.84 127.70 C 128.29 128.03 132.96 127.87 137.09 129.82 C 140.34 131.08 141.64 135.01 145.06 136.00 C 147.10 135.68 148.72 134.25 150.51 133.32 C 149.62 135.67 148.25 137.78 146.79 139.81 C 145.00 142.22 145.37 145.44 145.55 148.25 C 147.23 146.02 147.12 142.83 149.52 141.05 C 148.64 145.95 147.76 151.00 148.61 155.96 C 149.98 160.19 151.87 164.31 154.36 168.00 C 154.38 166.05 154.07 164.11 154.22 162.17 C 155.57 162.07 156.43 163.41 157.55 163.94 C 157.48 164.53 157.32 165.73 157.25 166.33 C 158.96 167.46 160.94 168.80 163.09 167.86 C 165.05 167.74 166.90 165.41 165.21 163.76 C 163.04 162.88 160.62 162.70 158.70 161.26 C 158.60 160.65 158.42 159.45 158.33 158.84 C 156.93 159.21 155.57 159.71 154.15 160.01 C 154.00 159.48 153.69 158.41 153.54 157.88 C 155.93 157.60 158.32 156.92 159.94 155.01 C 158.42 152.86 155.93 152.22 153.44 152.14 C 152.91 146.09 152.51 140.04 152.49 133.98 C 152.69 131.68 151.13 129.55 148.92 128.96 C 143.97 127.14 139.06 125.13 133.97 123.73 C 130.24 123.60 126.94 125.90 123.84 127.70 M 111.21 131.25 C 106.02 132.88 101.25 137.41 101.09 143.10 C 101.33 146.89 105.92 148.03 109.05 147.66 C 111.95 147.78 114.69 145.61 117.53 146.54 C 116.99 149.84 113.31 151.30 110.69 152.75 C 106.90 154.71 102.58 153.87 98.83 152.31 C 102.79 156.51 109.38 156.99 114.66 155.47 C 118.53 154.35 121.09 150.96 122.61 147.41 C 126.20 147.03 129.12 144.96 131.52 142.41 C 130.62 145.58 129.83 149.01 127.38 151.40 C 124.54 153.98 123.46 157.93 120.53 160.43 C 115.61 164.95 108.02 165.73 102.02 163.09 C 109.53 170.96 118.96 177.20 129.42 180.33 C 137.13 182.77 145.53 182.20 152.93 179.04 C 151.62 180.73 149.95 182.10 147.99 182.98 C 143.57 185.05 139.78 188.34 135.09 189.84 C 131.14 191.29 126.93 191.76 122.75 192.01 C 123.29 196.60 128.82 196.20 132.21 196.07 C 130.98 195.24 129.75 194.43 128.56 193.57 C 135.19 194.07 141.75 192.61 147.83 190.03 C 146.94 191.31 146.02 192.57 145.12 193.85 C 151.34 193.93 156.82 189.92 160.00 184.89 C 158.88 182.27 157.15 179.99 155.43 177.75 C 155.50 177.12 155.62 175.87 155.68 175.25 C 155.19 174.95 154.19 174.36 153.69 174.06 C 153.74 173.21 153.83 171.52 153.87 170.67 C 149.68 169.49 143.93 170.24 141.82 165.42 C 144.37 166.70 146.99 168.04 149.93 167.85 C 147.02 157.64 142.70 147.85 140.28 137.49 C 139.91 136.09 139.54 134.52 138.18 133.74 C 135.28 132.06 131.89 133.62 128.83 133.75 C 130.61 132.68 132.48 131.77 134.26 130.71 C 126.63 129.76 118.67 128.89 111.21 131.25 M 43.74 131.81 C 41.25 139.60 40.32 147.79 40.50 155.95 C 36.67 156.37 32.87 157.11 29.21 158.35 C 29.46 161.05 29.80 163.75 30.34 166.40 C 34.01 165.62 37.74 165.14 41.45 164.59 C 43.00 172.83 45.32 181.06 49.29 188.49 C 51.97 189.75 54.97 188.75 57.76 188.47 C 53.38 180.91 50.83 172.44 49.43 163.85 C 57.36 163.37 65.31 163.00 73.25 162.79 C 73.11 160.05 72.81 157.32 72.42 154.61 C 64.51 154.10 56.58 154.40 48.67 154.88 C 48.49 146.84 49.64 138.81 51.86 131.09 C 49.13 131.02 46.40 131.20 43.74 131.81 M 53.96 131.46 C 51.99 138.36 50.89 145.52 51.09 152.71 C 58.04 152.20 65.02 152.33 71.97 152.71 C 69.83 143.34 63.33 134.50 53.96 131.46 M 29.29 156.11 C 32.25 155.27 35.25 154.57 38.28 154.06 C 37.98 146.95 39.26 139.94 41.02 133.08 C 33.30 138.02 29.64 147.23 29.29 156.11 M 156.96 150.01 C 160.09 149.77 163.07 148.78 165.83 147.33 C 167.35 149.12 169.63 149.77 171.93 149.59 C 173.61 149.39 176.67 149.34 175.91 146.85 C 173.84 145.08 170.96 145.33 168.45 145.51 C 168.12 145.12 167.48 144.34 167.15 143.95 C 163.53 144.97 157.75 145.56 156.96 150.01 M 171.38 151.70 C 171.42 152.12 171.49 152.97 171.52 153.39 C 172.81 153.85 174.11 154.32 175.41 154.79 C 173.56 156.67 171.01 157.24 168.48 157.51 C 170.81 161.62 177.48 161.92 179.87 157.71 C 182.16 157.72 185.15 157.95 186.52 155.72 C 187.22 154.25 185.80 153.25 184.95 152.29 C 182.52 152.82 180.43 154.85 177.81 154.33 C 179.80 153.17 181.91 152.02 182.90 149.79 C 181.54 148.58 179.80 148.14 178.04 147.93 C 176.93 150.74 174.22 151.71 171.38 151.70 M 160.59 152.72 C 161.72 155.87 165.56 156.13 168.34 155.32 C 167.61 153.66 166.30 152.40 165.09 151.10 C 163.60 151.67 162.09 152.20 160.59 152.72 M 159.31 158.04 C 158.79 161.99 164.05 161.38 166.63 161.54 C 166.53 160.49 166.35 158.39 166.25 157.34 C 163.96 156.41 161.21 156.11 159.31 158.04 M 185.48 157.68 C 185.80 158.79 186.14 159.91 186.48 161.02 C 184.62 159.94 182.66 159.11 180.45 159.35 C 180.50 159.88 180.59 160.92 180.64 161.44 C 176.99 161.15 174.22 163.82 173.44 167.23 C 174.37 168.36 175.16 170.01 176.88 169.95 C 180.31 170.38 183.01 167.39 183.36 164.18 C 185.68 164.92 188.06 164.77 190.07 163.29 C 191.75 163.56 193.52 163.99 195.14 163.17 C 195.84 162.35 195.76 161.00 195.05 160.21 C 192.80 157.42 188.82 156.38 185.48 157.68 M 169.66 162.55 C 169.56 163.17 169.36 164.43 169.26 165.06 C 168.68 165.66 167.51 166.87 166.93 167.48 C 169.36 168.34 171.54 166.81 173.31 165.33 C 173.54 164.38 173.78 163.44 174.03 162.51 C 172.57 162.55 171.11 162.56 169.66 162.55 M 52.39 165.82 C 53.87 173.16 56.06 180.37 59.36 187.11 C 60.58 186.83 61.90 186.67 62.86 185.78 C 69.33 181.05 72.47 173.00 72.96 165.20 C 66.09 165.07 59.23 165.34 52.39 165.82 M 186.39 166.68 C 186.01 168.52 185.73 171.25 188.12 171.78 C 192.21 174.01 198.93 169.22 195.01 164.98 C 192.41 166.61 189.43 167.24 186.39 166.68 M 30.84 168.50 C 33.01 176.92 38.76 184.51 46.79 188.08 C 43.34 181.47 41.08 174.35 39.51 167.08 C 36.63 167.60 33.73 168.06 30.84 168.50 M 99.54 168.28 C 101.84 178.01 109.92 186.21 119.94 187.76 C 127.19 189.97 134.91 187.88 140.98 183.63 C 134.04 184.43 126.83 184.32 120.24 181.74 C 112.41 178.85 106.08 173.26 99.54 168.28 M 157.20 169.22 C 155.86 170.14 156.49 171.87 156.56 173.19 C 159.08 174.84 162.40 176.25 165.17 174.27 C 166.89 172.77 165.41 170.58 164.17 169.35 C 161.84 169.51 159.53 169.25 157.20 169.22 M 197.80 169.00 C 196.62 171.88 193.96 173.44 191.28 174.70 C 192.56 176.30 193.74 178.51 196.07 178.66 C 197.95 179.06 199.64 177.94 201.35 177.35 C 201.87 175.69 203.15 173.81 201.98 172.12 C 201.22 170.41 199.32 169.82 197.80 169.00 M 169.29 175.54 C 171.28 178.38 176.51 178.98 177.61 175.01 C 176.54 171.98 173.42 169.18 170.02 170.31 C 167.67 170.81 167.83 174.13 169.29 175.54 M 177.89 174.97 C 180.44 176.24 183.31 175.86 185.79 174.60 C 185.10 173.09 184.45 171.56 183.96 169.98 C 182.13 171.88 180.04 173.48 177.89 174.97 M 188.31 173.77 C 187.52 175.14 187.02 176.82 185.64 177.74 C 183.65 179.20 181.01 178.74 178.70 178.98 C 180.75 183.65 188.69 184.63 191.23 179.94 C 192.49 177.46 190.32 175.00 188.31 173.77 M 158.64 177.85 C 159.62 181.21 163.58 183.18 166.84 181.95 C 167.35 181.47 168.35 180.51 168.86 180.04 C 167.96 178.39 166.69 177.04 165.13 176.02 C 163.21 177.40 161.00 178.08 158.64 177.85 M 95.60 179.02 C 95.03 184.05 96.58 189.32 99.66 193.33 C 100.85 194.62 102.68 196.68 104.54 195.34 C 103.68 192.77 101.11 190.77 102.44 187.75 C 98.52 186.45 96.95 182.54 95.60 179.02 M 169.61 180.94 C 170.59 185.19 175.67 185.10 179.11 184.80 C 178.00 182.81 177.06 180.73 176.55 178.50 C 174.60 180.20 172.14 180.84 169.61 180.94 M 165.45 183.77 C 163.57 189.55 171.79 193.71 176.29 190.63 C 177.03 192.70 178.00 194.93 180.19 195.81 C 184.72 198.41 191.92 194.58 190.62 189.00 C 190.09 185.77 186.71 184.68 184.10 183.61 C 181.39 184.14 178.68 185.05 177.18 187.55 C 175.26 187.19 173.30 187.03 171.42 186.47 C 169.39 185.94 169.13 183.10 167.05 182.72 C 166.65 182.98 165.85 183.51 165.45 183.77 M 103.56 190.83 C 107.83 188.81 110.20 193.42 112.87 195.76 C 115.88 195.74 116.01 191.50 114.19 189.84 C 111.62 187.75 108.26 187.03 105.48 185.28 C 104.74 187.09 104.12 188.95 103.56 190.83 M 85.95 186.77 C 85.05 189.32 83.82 191.73 82.11 193.83 C 80.23 193.16 78.12 192.89 76.59 194.46 C 74.03 196.78 70.67 197.67 67.82 199.46 C 74.92 199.92 82.71 197.86 87.42 192.23 C 86.94 190.40 86.50 188.57 85.95 186.77 M 161.47 187.27 C 158.55 189.42 156.17 192.19 153.72 194.84 C 157.73 196.81 161.29 200.12 165.96 200.35 C 169.25 200.82 172.25 199.15 175.29 198.21 C 175.36 197.87 175.49 197.20 175.55 196.87 C 172.03 195.06 168.55 193.06 165.69 190.29 C 164.36 189.20 163.21 187.70 161.47 187.27 M 117.45 190.19 C 116.29 192.52 117.17 194.94 118.82 196.73 C 119.63 196.68 121.24 196.58 122.04 196.53 C 120.72 194.39 119.55 191.44 117.45 190.19 M 67.94 202.37 C 66.69 202.29 65.61 202.84 64.72 203.67 C 73.19 204.27 81.70 203.43 90.18 203.76 C 89.62 201.22 89.00 198.68 88.37 196.15 C 82.28 200.03 75.12 202.01 67.94 202.37 M 94.82 196.20 C 95.30 198.74 95.89 201.27 96.59 203.77 C 116.37 203.66 136.15 203.76 155.94 203.72 C 160.34 203.66 164.77 204.16 169.17 203.55 C 166.15 201.59 162.14 203.08 159.17 200.96 C 155.96 199.02 152.57 197.36 149.03 196.12 C 143.89 198.66 138.08 196.93 132.82 198.85 C 130.17 199.47 127.53 198.35 124.97 197.82 C 122.44 199.39 119.45 199.70 116.85 198.10 C 115.57 198.53 114.29 198.98 112.97 199.24 C 110.97 198.34 109.16 195.18 106.76 196.78 C 103.00 199.03 98.41 198.49 94.82 196.20 M 97.30 206.61 C 97.68 209.11 99.07 211.68 98.25 214.23 C 97.33 215.99 95.31 215.29 93.72 215.40 C 92.32 212.59 91.68 209.51 90.73 206.55 C 83.36 206.75 75.99 206.52 68.62 206.65 C 98.23 223.05 136.38 223.06 165.96 206.59 C 143.07 206.66 120.19 206.62 97.30 206.61 Z" />
<path fill="#000000" opacity="1.00" d=" M 171.37 79.79 C 172.20 77.47 177.50 79.61 175.25 81.37 C 173.95 80.90 172.57 80.45 171.37 79.79 Z" />
<path fill="#000000" opacity="1.00" d=" M 384.53 86.68 C 386.92 86.72 389.31 86.72 391.71 86.65 C 400.39 107.46 408.28 128.62 416.75 149.52 C 413.13 149.47 409.51 149.48 405.89 149.47 C 403.80 144.16 402.17 138.64 399.65 133.52 C 392.03 133.41 384.41 133.54 376.79 133.48 C 374.74 138.82 372.87 144.23 370.72 149.53 C 367.26 149.46 363.81 149.46 360.36 149.53 C 368.54 128.63 376.34 107.58 384.53 86.68 M 379.92 125.30 C 385.52 125.23 391.13 125.23 396.74 125.31 C 393.81 117.25 391.11 109.10 388.18 101.04 C 386.04 109.33 382.37 117.12 379.92 125.30 Z" />
<path fill="#000000" opacity="1.00" d=" M 912.07 88.89 C 922.22 85.02 933.67 86.02 943.75 89.64 C 943.73 92.79 943.73 95.95 943.73 99.11 C 935.58 95.04 925.82 93.54 917.06 96.49 C 911.60 98.34 907.04 102.59 904.88 107.95 C 902.05 115.14 902.19 123.54 905.45 130.57 C 908.42 136.88 914.96 141.16 921.88 141.69 C 926.74 142.00 931.92 141.96 936.33 139.61 C 936.16 132.84 936.28 126.08 936.25 119.32 C 939.60 119.36 942.96 119.35 946.32 119.39 C 946.23 128.08 946.25 136.78 946.31 145.47 C 936.78 150.05 925.65 151.69 915.27 149.42 C 906.62 147.57 898.84 141.71 895.17 133.59 C 891.38 125.16 891.25 115.18 894.45 106.54 C 897.40 98.46 904.03 91.91 912.07 88.89 Z" />
<path fill="#000000" opacity="1.00" d=" M 306.55 87.17 C 312.71 87.09 318.88 87.13 325.05 87.13 C 330.97 87.10 337.32 89.36 340.68 94.48 C 345.47 101.51 343.07 112.34 335.27 116.11 C 338.03 116.93 340.84 118.02 342.82 120.22 C 349.16 126.55 348.37 137.96 341.90 143.90 C 337.64 147.90 331.63 149.44 325.92 149.47 C 319.47 149.52 313.03 149.43 306.59 149.51 C 306.59 128.73 306.68 107.95 306.55 87.17 M 316.60 95.28 C 316.64 101.36 316.63 107.43 316.61 113.51 C 320.94 113.27 325.76 114.30 329.57 111.67 C 334.29 108.51 334.42 100.53 329.74 97.27 C 325.91 94.60 320.98 95.51 316.60 95.28 M 316.57 140.86 C 321.67 141.26 327.09 141.75 331.96 139.83 C 338.40 137.14 338.61 126.59 332.46 123.44 C 327.66 120.92 322.00 121.93 316.80 121.85 C 316.34 128.17 316.82 134.53 316.57 140.86 Z" />
<path fill="#000000" opacity="1.00" d=" M 433.27 87.10 C 436.63 87.40 440.34 86.54 443.48 87.55 C 450.00 95.73 456.30 104.11 462.75 112.37 C 468.02 119.29 473.60 125.99 478.32 133.30 C 477.93 117.90 478.23 102.50 478.14 87.09 C 481.48 87.13 484.82 87.11 488.17 87.16 C 487.96 107.94 488.50 128.75 487.90 149.52 C 484.48 148.86 479.63 151.18 477.59 147.41 C 466.17 132.46 454.52 117.67 443.21 102.63 C 443.52 118.26 443.31 133.88 443.38 149.51 C 440.03 149.46 436.68 149.45 433.34 149.56 C 433.17 128.75 433.30 107.92 433.27 87.10 Z" />
<path fill="#000000" opacity="1.00" d=" M 511.47 87.16 C 514.83 87.11 518.19 87.12 521.56 87.12 C 521.53 96.22 521.54 105.32 521.54 114.42 C 528.92 105.27 536.30 96.12 543.80 87.06 C 547.70 87.17 551.60 87.08 555.50 87.17 C 546.99 97.29 538.45 107.39 530.20 117.72 C 539.34 128.17 548.10 138.95 557.08 149.53 C 552.96 149.48 548.84 149.45 544.73 149.50 C 537.01 140.23 529.31 130.94 521.54 121.71 C 521.54 130.98 521.56 140.25 521.54 149.52 C 518.19 149.46 514.85 149.47 511.51 149.52 C 511.50 128.74 511.58 107.95 511.47 87.16 Z" />
<path fill="#000000" opacity="1.00" d=" M 615.45 87.71 C 625.13 85.04 636.25 86.45 644.30 92.70 C 661.10 105.55 659.92 135.75 641.20 146.29 C 632.71 151.12 622.07 151.67 612.95 148.36 C 605.50 145.67 599.37 139.72 596.37 132.41 C 592.62 123.14 592.76 112.29 597.00 103.21 C 600.52 95.68 607.46 89.93 615.45 87.71 M 616.49 96.64 C 606.79 100.74 603.43 112.41 604.60 122.10 C 605.23 129.74 609.50 137.62 616.96 140.43 C 624.08 143.13 632.97 142.16 638.63 136.79 C 643.67 132.00 645.59 124.75 645.41 117.98 C 645.40 111.34 643.32 104.31 638.27 99.76 C 632.45 94.56 623.55 93.64 616.49 96.64 Z" />
<path fill="#000000" opacity="1.00" d=" M 676.66 87.12 C 688.74 87.20 700.82 87.01 712.90 87.22 C 711.89 89.90 710.94 92.60 710.07 95.32 C 702.25 95.35 694.43 95.29 686.62 95.35 C 686.73 101.37 686.67 107.39 686.66 113.41 C 694.34 113.32 702.01 113.46 709.69 113.32 C 709.72 116.11 709.71 118.90 709.65 121.69 C 701.99 121.51 694.32 121.68 686.66 121.59 C 686.68 130.90 686.69 140.21 686.66 149.53 C 683.32 149.47 679.99 149.46 676.66 149.52 C 676.65 128.72 676.66 107.92 676.66 87.12 Z" />
<path fill="#000000" opacity="1.00" d=" M 757.71 87.12 C 770.33 87.12 782.95 87.16 795.58 87.10 C 794.64 89.89 793.75 92.70 792.59 95.40 C 784.32 95.27 776.04 95.29 767.78 95.38 C 767.87 101.38 767.81 107.39 767.82 113.39 C 776.10 113.35 784.38 113.44 792.66 113.33 C 792.65 116.10 792.65 118.87 792.66 121.64 C 784.49 121.54 776.31 121.70 768.14 121.54 C 767.48 128.09 767.98 134.69 767.82 141.26 C 777.15 141.22 786.47 141.30 795.80 141.21 C 795.81 143.97 795.80 146.74 795.81 149.51 C 783.11 149.46 770.40 149.47 757.70 149.50 C 757.74 128.71 757.73 107.92 757.71 87.12 Z" />
<path fill="#000000" opacity="1.00" d=" M 816.76 87.14 C 820.12 87.12 823.49 87.11 826.86 87.14 C 838.33 102.52 850.74 117.21 861.67 132.98 C 861.61 117.70 861.67 102.42 861.61 87.14 C 864.96 87.12 868.31 87.12 871.67 87.11 C 871.63 107.92 871.71 128.73 871.63 149.53 C 868.68 149.48 865.73 149.47 862.79 149.50 C 850.78 133.69 838.28 118.23 826.60 102.17 C 827.03 117.94 826.71 133.74 826.78 149.52 C 823.43 149.47 820.09 149.48 816.75 149.47 C 816.81 128.69 816.78 107.92 816.76 87.14 Z" />
<path fill="#000000" opacity="1.00" d=" M 968.84 87.16 C 972.26 87.11 975.69 87.10 979.13 87.15 C 979.10 105.19 978.53 123.26 979.18 141.30 C 986.62 141.19 994.07 141.29 1001.52 141.23 C 1001.49 143.99 1001.49 146.76 1001.49 149.53 C 990.61 149.41 979.73 149.52 968.85 149.47 C 968.87 128.70 968.88 107.93 968.84 87.16 Z" />
<path fill="#000000" opacity="1.00" d=" M 1036.13 86.75 C 1038.58 86.72 1041.04 86.71 1043.51 86.65 C 1052.12 107.50 1060.02 128.63 1068.54 149.51 C 1064.93 149.47 1061.33 149.45 1057.74 149.53 C 1055.60 144.18 1053.73 138.73 1051.52 133.41 C 1043.88 133.54 1036.24 133.53 1028.60 133.42 C 1026.49 138.77 1024.60 144.21 1022.47 149.55 C 1019.02 149.44 1015.57 149.47 1012.14 149.52 C 1020.18 128.61 1028.23 107.71 1036.13 86.75 M 1040.00 101.03 C 1037.61 109.28 1034.39 117.25 1031.45 125.30 C 1037.14 125.23 1042.83 125.23 1048.53 125.30 C 1045.54 117.26 1042.84 109.12 1040.00 101.03 Z" />
<path fill="#000000" opacity="1.00" d=" M 1085.14 87.09 C 1088.42 87.13 1091.72 87.13 1095.02 87.12 C 1102.51 96.93 1110.11 106.64 1117.63 116.42 C 1121.78 121.84 1126.17 127.10 1129.72 132.96 C 1129.87 117.69 1129.67 102.41 1129.73 87.13 C 1133.09 87.13 1136.45 87.13 1139.82 87.09 C 1139.82 107.90 1139.87 128.71 1139.80 149.52 C 1136.83 149.48 1133.86 149.48 1130.90 149.46 C 1120.74 136.12 1110.41 122.91 1100.21 109.61 C 1098.38 107.31 1097.01 104.62 1094.73 102.72 C 1095.51 111.10 1095.00 119.54 1095.15 127.95 C 1095.00 135.14 1095.45 142.36 1094.87 149.54 C 1091.63 149.46 1088.40 149.46 1085.17 149.53 C 1085.08 128.72 1085.16 107.90 1085.14 87.09 Z" />
<path fill="#000000" opacity="1.00" d=" M 1163.27 87.10 C 1175.68 87.72 1189.08 85.05 1200.50 91.30 C 1209.01 95.58 1214.00 104.67 1215.00 113.92 L 1215.00 120.79 C 1214.34 131.11 1208.36 141.14 1198.85 145.57 C 1187.83 151.20 1175.19 148.98 1163.33 149.56 C 1163.17 128.74 1163.30 107.92 1163.27 87.10 M 1173.30 95.26 C 1173.28 110.60 1173.21 125.95 1173.33 141.30 C 1180.06 141.23 1187.20 141.75 1193.37 138.52 C 1199.02 135.81 1202.69 130.06 1203.75 123.99 C 1205.60 115.19 1203.52 104.49 1195.56 99.27 C 1189.05 94.70 1180.83 95.31 1173.30 95.26 Z" />
<path fill="#000000" opacity="1.00" d=" M 109.27 122.38 C 112.66 122.22 116.07 122.19 119.45 122.40 C 116.96 123.46 114.30 123.93 111.70 124.61 L 115.10 125.11 C 111.93 127.13 108.03 125.60 104.63 126.96 C 104.91 126.59 105.47 125.85 105.75 125.48 C 104.34 126.01 102.22 127.67 101.49 125.36 C 98.93 125.95 96.46 126.83 93.95 127.59 C 97.40 123.49 103.28 122.99 108.27 123.31 C 108.52 123.08 109.02 122.62 109.27 122.38 Z" />
</g>
</svg>
