<?xml version="1.0" encoding="UTF-8" ?>
<!DOCTYPE svg PUBLIC "-//W3C//DTD SVG 1.1//EN" "http://www.w3.org/Graphics/SVG/1.1/DTD/svg11.dtd">
<svg width="200pt" height="200pt" viewBox="0 0 200 200" version="1.1" xmlns="http://www.w3.org/2000/svg">
<g id="#fcfefcff">
<path fill="#fcfefc" opacity="1.00" d=" M 0.00 0.00 L 200.00 0.00 L 200.00 200.00 L 0.00 200.00 L 0.00 0.00 M 77.50 28.40 C 70.31 34.70 64.24 43.20 63.35 52.95 C 53.17 57.04 43.57 64.87 41.00 76.00 C 38.54 85.34 43.25 95.67 51.46 100.54 C 68.21 110.37 91.76 105.83 104.02 90.87 C 117.94 91.17 131.99 86.54 142.84 77.78 C 149.24 72.61 154.36 65.76 156.99 57.92 C 159.73 49.37 158.88 39.54 153.87 31.98 C 148.11 22.62 137.56 17.35 127.04 15.35 C 109.71 12.30 90.91 16.84 77.50 28.40 M 32.08 135.62 C 32.16 143.19 32.15 150.76 32.09 158.33 C 37.45 158.53 43.96 159.34 48.03 155.01 C 50.52 151.97 48.80 147.51 45.78 145.54 C 46.88 143.26 48.03 140.18 45.95 138.09 C 42.36 134.33 36.71 135.68 32.08 135.62 M 64.41 138.58 C 64.23 143.22 64.24 147.87 64.40 152.51 C 62.22 153.86 59.80 155.55 57.09 154.71 C 54.66 149.88 56.21 144.19 55.78 139.00 C 54.46 139.41 51.52 138.57 51.85 140.86 C 51.98 145.94 51.07 151.29 52.77 156.18 C 54.93 160.13 60.07 158.35 63.47 157.41 C 65.11 157.67 66.70 158.17 68.33 158.52 C 68.27 152.24 68.57 145.96 68.24 139.69 C 67.56 138.22 65.67 138.93 64.41 138.58 M 72.23 143.02 C 71.27 146.81 75.35 148.74 78.02 150.28 C 79.21 151.15 81.76 151.83 80.96 153.80 C 78.41 156.10 74.64 154.31 71.64 154.08 C 71.62 155.38 71.60 156.69 71.58 158.00 C 75.03 158.32 78.61 158.95 82.00 157.87 C 84.55 157.03 86.54 154.07 85.43 151.41 C 84.04 147.40 78.88 147.16 76.54 143.94 C 77.83 140.74 82.42 143.10 85.03 142.47 C 84.92 141.70 84.68 140.18 84.56 139.41 C 80.58 137.71 73.70 138.11 72.23 143.02 M 89.35 139.33 C 89.38 145.57 89.48 151.81 89.27 158.06 C 90.68 158.15 92.09 158.24 93.50 158.33 C 93.63 152.01 93.53 145.69 93.58 139.37 C 92.17 139.35 90.76 139.34 89.35 139.33 M 98.35 138.89 C 98.43 145.27 98.45 151.65 98.33 158.03 C 99.73 158.14 101.13 158.25 102.53 158.36 C 102.61 153.79 102.63 149.21 102.53 144.63 C 104.84 143.03 107.50 142.22 110.32 142.46 C 110.85 147.69 110.66 152.95 110.59 158.19 C 112.04 158.19 113.48 158.18 114.93 158.17 C 114.77 153.41 115.03 148.65 114.79 143.89 C 114.78 142.19 114.11 140.42 112.60 139.51 C 109.76 137.57 106.38 139.34 103.35 139.77 C 101.72 139.24 100.01 139.23 98.35 138.89 M 119.61 142.50 C 116.31 147.40 118.46 154.78 123.74 157.31 C 126.82 158.88 130.38 158.42 133.67 157.95 C 133.71 156.70 133.75 155.45 133.79 154.20 C 131.22 154.21 128.58 154.57 126.06 153.88 C 124.11 153.11 123.20 151.09 122.11 149.45 C 126.36 149.34 130.62 149.41 134.87 149.39 C 134.60 146.39 134.57 142.93 132.17 140.73 C 128.64 137.17 122.04 138.14 119.61 142.50 M 140.58 139.73 C 137.92 140.88 137.77 144.17 138.57 146.56 C 140.56 149.00 143.78 149.92 146.16 151.91 C 147.12 152.39 146.76 154.47 145.65 154.60 C 142.99 155.40 140.21 154.44 137.55 154.07 C 137.52 155.39 137.49 156.72 137.46 158.05 C 141.29 158.37 145.55 159.20 149.07 157.14 C 151.91 155.64 152.08 151.31 149.71 149.30 C 147.23 147.25 144.24 145.91 141.73 143.88 C 144.17 141.55 147.62 142.56 150.63 142.50 C 150.53 141.79 150.32 140.37 150.21 139.67 C 147.56 137.64 143.48 138.55 140.58 139.73 M 154.26 143.98 C 154.81 149.13 161.01 149.83 164.13 153.01 C 161.43 155.94 157.36 154.65 153.97 154.18 C 153.98 155.14 154.00 157.08 154.01 158.04 C 158.09 158.37 163.05 159.45 166.41 156.42 C 169.00 154.04 167.96 149.57 164.85 148.19 C 162.83 146.49 158.83 146.11 158.95 142.86 C 161.54 141.85 164.44 142.59 167.15 142.47 C 167.02 141.67 166.76 140.07 166.63 139.27 C 162.38 137.72 154.84 138.29 154.26 143.98 M 68.20 163.90 C 68.25 171.17 68.21 178.43 68.24 185.70 C 73.04 185.70 77.84 185.74 82.64 185.58 C 82.56 184.57 82.40 182.54 82.32 181.53 C 79.08 181.55 75.84 181.53 72.60 181.47 C 72.63 175.63 72.55 169.79 72.70 163.95 C 71.20 163.94 69.70 163.89 68.20 163.90 M 86.33 166.88 C 86.51 173.17 86.40 179.46 86.43 185.75 C 87.83 185.71 89.23 185.66 90.64 185.62 C 90.61 179.37 90.56 173.12 90.68 166.88 C 89.23 166.86 87.78 166.86 86.33 166.88 M 95.58 185.70 C 96.95 185.70 98.31 185.71 99.68 185.72 C 99.67 181.34 99.70 176.96 99.57 172.58 C 101.86 170.83 104.63 170.05 107.50 170.33 C 108.45 175.39 108.19 180.55 108.13 185.67 C 109.47 185.71 110.82 185.76 112.17 185.81 C 112.17 181.20 112.39 176.58 112.15 171.96 C 112.00 170.18 111.57 168.04 109.80 167.17 C 106.62 165.58 103.03 166.84 100.03 168.23 C 99.32 166.39 97.17 166.94 95.65 166.55 C 95.50 172.93 95.60 179.31 95.58 185.70 M 116.99 166.81 C 117.03 173.12 116.95 179.42 117.03 185.73 C 118.39 185.74 119.76 185.75 121.13 185.76 C 121.14 183.20 121.15 180.65 121.18 178.10 C 123.32 180.23 125.35 182.47 127.59 184.52 C 129.24 186.45 132.02 185.45 134.22 185.67 C 131.17 182.13 127.75 178.94 124.41 175.70 C 126.99 172.72 129.70 169.85 132.30 166.88 C 130.58 166.98 128.70 166.41 127.08 167.13 C 124.89 168.97 123.13 171.27 121.17 173.35 C 121.15 171.16 121.16 168.98 121.17 166.79 C 119.78 166.79 118.38 166.80 116.99 166.81 Z" />
<path fill="#fcfefc" opacity="1.00" d=" M 95.15 32.38 C 107.08 27.70 120.97 26.94 132.82 32.30 C 138.74 34.96 144.14 39.75 145.76 46.25 C 147.59 52.92 144.03 59.77 139.40 64.41 C 131.54 71.85 120.77 75.54 110.13 76.43 C 110.51 69.42 107.74 62.20 102.20 57.76 C 95.10 51.32 85.13 50.08 75.95 49.72 C 79.63 41.57 86.95 35.63 95.15 32.38 Z" />
<path fill="#fcfefc" opacity="1.00" d=" M 75.73 60.48 C 82.55 60.39 89.81 61.35 95.40 65.58 C 98.89 67.99 100.99 71.99 101.02 76.23 C 90.92 74.88 80.14 70.34 75.73 60.48 Z" />
<path fill="#fcfefc" opacity="1.00" d=" M 50.13 76.10 C 52.17 69.86 57.97 65.99 63.56 63.19 C 66.18 77.19 79.27 86.69 92.58 89.50 C 85.84 93.60 77.91 95.90 70.00 95.32 C 64.00 94.79 57.74 93.05 53.40 88.65 C 50.07 85.52 48.39 80.47 50.13 76.10 Z" />
<path fill="#fcfefc" opacity="1.00" d=" M 36.12 138.55 C 38.54 138.65 41.62 138.53 42.99 140.97 C 42.91 142.19 42.14 143.20 41.64 144.28 C 39.83 144.44 38.03 144.61 36.22 144.79 C 36.18 142.71 36.15 140.63 36.12 138.55 Z" />
<path fill="#fcfefc" opacity="1.00" d=" M 124.45 142.52 C 126.04 142.21 127.69 142.34 129.31 142.33 C 129.73 143.15 130.58 144.78 131.01 145.59 C 128.11 145.70 125.22 145.76 122.34 146.10 C 122.83 144.81 123.43 143.47 124.45 142.52 Z" />
<path fill="#fcfefc" opacity="1.00" d=" M 36.37 147.56 C 39.55 147.84 44.96 147.59 45.01 152.04 C 43.23 155.14 39.16 154.71 36.11 155.06 C 36.17 152.56 36.24 150.06 36.37 147.56 Z" />
</g>
<g id="#448ec4ff">
<path fill="#448ec4" opacity="1.00" d=" M 77.50 28.40 C 90.91 16.84 109.71 12.30 127.04 15.35 C 137.56 17.35 148.11 22.62 153.87 31.98 C 158.88 39.54 159.73 49.37 156.99 57.92 C 154.36 65.76 149.24 72.61 142.84 77.78 C 131.99 86.54 117.94 91.17 104.02 90.87 C 107.34 86.71 109.21 81.62 110.13 76.43 C 120.77 75.54 131.54 71.85 139.40 64.41 C 144.03 59.77 147.59 52.92 145.76 46.25 C 144.14 39.75 138.74 34.96 132.82 32.30 C 120.97 26.94 107.08 27.70 95.15 32.38 C 86.95 35.63 79.63 41.57 75.95 49.72 C 74.61 53.18 74.67 56.96 75.73 60.48 C 80.14 70.34 90.92 74.88 101.02 76.23 C 100.81 81.85 96.94 86.38 92.58 89.50 C 79.27 86.69 66.18 77.19 63.56 63.19 C 63.31 59.78 63.30 56.36 63.35 52.95 C 64.24 43.20 70.31 34.70 77.50 28.40 Z" />
<path fill="#448ec4" opacity="1.00" d=" M 32.08 135.62 C 36.71 135.68 42.36 134.33 45.95 138.09 C 48.03 140.18 46.88 143.26 45.78 145.54 C 48.80 147.51 50.52 151.97 48.03 155.01 C 43.96 159.34 37.45 158.53 32.09 158.33 C 32.15 150.76 32.16 143.19 32.08 135.62 M 36.12 138.55 C 36.15 140.63 36.18 142.71 36.22 144.79 C 38.03 144.61 39.83 144.44 41.64 144.28 C 42.14 143.20 42.91 142.19 42.99 140.97 C 41.62 138.53 38.54 138.65 36.12 138.55 M 36.37 147.56 C 36.24 150.06 36.17 152.56 36.11 155.06 C 39.16 154.71 43.23 155.14 45.01 152.04 C 44.96 147.59 39.55 147.84 36.37 147.56 Z" />
<path fill="#448ec4" opacity="1.00" d=" M 64.41 138.58 C 65.67 138.93 67.56 138.22 68.24 139.69 C 68.57 145.96 68.27 152.24 68.33 158.52 C 66.70 158.17 65.11 157.67 63.47 157.41 C 60.07 158.35 54.93 160.13 52.77 156.18 C 51.07 151.29 51.98 145.94 51.85 140.86 C 51.52 138.57 54.46 139.41 55.78 139.00 C 56.21 144.19 54.66 149.88 57.09 154.71 C 59.80 155.55 62.22 153.86 64.40 152.51 C 64.24 147.87 64.23 143.22 64.41 138.58 Z" />
<path fill="#448ec4" opacity="1.00" d=" M 72.23 143.02 C 73.70 138.11 80.58 137.71 84.56 139.41 C 84.68 140.18 84.92 141.70 85.03 142.47 C 82.42 143.10 77.83 140.74 76.54 143.94 C 78.88 147.16 84.04 147.40 85.43 151.41 C 86.54 154.07 84.55 157.03 82.00 157.87 C 78.61 158.95 75.03 158.32 71.58 158.00 C 71.60 156.69 71.62 155.38 71.64 154.08 C 74.64 154.31 78.41 156.10 80.96 153.80 C 81.76 151.83 79.21 151.15 78.02 150.28 C 75.35 148.74 71.27 146.81 72.23 143.02 Z" />
<path fill="#448ec4" opacity="1.00" d=" M 89.35 139.33 C 90.76 139.34 92.17 139.35 93.58 139.37 C 93.53 145.69 93.63 152.01 93.50 158.33 C 92.09 158.24 90.68 158.15 89.27 158.06 C 89.48 151.81 89.38 145.57 89.35 139.33 Z" />
<path fill="#448ec4" opacity="1.00" d=" M 98.35 138.89 C 100.01 139.23 101.72 139.24 103.35 139.77 C 106.38 139.34 109.76 137.57 112.60 139.51 C 114.11 140.42 114.78 142.19 114.79 143.89 C 115.03 148.65 114.77 153.41 114.93 158.17 C 113.48 158.18 112.04 158.19 110.59 158.19 C 110.66 152.95 110.85 147.69 110.32 142.46 C 107.50 142.22 104.84 143.03 102.53 144.63 C 102.63 149.21 102.61 153.79 102.53 158.36 C 101.13 158.25 99.73 158.14 98.33 158.03 C 98.45 151.65 98.43 145.27 98.35 138.89 Z" />
<path fill="#448ec4" opacity="1.00" d=" M 119.61 142.50 C 122.04 138.14 128.64 137.17 132.17 140.73 C 134.57 142.93 134.60 146.39 134.87 149.39 C 130.62 149.41 126.36 149.34 122.11 149.45 C 123.20 151.09 124.11 153.11 126.06 153.88 C 128.58 154.57 131.22 154.21 133.79 154.20 C 133.75 155.45 133.71 156.70 133.67 157.95 C 130.38 158.42 126.82 158.88 123.74 157.31 C 118.46 154.78 116.31 147.40 119.61 142.50 M 124.45 142.52 C 123.43 143.47 122.83 144.81 122.34 146.10 C 125.22 145.76 128.11 145.70 131.01 145.59 C 130.58 144.78 129.73 143.15 129.31 142.33 C 127.69 142.34 126.04 142.21 124.45 142.52 Z" />
<path fill="#448ec4" opacity="1.00" d=" M 140.58 139.73 C 143.48 138.55 147.56 137.64 150.21 139.67 C 150.32 140.37 150.53 141.79 150.63 142.50 C 147.62 142.56 144.17 141.55 141.73 143.88 C 144.24 145.91 147.23 147.25 149.71 149.30 C 152.08 151.31 151.91 155.64 149.07 157.14 C 145.55 159.20 141.29 158.37 137.46 158.05 C 137.49 156.72 137.52 155.39 137.55 154.07 C 140.21 154.44 142.99 155.40 145.65 154.60 C 146.76 154.47 147.12 152.39 146.16 151.91 C 143.78 149.92 140.56 149.00 138.57 146.56 C 137.77 144.17 137.92 140.88 140.58 139.73 Z" />
<path fill="#448ec4" opacity="1.00" d=" M 154.26 143.98 C 154.84 138.29 162.38 137.72 166.63 139.27 C 166.76 140.07 167.02 141.67 167.15 142.47 C 164.44 142.59 161.54 141.85 158.95 142.86 C 158.83 146.11 162.83 146.49 164.85 148.19 C 167.96 149.57 169.00 154.04 166.41 156.42 C 163.05 159.45 158.09 158.37 154.01 158.04 C 154.00 157.08 153.98 155.14 153.97 154.18 C 157.36 154.65 161.43 155.94 164.13 153.01 C 161.01 149.83 154.81 149.13 154.26 143.98 Z" />
<path fill="#448ec4" opacity="1.00" d=" M 68.20 163.90 C 69.70 163.89 71.20 163.94 72.70 163.95 C 72.55 169.79 72.63 175.63 72.60 181.47 C 75.84 181.53 79.08 181.55 82.32 181.53 C 82.40 182.54 82.56 184.57 82.64 185.58 C 77.84 185.74 73.04 185.70 68.24 185.70 C 68.21 178.43 68.25 171.17 68.20 163.90 Z" />
<path fill="#448ec4" opacity="1.00" d=" M 86.33 166.88 C 87.78 166.86 89.23 166.86 90.68 166.88 C 90.56 173.12 90.61 179.37 90.64 185.62 C 89.23 185.66 87.83 185.71 86.43 185.75 C 86.40 179.46 86.51 173.17 86.33 166.88 Z" />
<path fill="#448ec4" opacity="1.00" d=" M 95.58 185.70 C 95.60 179.31 95.50 172.93 95.65 166.55 C 97.17 166.94 99.32 166.39 100.03 168.23 C 103.03 166.84 106.62 165.58 109.80 167.17 C 111.57 168.04 112.00 170.18 112.15 171.96 C 112.39 176.58 112.17 181.20 112.17 185.81 C 110.82 185.76 109.47 185.71 108.13 185.67 C 108.19 180.55 108.45 175.39 107.50 170.33 C 104.63 170.05 101.86 170.83 99.57 172.58 C 99.70 176.96 99.67 181.34 99.68 185.72 C 98.31 185.71 96.95 185.70 95.58 185.70 Z" />
<path fill="#448ec4" opacity="1.00" d=" M 116.99 166.81 C 118.38 166.80 119.78 166.79 121.17 166.79 C 121.16 168.98 121.15 171.16 121.17 173.35 C 123.13 171.27 124.89 168.97 127.08 167.13 C 128.70 166.41 130.58 166.98 132.30 166.88 C 129.70 169.85 126.99 172.72 124.41 175.70 C 127.75 178.94 131.17 182.13 134.22 185.67 C 132.02 185.45 129.24 186.45 127.59 184.52 C 125.35 182.47 123.32 180.23 121.18 178.10 C 121.15 180.65 121.14 183.20 121.13 185.76 C 119.76 185.75 118.39 185.74 117.03 185.73 C 116.95 179.42 117.03 173.12 116.99 166.81 Z" />
</g>
<g id="#e6ea4bff">
<path fill="#e6ea4b" opacity="1.00" d=" M 75.95 49.72 C 85.13 50.08 95.10 51.32 102.20 57.76 C 107.74 62.20 110.51 69.42 110.13 76.43 C 109.21 81.62 107.34 86.71 104.02 90.87 C 91.76 105.83 68.21 110.37 51.46 100.54 C 43.25 95.67 38.54 85.34 41.00 76.00 C 43.57 64.87 53.17 57.04 63.35 52.95 C 63.30 56.36 63.31 59.78 63.56 63.19 C 57.97 65.99 52.17 69.86 50.13 76.10 C 48.39 80.47 50.07 85.52 53.40 88.65 C 57.74 93.05 64.00 94.79 70.00 95.32 C 77.91 95.90 85.84 93.60 92.58 89.50 C 96.94 86.38 100.81 81.85 101.02 76.23 C 100.99 71.99 98.89 67.99 95.40 65.58 C 89.81 61.35 82.55 60.39 75.73 60.48 C 74.67 56.96 74.61 53.18 75.95 49.72 Z" />
</g>
</svg>
