<?xml version="1.0" encoding="UTF-8" ?>
<!DOCTYPE svg PUBLIC "-//W3C//DTD SVG 1.1//EN" "http://www.w3.org/Graphics/SVG/1.1/DTD/svg11.dtd">
<svg width="618pt" height="500pt" viewBox="0 0 618 500" version="1.1" xmlns="http://www.w3.org/2000/svg" xmlns:xlink="http://www.w3.org/1999/xlink">
  <style type="text/css">
    .blur {
      filter: url(#svgFilter);
    }
  </style>
  <filter id="svgFilter" x="-50%" y="-50%" width="200%" height="200%">
    <feGaussianBlur id="svgFilterBlur" in="SourceGraphic" result="Blur" stdDeviation="5"/>
  </filter>
  <animate
    xlink:href="#svgFilterBlur"
    attributeName="stdDeviation"
    values="5;0;5"
    dur="3s"
    fill="freeze"
    repeatCount="indefinite"
    />
<g id="#ffffffff">
<path fill="#ffffff" opacity="1.00" d=" M 0.00 0.00 L 618.00 0.00 L 618.00 500.00 L 0.00 500.00 L 0.00 0.00 M 47.47 6.68 C 35.77 8.86 24.26 14.34 16.69 23.75 C 9.13 32.99 6.03 45.22 6.47 57.01 C 6.54 187.01 6.46 317.02 6.51 447.03 C 7.14 457.50 10.42 467.95 16.44 476.61 C 22.85 485.87 33.10 492.15 44.10 494.30 C 51.61 496.01 59.35 495.40 66.99 495.50 C 231.33 495.51 395.67 495.49 560.02 495.51 C 575.63 495.91 592.14 490.70 602.79 478.84 C 610.35 470.50 613.98 459.16 614.25 448.03 C 614.25 319.36 614.25 190.70 614.25 62.03 C 615.03 47.15 610.87 31.48 600.78 20.23 C 592.26 10.81 579.51 6.01 566.98 5.75 C 396.65 5.75 226.32 5.75 55.99 5.75 C 53.13 5.78 50.28 6.17 47.47 6.68 Z" />
<path fill="#ffffff" opacity="1.00" d=" M 50.18 13.10 C 52.43 12.72 54.71 12.49 56.99 12.49 C 226.66 12.51 396.33 12.50 566.00 12.50 C 576.33 12.69 587.02 16.04 594.41 23.52 C 602.80 32.09 607.06 44.16 607.50 56.02 C 607.50 184.34 607.50 312.66 607.50 440.98 C 607.93 451.40 606.46 462.46 600.23 471.12 C 592.08 482.62 577.68 488.09 564.00 488.74 C 397.65 488.76 231.29 488.74 64.94 488.75 C 54.35 489.03 43.13 488.78 33.70 483.30 C 20.62 475.89 13.98 460.56 13.25 446.04 C 13.25 315.37 13.26 184.69 13.25 54.02 C 13.40 44.08 16.46 33.79 23.41 26.44 C 30.39 18.98 40.22 14.73 50.18 13.10 M 285.34 61.19 C 288.44 63.56 291.53 66.11 293.53 69.52 C 297.53 76.08 298.05 84.01 298.03 91.50 C 292.36 91.48 286.47 91.82 281.05 89.87 C 276.20 88.10 272.92 83.89 269.99 79.86 C 270.02 93.04 269.97 106.21 270.02 119.38 C 272.43 116.02 274.86 112.48 278.49 110.33 C 284.25 106.95 291.22 107.50 297.64 107.53 C 296.82 119.13 292.38 130.76 283.81 138.84 C 279.64 143.07 274.29 145.76 269.17 148.63 C 296.94 148.88 324.71 148.73 352.48 148.70 C 350.42 147.32 348.24 146.15 346.13 144.87 C 333.09 136.95 323.81 122.84 322.60 107.52 C 328.80 107.50 335.38 107.02 341.13 109.81 C 345.45 111.86 348.54 115.65 351.54 119.25 C 351.45 106.19 351.53 93.13 351.49 80.07 C 348.60 83.60 345.55 87.25 341.32 89.21 C 335.40 92.06 328.64 91.45 322.27 91.50 C 322.53 86.96 322.75 82.35 324.16 77.98 C 326.03 71.02 330.88 65.32 336.66 61.19 C 319.55 61.29 302.44 61.29 285.34 61.19 M 139.81 130.76 C 136.30 134.36 136.60 140.03 138.72 144.27 C 134.17 145.13 129.70 146.34 125.40 148.03 C 124.64 144.52 123.09 140.85 119.72 139.14 C 113.92 135.65 105.40 138.62 103.38 145.17 C 101.53 149.93 103.91 155.11 107.70 158.14 C 104.10 160.92 100.74 163.99 97.61 167.29 C 95.20 162.11 89.11 158.78 83.52 160.73 C 77.21 162.46 73.92 170.34 76.89 176.11 C 78.43 179.84 82.26 181.82 86.04 182.53 C 83.96 186.03 82.32 189.75 80.89 193.56 C 76.75 190.40 70.57 190.15 66.49 193.53 C 60.94 197.70 61.14 207.22 66.90 211.13 C 69.88 213.51 73.89 213.49 77.47 212.90 C 77.45 216.95 77.76 220.99 78.28 225.00 C 73.81 223.89 68.61 225.00 65.83 228.90 C 61.22 234.37 63.59 243.92 70.45 246.25 C 74.84 248.08 79.74 246.49 83.12 243.43 C 84.76 247.75 86.51 252.04 88.35 256.29 C 83.60 255.65 78.24 257.54 76.09 262.08 C 72.34 268.40 76.75 277.59 84.08 278.48 C 88.61 279.32 92.93 276.94 95.65 273.44 C 97.54 278.12 99.86 282.61 101.99 287.20 C 99.53 288.13 97.07 289.07 94.61 290.00 C 113.08 340.01 131.69 389.97 150.17 439.98 C 256.51 440.03 362.85 439.99 469.19 440.00 C 487.76 390.02 506.21 340.00 524.78 290.02 C 522.67 289.21 520.56 288.40 518.45 287.60 C 520.79 282.95 523.01 278.24 525.07 273.46 C 527.77 277.09 532.32 279.47 536.90 278.45 C 543.50 277.43 547.69 269.69 545.29 263.54 C 543.54 258.26 537.65 255.43 532.32 256.33 C 534.18 252.09 535.95 247.80 537.54 243.45 C 541.64 247.24 548.23 248.38 552.84 244.83 C 558.97 240.69 558.53 230.58 552.48 226.59 C 549.61 224.36 545.82 224.59 542.43 225.01 C 542.92 220.98 543.23 216.92 543.29 212.85 C 546.68 213.50 550.46 213.55 553.39 211.43 C 559.20 207.85 559.98 198.69 554.87 194.16 C 550.86 190.14 544.21 190.32 539.74 193.49 C 538.37 189.67 536.66 185.99 534.59 182.50 C 540.29 181.94 545.36 176.88 544.79 170.97 C 545.02 164.42 538.27 159.11 531.95 160.36 C 527.94 160.85 524.91 163.91 523.14 167.35 C 520.05 163.99 516.59 161.00 513.02 158.16 C 515.59 155.80 517.95 152.76 517.86 149.07 C 518.34 142.73 512.28 137.13 506.03 137.72 C 500.39 137.76 495.96 142.63 495.33 148.03 C 490.97 146.40 486.49 145.09 481.91 144.23 C 484.11 140.10 484.30 134.63 481.07 130.96 C 476.92 125.72 468.03 125.62 463.82 130.83 C 460.70 134.25 460.69 139.33 462.37 143.43 C 457.58 143.74 452.82 144.48 448.10 145.33 C 448.47 141.80 448.44 137.87 445.91 135.08 C 441.87 129.70 432.96 129.54 428.66 134.67 C 424.55 138.86 425.22 145.74 428.86 150.01 C 423.65 151.62 418.45 153.29 413.36 155.25 C 413.63 151.13 412.18 146.72 408.55 144.43 C 402.97 140.37 393.97 142.83 391.73 149.49 C 389.85 154.01 391.62 159.00 394.77 162.45 C 390.60 164.00 386.47 165.66 382.41 167.47 C 382.20 164.52 381.88 161.37 379.95 158.97 C 376.53 154.23 369.22 153.14 364.54 156.62 C 360.04 159.66 358.53 166.20 361.07 170.96 C 361.98 172.75 363.51 174.09 364.91 175.50 C 359.34 177.96 353.89 180.68 348.43 183.39 C 348.81 179.40 349.23 175.40 350.17 171.49 C 323.15 171.49 296.13 171.55 269.11 171.45 C 269.78 175.06 270.09 178.71 270.32 182.36 C 265.46 180.05 260.66 177.62 255.74 175.45 C 258.57 173.12 261.09 169.88 260.79 166.00 C 261.33 158.61 253.09 152.38 246.14 155.14 C 240.90 156.72 237.97 162.27 238.37 167.53 C 234.23 165.66 230.01 163.97 225.77 162.34 C 227.63 160.27 229.38 157.93 229.63 155.07 C 230.74 148.45 224.80 141.76 218.02 142.48 C 211.47 142.51 206.62 148.90 207.18 155.20 C 202.14 153.27 197.01 151.58 191.85 150.01 C 195.44 145.82 196.01 139.09 192.23 134.85 C 188.22 129.81 179.70 129.56 175.41 134.36 C 172.46 137.18 172.07 141.49 172.58 145.33 C 167.87 144.45 163.11 143.73 158.32 143.43 C 159.70 139.79 160.13 135.51 157.86 132.11 C 154.22 125.87 144.37 125.21 139.81 130.76 Z" />
<path fill="#ffffff" opacity="1.00" d=" M 118.58 174.59 C 128.66 166.18 141.98 161.93 155.05 162.79 C 176.12 164.29 196.12 171.72 215.58 179.46 C 234.67 186.64 252.89 195.89 271.26 204.71 C 271.98 223.72 272.44 242.74 272.49 261.75 C 282.55 271.64 287.28 285.66 288.11 299.50 C 280.71 298.36 273.65 294.59 269.46 288.24 C 269.52 305.29 269.53 322.34 269.46 339.39 C 273.49 332.54 280.87 328.56 288.56 327.33 C 287.74 339.83 284.01 352.80 275.12 362.02 C 262.56 375.15 238.74 375.02 226.69 361.27 C 220.06 354.07 218.00 343.63 219.59 334.17 C 220.39 329.88 222.08 325.47 225.56 322.64 C 231.18 318.23 240.00 318.97 244.96 324.05 C 247.07 326.03 248.12 328.78 249.20 331.40 C 252.67 322.75 255.32 313.03 252.46 303.82 C 250.05 296.53 244.53 289.66 236.86 287.63 C 230.58 285.85 223.50 288.02 219.20 292.92 C 220.28 281.25 218.85 269.06 213.40 258.57 C 209.54 251.25 203.65 244.71 195.88 241.51 C 188.94 246.54 184.92 254.67 183.12 262.88 C 180.59 274.37 182.49 286.36 186.32 297.34 C 179.39 294.75 170.87 294.98 164.98 299.86 C 160.18 303.76 158.53 310.12 157.92 316.01 C 156.93 325.64 160.42 335.22 166.07 342.92 C 166.82 338.95 167.74 334.71 170.65 331.70 C 175.70 325.80 185.83 324.87 191.52 330.37 C 196.37 334.74 198.40 341.27 199.70 347.48 C 201.55 356.37 198.89 366.05 192.82 372.80 C 187.49 378.87 179.65 382.19 171.77 383.36 C 163.69 384.83 155.26 382.15 148.97 377.00 C 139.26 369.13 133.18 357.70 128.93 346.15 C 136.61 345.32 144.55 347.45 150.47 352.49 C 145.95 336.18 141.66 319.80 137.16 303.49 C 134.43 310.78 129.00 316.79 122.14 320.45 C 120.59 309.56 119.82 298.31 122.27 287.49 C 123.00 284.05 124.59 280.88 126.40 277.88 C 124.41 278.65 122.41 279.40 120.41 280.13 C 113.70 266.37 107.79 252.24 102.10 238.03 C 97.70 226.71 95.39 213.94 98.95 202.07 C 102.17 190.99 110.01 181.98 118.58 174.59 Z" />
<path fill="#ffffff" opacity="1.00" d=" M 397.40 182.49 C 419.84 173.69 442.61 164.07 466.99 162.74 C 481.65 162.05 496.29 168.06 506.47 178.58 C 515.00 186.69 521.96 197.18 523.19 209.13 C 524.96 223.13 519.48 236.56 514.08 249.16 C 509.69 259.76 505.19 270.34 499.97 280.57 C 497.58 279.69 495.21 278.79 492.86 277.84 C 494.46 280.45 495.98 283.17 496.73 286.17 C 499.77 297.42 498.93 309.27 497.28 320.68 C 489.95 317.30 484.06 311.03 481.60 303.30 C 477.19 319.73 472.67 336.13 468.19 352.55 C 474.28 347.22 482.60 345.34 490.52 346.11 C 486.23 357.54 480.24 368.85 470.70 376.75 C 464.93 381.50 457.40 384.41 449.86 383.64 C 441.81 382.86 433.71 379.94 427.84 374.22 C 420.92 367.39 417.63 357.01 419.67 347.46 C 420.89 341.15 423.06 334.55 428.00 330.16 C 433.90 324.90 444.01 325.87 448.99 331.94 C 451.64 335.03 452.63 339.08 453.37 342.99 C 458.35 336.02 461.78 327.66 461.54 318.98 C 461.44 312.05 459.95 304.22 454.19 299.69 C 448.25 294.91 439.85 294.84 432.93 297.30 C 436.95 286.34 438.73 274.28 436.25 262.76 C 434.43 254.53 430.36 246.41 423.31 241.48 C 413.67 245.60 407.02 254.56 403.44 264.16 C 400.16 273.28 399.21 283.15 400.07 292.78 C 396.20 288.71 390.51 286.35 384.87 287.17 C 376.40 288.09 369.94 295.25 367.16 302.91 C 363.96 312.33 366.49 322.47 370.11 331.38 C 372.01 323.68 380.13 318.34 387.95 320.01 C 393.20 320.86 397.27 325.14 398.76 330.13 C 402.01 340.69 400.15 353.27 392.41 361.47 C 380.34 375.10 356.52 375.07 344.17 361.84 C 335.44 352.91 331.76 340.23 331.01 328.03 C 338.18 329.50 345.15 333.03 349.29 339.27 C 349.21 322.29 349.26 305.31 349.26 288.33 C 345.25 294.70 338.37 298.61 331.12 300.12 C 331.91 286.04 336.78 271.82 347.00 261.79 C 347.18 243.12 346.61 224.43 347.34 205.77 C 363.90 197.75 380.37 189.48 397.40 182.49 Z" />
<path fill="#ffffff" opacity="1.00" d=" M 308.21 190.04 C 315.05 187.71 322.45 195.07 320.02 201.89 C 318.38 208.70 308.78 211.13 304.06 205.97 C 298.88 201.23 301.41 191.70 308.21 190.04 Z" />
<path fill="#ffffff" opacity="1.00" d=" M 307.37 216.43 C 314.21 213.28 322.47 220.76 320.08 227.88 C 318.49 234.44 309.35 237.38 304.52 232.44 C 299.09 228.15 300.89 218.64 307.37 216.43 Z" />
<path fill="#ffffff" opacity="1.00" d=" M 307.50 241.72 C 312.49 239.59 318.68 242.92 320.04 248.08 C 321.75 253.14 318.05 258.93 312.93 260.02 C 308.01 261.29 302.61 257.77 301.53 252.86 C 300.29 248.33 303.18 243.33 307.50 241.72 Z" />
<path fill="#ffffff" opacity="1.00" d=" M 196.35 401.50 C 205.95 396.17 215.50 390.73 225.11 385.40 C 234.72 390.77 244.31 396.18 253.94 401.53 C 244.32 406.86 234.76 412.31 225.13 417.61 C 215.52 412.27 205.94 406.86 196.35 401.50 Z" />
<path fill="#ffffff" opacity="1.00" d=" M 282.06 401.54 C 291.65 396.13 301.22 390.70 310.87 385.41 C 320.42 390.82 330.02 396.12 339.59 401.51 C 330.03 406.91 320.45 412.26 310.87 417.61 C 301.23 412.32 291.70 406.83 282.06 401.54 Z" />
<path fill="#ffffff" opacity="1.00" d=" M 367.79 401.50 C 377.39 396.13 386.97 390.73 396.58 385.38 C 406.13 390.79 415.72 396.15 425.31 401.50 C 415.78 406.92 406.19 412.24 396.63 417.60 C 386.98 412.30 377.39 406.89 367.79 401.50 Z" />
</g>
<g id="#201547ff">
<path fill="#201547" opacity="1.00" d=" M 47.47 6.68 C 50.28 6.17 53.13 5.78 55.99 5.75 C 226.32 5.75 396.65 5.75 566.98 5.75 C 579.51 6.01 592.26 10.81 600.78 20.23 C 610.87 31.48 615.03 47.15 614.25 62.03 C 614.25 190.70 614.25 319.36 614.25 448.03 C 613.98 459.16 610.35 470.50 602.79 478.84 C 592.14 490.70 575.63 495.91 560.02 495.51 C 395.67 495.49 231.33 495.51 66.99 495.50 C 59.35 495.40 51.61 496.01 44.10 494.30 C 33.10 492.15 22.85 485.87 16.44 476.61 C 10.42 467.95 7.14 457.50 6.51 447.03 C 6.46 317.02 6.54 187.01 6.47 57.01 C 6.03 45.22 9.13 32.99 16.69 23.75 C 24.26 14.34 35.77 8.86 47.47 6.68 M 50.18 13.10 C 40.22 14.73 30.39 18.98 23.41 26.44 C 16.46 33.79 13.40 44.08 13.25 54.02 C 13.26 184.69 13.25 315.37 13.25 446.04 C 13.98 460.56 20.62 475.89 33.70 483.30 C 43.13 488.78 54.35 489.03 64.94 488.75 C 231.29 488.74 397.65 488.76 564.00 488.74 C 577.68 488.09 592.08 482.62 600.23 471.12 C 606.46 462.46 607.93 451.40 607.50 440.98 C 607.50 312.66 607.50 184.34 607.50 56.02 C 607.06 44.16 602.80 32.09 594.41 23.52 C 587.02 16.04 576.33 12.69 566.00 12.50 C 396.33 12.50 226.66 12.51 56.99 12.49 C 54.71 12.49 52.43 12.72 50.18 13.10 Z" />
<path fill="#201547" opacity="1.00" d=" M 285.34 61.19 C 302.44 61.29 319.55 61.29 336.66 61.19 C 330.88 65.32 326.03 71.02 324.16 77.98 C 322.75 82.35 322.53 86.96 322.27 91.50 C 328.64 91.45 335.40 92.06 341.32 89.21 C 345.55 87.25 348.60 83.60 351.49 80.07 C 351.53 93.13 351.45 106.19 351.54 119.25 C 348.54 115.65 345.45 111.86 341.13 109.81 C 335.38 107.02 328.80 107.50 322.60 107.52 C 323.81 122.84 333.09 136.95 346.13 144.87 C 348.24 146.15 350.42 147.32 352.48 148.70 C 324.71 148.73 296.94 148.88 269.17 148.63 C 274.29 145.76 279.64 143.07 283.81 138.84 C 292.38 130.76 296.82 119.13 297.64 107.53 C 291.22 107.50 284.25 106.95 278.49 110.33 C 274.86 112.48 272.43 116.02 270.02 119.38 C 269.97 106.21 270.02 93.04 269.99 79.86 C 272.92 83.89 276.20 88.10 281.05 89.87 C 286.47 91.82 292.36 91.48 298.03 91.50 C 298.05 84.01 297.53 76.08 293.53 69.52 C 291.53 66.11 288.44 63.56 285.34 61.19 Z" />
<path fill="#201547" opacity="1.00" d=" M 139.81 130.76 C 144.37 125.21 154.22 125.87 157.86 132.11 C 160.13 135.51 159.70 139.79 158.32 143.43 C 163.11 143.73 167.87 144.45 172.58 145.33 C 172.07 141.49 172.46 137.18 175.41 134.36 C 179.70 129.56 188.22 129.81 192.23 134.85 C 196.01 139.09 195.44 145.82 191.85 150.01 C 197.01 151.58 202.14 153.27 207.18 155.20 C 206.62 148.90 211.47 142.51 218.02 142.48 C 224.80 141.76 230.74 148.45 229.63 155.07 C 229.38 157.93 227.63 160.27 225.77 162.34 C 230.01 163.97 234.23 165.66 238.37 167.53 C 237.97 162.27 240.90 156.72 246.14 155.14 C 253.09 152.38 261.33 158.61 260.79 166.00 C 261.09 169.88 258.57 173.12 255.74 175.45 C 260.66 177.62 265.46 180.05 270.32 182.36 C 270.09 178.71 269.78 175.06 269.11 171.45 C 296.13 171.55 323.15 171.49 350.17 171.49 C 349.23 175.40 348.81 179.40 348.43 183.39 C 353.89 180.68 359.34 177.96 364.91 175.50 C 363.51 174.09 361.98 172.75 361.07 170.96 C 358.53 166.20 360.04 159.66 364.54 156.62 C 369.22 153.14 376.53 154.23 379.95 158.97 C 381.88 161.37 382.20 164.52 382.41 167.47 C 386.47 165.66 390.60 164.00 394.77 162.45 C 391.62 159.00 389.85 154.01 391.73 149.49 C 393.97 142.83 402.97 140.37 408.55 144.43 C 412.18 146.72 413.63 151.13 413.36 155.25 C 418.45 153.29 423.65 151.62 428.86 150.01 C 425.22 145.74 424.55 138.86 428.66 134.67 C 432.96 129.54 441.87 129.70 445.91 135.08 C 448.44 137.87 448.47 141.80 448.10 145.33 C 452.82 144.48 457.58 143.74 462.37 143.43 C 460.69 139.33 460.70 134.25 463.82 130.83 C 468.03 125.62 476.92 125.72 481.07 130.96 C 484.30 134.63 484.11 140.10 481.91 144.23 C 486.49 145.09 490.97 146.40 495.33 148.03 C 495.96 142.63 500.39 137.76 506.03 137.72 C 512.28 137.13 518.34 142.73 517.86 149.07 C 517.95 152.76 515.59 155.80 513.02 158.16 C 516.59 161.00 520.05 163.99 523.14 167.35 C 524.91 163.91 527.94 160.85 531.95 160.36 C 538.27 159.11 545.02 164.42 544.79 170.97 C 545.36 176.88 540.29 181.94 534.59 182.50 C 536.66 185.99 538.37 189.67 539.74 193.49 C 544.21 190.32 550.86 190.14 554.87 194.16 C 559.98 198.69 559.20 207.85 553.39 211.43 C 550.46 213.55 546.68 213.50 543.29 212.85 C 543.23 216.92 542.92 220.98 542.43 225.01 C 545.82 224.59 549.61 224.36 552.48 226.59 C 558.53 230.58 558.97 240.69 552.84 244.83 C 548.23 248.38 541.64 247.24 537.54 243.45 C 535.95 247.80 534.18 252.09 532.32 256.33 C 537.65 255.43 543.54 258.26 545.29 263.54 C 547.69 269.69 543.50 277.43 536.90 278.45 C 532.32 279.47 527.77 277.09 525.07 273.46 C 523.01 278.24 520.79 282.95 518.45 287.60 C 520.56 288.40 522.67 289.21 524.78 290.02 C 506.21 340.00 487.76 390.02 469.19 440.00 C 362.85 439.99 256.51 440.03 150.17 439.98 C 131.69 389.97 113.08 340.01 94.61 290.00 C 97.07 289.07 99.53 288.13 101.99 287.20 C 99.86 282.61 97.54 278.12 95.65 273.44 C 92.93 276.94 88.61 279.32 84.08 278.48 C 76.75 277.59 72.34 268.40 76.09 262.08 C 78.24 257.54 83.60 255.65 88.35 256.29 C 86.51 252.04 84.76 247.75 83.12 243.43 C 79.74 246.49 74.84 248.08 70.45 246.25 C 63.59 243.92 61.22 234.37 65.83 228.90 C 68.61 225.00 73.81 223.89 78.28 225.00 C 77.76 220.99 77.45 216.95 77.47 212.90 C 73.89 213.49 69.88 213.51 66.90 211.13 C 61.14 207.22 60.94 197.70 66.49 193.53 C 70.57 190.15 76.75 190.40 80.89 193.56 C 82.32 189.75 83.96 186.03 86.04 182.53 C 82.26 181.82 78.43 179.84 76.89 176.11 C 73.92 170.34 77.21 162.46 83.52 160.73 C 89.11 158.78 95.20 162.11 97.61 167.29 C 100.74 163.99 104.10 160.92 107.70 158.14 C 103.91 155.11 101.53 149.93 103.38 145.17 C 105.40 138.62 113.92 135.65 119.72 139.14 C 123.09 140.85 124.64 144.52 125.40 148.03 C 129.70 146.34 134.17 145.13 138.72 144.27 C 136.60 140.03 136.30 134.36 139.81 130.76 M 118.58 174.59 C 110.01 181.98 102.17 190.99 98.95 202.07 C 95.39 213.94 97.70 226.71 102.10 238.03 C 107.79 252.24 113.70 266.37 120.41 280.13 C 122.41 279.40 124.41 278.65 126.40 277.88 C 124.59 280.88 123.00 284.05 122.27 287.49 C 119.82 298.31 120.59 309.56 122.14 320.45 C 129.00 316.79 134.43 310.78 137.16 303.49 C 141.66 319.80 145.95 336.18 150.47 352.49 C 144.55 347.45 136.61 345.32 128.93 346.15 C 133.18 357.70 139.26 369.13 148.97 377.00 C 155.26 382.15 163.69 384.83 171.77 383.36 C 179.65 382.19 187.49 378.87 192.82 372.80 C 198.89 366.05 201.55 356.37 199.70 347.48 C 198.40 341.27 196.37 334.74 191.52 330.37 C 185.83 324.87 175.70 325.80 170.65 331.70 C 167.74 334.71 166.82 338.95 166.07 342.92 C 160.42 335.22 156.93 325.64 157.92 316.01 C 158.53 310.12 160.18 303.76 164.98 299.86 C 170.87 294.98 179.39 294.75 186.32 297.34 C 182.49 286.36 180.59 274.37 183.12 262.88 C 184.92 254.67 188.94 246.54 195.88 241.51 C 203.65 244.71 209.54 251.25 213.40 258.57 C 218.85 269.06 220.28 281.25 219.20 292.92 C 223.50 288.02 230.58 285.85 236.86 287.63 C 244.53 289.66 250.05 296.53 252.46 303.82 C 255.32 313.03 252.67 322.75 249.20 331.40 C 248.12 328.78 247.07 326.03 244.96 324.05 C 240.00 318.97 231.18 318.23 225.56 322.64 C 222.08 325.47 220.39 329.88 219.59 334.17 C 218.00 343.63 220.06 354.07 226.69 361.27 C 238.74 375.02 262.56 375.15 275.12 362.02 C 284.01 352.80 287.74 339.83 288.56 327.33 C 280.87 328.56 273.49 332.54 269.46 339.39 C 269.53 322.34 269.52 305.29 269.46 288.24 C 273.65 294.59 280.71 298.36 288.11 299.50 C 287.28 285.66 282.55 271.64 272.49 261.75 C 272.44 242.74 271.98 223.72 271.26 204.71 C 252.89 195.89 234.67 186.64 215.58 179.46 C 196.12 171.72 176.12 164.29 155.05 162.79 C 141.98 161.93 128.66 166.18 118.58 174.59 M 397.40 182.49 C 380.37 189.48 363.90 197.75 347.34 205.77 C 346.61 224.43 347.18 243.12 347.00 261.79 C 336.78 271.82 331.91 286.04 331.12 300.12 C 338.37 298.61 345.25 294.70 349.26 288.33 C 349.26 305.31 349.21 322.29 349.29 339.27 C 345.15 333.03 338.18 329.50 331.01 328.03 C 331.76 340.23 335.44 352.91 344.17 361.84 C 356.52 375.07 380.34 375.10 392.41 361.47 C 400.15 353.27 402.01 340.69 398.76 330.13 C 397.27 325.14 393.20 320.86 387.95 320.01 C 380.13 318.34 372.01 323.68 370.11 331.38 C 366.49 322.47 363.96 312.33 367.16 302.91 C 369.94 295.25 376.40 288.09 384.87 287.17 C 390.51 286.35 396.20 288.71 400.07 292.78 C 399.21 283.15 400.16 273.28 403.44 264.16 C 407.02 254.56 413.67 245.60 423.31 241.48 C 430.36 246.41 434.43 254.53 436.25 262.76 C 438.73 274.28 436.95 286.34 432.93 297.30 C 439.85 294.84 448.25 294.91 454.19 299.69 C 459.95 304.22 461.44 312.05 461.54 318.98 C 461.78 327.66 458.35 336.02 453.37 342.99 C 452.63 339.08 451.64 335.03 448.99 331.94 C 444.01 325.87 433.90 324.90 428.00 330.16 C 423.06 334.55 420.89 341.15 419.67 347.46 C 417.63 357.01 420.92 367.39 427.84 374.22 C 433.71 379.94 441.81 382.86 449.86 383.64 C 457.40 384.41 464.93 381.50 470.70 376.75 C 480.24 368.85 486.23 357.54 490.52 346.11 C 482.60 345.34 474.28 347.22 468.19 352.55 C 472.67 336.13 477.19 319.73 481.60 303.30 C 484.06 311.03 489.95 317.30 497.28 320.68 C 498.93 309.27 499.77 297.42 496.73 286.17 C 495.98 283.17 494.46 280.45 492.86 277.84 C 495.21 278.79 497.58 279.69 499.97 280.57 C 505.19 270.34 509.69 259.76 514.08 249.16 C 519.48 236.56 524.96 223.13 523.19 209.13 C 521.96 197.18 515.00 186.69 506.47 178.58 C 496.29 168.06 481.65 162.05 466.99 162.74 C 442.61 164.07 419.84 173.69 397.40 182.49 M 308.21 190.04 C 301.41 191.70 298.88 201.23 304.06 205.97 C 308.78 211.13 318.38 208.70 320.02 201.89 C 322.45 195.07 315.05 187.71 308.21 190.04 M 307.37 216.43 C 300.89 218.64 299.09 228.15 304.52 232.44 C 309.35 237.38 318.49 234.44 320.08 227.88 C 322.47 220.76 314.21 213.28 307.37 216.43 M 307.50 241.72 C 303.18 243.33 300.29 248.33 301.53 252.86 C 302.61 257.77 308.01 261.29 312.93 260.02 C 318.05 258.93 321.75 253.14 320.04 248.08 C 318.68 242.92 312.49 239.59 307.50 241.72 M 196.35 401.50 C 205.94 406.86 215.52 412.27 225.13 417.61 C 234.76 412.31 244.32 406.86 253.94 401.53 C 244.31 396.18 234.72 390.77 225.11 385.40 C 215.50 390.73 205.95 396.17 196.35 401.50 M 282.06 401.54 C 291.70 406.83 301.23 412.32 310.87 417.61 C 320.45 412.26 330.03 406.91 339.59 401.51 C 330.02 396.12 320.42 390.82 310.87 385.41 C 301.22 390.70 291.65 396.13 282.06 401.54 M 367.79 401.50 C 377.39 406.89 386.98 412.30 396.63 417.60 C 406.19 412.24 415.78 406.92 425.31 401.50 C 415.72 396.15 406.13 390.79 396.58 385.38 C 386.97 390.73 377.39 396.13 367.79 401.50 Z" />
</g>
</svg>
