<?xml version="1.0" standalone="no"?>
<!DOCTYPE svg PUBLIC "-//W3C//DTD SVG 20010904//EN"
 "http://www.w3.org/TR/2001/REC-SVG-20010904/DTD/svg10.dtd">
<svg version="1.0" xmlns="http://www.w3.org/2000/svg" xmlns:xlink="http://www.w3.org/1999/xlink"
 width="1280.000000pt" height="518.000000pt" viewBox="0 0 1280.000000 518.000000"
 preserveAspectRatio="xMidYMid meet">
 <style type="text/css">
   .blur {
     filter: url(#svgFilter);
   }
 </style>
 <filter id="svgFilter" x="-50%" y="-50%" width="200%" height="200%">
   <feGaussianBlur id="svgFilterBlur" in="SourceGraphic" result="Blur" stdDeviation="50"/>
 </filter>
 <animate
   xlink:href="#svgFilterBlur"
   attributeName="stdDeviation"
   values="50;0;50"
   dur="3s"
   fill="freeze"
   repeatCount="indefinite"
   />
<g transform="translate(0.000000,518.000000) scale(0.100000,-0.100000)"
fill="#000000" stroke="none">
<path d="M2042 3883 l3 -178 262 -3 263 -2 5 22 c3 13 4 93 3 178 l-3 155
-268 3 -267 2 2 -177z"/>
<path d="M167 4034 c-9 -9 -9 -576 -1 -598 5 -14 38 -16 264 -16 226 0 259 2
264 16 3 9 6 75 6 147 0 73 4 138 9 145 10 16 38 3 78 -35 13 -13 28 -23 33
-23 5 0 15 -6 22 -13 7 -7 29 -24 48 -37 19 -13 37 -27 40 -30 3 -3 21 -17 40
-30 19 -14 44 -32 54 -42 11 -10 26 -18 33 -18 7 0 13 -4 13 -8 0 -4 13 -16
30 -25 16 -10 35 -23 42 -30 7 -7 29 -24 48 -37 19 -13 44 -32 54 -42 11 -10
23 -18 28 -18 4 0 22 -13 40 -30 17 -16 37 -30 44 -30 8 0 14 -4 14 -9 0 -5 8
-12 18 -15 9 -3 28 -16 42 -29 14 -12 41 -34 60 -47 19 -13 44 -32 54 -42 11
-10 26 -18 33 -18 7 0 13 -11 13 -23 0 -25 -28 -57 -48 -57 -7 0 -12 -4 -12
-8 0 -4 -13 -16 -30 -25 -16 -10 -35 -23 -42 -30 -7 -7 -42 -33 -78 -57 -36
-24 -72 -52 -81 -62 -9 -10 -21 -18 -26 -18 -6 0 -24 -13 -41 -30 -18 -16 -38
-30 -45 -30 -7 0 -19 -9 -27 -20 -8 -11 -19 -20 -25 -20 -5 0 -23 -12 -40 -26
-16 -14 -42 -33 -57 -42 -16 -9 -28 -20 -28 -24 0 -4 -6 -8 -12 -8 -7 0 -33
-18 -58 -40 -24 -22 -50 -40 -57 -40 -7 0 -13 -4 -13 -8 0 -4 -13 -16 -30 -25
-16 -10 -35 -23 -42 -30 -30 -29 -79 -58 -88 -52 -6 4 -10 63 -10 145 0 76 -3
145 -6 154 -5 14 -38 16 -264 16 -226 0 -259 -2 -264 -16 -3 -9 -6 -148 -6
-310 l0 -294 478 3 c295 2 496 8 527 15 89 19 105 24 111 33 3 5 16 9 30 9 13
0 24 5 24 10 0 6 9 10 20 10 11 0 20 5 20 10 0 6 9 10 20 10 11 0 20 5 20 10
0 6 6 10 13 10 6 0 28 14 47 30 19 16 39 30 44 30 9 0 126 121 126 131 0 3 11
19 25 35 14 16 25 35 25 42 0 6 5 12 10 12 6 0 10 5 10 11 0 6 8 23 19 37 10
15 24 45 32 67 7 22 17 44 21 50 4 5 8 18 8 30 0 12 4 25 8 30 5 6 14 37 21
70 7 33 16 74 22 91 12 39 12 295 0 326 -5 13 -14 48 -21 78 -16 73 -53 184
-62 188 -5 2 -8 9 -8 16 0 18 -24 66 -32 66 -5 0 -8 5 -8 11 0 32 -220 279
-249 279 -5 0 -16 6 -23 13 -21 20 -88 57 -104 57 -8 0 -22 4 -32 9 -39 20
-69 30 -102 35 -19 3 -60 10 -90 17 -61 13 -931 25 -943 13z"/>
<path d="M7475 4010 c-33 -4 -101 -8 -151 -9 l-91 -1 -7 -47 c-7 -47 -20 -175
-33 -318 -3 -38 -11 -73 -17 -77 -6 -4 -52 -8 -103 -8 -50 0 -98 -3 -107 -6
-14 -5 -16 -30 -16 -175 l0 -169 100 0 c95 0 100 -1 104 -22 3 -13 7 -185 9
-383 5 -382 6 -393 58 -485 20 -35 138 -150 155 -150 8 0 14 -3 14 -7 0 -5 34
-19 75 -32 81 -26 153 -26 310 0 39 6 97 14 130 18 l60 6 3 191 2 191 -103 -5
c-114 -5 -132 2 -163 60 -21 40 -21 583 0 604 11 11 45 14 141 14 l125 0 -2
173 -3 172 -115 2 c-63 2 -125 5 -137 8 l-23 5 0 230 0 230 -77 -1 c-43 -1
-105 -5 -138 -9z"/>
<path d="M9363 3867 c-18 -6 -33 -15 -33 -19 0 -4 -6 -8 -14 -8 -19 0 -106
-87 -106 -106 0 -8 -3 -14 -8 -14 -4 0 -18 -36 -32 -81 l-25 -80 -55 6 c-88
11 -360 9 -425 -3 -33 -6 -77 -14 -97 -18 -21 -3 -38 -10 -38 -15 0 -5 -10 -9
-23 -9 -35 0 -158 -65 -202 -108 -50 -48 -75 -79 -75 -92 0 -6 -4 -18 -9 -28
-23 -43 -32 -102 -28 -167 7 -93 17 -145 28 -145 5 0 9 -7 9 -16 0 -15 94
-114 109 -114 18 0 60 -42 55 -54 -3 -8 -18 -16 -33 -19 -16 -3 -36 -13 -44
-22 -9 -8 -20 -15 -24 -15 -25 0 -123 -115 -123 -144 0 -8 -4 -18 -10 -21 -5
-3 -10 -39 -10 -80 0 -41 5 -77 10 -80 6 -3 10 -14 10 -24 0 -10 20 -39 45
-66 27 -28 44 -54 40 -62 -3 -8 -5 -17 -5 -19 0 -2 -9 -4 -20 -4 -11 0 -20 -4
-20 -10 0 -5 -6 -10 -14 -10 -24 0 -74 -58 -101 -115 -18 -41 -25 -72 -25
-120 0 -35 5 -67 10 -70 6 -3 10 -15 10 -25 0 -29 99 -123 165 -156 33 -17 87
-37 120 -44 33 -6 71 -16 85 -20 99 -33 776 -31 796 1 3 5 17 9 32 9 50 0 159
45 232 94 51 35 74 59 98 99 9 15 20 27 24 27 4 0 8 7 8 15 0 8 5 24 10 35 6
11 15 29 20 40 6 11 10 54 10 97 0 69 -7 106 -30 168 -5 11 -13 35 -20 53 -7
17 -16 32 -20 32 -3 0 -13 12 -21 28 -18 34 -47 63 -81 81 -16 8 -28 18 -28
23 0 4 -9 8 -20 8 -11 0 -20 5 -20 10 0 6 -11 10 -24 10 -14 0 -27 4 -30 9
-11 17 -164 30 -556 46 -147 7 -168 10 -187 28 -31 28 -30 67 3 92 24 18 49
21 223 27 209 7 290 14 305 29 6 5 23 9 38 9 15 0 28 5 28 10 0 6 11 10 24 10
14 0 28 5 31 10 3 6 15 10 26 10 10 0 19 4 19 8 0 5 12 15 28 23 34 18 112 98
112 116 0 7 4 13 8 13 4 0 14 21 22 48 18 57 19 264 1 270 -6 2 -11 10 -11 18
0 17 -18 50 -42 78 -10 11 -18 23 -18 28 0 5 -14 21 -31 36 -60 53 -8 82 148
82 l102 0 8 58 c4 31 8 116 8 187 l0 130 -145 1 c-81 1 -159 -3 -177 -9z
m-370 -601 c20 -18 37 -43 37 -54 0 -12 5 -24 10 -27 6 -3 10 -28 10 -55 0
-27 -4 -52 -10 -55 -5 -3 -10 -14 -10 -23 0 -21 -37 -65 -69 -81 -36 -20 -130
-18 -173 2 -61 29 -83 70 -83 152 0 131 41 173 171 174 78 1 81 0 117 -33z
m142 -1138 c109 -40 98 -143 -21 -193 -52 -21 -313 -21 -409 1 -39 9 -83 18
-99 21 -50 10 -76 45 -76 101 0 54 17 77 60 85 48 8 515 -5 545 -15z"/>
<path d="M3550 3570 c0 -5 -10 -10 -22 -10 -30 0 -138 -80 -138 -102 0 -10 -4
-18 -8 -18 -8 0 -23 -31 -63 -127 -8 -18 -17 -33 -21 -33 -5 0 -8 58 -8 130 0
126 -1 130 -22 135 -13 3 -115 4 -228 3 l-205 -3 -3 -702 -2 -703 270 0 270 0
0 367 c0 352 8 473 32 473 5 0 8 7 8 16 0 19 48 64 68 64 6 0 12 4 12 9 0 14
66 24 158 24 l82 1 0 243 0 243 -90 0 c-53 0 -90 -4 -90 -10z"/>
<path d="M4470 3570 c-8 -5 -32 -10 -52 -10 -20 0 -40 -4 -43 -10 -3 -5 -19
-10 -36 -10 -16 0 -29 -4 -29 -10 0 -5 -9 -10 -20 -10 -11 0 -35 -9 -55 -20
-20 -11 -42 -20 -50 -20 -8 0 -15 -4 -15 -10 0 -5 -7 -10 -15 -10 -20 0 -173
-152 -212 -210 -17 -25 -36 -63 -44 -85 -8 -22 -16 -42 -19 -45 -7 -6 -27 -72
-36 -120 -11 -56 -8 -311 4 -360 6 -25 14 -57 18 -72 3 -16 10 -28 15 -28 5 0
9 -6 9 -14 0 -18 39 -91 62 -116 10 -10 18 -23 18 -29 0 -14 140 -139 172
-154 16 -6 28 -15 28 -19 0 -5 9 -8 20 -8 11 0 20 -3 20 -7 0 -11 50 -33 71
-33 10 0 20 -4 23 -9 3 -5 20 -11 38 -14 18 -3 74 -13 123 -21 113 -19 208
-19 305 0 41 8 90 18 108 21 18 3 35 9 38 14 3 5 16 9 30 9 13 0 24 5 24 10 0
6 9 10 20 10 11 0 20 5 20 10 0 6 9 10 20 10 11 0 20 5 20 10 0 6 6 10 13 10
7 0 33 18 57 41 25 22 55 48 68 56 12 8 22 19 22 24 0 5 14 23 30 41 17 17 30
37 30 44 0 8 5 14 10 14 6 0 10 9 10 20 0 11 5 20 10 20 6 0 10 10 10 23 0 13
4 27 9 33 5 5 11 20 13 34 3 28 4 28 -289 48 -78 6 -147 13 -153 17 -17 11
-60 -4 -60 -20 0 -22 -40 -88 -66 -109 -60 -49 -176 -61 -246 -25 -49 25 -88
62 -88 84 0 8 -4 15 -8 15 -5 0 -14 29 -21 65 -10 56 -9 68 3 80 12 13 85 15
482 15 l467 0 -7 83 c-6 74 -13 124 -31 227 -6 34 -17 65 -36 102 -5 10 -9 25
-9 33 0 8 -4 15 -9 15 -5 0 -11 8 -14 18 -22 69 -181 242 -222 242 -8 0 -15 5
-15 10 0 6 -9 10 -20 10 -11 0 -20 3 -20 8 0 13 -124 59 -205 75 -73 14 -277
19 -295 7z m254 -351 c25 -22 46 -49 46 -60 0 -10 5 -19 10 -19 6 0 10 -28 10
-64 0 -49 -4 -65 -16 -70 -9 -3 -91 -6 -182 -6 -215 1 -224 6 -183 117 40 109
84 142 192 143 75 0 77 -1 123 -41z"/>
<path d="M6085 3571 c-3 -6 -18 -11 -32 -11 -29 0 -156 -41 -161 -52 -2 -5
-12 -8 -23 -8 -10 0 -19 -4 -19 -10 0 -5 -9 -10 -20 -10 -11 0 -20 -4 -20 -10
0 -5 -7 -10 -15 -10 -16 0 -175 -153 -175 -169 0 -5 -6 -16 -14 -24 -20 -19
-70 -124 -85 -177 -7 -25 -17 -58 -22 -74 -5 -16 -9 -97 -9 -180 0 -159 13
-230 63 -336 80 -170 261 -329 412 -362 190 -42 264 -46 385 -22 41 8 90 18
108 21 17 3 32 9 32 14 0 5 7 9 16 9 19 0 91 38 118 63 11 9 24 17 29 17 13 0
105 98 112 120 3 11 10 20 14 20 10 0 46 74 62 130 7 25 16 49 21 55 4 5 8 28
8 51 l0 41 -57 8 c-77 10 -263 25 -338 28 l-60 2 -3 -37 c-2 -21 -7 -38 -11
-38 -5 0 -11 -12 -14 -28 -12 -62 -71 -96 -163 -95 -65 0 -66 1 -109 47 -23
26 -46 61 -50 79 -14 57 -17 398 -4 431 23 62 35 82 68 114 32 29 41 32 98 32
35 0 63 -4 63 -10 0 -5 7 -10 14 -10 24 0 64 -61 77 -115 17 -72 23 -80 55
-78 16 2 81 8 144 13 63 6 154 13 203 16 86 6 87 6 87 32 0 35 -39 158 -64
204 -53 94 -148 191 -221 228 -28 14 -52 27 -55 30 -7 8 -106 40 -160 53 -67
14 -277 20 -285 8z"/>
<path d="M10320 3570 c-8 -5 -34 -10 -57 -10 -23 0 -45 -4 -48 -10 -3 -5 -17
-10 -30 -10 -13 0 -27 -4 -30 -10 -3 -5 -14 -10 -23 -10 -19 0 -118 -49 -166
-82 -46 -32 -148 -137 -182 -188 -36 -53 -66 -118 -83 -180 -7 -25 -17 -59
-22 -76 -12 -41 -12 -301 1 -309 6 -3 10 -19 10 -35 0 -41 74 -210 92 -210 5
0 8 -7 8 -15 0 -19 167 -185 186 -185 8 0 14 -3 14 -7 0 -9 49 -33 67 -33 7 0
13 -3 13 -8 0 -11 40 -26 165 -62 17 -5 69 -15 118 -22 75 -10 102 -10 190 4
163 26 150 23 275 79 39 19 72 37 72 41 0 4 7 8 16 8 20 0 204 185 204 205 0
8 5 15 10 15 6 0 10 9 10 20 0 11 5 20 10 20 6 0 10 9 10 20 0 11 5 20 10 20
6 0 10 9 10 19 0 11 4 22 9 25 16 10 23 88 24 251 0 166 -7 226 -36 284 -9 19
-17 40 -17 48 0 7 -4 13 -10 13 -5 0 -10 9 -10 20 0 11 -4 20 -10 20 -5 0 -10
6 -10 13 0 31 -197 227 -227 227 -7 0 -13 5 -13 10 0 6 -8 10 -17 10 -10 0
-33 9 -51 20 -18 11 -41 20 -52 20 -11 0 -20 5 -20 10 0 6 -13 10 -29 10 -17
0 -33 5 -36 10 -3 6 -26 10 -50 10 -24 0 -47 5 -50 10 -8 13 -225 13 -245 0z
m210 -356 c63 -42 92 -113 101 -243 13 -184 -3 -389 -35 -446 -6 -11 -25 -34
-42 -52 -31 -32 -35 -33 -111 -33 -76 0 -81 1 -116 34 -20 18 -37 41 -37 50 0
9 -4 16 -9 16 -14 0 -22 88 -27 290 -3 110 -1 199 5 220 5 19 12 46 15 60 7
32 52 87 91 111 45 28 116 25 165 -7z"/>
<path d="M2047 3543 c-4 -3 -7 -321 -7 -705 l0 -698 268 2 267 3 0 700 0 700
-261 3 c-143 1 -263 -1 -267 -5z"/>
<path d="M11190 3530 c0 -12 7 -34 15 -50 8 -16 22 -50 30 -77 15 -45 28 -79
44 -113 4 -8 14 -36 22 -62 7 -27 17 -48 21 -48 4 0 8 -13 8 -30 0 -16 4 -30
8 -30 5 0 15 -22 22 -50 7 -27 16 -50 20 -50 4 0 13 -22 20 -50 7 -27 17 -50
22 -50 4 0 8 -13 8 -29 0 -17 5 -33 10 -36 6 -3 10 -17 10 -31 0 -13 5 -24 10
-24 6 0 10 -11 10 -24 0 -14 5 -28 10 -31 6 -3 10 -13 10 -21 0 -8 9 -34 20
-56 11 -23 20 -48 20 -55 0 -7 5 -22 10 -33 6 -11 15 -29 20 -40 6 -11 10 -29
10 -40 0 -11 4 -20 8 -20 5 0 15 -22 22 -50 7 -28 17 -50 22 -50 4 0 8 -11 8
-24 0 -14 5 -28 10 -31 6 -3 10 -17 10 -30 0 -13 5 -27 10 -30 6 -3 10 -13 10
-21 0 -8 9 -34 21 -59 l21 -45 207 0 207 0 14 50 c7 27 17 50 22 50 4 0 8 10
8 23 0 13 9 42 20 65 11 22 20 48 20 57 0 8 5 15 10 15 6 0 10 14 10 30 0 17
4 30 8 30 4 0 14 21 21 48 8 26 22 65 32 86 11 22 19 47 19 56 0 9 4 20 8 26
5 5 24 56 42 114 19 58 38 107 42 108 5 2 8 12 8 23 0 11 4 27 9 37 5 9 14 31
21 47 7 17 16 38 21 47 5 10 9 25 9 33 0 8 5 24 10 35 6 11 15 29 20 40 6 11
10 27 10 35 0 8 4 23 9 33 12 23 26 60 41 102 7 19 16 44 20 55 5 11 14 41 21
68 8 26 17 47 21 47 4 0 8 11 8 25 l0 25 -186 -2 -185 -3 -16 -30 c-30 -56
-33 -65 -33 -88 0 -13 -4 -27 -8 -33 -5 -5 -14 -29 -21 -54 -7 -25 -17 -53
-22 -62 -5 -10 -9 -25 -9 -33 0 -8 -4 -23 -9 -33 -5 -9 -19 -51 -32 -92 -12
-41 -26 -79 -31 -84 -4 -6 -8 -20 -8 -33 0 -13 -4 -23 -10 -23 -5 0 -10 -13
-10 -30 0 -16 -4 -30 -10 -30 -5 0 -10 -11 -10 -24 0 -14 -4 -28 -10 -31 -5
-3 -10 -15 -10 -26 0 -10 -3 -19 -6 -19 -13 0 -34 30 -34 49 0 11 -4 23 -10
26 -5 3 -10 17 -10 30 0 13 -4 27 -10 30 -5 3 -10 16 -10 29 0 12 -3 26 -7 30
-10 10 -33 78 -33 99 0 9 -4 25 -9 35 -5 9 -14 35 -20 57 -7 22 -16 49 -20 60
-5 11 -19 54 -31 95 -12 41 -26 84 -31 95 -4 11 -13 37 -20 58 l-13 37 -278 0
c-274 0 -278 0 -278 -20z"/>
</g>
</svg>
