<?xml version="1.0" standalone="no"?>
<!DOCTYPE svg PUBLIC "-//W3C//DTD SVG 20010904//EN"
 "http://www.w3.org/TR/2001/REC-SVG-20010904/DTD/svg10.dtd">
 <svg version="1.0" xmlns="http://www.w3.org/2000/svg"
   width="194.000000pt" height="194.000000pt" viewBox="0 0 194.000000 194.000000"
   preserveAspectRatio="xMidYMid meet">
   <metadata>
     Created by potrace 1.15, written by Peter Selinger 2001-2017
   </metadata>
   <g transform="translate(0.000000,220.000000) scale(0.100000,-0.100000)"
     fill="#000000" stroke="none">
     <path id='letterF' d="M220 1646 c0 -7 14 -16 32 -20 71 -14 68 1 68 -401 0 -405 3 -386
       -72 -400 -22 -4 -38 -13 -38 -21 0 -12 37 -14 210 -14 172 0 210 2 210 14 0 9
       -17 16 -46 21 -81 12 -84 20 -84 215 l0 170 71 0 c106 0 147 -26 173 -113 3
       -10 12 -17 19 -15 9 4 13 46 15 156 2 147 2 152 -18 152 -11 0 -20 -7 -20 -15
       0 -32 -30 -73 -61 -84 -18 -6 -65 -11 -105 -11 l-74 0 0 155 0 155 25 6 c14 4
       81 5 148 2 150 -5 192 -21 222 -85 12 -26 27 -42 38 -43 15 0 17 10 17 73 0
       39 -3 82 -6 95 l-6 22 -359 0 c-298 0 -359 -2 -359 -14z"/>
       <path d="M1007 1653 c-3 -5 -8 -47 -12 -95 -6 -84 -6 -88 13 -88 14 0 27 14
         42 44 31 65 59 79 163 84 l87 4 0 -366 c0 -413 3 -397 -79 -411 -25 -4 -41
         -12 -41 -21 0 -12 36 -14 210 -14 172 0 210 2 210 14 0 9 -16 16 -44 20 -84
         13 -81 -1 -81 410 l0 361 87 0 c101 0 130 -15 163 -83 14 -30 26 -41 42 -42
         19 0 22 4 18 28 -2 15 -7 57 -10 95 l-7 67 -378 0 c-208 0 -381 -3 -383 -7z"/>
       </g>
     </svg>
