<?xml version="1.0" encoding="UTF-8" ?>
<!DOCTYPE svg PUBLIC "-//W3C//DTD SVG 1.1//EN" "http://www.w3.org/Graphics/SVG/1.1/DTD/svg11.dtd">
<svg width="300pt" height="168pt" viewBox="0 0 300 168" version="1.1" xmlns="http://www.w3.org/2000/svg" xmlns:xlink="http://www.w3.org/1999/xlink">
  <style type="text/css">
    .blur {
      filter: url(#svgFilter);
    }
  </style>
  <filter id="svgFilter" x="-50%" y="-50%" width="200%" height="200%">
    <feGaussianBlur id="svgFilterBlur" in="SourceGraphic" result="Blur" stdDeviation="4"/>
  </filter>
  <animate
    xlink:href="#svgFilterBlur"
    attributeName="stdDeviation"
    values="4;0;4"
    dur="3s"
    fill="freeze"
    repeatCount="indefinite"
    />
<g id="#ffffffff">
<path fill="#ffffff" opacity="1.00" d=" M 0.00 0.00 L 142.82 0.00 C 135.93 0.77 128.98 0.57 122.10 1.50 C 98.80 3.95 75.69 9.55 54.35 19.34 C 36.82 27.50 19.98 38.82 9.12 55.14 C 3.51 63.45 0.36 73.30 0.00 83.31 L 0.00 0.00 Z" />
<path fill="#ffffff" opacity="1.00" d=" M 157.36 0.00 L 300.00 0.00 L 300.00 84.45 C 299.73 75.55 297.46 66.72 292.96 59.01 C 283.87 43.10 268.73 31.67 252.82 23.15 C 223.51 7.67 190.24 1.36 157.36 0.00 Z" />
<path fill="#ffffff" opacity="1.00" d=" M 132.57 7.85 C 152.55 6.00 172.74 7.27 192.49 10.71 C 209.07 13.62 225.37 18.40 240.74 25.29 C 253.80 31.46 266.59 38.82 276.68 49.31 C 285.10 57.83 291.53 68.92 292.29 81.08 C 293.46 94.51 286.93 107.40 278.05 117.08 C 264.69 131.57 246.69 140.78 228.40 147.47 C 202.05 156.89 173.93 160.65 146.03 160.56 C 118.77 159.88 91.37 155.33 66.04 144.95 C 51.53 138.77 37.31 131.17 25.93 120.07 C 17.14 111.49 9.94 100.41 8.79 87.92 C 6.98 74.13 13.43 60.53 22.68 50.63 C 36.82 35.45 55.97 26.02 75.34 19.35 C 93.80 13.02 113.12 9.33 132.57 7.85 M 135.51 9.70 C 104.06 12.05 72.21 19.33 45.00 35.80 C 31.13 44.33 17.86 55.92 12.53 71.79 C 7.98 85.26 12.08 100.34 20.74 111.25 C 33.12 127.06 51.30 137.06 69.71 144.25 C 89.60 151.94 110.73 156.08 131.94 157.74 C 163.88 159.95 196.41 156.35 226.68 145.69 C 243.90 139.38 260.90 131.04 274.10 118.04 C 283.51 108.93 290.71 96.46 290.29 83.02 C 290.04 69.49 282.34 57.32 272.79 48.24 C 256.84 33.34 236.32 24.53 215.70 18.20 C 189.70 10.94 162.46 7.50 135.51 9.70 Z" />
<path fill="#ffffff" opacity="1.00" d=" M 202.48 53.60 C 212.83 45.57 226.82 42.96 239.54 45.56 C 245.20 46.96 250.63 49.18 256.38 50.27 C 256.50 56.12 256.87 61.97 257.38 67.80 C 256.61 67.90 255.08 68.08 254.32 68.18 C 252.29 61.60 248.97 54.55 242.19 51.77 C 234.90 48.99 226.33 48.89 219.15 52.12 C 211.06 55.89 206.36 64.46 204.97 72.99 C 203.03 84.58 204.68 97.42 211.88 107.00 C 218.86 116.72 233.23 120.19 243.90 114.88 C 249.74 112.00 253.15 106.00 254.82 99.94 C 255.46 99.97 256.73 100.05 257.37 100.09 C 256.40 105.91 255.44 111.72 254.75 117.57 C 242.66 122.03 229.23 123.35 216.67 120.18 C 208.18 118.00 200.12 113.11 195.36 105.61 C 190.01 97.52 188.45 87.43 189.27 77.90 C 190.16 68.45 194.97 59.43 202.48 53.60 Z" />
<path fill="#ffffff" opacity="1.00" d=" M 48.60 46.60 C 66.37 47.23 84.15 47.24 101.91 46.49 C 101.46 51.90 101.48 57.32 101.88 62.73 C 101.13 62.98 99.63 63.49 98.88 63.74 C 98.51 59.05 97.54 52.64 91.92 51.63 C 85.11 50.65 78.17 51.42 71.31 51.15 C 71.39 60.33 71.32 69.51 71.35 78.69 C 77.06 78.48 82.81 78.96 88.50 78.44 C 92.39 77.75 92.60 73.25 92.93 70.11 C 93.67 70.13 95.15 70.16 95.88 70.18 C 95.06 78.39 95.52 86.65 95.39 94.89 C 94.62 94.88 93.08 94.86 92.31 94.86 C 92.44 90.72 90.98 85.43 86.26 84.60 C 81.15 84.00 75.97 84.55 70.83 84.29 C 70.85 92.87 70.84 101.45 70.83 110.02 C 70.87 111.98 70.65 114.25 72.30 115.67 C 75.04 118.09 79.00 117.00 82.32 117.26 C 82.33 118.06 82.34 119.66 82.34 120.47 C 70.95 119.81 59.52 119.59 48.14 120.52 C 48.14 119.44 48.15 118.35 48.17 117.27 C 51.02 117.10 54.37 117.83 56.68 115.71 C 58.55 113.98 58.08 111.29 58.18 109.01 C 58.08 90.99 58.29 72.97 58.08 54.96 C 57.83 50.22 52.18 50.04 48.62 50.17 C 48.62 49.28 48.61 47.49 48.60 46.60 Z" />
<path fill="#ffffff" opacity="1.00" d=" M 112.83 47.52 C 123.53 48.31 134.29 48.31 144.99 47.54 C 152.02 47.72 159.71 47.91 165.56 52.36 C 171.46 56.77 172.75 65.22 170.76 71.95 C 168.84 78.32 162.97 82.41 157.09 84.79 C 163.30 94.00 169.33 103.33 175.62 112.47 C 177.85 115.94 181.74 117.59 185.74 117.85 C 185.73 118.61 185.72 120.13 185.72 120.89 C 178.85 120.69 171.98 120.15 165.13 120.97 C 156.80 110.19 149.88 98.44 142.89 86.77 C 140.57 86.79 138.26 86.80 135.94 86.80 C 135.94 94.19 135.93 101.59 135.93 108.99 C 135.98 111.67 136.27 114.76 138.40 116.66 C 140.87 118.06 143.82 117.76 146.55 117.80 C 146.55 118.83 146.54 119.86 146.54 120.90 C 135.30 120.69 124.07 120.17 112.84 120.93 C 112.85 120.16 112.87 118.61 112.88 117.84 C 116.44 117.96 121.95 117.54 122.26 112.93 C 122.47 95.29 122.27 77.64 122.36 60.00 C 122.32 57.23 122.47 53.90 120.06 51.98 C 118.14 50.18 115.28 50.92 112.90 50.73 C 112.88 49.93 112.85 48.32 112.83 47.52 M 135.94 51.82 C 135.94 62.26 135.93 72.71 135.94 83.16 C 141.00 83.08 146.41 83.61 151.07 81.24 C 155.19 79.09 157.07 74.34 157.29 69.91 C 157.77 64.92 157.16 59.28 153.41 55.58 C 148.95 51.00 141.86 50.57 135.94 51.82 Z" />
<path fill="#ffffff" opacity="1.00" d=" M 0.00 83.59 C 0.16 96.88 5.83 109.57 14.43 119.53 C 26.27 133.41 42.21 143.14 58.76 150.42 C 86.68 162.49 117.20 167.36 147.47 168.00 L 0.00 168.00 L 0.00 83.59 Z" />
<path fill="#ffffff" opacity="1.00" d=" M 284.34 121.39 C 293.46 111.35 299.70 98.40 300.00 84.69 L 300.00 168.00 L 156.44 168.00 C 184.45 166.98 212.63 162.45 238.64 151.70 C 255.62 144.72 271.98 135.17 284.34 121.39 Z" />
</g>
<g id="#004996ff">
<path fill="#004996" opacity="1.00" d=" M 142.82 0.00 L 157.36 0.00 C 190.24 1.36 223.51 7.67 252.82 23.15 C 268.73 31.67 283.87 43.10 292.96 59.01 C 297.46 66.72 299.73 75.55 300.00 84.45 L 300.00 84.69 C 299.70 98.40 293.46 111.35 284.34 121.39 C 271.98 135.17 255.62 144.72 238.64 151.70 C 212.63 162.45 184.45 166.98 156.44 168.00 L 147.47 168.00 C 117.20 167.36 86.68 162.49 58.76 150.42 C 42.21 143.14 26.27 133.41 14.43 119.53 C 5.83 109.57 0.16 96.88 0.00 83.59 L 0.00 83.31 C 0.36 73.30 3.51 63.45 9.12 55.14 C 19.98 38.82 36.82 27.50 54.35 19.34 C 75.69 9.55 98.80 3.95 122.10 1.50 C 128.98 0.57 135.93 0.77 142.82 0.00 M 132.57 7.85 C 113.12 9.33 93.80 13.02 75.34 19.35 C 55.97 26.02 36.82 35.45 22.68 50.63 C 13.43 60.53 6.98 74.13 8.79 87.92 C 9.94 100.41 17.14 111.49 25.93 120.07 C 37.31 131.17 51.53 138.77 66.04 144.95 C 91.37 155.33 118.77 159.88 146.03 160.56 C 173.93 160.65 202.05 156.89 228.40 147.47 C 246.69 140.78 264.69 131.57 278.05 117.08 C 286.93 107.40 293.46 94.51 292.29 81.08 C 291.53 68.92 285.10 57.83 276.68 49.31 C 266.59 38.82 253.80 31.46 240.74 25.29 C 225.37 18.40 209.07 13.62 192.49 10.71 C 172.74 7.27 152.55 6.00 132.57 7.85 Z" />
<path fill="#004996" opacity="1.00" d=" M 135.51 9.70 C 162.46 7.50 189.70 10.94 215.70 18.20 C 236.32 24.53 256.84 33.34 272.79 48.24 C 282.34 57.32 290.04 69.49 290.29 83.02 C 290.71 96.46 283.51 108.93 274.10 118.04 C 260.90 131.04 243.90 139.38 226.68 145.69 C 196.41 156.35 163.88 159.95 131.94 157.74 C 110.73 156.08 89.60 151.94 69.71 144.25 C 51.30 137.06 33.12 127.06 20.74 111.25 C 12.08 100.34 7.98 85.26 12.53 71.79 C 17.86 55.92 31.13 44.33 45.00 35.80 C 72.21 19.33 104.06 12.05 135.51 9.70 M 202.48 53.60 C 194.97 59.43 190.16 68.45 189.27 77.90 C 188.45 87.43 190.01 97.52 195.36 105.61 C 200.12 113.11 208.18 118.00 216.67 120.18 C 229.23 123.35 242.66 122.03 254.75 117.57 C 255.44 111.72 256.40 105.91 257.37 100.09 C 256.73 100.05 255.46 99.97 254.82 99.94 C 253.15 106.00 249.74 112.00 243.90 114.88 C 233.23 120.19 218.86 116.72 211.88 107.00 C 204.68 97.42 203.03 84.58 204.97 72.99 C 206.36 64.46 211.06 55.89 219.15 52.12 C 226.33 48.89 234.90 48.99 242.19 51.77 C 248.97 54.55 252.29 61.60 254.32 68.18 C 255.08 68.08 256.61 67.90 257.38 67.80 C 256.87 61.97 256.50 56.12 256.38 50.27 C 250.63 49.18 245.20 46.96 239.54 45.56 C 226.82 42.96 212.83 45.57 202.48 53.60 M 48.60 46.60 C 48.61 47.49 48.62 49.28 48.62 50.17 C 52.18 50.04 57.83 50.22 58.08 54.96 C 58.29 72.97 58.08 90.99 58.18 109.01 C 58.08 111.29 58.55 113.98 56.68 115.71 C 54.37 117.83 51.02 117.10 48.17 117.27 C 48.15 118.35 48.14 119.44 48.14 120.52 C 59.52 119.59 70.95 119.81 82.34 120.47 C 82.34 119.66 82.33 118.06 82.32 117.26 C 79.00 117.00 75.04 118.09 72.30 115.67 C 70.65 114.25 70.87 111.98 70.83 110.02 C 70.84 101.45 70.85 92.87 70.83 84.29 C 75.97 84.55 81.15 84.00 86.26 84.60 C 90.98 85.43 92.44 90.72 92.31 94.86 C 93.08 94.86 94.62 94.88 95.39 94.89 C 95.52 86.65 95.06 78.39 95.88 70.18 C 95.15 70.16 93.67 70.13 92.93 70.11 C 92.60 73.25 92.39 77.75 88.50 78.44 C 82.81 78.96 77.06 78.48 71.35 78.69 C 71.32 69.51 71.39 60.33 71.31 51.15 C 78.17 51.42 85.11 50.65 91.92 51.63 C 97.54 52.64 98.51 59.05 98.88 63.74 C 99.63 63.49 101.13 62.98 101.88 62.73 C 101.48 57.32 101.46 51.90 101.91 46.49 C 84.15 47.24 66.37 47.23 48.60 46.60 M 112.83 47.52 C 112.85 48.32 112.88 49.93 112.90 50.73 C 115.28 50.92 118.14 50.18 120.06 51.98 C 122.47 53.90 122.32 57.23 122.36 60.00 C 122.27 77.64 122.47 95.29 122.26 112.93 C 121.95 117.54 116.44 117.96 112.88 117.84 C 112.87 118.61 112.85 120.16 112.84 120.93 C 124.07 120.17 135.30 120.69 146.54 120.90 C 146.54 119.86 146.55 118.83 146.55 117.80 C 143.82 117.76 140.87 118.06 138.40 116.66 C 136.27 114.76 135.98 111.67 135.93 108.99 C 135.93 101.59 135.94 94.19 135.94 86.80 C 138.26 86.80 140.57 86.79 142.89 86.77 C 149.88 98.44 156.80 110.19 165.13 120.97 C 171.98 120.15 178.85 120.69 185.72 120.89 C 185.72 120.13 185.73 118.61 185.74 117.85 C 181.74 117.59 177.85 115.94 175.62 112.47 C 169.33 103.33 163.30 94.00 157.09 84.79 C 162.97 82.41 168.84 78.32 170.76 71.95 C 172.75 65.22 171.46 56.77 165.56 52.36 C 159.71 47.91 152.02 47.72 144.99 47.54 C 134.29 48.31 123.53 48.31 112.83 47.52 Z" />
<path fill="#004996" opacity="1.00" d=" M 135.94 51.82 C 141.86 50.57 148.95 51.00 153.41 55.58 C 157.16 59.28 157.77 64.92 157.29 69.91 C 157.07 74.34 155.19 79.09 151.07 81.24 C 146.41 83.61 141.00 83.08 135.94 83.16 C 135.93 72.71 135.94 62.26 135.94 51.82 Z" />
</g>
</svg>
