<?xml version="1.0" encoding="UTF-8" ?>
<!DOCTYPE svg PUBLIC "-//W3C//DTD SVG 1.1//EN" "http://www.w3.org/Graphics/SVG/1.1/DTD/svg11.dtd">
<svg width="298pt" height="169pt" viewBox="0 0 298 169" version="1.1" xmlns="http://www.w3.org/2000/svg" xmlns:xlink="http://www.w3.org/1999/xlink">
  <style type="text/css">
    .blur {
      filter: url(#svgFilter);
    }
  </style>
  <filter id="svgFilter" x="-50%" y="-50%" width="200%" height="200%">
    <feGaussianBlur id="svgFilterBlur" in="SourceGraphic" result="Blur" stdDeviation="3"/>
  </filter>
  <animate
    xlink:href="#svgFilterBlur"
    attributeName="stdDeviation"
    values="3;0;3"
    dur="3s"
    fill="freeze"
    repeatCount="indefinite"
    />
<g id="#ffffffff">
<path fill="#ffffff" opacity="1.00" d=" M 0.00 0.00 L 298.00 0.00 L 298.00 169.00 L 0.00 169.00 L 0.00 0.00 M 140.01 6.24 C 141.34 9.98 142.58 13.76 143.65 17.58 C 143.93 18.59 143.84 19.57 143.37 20.54 C 139.87 19.35 136.35 18.22 132.80 17.17 C 132.82 22.20 132.83 27.23 132.78 32.27 C 135.72 30.73 138.58 29.06 141.58 27.63 C 142.49 27.03 143.56 27.43 144.53 27.63 C 142.31 33.66 140.33 39.78 138.38 45.89 C 136.60 50.88 140.15 56.64 145.20 57.80 C 151.46 59.70 158.44 53.30 156.83 46.91 C 155.13 40.34 152.50 34.04 150.60 27.53 C 150.94 27.43 151.61 27.24 151.95 27.14 C 155.58 28.36 158.77 30.61 162.22 32.26 C 162.17 27.23 162.16 22.19 162.23 17.16 C 158.64 18.12 155.20 19.59 151.57 20.37 C 151.43 20.06 151.16 19.44 151.03 19.13 C 151.96 14.73 153.51 10.48 154.99 6.24 C 150.00 6.30 145.00 6.31 140.01 6.24 M 99.48 26.73 C 94.53 29.11 93.63 36.65 98.00 40.01 C 102.47 44.08 110.61 41.03 111.22 34.98 C 112.39 28.85 104.87 23.31 99.48 26.73 M 189.29 26.15 C 183.99 27.72 181.74 35.21 185.82 39.16 C 189.77 44.31 199.38 41.58 199.75 34.98 C 200.87 29.37 194.60 24.08 189.29 26.15 M 121.32 32.59 C 115.79 34.24 113.54 42.06 118.01 46.03 C 122.41 51.00 131.56 47.50 131.75 40.97 C 132.48 35.53 126.46 30.69 121.32 32.59 M 168.49 32.74 C 165.57 33.85 163.26 36.72 163.25 39.92 C 162.92 43.56 165.59 47.01 169.01 48.05 C 173.67 49.69 179.06 45.89 179.39 41.05 C 180.03 35.52 173.73 30.39 168.49 32.74 M 81.33 37.36 C 76.54 39.44 75.07 46.45 78.93 50.10 C 82.80 54.65 91.02 52.72 92.53 46.96 C 94.82 40.67 87.23 34.00 81.33 37.36 M 207.25 37.09 C 202.59 38.83 200.52 45.15 203.58 49.18 C 206.74 54.33 215.37 53.47 217.58 47.89 C 220.87 41.77 213.50 34.17 207.25 37.09 M 78.75 56.87 C 73.30 57.39 69.14 64.05 72.36 68.89 C 75.11 74.61 84.20 74.34 86.68 68.52 C 89.66 63.19 84.62 56.27 78.75 56.87 M 214.74 56.88 C 208.80 57.46 205.29 65.06 209.09 69.80 C 212.32 74.58 220.28 73.98 222.73 68.76 C 226.16 63.43 220.72 56.15 214.74 56.88 M 179.15 68.24 C 177.36 73.16 179.21 78.36 181.18 82.92 C 178.73 80.81 175.01 78.91 171.96 80.97 C 169.03 83.04 169.62 86.96 169.81 90.04 C 171.55 88.71 173.39 86.38 175.87 87.37 C 178.86 88.93 179.31 93.16 177.88 95.95 C 175.78 99.84 171.27 101.78 167.02 102.11 C 162.13 102.54 156.50 101.80 153.14 97.84 C 150.43 94.49 150.12 90.06 150.15 85.93 C 155.58 86.30 159.68 90.39 162.71 94.54 C 163.32 88.25 163.58 81.93 164.49 75.67 C 160.80 79.77 155.44 82.12 149.92 81.93 C 152.25 76.95 155.58 72.51 159.34 68.52 C 151.44 68.56 143.55 68.56 135.65 68.52 C 139.47 72.46 142.71 76.96 145.10 81.90 C 139.58 82.15 134.25 79.76 130.53 75.72 C 131.43 81.97 131.69 88.27 132.29 94.54 C 135.29 90.36 139.45 86.35 144.85 85.93 C 145.17 91.56 143.67 98.45 137.87 100.81 C 131.55 103.24 123.21 102.92 118.32 97.72 C 115.64 94.93 115.48 89.34 119.17 87.35 C 121.65 86.40 123.46 88.71 125.18 90.06 C 125.51 86.80 125.89 82.52 122.55 80.63 C 119.44 79.13 116.25 80.97 113.85 82.90 C 115.80 78.32 117.65 73.09 115.86 68.16 C 114.70 64.30 111.60 61.56 108.75 58.93 C 106.55 62.26 104.16 65.86 104.34 70.03 C 104.10 75.33 107.71 79.66 111.06 83.35 C 108.62 82.61 105.73 81.83 103.46 83.45 C 101.76 84.31 101.34 86.30 100.62 87.90 C 101.13 89.79 101.61 91.68 102.07 93.58 C 103.48 91.66 105.16 88.94 107.99 89.60 C 111.49 90.79 112.59 95.30 111.32 98.48 C 109.90 102.88 104.21 104.91 100.19 102.82 C 94.86 100.53 91.94 95.19 89.25 90.37 C 92.59 90.44 95.41 92.28 98.04 94.12 C 96.49 88.17 94.28 82.41 92.97 76.40 C 91.82 80.14 90.30 83.80 87.89 86.92 C 86.70 82.89 87.02 78.62 87.98 74.58 C 84.34 76.05 80.64 77.34 76.94 78.64 C 85.55 89.99 89.71 103.86 93.34 117.44 C 114.05 114.10 135.09 113.52 156.03 113.74 C 171.38 114.12 186.72 115.05 201.91 117.38 C 205.02 103.70 209.68 90.03 218.03 78.61 C 214.35 77.33 210.68 76.03 207.05 74.62 C 208.02 78.66 208.25 82.91 207.13 86.95 C 204.75 83.87 203.21 80.27 202.09 76.56 C 200.62 82.47 198.53 88.19 197.01 94.08 C 199.62 92.25 202.43 90.45 205.74 90.37 C 202.65 96.21 198.37 103.36 190.97 103.63 C 184.43 103.95 180.42 94.80 185.43 90.47 C 188.33 87.92 191.52 91.02 192.92 93.59 C 193.52 90.99 195.00 88.13 193.50 85.56 C 191.88 82.28 187.44 81.74 184.48 83.45 C 184.49 83.24 184.51 82.82 184.52 82.61 C 187.76 79.19 190.90 74.95 190.67 70.00 C 190.84 65.84 188.46 62.28 186.32 58.94 C 183.37 61.53 180.27 64.33 179.15 68.24 M 81.13 137.18 C 74.12 141.71 73.14 152.96 79.52 158.45 C 84.97 163.25 93.24 162.37 99.56 159.92 C 99.55 156.15 99.55 152.37 99.60 148.60 C 96.58 148.62 93.56 148.62 90.54 148.60 C 90.56 149.71 90.59 150.82 90.61 151.93 C 92.30 151.90 93.99 151.86 95.68 151.84 C 95.71 153.74 95.74 155.64 95.78 157.54 C 91.96 158.90 87.49 159.37 83.88 157.15 C 77.83 153.83 77.50 144.06 83.11 140.16 C 87.80 136.61 94.29 138.19 99.06 140.76 C 99.04 139.50 99.02 138.24 99.01 136.98 C 93.42 134.41 86.47 133.52 81.13 137.18 M 114.32 135.16 C 108.92 136.33 104.62 141.14 103.98 146.61 C 102.61 154.58 109.82 162.64 117.98 161.85 C 126.00 162.64 133.59 155.17 132.45 147.09 C 132.02 138.42 122.30 132.80 114.32 135.16 M 133.30 135.20 C 137.50 144.17 141.09 153.41 145.17 162.43 C 149.42 153.46 152.90 144.15 156.92 135.08 C 155.68 135.11 154.45 135.20 153.22 135.33 C 150.23 141.47 147.84 147.90 145.04 154.14 C 142.74 147.66 139.74 141.45 137.11 135.10 C 135.84 135.13 134.57 135.16 133.30 135.20 M 169.62 135.12 C 169.65 140.75 169.53 146.39 169.67 152.02 C 169.68 154.94 170.91 157.94 173.32 159.70 C 176.64 162.18 181.10 162.14 185.01 161.47 C 188.98 160.67 192.10 157.12 192.38 153.08 C 192.73 147.10 192.43 141.11 192.53 135.13 C 191.25 135.14 189.98 135.15 188.72 135.17 C 188.58 141.40 188.96 147.66 188.54 153.88 C 186.63 160.36 175.57 160.34 173.62 153.92 C 173.13 147.69 173.56 141.42 173.42 135.17 C 172.15 135.15 170.89 135.13 169.62 135.12 M 197.34 135.14 C 197.32 143.97 197.37 152.81 197.31 161.65 C 198.60 161.59 199.90 161.53 201.20 161.49 C 201.11 157.14 201.14 152.78 201.12 148.43 C 205.63 152.80 210.16 157.14 214.61 161.57 C 216.39 161.59 218.17 161.61 219.96 161.63 C 214.97 157.12 210.36 152.22 205.41 147.68 C 209.34 143.55 213.10 139.27 217.02 135.13 C 215.41 135.14 213.81 135.17 212.22 135.20 C 208.58 139.31 204.74 143.24 201.08 147.31 C 201.15 143.29 201.14 139.26 201.17 135.23 C 199.89 135.19 198.61 135.17 197.34 135.14 M 158.31 158.24 C 157.02 160.41 159.60 161.85 160.99 163.02 C 162.29 161.84 164.65 160.48 163.61 158.39 C 162.85 156.08 159.20 156.00 158.31 158.24 Z" />
<path fill="#ffffff" opacity="1.00" d=" M 114.59 138.71 C 118.88 137.49 124.09 138.49 126.71 142.37 C 130.53 147.20 128.52 155.35 122.71 157.61 C 117.20 160.23 109.40 157.25 108.08 151.03 C 106.67 146.02 109.59 140.30 114.59 138.71 Z" />
</g>
<g id="#3e3e3eff">
<path fill="#3e3e3e" opacity="1.00" d=" M 140.01 6.24 C 145.00 6.31 150.00 6.30 154.99 6.24 C 153.51 10.48 151.96 14.73 151.03 19.13 C 151.16 19.44 151.43 20.06 151.57 20.37 C 155.20 19.59 158.64 18.12 162.23 17.16 C 162.16 22.19 162.17 27.23 162.22 32.26 C 158.77 30.61 155.58 28.36 151.95 27.14 C 151.61 27.24 150.94 27.43 150.60 27.53 C 152.50 34.04 155.13 40.34 156.83 46.91 C 158.44 53.30 151.46 59.70 145.20 57.80 C 140.15 56.64 136.60 50.88 138.38 45.89 C 140.33 39.78 142.31 33.66 144.53 27.63 C 143.56 27.43 142.49 27.03 141.58 27.63 C 138.58 29.06 135.72 30.73 132.78 32.27 C 132.83 27.23 132.82 22.20 132.80 17.17 C 136.35 18.22 139.87 19.35 143.37 20.54 C 143.84 19.57 143.93 18.59 143.65 17.58 C 142.58 13.76 141.34 9.98 140.01 6.24 Z" />
<path fill="#3e3e3e" opacity="1.00" d=" M 99.48 26.73 C 104.87 23.31 112.39 28.85 111.22 34.98 C 110.61 41.03 102.47 44.08 98.00 40.01 C 93.63 36.65 94.53 29.11 99.48 26.73 Z" />
<path fill="#3e3e3e" opacity="1.00" d=" M 189.29 26.15 C 194.60 24.08 200.87 29.37 199.75 34.98 C 199.38 41.58 189.77 44.31 185.82 39.16 C 181.74 35.21 183.99 27.72 189.29 26.15 Z" />
<path fill="#3e3e3e" opacity="1.00" d=" M 121.32 32.59 C 126.46 30.69 132.48 35.53 131.75 40.97 C 131.56 47.50 122.41 51.00 118.01 46.03 C 113.54 42.06 115.79 34.24 121.32 32.59 Z" />
<path fill="#3e3e3e" opacity="1.00" d=" M 168.49 32.74 C 173.73 30.39 180.03 35.52 179.39 41.05 C 179.06 45.89 173.67 49.69 169.01 48.05 C 165.59 47.01 162.92 43.56 163.25 39.92 C 163.26 36.72 165.57 33.85 168.49 32.74 Z" />
<path fill="#3e3e3e" opacity="1.00" d=" M 81.33 37.36 C 87.23 34.00 94.82 40.67 92.53 46.96 C 91.02 52.72 82.80 54.65 78.93 50.10 C 75.07 46.45 76.54 39.44 81.33 37.36 Z" />
<path fill="#3e3e3e" opacity="1.00" d=" M 207.25 37.09 C 213.50 34.17 220.87 41.77 217.58 47.89 C 215.37 53.47 206.74 54.33 203.58 49.18 C 200.52 45.15 202.59 38.83 207.25 37.09 Z" />
<path fill="#3e3e3e" opacity="1.00" d=" M 78.75 56.87 C 84.62 56.27 89.66 63.19 86.68 68.52 C 84.20 74.34 75.11 74.61 72.36 68.89 C 69.14 64.05 73.30 57.39 78.75 56.87 Z" />
<path fill="#3e3e3e" opacity="1.00" d=" M 214.74 56.88 C 220.72 56.15 226.16 63.43 222.73 68.76 C 220.28 73.98 212.32 74.58 209.09 69.80 C 205.29 65.06 208.80 57.46 214.74 56.88 Z" />
<path fill="#3e3e3e" opacity="1.00" d=" M 179.15 68.24 C 180.27 64.33 183.37 61.53 186.32 58.94 C 188.46 62.28 190.84 65.84 190.67 70.00 C 190.90 74.95 187.76 79.19 184.52 82.61 C 184.51 82.82 184.49 83.24 184.48 83.45 C 187.44 81.74 191.88 82.28 193.50 85.56 C 195.00 88.13 193.52 90.99 192.92 93.59 C 191.52 91.02 188.33 87.92 185.43 90.47 C 180.42 94.80 184.43 103.95 190.97 103.63 C 198.37 103.36 202.65 96.21 205.74 90.37 C 202.43 90.45 199.62 92.25 197.01 94.08 C 198.53 88.19 200.62 82.47 202.09 76.56 C 203.21 80.27 204.75 83.87 207.13 86.95 C 208.25 82.91 208.02 78.66 207.05 74.62 C 210.68 76.03 214.35 77.33 218.03 78.61 C 209.68 90.03 205.02 103.70 201.91 117.38 C 186.72 115.05 171.38 114.12 156.03 113.74 C 135.09 113.52 114.05 114.10 93.34 117.44 C 89.71 103.86 85.55 89.99 76.94 78.64 C 80.64 77.34 84.34 76.05 87.98 74.58 C 87.02 78.62 86.70 82.89 87.89 86.92 C 90.30 83.80 91.82 80.14 92.97 76.40 C 94.28 82.41 96.49 88.17 98.04 94.12 C 95.41 92.28 92.59 90.44 89.25 90.37 C 91.94 95.19 94.86 100.53 100.19 102.82 C 104.21 104.91 109.90 102.88 111.32 98.48 C 112.59 95.30 111.49 90.79 107.99 89.60 C 105.16 88.94 103.48 91.66 102.07 93.58 C 101.61 91.68 101.13 89.79 100.62 87.90 C 101.34 86.30 101.76 84.31 103.46 83.45 C 105.73 81.83 108.62 82.61 111.06 83.35 C 107.71 79.66 104.10 75.33 104.34 70.03 C 104.16 65.86 106.55 62.26 108.75 58.93 C 111.60 61.56 114.70 64.30 115.86 68.16 C 117.65 73.09 115.80 78.32 113.85 82.90 C 116.25 80.97 119.44 79.13 122.55 80.63 C 125.89 82.52 125.51 86.80 125.18 90.06 C 123.46 88.71 121.65 86.40 119.17 87.35 C 115.48 89.34 115.64 94.93 118.32 97.72 C 123.21 102.92 131.55 103.24 137.87 100.81 C 143.67 98.45 145.17 91.56 144.85 85.93 C 139.45 86.35 135.29 90.36 132.29 94.54 C 131.69 88.27 131.43 81.97 130.53 75.72 C 134.25 79.76 139.58 82.15 145.10 81.90 C 142.71 76.96 139.47 72.46 135.65 68.52 C 143.55 68.56 151.44 68.56 159.34 68.52 C 155.58 72.51 152.25 76.95 149.92 81.93 C 155.44 82.12 160.80 79.77 164.49 75.67 C 163.58 81.93 163.32 88.25 162.71 94.54 C 159.68 90.39 155.58 86.30 150.15 85.93 C 150.12 90.06 150.43 94.49 153.14 97.84 C 156.50 101.80 162.13 102.54 167.02 102.11 C 171.27 101.78 175.78 99.84 177.88 95.95 C 179.31 93.16 178.86 88.93 175.87 87.37 C 173.39 86.38 171.55 88.71 169.81 90.04 C 169.62 86.96 169.03 83.04 171.96 80.97 C 175.01 78.91 178.73 80.81 181.18 82.92 C 179.21 78.36 177.36 73.16 179.15 68.24 Z" />
<path fill="#3e3e3e" opacity="1.00" d=" M 81.13 137.18 C 86.47 133.52 93.42 134.41 99.01 136.98 C 99.02 138.24 99.04 139.50 99.06 140.76 C 94.29 138.19 87.80 136.61 83.11 140.16 C 77.50 144.06 77.83 153.83 83.88 157.15 C 87.49 159.37 91.96 158.90 95.78 157.54 C 95.74 155.64 95.71 153.74 95.68 151.84 C 93.99 151.86 92.30 151.90 90.61 151.93 C 90.59 150.82 90.56 149.71 90.54 148.60 C 93.56 148.62 96.58 148.62 99.60 148.60 C 99.55 152.37 99.55 156.15 99.56 159.92 C 93.24 162.37 84.97 163.25 79.52 158.45 C 73.14 152.96 74.12 141.71 81.13 137.18 Z" />
<path fill="#3e3e3e" opacity="1.00" d=" M 114.32 135.16 C 122.30 132.80 132.02 138.42 132.45 147.09 C 133.59 155.17 126.00 162.64 117.98 161.85 C 109.82 162.64 102.61 154.58 103.98 146.61 C 104.62 141.14 108.92 136.33 114.32 135.16 M 114.59 138.71 C 109.59 140.30 106.67 146.02 108.08 151.03 C 109.40 157.25 117.20 160.23 122.71 157.61 C 128.52 155.35 130.53 147.20 126.71 142.37 C 124.09 138.49 118.88 137.49 114.59 138.71 Z" />
<path fill="#3e3e3e" opacity="1.00" d=" M 133.30 135.20 C 134.57 135.16 135.84 135.13 137.11 135.10 C 139.74 141.45 142.74 147.66 145.04 154.14 C 147.84 147.90 150.23 141.47 153.22 135.33 C 154.45 135.20 155.68 135.11 156.92 135.08 C 152.90 144.15 149.42 153.46 145.17 162.43 C 141.09 153.41 137.50 144.17 133.30 135.20 Z" />
<path fill="#3e3e3e" opacity="1.00" d=" M 169.62 135.12 C 170.89 135.13 172.15 135.15 173.42 135.17 C 173.56 141.42 173.13 147.69 173.62 153.92 C 175.57 160.34 186.63 160.36 188.54 153.88 C 188.96 147.66 188.58 141.40 188.72 135.17 C 189.98 135.15 191.25 135.14 192.53 135.13 C 192.43 141.11 192.73 147.10 192.38 153.08 C 192.10 157.12 188.98 160.67 185.01 161.47 C 181.10 162.14 176.64 162.18 173.32 159.70 C 170.91 157.94 169.68 154.94 169.67 152.02 C 169.53 146.39 169.65 140.75 169.62 135.12 Z" />
<path fill="#3e3e3e" opacity="1.00" d=" M 197.34 135.14 C 198.61 135.17 199.89 135.19 201.17 135.23 C 201.14 139.26 201.15 143.29 201.08 147.31 C 204.74 143.24 208.58 139.31 212.22 135.20 C 213.81 135.17 215.41 135.14 217.02 135.13 C 213.10 139.27 209.34 143.55 205.41 147.68 C 210.36 152.22 214.97 157.12 219.96 161.63 C 218.17 161.61 216.39 161.59 214.61 161.57 C 210.16 157.14 205.63 152.80 201.12 148.43 C 201.14 152.78 201.11 157.14 201.20 161.49 C 199.90 161.53 198.60 161.59 197.31 161.65 C 197.37 152.81 197.32 143.97 197.34 135.14 Z" />
<path fill="#3e3e3e" opacity="1.00" d=" M 158.31 158.24 C 159.20 156.00 162.85 156.08 163.61 158.39 C 164.65 160.48 162.29 161.84 160.99 163.02 C 159.60 161.85 157.02 160.41 158.31 158.24 Z" />
</g>
</svg>
