<?xml version="1.0" encoding="UTF-8" ?>
<!DOCTYPE svg PUBLIC "-//W3C//DTD SVG 1.1//EN" "http://www.w3.org/Graphics/SVG/1.1/DTD/svg11.dtd">
<svg width="1200pt" height="716pt" viewBox="0 0 1200 716" version="1.1" xmlns="http://www.w3.org/2000/svg">
<g id="#01928cff">
<path fill="#01928c" opacity="1.00" d=" M 0.00 0.00 L 16.92 0.00 C 16.92 237.46 16.92 474.92 16.92 712.38 C 11.28 712.39 5.64 712.38 0.00 712.39 L 0.00 0.00 Z" />
</g>
<g id="#231f20ff">
<path fill="#231f20" opacity="1.00" d=" M 228.53 0.00 L 243.04 0.00 C 269.30 1.58 295.18 10.09 316.80 25.18 C 344.18 43.91 364.79 72.37 373.79 104.32 C 381.35 130.85 381.06 159.57 372.88 185.92 C 363.63 216.15 343.97 243.03 318.07 261.14 C 294.50 277.80 265.81 287.13 236.93 287.32 C 207.09 287.73 177.26 278.40 152.90 261.19 C 127.83 243.66 108.59 217.95 98.98 188.90 C 89.82 161.48 89.27 131.29 97.35 103.54 C 105.94 73.73 124.60 47.00 149.48 28.49 C 172.19 11.32 200.14 1.48 228.53 0.00 M 219.53 17.72 C 207.70 19.22 196.08 22.33 185.15 27.10 C 155.41 39.87 130.99 64.50 118.47 94.34 C 108.93 116.73 106.20 141.91 110.46 165.85 C 115.36 193.80 130.09 219.86 151.40 238.58 C 172.17 257.12 199.21 268.47 227.00 270.24 C 251.59 271.93 276.63 266.22 298.03 253.96 C 325.03 238.69 346.10 213.23 355.88 183.77 C 365.31 155.78 364.49 124.49 353.55 97.05 C 342.29 68.38 320.14 44.23 292.68 30.33 C 270.28 18.91 244.45 14.64 219.53 17.72 Z" />
<path fill="#231f20" opacity="1.00" d=" M 222.15 42.98 C 230.99 42.37 239.93 42.36 248.77 42.98 C 246.75 44.76 244.07 45.46 241.85 46.92 C 239.15 48.95 238.71 52.53 238.03 55.61 C 240.84 54.85 244.16 54.53 246.21 52.19 C 247.81 50.20 248.76 47.78 250.14 45.63 C 251.21 49.33 250.82 53.21 250.86 57.01 C 250.78 61.42 251.24 65.89 250.24 70.23 C 248.52 68.12 247.14 65.73 245.17 63.84 C 243.19 61.97 240.47 61.30 237.95 60.50 C 238.59 63.62 239.09 67.18 241.69 69.37 C 243.74 70.93 246.33 71.53 248.63 72.64 C 247.54 73.32 246.34 73.83 245.03 73.73 C 239.68 73.81 234.34 73.66 229.00 73.77 C 226.73 73.72 224.26 74.05 222.29 72.68 C 224.60 71.52 227.24 70.92 229.30 69.30 C 231.84 67.11 232.31 63.60 232.98 60.52 C 230.47 61.29 227.75 61.94 225.78 63.81 C 223.79 65.69 222.42 68.10 220.72 70.22 C 219.65 65.90 220.16 61.42 220.07 57.02 C 220.11 53.22 219.71 49.34 220.80 45.63 C 222.16 47.81 223.12 50.24 224.75 52.24 C 226.81 54.57 230.12 54.86 232.95 55.60 C 232.18 52.56 231.77 48.96 229.09 46.93 C 226.85 45.47 224.19 44.74 222.15 42.98 Z" />
<path fill="#231f20" opacity="1.00" d=" M 232.25 75.24 C 238.78 73.07 246.32 78.14 246.67 85.02 C 247.43 91.52 241.49 97.72 234.96 97.20 C 228.15 97.14 222.73 89.95 224.50 83.38 C 225.41 79.55 228.42 76.27 232.25 75.24 Z" />
<path fill="#231f20" opacity="1.00" d=" M 174.46 89.56 C 175.90 86.05 181.23 85.40 183.44 88.51 C 185.09 90.30 184.29 92.79 184.01 94.92 C 185.65 94.99 187.29 95.07 188.93 95.17 C 188.86 92.88 188.38 90.05 190.53 88.49 C 193.24 85.95 198.20 87.42 199.09 91.02 C 199.92 93.22 198.33 95.18 197.34 97.00 C 198.76 97.40 200.17 97.81 201.59 98.23 C 201.66 96.11 201.21 93.58 203.03 92.01 C 205.59 89.25 210.70 90.47 211.79 94.06 C 212.83 96.50 211.04 98.68 209.79 100.61 C 210.58 100.83 212.17 101.28 212.96 101.50 C 213.72 99.58 214.09 97.08 216.23 96.18 C 218.98 94.65 222.83 96.19 223.71 99.21 C 224.64 101.50 223.04 103.59 222.03 105.52 C 224.90 107.27 228.77 109.09 228.81 113.00 C 229.08 126.10 228.83 139.22 228.92 152.33 C 226.94 152.33 224.96 152.33 222.98 152.33 C 222.85 141.22 222.72 130.11 222.63 119.00 C 222.43 117.31 222.87 114.93 220.99 114.06 C 212.00 109.14 202.18 105.91 192.22 103.64 C 185.86 102.04 178.89 101.97 172.88 104.88 C 161.60 110.01 155.24 123.02 156.44 135.11 C 157.01 142.63 161.06 149.20 164.03 155.95 C 161.65 156.27 159.27 156.59 156.90 156.91 C 156.05 154.89 155.20 152.88 154.35 150.87 C 151.32 151.73 147.28 151.37 146.21 147.86 C 144.85 144.53 147.58 141.73 150.36 140.40 C 150.24 139.75 150.02 138.44 149.91 137.79 C 148.05 137.69 145.88 138.17 144.34 136.84 C 141.80 135.03 141.55 130.95 143.84 128.84 C 145.33 127.24 147.68 127.51 149.65 127.25 C 149.86 126.08 150.07 124.91 150.28 123.75 C 148.07 123.34 145.27 123.31 144.10 121.02 C 142.26 118.22 143.86 114.07 147.07 113.17 C 149.29 112.37 151.32 113.87 153.19 114.84 C 153.94 113.53 154.69 112.23 155.46 110.93 C 153.20 110.52 150.42 110.08 149.43 107.66 C 147.49 104.04 151.03 99.31 155.05 100.15 C 157.76 100.35 158.90 103.07 159.92 105.17 C 161.17 104.02 162.44 102.88 163.72 101.76 C 161.79 100.37 159.37 98.70 159.77 95.94 C 159.84 91.97 164.89 89.55 168.06 91.89 C 170.12 93.07 170.14 95.63 170.58 97.69 C 172.21 97.06 173.84 96.47 175.49 95.90 C 174.60 93.94 173.30 91.71 174.46 89.56 Z" />
<path fill="#231f20" opacity="1.00" d=" M 272.19 90.14 C 273.67 86.83 278.67 86.21 280.93 89.04 C 282.59 90.69 281.97 93.14 281.96 95.21 C 283.60 95.10 285.25 95.00 286.90 94.92 C 286.62 92.78 285.86 90.30 287.50 88.49 C 289.68 85.49 294.97 86.03 296.41 89.49 C 297.64 91.65 296.36 93.92 295.44 95.90 C 297.07 96.47 298.70 97.06 300.33 97.66 C 300.68 95.37 301.07 92.54 303.54 91.54 C 307.14 89.60 311.89 93.06 311.10 97.09 C 310.94 99.36 308.74 100.47 307.22 101.78 C 308.49 102.88 309.75 104.00 311.01 105.13 C 312.04 103.04 313.22 100.36 315.92 100.19 C 319.89 99.37 323.38 104.01 321.53 107.61 C 320.58 110.09 317.78 110.61 315.47 110.94 C 316.22 112.23 316.97 113.53 317.71 114.84 C 319.64 113.93 321.71 112.37 323.96 113.25 C 327.34 114.21 328.78 118.85 326.48 121.54 C 325.19 123.46 322.69 123.36 320.67 123.75 C 320.81 124.64 321.09 126.43 321.23 127.32 C 323.21 127.55 325.58 127.22 327.07 128.84 C 329.34 130.93 329.14 134.95 326.69 136.80 C 325.15 138.18 322.93 137.70 321.06 137.86 C 320.93 138.50 320.68 139.77 320.56 140.41 C 323.30 141.76 326.10 144.51 324.72 147.85 C 323.64 151.32 319.61 151.78 316.58 150.94 C 315.73 152.92 314.89 154.91 314.05 156.90 C 311.67 156.59 309.29 156.27 306.91 155.96 C 309.88 149.16 313.97 142.58 314.50 135.01 C 315.71 122.46 308.71 108.90 296.64 104.29 C 289.91 101.56 282.44 102.56 275.64 104.46 C 266.74 106.59 258.02 109.63 249.99 114.03 C 248.07 114.90 248.48 117.31 248.31 119.02 C 248.21 130.12 248.08 141.23 247.96 152.33 C 245.98 152.33 244.00 152.33 242.02 152.33 C 242.01 140.22 242.05 128.11 241.99 116.00 C 242.09 113.77 241.89 111.22 243.46 109.42 C 244.96 107.74 247.03 106.74 248.92 105.57 C 248.05 103.82 246.59 102.09 247.02 100.01 C 247.48 96.57 251.72 94.49 254.74 96.22 C 256.84 97.17 257.24 99.65 257.97 101.57 C 258.77 101.35 260.37 100.89 261.17 100.66 C 259.90 98.71 258.08 96.50 259.16 94.03 C 260.24 90.42 265.41 89.26 267.94 92.06 C 269.70 93.62 269.25 96.13 269.35 98.22 C 270.73 97.81 272.11 97.41 273.50 97.02 C 272.36 94.96 270.76 92.48 272.19 90.14 Z" />
<path fill="#231f20" opacity="1.00" d=" M 234.21 98.19 C 237.04 97.20 240.30 99.89 239.81 102.87 C 239.56 106.32 234.79 108.08 232.41 105.49 C 230.01 103.37 231.08 98.95 234.21 98.19 Z" />
<path fill="#231f20" opacity="1.00" d=" M 233.19 109.10 C 235.98 107.26 240.11 109.65 239.88 112.98 C 239.96 116.17 236.10 118.42 233.35 116.79 C 230.40 115.35 230.29 110.65 233.19 109.10 Z" />
<path fill="#231f20" opacity="1.00" d=" M 233.42 119.66 C 236.76 117.80 241.12 121.35 239.95 125.00 C 239.28 128.16 235.01 129.58 232.56 127.47 C 229.93 125.53 230.41 120.97 233.42 119.66 Z" />
<path fill="#231f20" opacity="1.00" d=" M 233.20 131.20 C 236.09 129.60 240.07 131.69 240.31 135.01 C 240.89 138.71 236.44 141.77 233.20 139.86 C 229.76 138.26 229.77 132.80 233.20 131.20 Z" />
<path fill="#231f20" opacity="1.00" d=" M 187.29 149.89 C 187.98 145.97 189.19 140.89 193.03 139.10 C 196.77 140.64 198.43 144.95 199.66 148.53 C 202.32 156.24 198.13 163.80 197.18 171.40 C 199.56 168.80 202.04 165.17 206.03 165.47 C 211.37 166.42 213.50 173.11 211.55 177.71 C 210.65 180.57 207.89 182.06 205.46 183.46 C 206.14 180.54 208.22 176.08 204.92 174.00 C 200.84 172.13 198.43 177.73 199.06 180.99 C 200.86 186.19 206.87 188.63 212.05 188.16 C 217.23 187.77 223.03 188.76 227.61 185.73 C 231.19 183.41 232.03 178.92 232.70 175.03 C 230.13 175.83 227.40 176.49 225.27 178.23 C 222.76 180.17 221.37 183.10 219.59 185.65 C 219.06 184.52 218.39 183.38 218.48 182.08 C 218.37 177.05 218.55 172.02 218.45 166.99 C 218.51 164.26 218.01 161.29 219.62 158.88 C 221.19 161.69 222.03 165.17 224.81 167.08 C 227.13 168.76 230.04 169.08 232.76 169.65 C 232.05 166.33 231.57 162.53 228.77 160.24 C 226.33 158.40 223.30 157.62 220.72 156.02 C 225.39 154.82 230.25 155.46 235.01 155.34 C 240.06 155.50 245.22 154.78 250.19 156.00 C 247.64 157.58 244.68 158.38 242.25 160.15 C 239.37 162.42 238.86 166.29 238.16 169.65 C 240.84 169.05 243.75 168.79 246.04 167.13 C 248.74 165.34 249.52 162.01 251.07 159.37 L 252.25 160.04 C 252.60 168.56 252.68 177.15 252.12 185.66 C 249.76 183.69 248.41 180.86 246.23 178.74 C 244.04 176.65 241.01 175.90 238.21 175.03 C 238.86 178.95 239.74 183.45 243.35 185.78 C 248.03 188.77 253.86 187.77 259.12 188.17 C 264.24 188.57 270.12 186.08 271.87 180.95 C 272.48 177.70 270.06 172.14 266.00 174.00 C 262.68 176.04 264.78 180.55 265.46 183.46 C 263.06 182.07 260.31 180.62 259.40 177.79 C 257.36 173.15 259.55 166.33 264.99 165.45 C 268.92 165.24 271.37 168.85 273.76 171.36 C 272.96 165.85 270.86 160.59 270.35 155.04 C 270.36 149.42 272.27 143.35 276.67 139.63 C 278.23 138.13 279.77 140.20 280.61 141.41 C 283.61 146.13 284.54 152.13 283.34 157.56 C 281.88 162.31 279.78 166.84 278.42 171.63 C 281.22 169.33 284.63 165.82 288.62 167.48 C 293.55 169.91 294.01 176.94 290.96 181.04 C 289.62 183.24 287.02 183.94 284.81 184.90 C 285.68 182.65 287.07 180.41 286.90 177.91 C 286.80 175.96 284.86 174.59 282.99 174.78 C 280.44 175.66 279.04 178.45 278.81 180.99 C 279.41 185.54 283.37 189.23 287.87 189.84 C 292.19 190.33 296.55 191.04 300.90 190.84 C 306.71 189.32 310.66 184.15 312.50 178.67 C 309.69 179.15 306.74 179.57 304.31 181.19 C 301.19 183.03 299.87 186.70 296.91 188.73 C 297.22 181.76 298.49 174.88 299.19 167.94 C 299.63 165.39 299.32 162.39 301.37 160.46 C 302.38 163.66 302.60 167.38 305.05 169.92 C 307.13 172.21 310.25 172.97 313.06 173.95 C 312.71 171.24 312.33 168.43 310.89 166.05 C 309.10 162.80 305.51 161.21 303.30 158.32 C 307.90 158.51 312.54 158.92 317.03 159.98 C 320.27 160.80 319.24 164.64 318.96 167.05 C 317.34 176.91 316.35 186.89 314.47 196.69 C 312.31 198.91 309.41 200.21 307.18 202.35 C 308.21 206.53 313.00 209.20 312.47 213.87 C 261.17 214.00 209.86 213.93 158.56 213.90 C 157.86 210.18 161.09 207.58 162.77 204.66 C 163.23 203.82 164.37 202.75 163.21 201.94 C 161.14 199.94 158.42 198.76 156.44 196.68 C 154.60 186.84 153.55 176.85 151.94 166.96 C 151.81 164.76 150.61 161.37 153.29 160.22 C 157.93 158.82 162.88 158.54 167.71 158.38 C 165.35 161.15 161.83 162.81 160.02 166.06 C 158.58 168.44 158.23 171.25 157.76 173.93 C 160.62 172.99 163.78 172.24 165.88 169.90 C 168.30 167.37 168.52 163.68 169.51 160.50 C 171.66 162.32 171.25 165.37 171.73 167.87 C 172.38 174.84 173.81 181.74 173.93 188.75 C 171.17 186.57 169.67 183.14 166.67 181.24 C 164.23 179.60 161.26 179.15 158.44 178.66 C 160.24 184.17 164.22 189.35 170.05 190.84 C 174.06 191.07 178.05 190.35 182.04 189.99 C 186.28 189.69 190.34 186.87 191.67 182.76 C 192.76 180.25 191.35 177.39 189.50 175.65 C 187.67 173.70 184.07 175.32 184.02 177.91 C 183.92 180.36 185.18 182.58 185.95 184.84 C 183.77 183.92 181.26 183.17 179.95 181.03 C 176.89 176.93 177.36 169.90 182.30 167.48 C 186.28 165.83 189.68 169.32 192.48 171.62 C 190.70 164.39 185.81 157.64 187.29 149.89 M 235.36 190.92 C 232.93 193.31 230.34 195.57 228.24 198.27 C 230.10 201.24 232.95 203.40 235.38 205.88 C 237.99 203.54 240.48 201.06 242.91 198.53 C 240.60 195.79 238.07 193.26 235.36 190.92 M 188.51 195.83 C 183.21 195.36 183.76 205.40 188.98 204.30 C 194.27 204.10 199.57 203.87 204.85 203.46 C 209.78 203.52 209.04 194.04 204.09 194.99 C 198.90 195.14 193.70 195.44 188.51 195.83 M 264.29 195.52 C 262.49 196.99 262.65 199.82 263.18 201.86 C 264.34 203.90 267.02 203.43 268.98 203.70 C 273.98 203.79 279.00 204.53 284.00 204.16 C 286.48 202.83 286.55 198.99 285.23 196.84 C 282.23 195.03 278.41 195.83 275.06 195.37 C 271.50 195.44 267.67 194.29 264.29 195.52 Z" />
<path fill="#231f20" opacity="1.00" d=" M 233.12 143.13 C 236.45 141.26 240.99 144.18 240.56 148.01 C 240.47 151.92 235.42 154.18 232.41 151.76 C 229.40 149.73 229.81 144.62 233.12 143.13 Z" />
<path fill="#231f20" opacity="1.00" d=" M 101.38 357.37 C 107.76 357.36 114.13 357.36 120.51 357.37 C 120.51 377.96 120.50 398.56 120.51 419.16 C 145.75 419.16 170.99 419.16 196.23 419.15 C 196.23 398.56 196.22 377.96 196.23 357.36 C 202.61 357.37 208.98 357.36 215.36 357.37 C 215.35 405.27 215.36 453.17 215.36 501.06 C 208.98 501.07 202.60 501.07 196.23 501.06 C 196.23 479.13 196.23 457.19 196.22 435.26 C 170.98 435.27 145.74 435.23 120.50 435.28 C 120.52 457.20 120.50 479.13 120.51 501.06 C 114.13 501.07 107.75 501.07 101.38 501.06 C 101.38 453.16 101.38 405.26 101.38 357.37 Z" />
<path fill="#231f20" opacity="1.00" d=" M 241.86 357.33 C 250.58 357.33 259.30 357.33 268.02 357.33 C 283.13 397.56 298.22 437.79 313.32 478.02 C 328.52 437.82 343.69 397.61 358.81 357.38 C 367.54 357.28 376.28 357.36 385.02 357.33 C 385.04 405.22 385.03 453.11 385.03 501.00 C 378.99 501.00 372.94 501.00 366.90 501.00 C 366.85 460.97 366.99 420.94 366.83 380.92 C 351.54 420.85 336.70 460.97 321.61 500.98 C 316.16 501.01 310.71 501.01 305.27 500.98 C 290.22 461.04 275.36 421.02 260.16 381.14 C 259.72 421.08 260.10 461.05 259.97 501.00 C 253.93 501.00 247.89 501.00 241.85 501.00 C 241.85 453.11 241.84 405.22 241.86 357.33 Z" />
<path fill="#231f20" opacity="1.00" d=" M 468.77 357.37 C 491.19 357.31 513.62 357.31 536.05 357.36 C 546.79 357.40 558.01 359.60 566.74 366.22 C 574.46 372.01 579.16 381.29 579.92 390.85 C 580.86 401.79 578.52 413.67 570.96 422.00 C 566.73 426.79 560.86 429.67 554.88 431.62 C 558.70 432.72 562.65 433.80 565.90 436.21 C 570.58 439.52 573.42 444.83 574.82 450.29 C 578.35 463.85 576.21 478.27 580.31 491.73 C 581.30 495.09 583.07 498.14 585.04 501.02 C 577.99 500.86 570.93 501.24 563.89 500.86 C 561.55 498.79 561.21 495.40 560.72 492.50 C 559.76 483.78 560.28 474.93 558.71 466.27 C 557.51 459.10 556.49 451.23 551.36 445.65 C 547.02 440.84 540.16 439.68 533.99 439.68 C 518.63 439.65 503.27 439.68 487.91 439.67 C 487.91 460.11 487.91 480.55 487.91 501.00 C 481.53 501.00 475.16 501.00 468.78 501.00 C 468.77 453.12 468.80 405.24 468.77 357.37 M 487.92 373.40 C 487.90 390.11 487.90 406.82 487.92 423.54 C 499.29 423.53 510.65 423.53 522.02 423.54 C 530.78 423.60 539.92 423.78 548.12 420.21 C 554.08 417.68 558.74 412.28 560.10 405.91 C 561.97 397.43 561.22 387.54 555.25 380.79 C 550.21 375.13 542.30 373.44 535.03 373.42 C 519.32 373.36 503.62 373.42 487.92 373.40 Z" />
<path fill="#231f20" opacity="1.00" d=" M 616.69 401.72 C 629.04 393.96 644.97 392.52 658.68 397.34 C 667.56 400.47 675.03 406.98 679.84 415.03 C 686.96 426.66 689.50 440.57 689.21 454.06 C 663.19 454.09 637.17 454.03 611.16 454.09 C 611.09 462.86 613.22 472.10 619.33 478.69 C 625.68 485.86 635.66 488.67 644.99 488.31 C 652.55 488.14 660.51 485.44 665.35 479.37 C 668.11 476.11 669.54 472.03 670.76 468.00 C 676.37 468.00 681.99 467.99 687.62 468.01 C 685.30 479.01 679.60 489.70 670.01 495.96 C 657.38 504.25 640.99 505.08 626.70 501.18 C 613.64 497.72 603.08 487.38 598.26 474.90 C 592.76 460.71 591.40 444.63 595.84 429.96 C 599.24 418.53 606.50 408.08 616.69 401.72 M 621.64 416.67 C 615.24 422.29 612.02 430.65 611.16 438.97 C 631.16 439.03 651.15 438.99 671.15 438.99 C 670.49 431.73 667.99 424.46 662.90 419.10 C 652.71 407.58 633.11 406.41 621.64 416.67 Z" />
<path fill="#231f20" opacity="1.00" d=" M 805.42 404.27 C 817.60 394.76 834.48 392.25 849.15 396.70 C 857.78 399.32 865.41 404.97 870.49 412.41 C 878.93 424.46 881.92 439.55 881.59 454.06 C 855.57 454.08 829.56 454.05 803.55 454.08 C 803.47 462.76 805.55 471.89 811.51 478.47 C 817.76 485.65 827.62 488.60 836.91 488.32 C 844.54 488.24 852.61 485.63 857.57 479.55 C 860.44 476.27 861.89 472.10 863.15 468.00 C 868.76 468.00 874.38 467.98 880.00 468.02 C 877.80 478.16 872.92 488.10 864.47 494.44 C 852.35 503.77 835.73 505.08 821.23 501.76 C 809.96 499.25 799.97 491.92 794.15 481.97 C 788.12 471.76 785.76 459.75 785.55 448.01 C 785.52 431.54 792.15 414.50 805.42 404.27 M 813.33 417.30 C 807.37 422.92 804.37 430.96 803.54 438.98 C 823.54 439.01 843.54 439.01 863.53 438.98 C 862.88 431.65 860.30 424.32 855.13 418.94 C 844.70 407.32 824.60 406.44 813.33 417.30 Z" />
<path fill="#231f20" opacity="1.00" d=" M 935.98 395.55 C 945.83 393.80 956.46 394.14 965.63 398.50 C 971.99 401.55 976.75 407.36 979.01 413.99 C 982.49 423.59 981.70 433.95 981.79 443.96 C 981.79 462.98 981.79 481.99 981.80 501.00 C 976.09 501.00 970.38 501.00 964.68 501.00 C 964.67 477.66 964.69 454.31 964.68 430.97 C 964.77 424.80 962.74 418.27 957.82 414.27 C 952.38 409.68 944.75 409.08 937.97 409.99 C 930.04 410.97 922.32 415.15 918.01 422.01 C 914.01 428.19 912.68 435.70 912.72 442.96 C 912.72 462.30 912.72 481.65 912.72 501.00 C 907.02 501.00 901.31 501.00 895.61 501.00 C 895.61 466.31 895.61 431.62 895.61 396.94 C 900.97 396.93 906.34 396.93 911.71 396.94 C 911.72 402.53 911.68 408.11 911.76 413.71 C 916.98 404.72 925.61 397.52 935.98 395.55 Z" />
<path fill="#231f20" opacity="1.00" d=" M 1122.16 405.27 C 1134.63 394.78 1152.60 391.97 1167.95 396.96 C 1176.48 399.74 1183.93 405.52 1188.87 412.98 C 1197.01 424.95 1199.89 439.78 1199.57 454.06 C 1173.56 454.08 1147.55 454.05 1121.53 454.08 C 1121.45 462.77 1123.53 471.91 1129.52 478.50 C 1135.79 485.68 1145.67 488.62 1154.97 488.32 C 1162.56 488.22 1170.59 485.61 1175.54 479.58 C 1178.41 476.29 1179.87 472.11 1181.14 468.00 C 1186.75 468.00 1192.36 467.98 1197.98 468.02 C 1195.75 478.39 1190.65 488.53 1181.90 494.87 C 1170.07 503.64 1154.15 504.95 1140.10 501.97 C 1129.45 499.76 1119.76 493.42 1113.68 484.38 C 1106.65 474.02 1103.93 461.32 1103.54 448.96 C 1103.29 432.71 1109.43 415.81 1122.16 405.27 M 1131.29 417.32 C 1125.34 422.94 1122.35 430.97 1121.53 438.98 C 1141.52 439.01 1161.52 439.01 1181.52 438.98 C 1180.86 431.61 1178.26 424.24 1173.04 418.85 C 1162.58 407.31 1142.53 406.47 1131.29 417.32 Z" />
<path fill="#231f20" opacity="1.00" d=" M 689.24 396.94 C 695.60 396.92 701.95 396.95 708.31 396.91 C 718.22 425.94 727.82 455.07 737.77 484.08 C 747.41 455.07 756.81 425.99 766.34 396.95 C 772.32 396.92 778.29 396.93 784.27 396.94 C 771.59 431.63 758.90 466.31 746.22 501.00 C 740.11 501.00 734.00 501.00 727.90 501.00 C 715.01 466.31 702.12 431.62 689.24 396.94 Z" />
<path fill="#231f20" opacity="1.00" d=" M 1001.89 396.94 C 1007.59 396.93 1013.29 396.93 1019.00 396.93 C 1018.99 418.29 1019.01 439.64 1018.99 461.00 C 1018.98 466.84 1018.58 473.09 1021.55 478.37 C 1024.48 484.15 1030.74 487.59 1037.05 488.14 C 1045.98 488.94 1055.72 486.72 1062.20 480.19 C 1068.49 473.89 1070.90 464.73 1070.94 456.04 C 1070.99 436.34 1070.94 416.63 1070.96 396.93 C 1076.66 396.93 1082.36 396.93 1088.07 396.94 C 1088.07 431.62 1088.07 466.31 1088.07 501.00 C 1082.70 501.00 1077.33 501.00 1071.97 501.00 C 1071.97 495.36 1071.95 489.72 1071.99 484.09 C 1068.49 489.69 1064.17 495.00 1058.33 498.29 C 1049.00 503.80 1037.53 504.24 1027.08 502.45 C 1018.42 501.00 1010.20 495.80 1006.30 487.76 C 1000.99 477.35 1001.96 465.33 1001.89 454.03 C 1001.89 434.99 1001.88 415.96 1001.89 396.94 Z" />
<path fill="#231f20" opacity="1.00" d=" M 327.10 566.62 C 345.34 563.48 365.42 566.11 380.54 577.40 C 391.62 585.56 398.43 598.51 400.42 611.99 C 394.05 612.01 387.69 611.99 381.33 612.00 C 379.49 603.71 375.42 595.68 368.64 590.37 C 358.19 581.93 343.80 580.12 330.90 582.36 C 320.27 584.24 310.42 590.19 304.07 598.96 C 293.97 612.65 291.38 630.44 292.54 647.05 C 293.56 661.87 298.07 677.32 308.98 687.94 C 318.39 697.18 332.16 700.66 345.05 699.66 C 355.18 699.02 365.18 694.53 371.79 686.72 C 378.63 678.89 381.77 668.54 382.72 658.34 C 389.08 658.33 395.45 658.33 401.82 658.34 C 400.11 674.87 393.75 691.81 380.55 702.55 C 367.00 714.04 348.29 717.09 331.05 715.49 C 316.66 714.14 302.51 708.11 292.53 697.49 C 279.70 684.05 274.22 665.23 273.32 647.03 C 272.24 626.58 276.61 604.93 289.67 588.67 C 298.83 576.96 312.50 569.16 327.10 566.62 Z" />
<path fill="#231f20" opacity="1.00" d=" M 114.90 581.96 C 119.58 574.91 127.55 570.47 135.83 569.27 C 145.32 567.90 155.42 569.30 163.75 574.22 C 169.09 577.34 173.46 582.23 175.55 588.09 C 178.80 597.04 177.29 607.32 172.38 615.37 C 167.18 624.02 158.94 630.33 150.32 635.31 C 158.94 645.90 167.62 656.43 176.31 666.96 C 178.85 659.75 180.44 652.23 180.95 644.60 C 186.38 644.60 191.81 644.59 197.24 644.60 C 196.56 651.85 195.74 659.17 193.42 666.11 C 191.88 670.91 189.64 675.43 187.56 680.00 C 196.86 690.82 206.22 701.58 215.51 712.39 C 208.05 712.40 200.60 712.41 193.14 712.39 C 188.11 706.44 183.01 700.54 177.95 694.62 C 169.20 707.65 153.43 714.75 137.98 714.82 C 126.89 714.98 115.12 712.84 106.28 705.71 C 90.58 693.44 87.84 668.42 99.49 652.52 C 106.15 643.34 116.09 637.34 125.95 632.14 C 121.06 625.24 115.39 618.70 112.27 610.75 C 108.72 601.45 109.27 590.33 114.90 581.96 M 131.46 588.39 C 127.03 592.54 126.15 599.43 128.25 604.94 C 130.94 612.24 136.30 618.07 141.05 624.07 C 147.64 619.89 154.35 615.09 158.03 607.99 C 161.31 601.76 160.92 593.27 155.62 588.25 C 149.12 582.21 137.94 582.44 131.46 588.39 M 117.28 656.29 C 111.87 662.37 109.60 670.91 110.73 678.92 C 111.81 686.40 117.10 692.80 123.70 696.24 C 132.06 700.73 142.41 700.77 151.10 697.18 C 158.32 694.42 164.02 688.85 168.47 682.66 C 157.47 669.44 146.42 656.25 135.42 643.04 C 128.91 646.73 122.30 650.63 117.28 656.29 Z" />
<path fill="#231f20" opacity="1.00" d=" M 627.80 577.20 C 633.50 577.20 639.20 577.20 644.91 577.20 C 644.91 587.60 644.90 598.00 644.91 608.40 C 651.82 608.40 658.74 608.40 665.65 608.40 C 665.65 613.43 665.67 618.46 665.62 623.49 C 658.73 623.44 651.84 623.48 644.95 623.45 C 644.86 644.95 644.92 666.46 644.91 687.96 C 644.94 691.02 645.14 695.27 648.69 696.34 C 654.17 698.00 660.01 697.13 665.65 697.33 C 665.65 702.37 665.66 707.42 665.65 712.47 C 658.45 712.35 651.23 712.77 644.07 712.06 C 639.27 711.53 634.05 709.92 631.25 705.69 C 628.17 701.09 627.92 695.31 627.80 689.96 C 627.79 667.79 627.81 645.63 627.79 623.46 C 621.89 623.46 615.98 623.46 610.07 623.46 C 610.07 618.44 610.07 613.41 610.08 608.39 C 615.99 608.40 621.89 608.40 627.80 608.39 C 627.79 597.99 627.79 587.60 627.80 577.20 Z" />
<path fill="#231f20" opacity="1.00" d=" M 528.07 616.94 C 536.46 608.81 548.64 606.03 560.01 606.01 C 571.09 606.17 583.15 607.67 591.90 615.13 C 598.71 620.88 601.48 629.91 602.09 638.53 C 596.44 638.53 590.79 638.52 585.14 638.55 C 584.24 631.90 580.11 625.70 573.65 623.35 C 565.26 620.28 555.72 620.40 547.28 623.20 C 542.32 624.81 538.07 629.47 538.65 634.95 C 538.79 640.35 543.49 644.12 548.15 645.92 C 562.14 651.50 577.71 651.96 591.40 658.46 C 597.49 661.36 603.03 666.19 605.17 672.77 C 608.67 683.56 606.00 696.63 597.22 704.19 C 588.16 712.08 575.70 714.53 564.00 714.85 C 551.61 715.07 538.21 712.80 528.68 704.27 C 521.71 698.08 518.67 688.70 518.21 679.61 C 523.88 679.59 529.56 679.60 535.24 679.60 C 535.79 684.70 537.40 690.04 541.55 693.39 C 548.55 699.30 558.31 700.01 567.08 699.64 C 573.06 699.18 579.51 698.24 584.23 694.20 C 589.94 689.42 590.04 679.42 584.14 674.75 C 578.45 670.09 570.98 668.67 564.02 667.00 C 552.06 664.20 539.10 662.55 529.14 654.76 C 517.72 645.78 517.80 626.76 528.07 616.94 Z" />
<path fill="#231f20" opacity="1.00" d=" M 711.56 606.69 C 725.52 604.70 740.84 606.86 752.18 615.77 C 763.10 624.13 769.19 637.50 770.82 650.93 C 772.80 666.85 770.10 684.10 760.15 697.08 C 751.92 707.92 738.51 714.02 725.08 714.66 C 712.03 715.59 698.25 712.41 688.13 703.81 C 677.58 694.98 672.01 681.40 670.77 667.93 C 669.30 652.60 672.11 636.15 681.70 623.72 C 688.83 614.30 699.91 608.28 711.56 606.69 M 714.48 621.71 C 707.99 623.06 701.91 626.49 697.69 631.64 C 691.47 638.94 688.88 648.65 688.56 658.07 C 688.19 667.90 689.95 678.20 695.61 686.44 C 703.81 699.23 722.05 703.44 735.28 696.26 C 742.71 692.41 748.04 685.28 750.69 677.44 C 753.56 668.95 753.90 659.74 752.56 650.92 C 751.21 642.37 747.38 633.97 740.76 628.23 C 733.66 622.06 723.62 619.89 714.48 621.71 Z" />
<path fill="#231f20" opacity="1.00" d=" M 820.96 609.03 C 830.56 605.28 841.70 604.89 851.38 608.60 C 858.11 611.13 863.24 616.84 865.72 623.52 C 872.32 613.39 883.83 606.70 895.92 606.11 C 903.70 605.79 911.75 606.66 918.81 610.14 C 924.05 612.70 928.34 617.19 930.50 622.63 C 932.66 627.79 932.99 633.47 932.94 639.01 C 932.92 663.49 932.94 687.98 932.93 712.46 C 927.22 712.46 921.52 712.46 915.81 712.46 C 915.79 689.66 915.84 666.86 915.79 644.06 C 915.67 637.68 915.08 630.46 910.20 625.78 C 905.37 621.21 898.21 620.76 891.93 621.31 C 883.77 621.96 875.72 626.40 871.80 633.75 C 868.65 639.27 868.32 645.80 868.48 652.01 C 868.50 672.16 868.48 692.31 868.49 712.46 C 862.78 712.47 857.08 712.46 851.39 712.47 C 851.33 689.32 851.45 666.17 851.33 643.02 C 851.24 635.80 849.58 627.16 842.60 623.47 C 832.46 618.62 819.25 621.34 811.78 629.73 C 807.09 635.00 803.92 641.91 804.04 649.05 C 804.05 670.19 804.05 691.32 804.05 712.46 C 798.34 712.46 792.64 712.46 786.94 712.46 C 786.95 677.77 786.89 643.08 786.96 608.39 C 792.32 608.40 797.67 608.40 803.03 608.40 C 803.04 613.61 803.05 618.82 803.02 624.04 C 807.60 617.63 813.47 611.86 820.96 609.03 Z" />
<path fill="#231f20" opacity="1.00" d=" M 958.28 616.23 C 967.34 608.07 980.15 605.64 992.00 606.06 C 1002.61 606.45 1014.10 608.36 1022.17 615.86 C 1028.43 621.64 1030.90 630.26 1031.56 638.52 C 1025.89 638.55 1020.22 638.51 1014.55 638.55 C 1013.71 633.31 1011.33 628.06 1006.63 625.23 C 999.34 620.61 990.12 620.57 981.85 621.81 C 976.07 622.71 969.34 625.78 968.25 632.20 C 967.08 637.49 970.56 642.59 975.23 644.80 C 984.28 649.22 994.40 650.48 1004.06 652.94 C 1013.29 655.22 1023.17 657.86 1029.96 664.97 C 1036.38 671.81 1037.26 682.17 1034.94 690.91 C 1032.88 698.99 1026.70 705.55 1019.30 709.15 C 1008.38 714.51 995.82 715.56 983.85 714.47 C 973.38 713.39 962.44 709.77 955.46 701.48 C 950.23 695.45 948.15 687.42 947.65 679.61 C 953.32 679.59 959.00 679.61 964.68 679.59 C 965.22 684.88 967.01 690.37 971.39 693.72 C 978.55 699.43 988.27 700.05 997.06 699.60 C 1002.99 699.10 1009.41 698.08 1013.98 693.93 C 1019.47 689.04 1019.36 679.19 1013.47 674.64 C 1007.09 669.60 998.76 668.29 991.06 666.46 C 979.83 663.94 967.76 662.03 958.49 654.67 C 946.87 645.43 947.33 625.81 958.28 616.23 Z" />
<path fill="#231f20" opacity="1.00" d=" M 417.13 608.40 C 422.83 608.40 428.54 608.39 434.25 608.41 C 434.25 631.96 434.22 655.52 434.26 679.07 C 434.20 685.47 436.73 692.16 442.10 695.93 C 448.15 700.31 456.13 700.33 463.19 699.03 C 470.67 697.59 477.69 693.13 481.47 686.42 C 485.12 680.29 486.25 673.03 486.20 665.99 C 486.20 646.79 486.20 627.59 486.20 608.40 C 491.91 608.40 497.61 608.39 503.32 608.41 C 503.31 643.09 503.32 677.78 503.31 712.46 C 497.94 712.47 492.58 712.46 487.21 712.47 C 487.20 706.86 487.24 701.25 487.17 695.64 C 483.12 702.26 477.64 708.29 470.39 711.42 C 461.22 715.44 450.73 715.61 441.04 713.64 C 433.40 712.07 426.24 707.54 422.34 700.68 C 418.01 693.25 417.13 684.42 417.12 675.98 C 417.13 653.45 417.12 630.92 417.13 608.40 Z" />
</g>
</svg>
