<?xml version="1.0" encoding="UTF-8" ?>
<!DOCTYPE svg PUBLIC "-//W3C//DTD SVG 1.1//EN" "http://www.w3.org/Graphics/SVG/1.1/DTD/svg11.dtd">
<svg width="998pt" height="606pt" viewBox="0 0 998 606" version="1.1" xmlns="http://www.w3.org/2000/svg">
<g id="#ffffffff">
<path fill="#ffffff" opacity="1.00" d=" M 0.00 0.00 L 998.00 0.00 L 998.00 606.00 L 0.00 606.00 L 0.00 0.00 M 238.85 155.60 C 213.57 155.38 188.29 155.57 163.01 155.48 C 159.86 155.27 156.54 157.47 155.65 160.46 C 155.03 163.27 155.27 166.17 155.25 169.02 C 155.26 186.26 155.26 203.49 155.26 220.73 C 186.29 220.67 217.31 220.80 248.33 220.64 C 269.36 220.76 290.39 220.79 311.42 220.60 L 310.82 219.73 C 311.45 202.51 310.89 185.25 311.09 168.02 C 310.98 165.20 311.45 162.17 310.21 159.55 C 308.80 156.96 305.98 155.25 303.01 155.50 C 281.62 155.59 260.23 155.36 238.85 155.60 M 438.25 155.50 C 438.24 162.58 438.25 169.67 438.24 176.75 C 430.24 176.74 422.25 176.75 414.25 176.75 C 414.25 169.66 414.25 162.58 414.25 155.50 C 412.00 155.50 409.75 155.50 407.50 155.50 C 407.46 171.90 407.56 188.30 407.45 204.70 C 409.71 204.75 411.98 204.76 414.25 204.76 C 414.25 197.18 414.25 189.59 414.25 182.00 C 422.25 182.00 430.25 182.00 438.25 182.00 C 438.25 189.58 438.24 197.17 438.25 204.75 C 440.58 204.75 442.91 204.75 445.24 204.76 C 445.26 188.34 445.24 171.92 445.25 155.50 C 442.91 155.50 440.58 155.50 438.25 155.50 M 525.75 155.50 C 525.75 171.92 525.74 188.34 525.75 204.76 C 527.75 204.75 529.75 204.75 531.75 204.75 C 531.77 192.26 531.73 179.78 531.77 167.29 C 541.61 179.77 551.44 192.27 561.29 204.75 C 563.10 204.75 564.93 204.75 566.76 204.75 C 566.72 188.32 566.80 171.90 566.72 155.47 C 564.64 155.49 562.56 155.50 560.50 155.51 C 560.50 168.02 560.50 180.54 560.50 193.06 C 550.72 180.56 541.03 168.01 531.26 155.51 C 529.42 155.50 527.58 155.50 525.75 155.50 M 581.01 157.07 C 575.18 160.65 573.95 169.42 578.22 174.66 C 581.31 178.46 585.97 180.42 590.03 182.98 C 593.31 185.01 597.27 187.06 598.33 191.09 C 599.60 195.67 595.21 199.84 590.91 200.29 C 585.92 200.83 580.95 199.33 576.41 197.37 C 575.63 198.98 574.83 200.57 574.05 202.17 C 582.00 205.94 592.39 207.53 600.02 202.22 C 605.02 198.95 607.24 192.02 604.54 186.59 C 601.70 180.74 595.21 178.29 590.09 174.88 C 586.80 172.78 582.21 170.50 582.22 165.99 C 581.89 163.16 584.25 160.71 586.88 160.12 C 591.70 159.03 596.73 160.10 601.19 162.05 C 601.92 160.38 602.63 158.70 603.33 157.02 C 596.32 154.33 587.71 152.83 581.01 157.07 M 767.50 155.50 C 767.49 157.16 767.49 158.83 767.50 160.50 C 772.64 160.48 777.78 160.57 782.92 160.43 C 783.10 175.20 782.94 189.98 783.01 204.75 C 785.25 204.75 787.49 204.75 789.75 204.76 C 789.76 190.01 789.75 175.26 789.75 160.51 C 795.00 160.49 800.25 160.51 805.50 160.50 C 805.49 158.83 805.49 157.17 805.50 155.50 C 792.83 155.49 780.17 155.50 767.50 155.50 M 360.75 155.50 C 360.74 157.16 360.74 158.83 360.75 160.50 C 365.99 160.51 371.24 160.50 376.49 160.50 C 376.45 175.23 376.59 189.95 376.42 204.68 C 378.70 204.75 380.97 204.76 383.25 204.76 C 383.25 190.01 383.26 175.26 383.25 160.51 C 388.41 160.49 393.58 160.50 398.75 160.50 C 398.75 158.83 398.74 157.17 398.76 155.50 C 386.09 155.49 373.42 155.50 360.75 155.50 M 453.75 155.50 C 453.78 171.94 453.68 188.37 453.80 204.81 C 463.12 204.68 472.43 204.79 481.75 204.75 C 481.75 203.00 481.75 201.24 481.75 199.49 C 474.67 199.50 467.59 199.50 460.50 199.50 C 460.50 193.66 460.50 187.83 460.50 182.00 C 465.52 181.97 470.55 182.08 475.57 181.92 C 475.52 180.19 475.50 178.47 475.47 176.75 C 470.48 176.75 465.49 176.75 460.50 176.75 C 460.50 171.33 460.50 165.92 460.50 160.51 C 467.25 160.50 474.01 160.50 480.76 160.50 C 480.74 158.83 480.74 157.15 480.73 155.48 C 471.73 155.52 462.74 155.48 453.75 155.50 M 511.00 155.50 C 511.00 171.92 510.99 188.34 511.01 204.75 C 513.33 204.75 515.66 204.75 517.99 204.76 C 518.01 188.34 518.00 171.92 518.00 155.50 C 515.66 155.50 513.33 155.50 511.00 155.50 M 612.01 155.50 C 611.99 157.16 611.98 158.82 611.98 160.48 C 617.15 160.52 622.32 160.49 627.49 160.50 C 627.49 175.24 627.51 189.99 627.49 204.73 C 629.73 204.75 631.99 204.75 634.25 204.76 C 634.28 190.00 634.20 175.23 634.29 160.47 C 639.44 160.53 644.59 160.49 649.75 160.51 C 649.75 158.84 649.74 157.17 649.76 155.51 C 637.18 155.48 624.59 155.51 612.01 155.50 M 658.50 155.50 C 658.52 171.94 658.44 188.37 658.55 204.81 C 660.77 204.76 663.01 204.75 665.24 204.74 C 665.26 188.33 665.25 171.91 665.25 155.50 C 662.99 155.50 660.74 155.50 658.50 155.50 M 673.75 155.50 C 673.74 157.16 673.74 158.83 673.75 160.50 C 678.99 160.51 684.24 160.50 689.49 160.50 C 689.50 175.25 689.51 190.00 689.49 204.75 C 691.76 204.76 694.04 204.75 696.32 204.67 C 696.12 189.96 696.37 175.25 696.20 160.55 C 701.37 160.46 706.56 160.52 711.74 160.50 C 711.75 158.83 711.74 157.17 711.76 155.50 C 699.09 155.49 686.42 155.50 673.75 155.50 M 720.50 155.50 C 720.54 167.32 720.42 179.15 720.55 190.97 C 720.64 197.58 725.76 203.39 732.15 204.74 C 738.77 206.19 746.45 206.10 752.09 201.87 C 756.38 198.68 758.49 193.25 758.48 188.00 C 758.53 177.17 758.48 166.33 758.50 155.49 C 756.40 155.49 754.32 155.50 752.24 155.51 C 752.25 166.67 752.24 177.84 752.25 189.01 C 752.47 193.94 748.96 198.74 744.10 199.82 C 739.91 200.64 735.15 200.62 731.41 198.33 C 728.30 196.36 727.22 192.50 727.25 189.02 C 727.24 177.84 727.26 166.67 727.25 155.50 C 724.99 155.50 722.74 155.50 720.50 155.50 M 814.75 155.50 C 814.75 171.92 814.74 188.34 814.76 204.76 C 824.09 204.75 833.42 204.76 842.76 204.75 C 842.74 203.00 842.74 201.25 842.75 199.50 C 835.67 199.50 828.58 199.50 821.50 199.50 C 821.50 193.66 821.50 187.83 821.50 182.00 C 826.42 182.00 831.33 182.00 836.25 182.00 C 836.24 180.25 836.24 178.50 836.25 176.75 C 831.33 176.74 826.41 176.75 821.50 176.75 C 821.50 171.33 821.50 165.92 821.50 160.51 C 828.25 160.50 835.00 160.50 841.75 160.51 C 841.75 158.84 841.73 157.17 841.76 155.51 C 832.76 155.49 823.75 155.50 814.75 155.50 M 155.26 223.49 C 155.22 299.30 155.36 375.12 155.25 450.93 C 163.99 450.87 172.77 450.72 181.46 449.72 C 185.65 449.62 189.79 448.92 193.94 448.33 C 194.44 438.22 198.71 428.66 204.47 420.48 C 210.05 412.96 215.01 404.72 217.60 395.69 C 220.00 390.25 219.69 384.04 217.48 378.61 C 215.56 373.98 214.20 369.04 211.89 364.61 C 209.59 357.17 206.46 350.00 203.72 342.71 C 204.88 340.67 206.07 338.64 207.31 336.66 C 207.98 337.97 208.69 339.28 209.19 340.68 C 215.85 358.50 222.86 376.19 229.42 394.04 C 228.54 397.25 226.62 400.10 225.06 403.02 C 218.13 414.92 209.72 425.90 200.68 436.27 C 212.74 425.22 223.38 412.34 230.86 397.72 C 232.07 400.86 233.38 403.97 234.47 407.16 C 234.92 408.20 234.77 409.15 234.00 410.00 C 224.25 423.77 210.75 434.26 196.96 443.73 C 210.28 436.38 223.07 427.62 233.03 416.00 C 233.79 415.02 234.68 414.10 235.16 412.94 L 236.34 411.92 C 237.36 415.04 238.84 418.01 239.71 421.17 C 239.55 421.61 239.22 422.49 239.05 422.93 C 227.86 433.24 214.37 440.49 200.95 447.43 C 206.22 446.27 210.97 443.62 215.89 441.50 C 224.03 437.50 232.03 432.95 238.85 426.92 C 239.65 426.24 240.45 425.56 241.25 424.89 C 242.31 427.73 243.38 430.58 244.53 433.39 C 266.28 422.94 284.92 405.76 296.11 384.29 C 303.25 370.68 308.01 355.73 309.71 340.45 C 311.44 330.73 310.65 320.82 311.06 311.01 C 310.71 281.84 311.27 252.67 310.90 223.50 C 281.76 223.64 252.60 223.30 223.46 223.64 C 200.74 223.33 177.99 223.60 155.26 223.49 M 380.44 232.57 C 372.45 234.17 365.95 240.64 363.64 248.36 C 361.07 256.82 361.94 266.62 367.01 274.01 C 375.13 285.32 393.64 286.10 403.28 276.34 C 408.22 271.26 410.41 264.01 410.27 257.02 C 410.19 250.15 408.14 242.94 403.05 238.07 C 397.19 232.34 388.23 230.95 380.44 232.57 M 486.72 232.73 C 474.62 235.80 467.22 249.11 469.07 261.10 C 470.27 271.60 478.59 281.21 489.26 282.67 C 496.56 283.65 504.40 282.57 510.66 278.49 C 509.83 277.02 508.97 275.60 508.15 274.16 C 500.37 278.68 489.09 279.38 482.39 272.57 C 472.97 263.83 474.42 246.21 485.56 239.57 C 492.38 235.47 500.88 237.45 507.68 240.57 C 508.30 238.90 508.95 237.24 509.60 235.58 C 502.71 231.78 494.32 231.01 486.72 232.73 M 417.24 233.01 C 417.25 249.33 417.25 265.66 417.24 281.99 C 419.57 282.00 421.91 282.00 424.25 282.00 C 424.25 274.42 424.25 266.83 424.25 259.25 C 428.58 259.25 432.91 259.25 437.25 259.25 C 437.24 257.58 437.25 255.91 437.25 254.25 C 432.92 254.24 428.59 254.24 424.26 254.25 C 424.24 248.83 424.26 243.42 424.25 238.00 C 430.50 237.99 436.75 238.00 443.00 238.00 C 443.00 236.33 442.99 234.66 443.00 233.00 C 434.41 233.00 425.83 232.99 417.24 233.01 M 517.75 232.75 C 517.75 249.17 517.75 265.59 517.75 282.00 C 520.00 282.00 522.26 282.00 524.52 281.98 C 524.49 274.40 524.50 266.82 524.51 259.24 C 532.51 259.27 540.51 259.22 548.51 259.27 C 548.47 266.84 548.52 274.41 548.49 281.98 C 550.74 282.00 552.99 282.00 555.25 282.00 C 555.25 265.59 555.25 249.17 555.25 232.75 C 552.99 232.75 550.75 232.75 548.50 232.75 C 548.51 239.82 548.47 246.89 548.52 253.96 C 540.52 254.04 532.51 253.98 524.50 254.00 C 524.49 246.91 524.52 239.83 524.49 232.74 C 522.24 232.74 519.99 232.75 517.75 232.75 M 562.43 282.00 C 564.51 282.00 566.60 282.00 568.70 281.98 C 570.37 277.55 572.21 273.18 573.91 268.75 C 579.87 268.77 585.83 268.72 591.79 268.78 C 593.29 273.18 595.01 277.50 596.46 281.92 C 598.88 282.00 601.31 282.01 603.75 282.01 C 597.72 265.62 591.61 249.26 585.65 232.84 C 584.86 232.80 583.28 232.70 582.49 232.66 C 575.70 249.06 569.13 265.56 562.43 282.00 M 610.46 233.05 C 610.53 249.35 610.51 265.65 610.47 281.96 C 612.79 281.99 615.12 282.01 617.45 282.06 C 617.57 274.36 617.47 266.67 617.50 258.97 C 619.21 258.97 620.93 259.05 622.65 259.08 C 627.37 267.07 632.28 274.94 637.13 282.85 C 639.60 282.62 642.06 282.38 644.54 282.12 C 639.54 274.05 634.57 265.97 629.54 257.92 C 635.95 255.83 640.92 248.77 639.01 241.98 C 637.57 236.34 631.59 233.21 626.11 233.04 C 620.89 232.93 615.67 233.00 610.46 233.05 M 643.75 233.00 C 643.74 234.66 643.74 236.33 643.75 238.00 C 648.91 238.00 654.08 238.00 659.25 238.00 C 659.24 252.67 659.25 267.33 659.24 282.00 C 661.49 282.00 663.74 282.00 666.00 282.00 C 666.00 267.33 666.00 252.67 666.00 238.00 C 671.25 238.00 676.50 238.00 681.76 238.00 C 681.74 236.33 681.74 234.66 681.75 233.00 C 669.08 233.00 656.42 233.00 643.75 233.00 M 689.47 233.04 C 689.51 249.34 689.53 265.65 689.46 281.96 C 698.72 282.05 707.98 281.98 717.25 282.00 C 717.24 280.33 717.24 278.66 717.25 277.00 C 710.25 276.99 703.24 277.01 696.24 276.99 C 696.26 271.08 696.24 265.16 696.25 259.25 C 701.16 259.25 706.08 259.25 711.00 259.25 C 710.99 257.58 710.99 255.91 711.00 254.25 C 706.09 254.25 701.18 254.23 696.28 254.26 C 696.22 248.84 696.26 243.42 696.25 238.01 C 703.00 237.99 709.75 238.01 716.50 238.00 C 716.49 236.33 716.49 234.67 716.50 233.00 C 707.49 233.02 698.48 232.96 689.47 233.04 M 725.52 282.02 C 727.75 282.00 730.00 282.00 732.25 281.99 C 732.25 274.34 732.26 266.68 732.24 259.03 C 733.93 259.01 735.63 258.97 737.34 258.94 C 742.23 266.88 747.11 274.83 751.93 282.81 C 754.43 282.60 756.95 282.36 759.47 282.14 C 754.47 274.08 749.44 266.05 744.49 257.96 C 748.89 256.31 752.73 252.76 753.85 248.08 C 755.76 242.20 751.75 235.73 746.01 234.02 C 739.36 232.06 732.32 233.39 725.51 233.00 C 725.50 249.34 725.48 265.68 725.52 282.02 M 766.75 233.00 C 766.75 249.33 766.75 265.67 766.75 282.00 C 776.08 282.00 785.42 282.01 794.75 281.99 C 794.74 280.33 794.74 278.66 794.76 277.00 C 787.68 277.01 780.60 276.96 773.53 277.03 C 773.46 271.10 773.52 265.18 773.50 259.25 C 778.41 259.25 783.33 259.25 788.24 259.25 C 788.24 257.58 788.24 255.92 788.26 254.26 C 783.34 254.24 778.42 254.25 773.50 254.24 C 773.50 248.83 773.50 243.42 773.51 238.00 C 780.25 237.99 787.01 238.01 793.76 238.00 C 793.74 236.33 793.74 234.66 793.75 233.00 C 784.75 233.00 775.75 233.00 766.75 233.00 M 802.46 233.05 C 802.54 249.36 802.48 265.67 802.49 281.98 C 807.32 282.01 812.16 281.99 817.00 282.02 C 825.52 282.38 834.05 277.84 838.60 270.64 C 845.41 260.15 843.42 243.59 832.36 236.74 C 823.38 231.22 812.43 233.41 802.46 233.05 M 381.14 310.20 C 374.41 326.60 367.80 343.06 361.11 359.48 C 363.19 359.49 365.28 359.50 367.37 359.51 C 369.05 355.07 370.84 350.67 372.59 346.25 C 378.56 346.27 384.54 346.20 390.52 346.29 C 392.04 350.71 393.74 355.05 395.28 359.46 C 397.67 359.50 400.08 359.50 402.48 359.50 C 396.45 343.10 390.32 326.74 384.35 310.32 C 383.27 310.27 382.20 310.23 381.14 310.20 M 404.27 328.89 C 401.16 341.02 407.95 355.26 420.10 359.23 C 428.44 361.70 438.01 360.69 445.40 355.99 C 444.58 354.53 443.76 353.08 442.94 351.64 C 435.30 356.07 424.32 356.90 417.55 350.46 C 407.92 342.09 408.93 324.68 419.57 317.61 C 426.35 312.98 435.37 314.73 442.25 318.21 C 442.95 316.58 443.71 314.98 444.44 313.37 C 438.46 309.56 431.01 309.01 424.12 309.73 C 414.25 311.02 406.29 319.31 404.27 328.89 M 455.95 316.08 C 447.74 323.87 445.90 337.12 450.97 347.10 C 454.41 354.08 461.30 359.32 469.09 360.25 C 476.24 361.08 483.83 359.93 489.98 356.02 C 489.14 354.54 488.32 353.07 487.48 351.61 C 479.75 356.14 468.61 356.87 461.82 350.23 C 452.76 341.93 453.47 325.60 463.32 318.21 C 470.08 312.86 479.69 314.58 486.84 318.22 C 487.55 316.55 488.24 314.87 488.95 313.21 C 478.80 307.75 464.52 307.56 455.95 316.08 M 510.35 310.53 C 502.25 312.91 496.26 320.32 494.72 328.50 C 493.16 336.42 494.17 345.35 499.17 351.91 C 507.70 363.12 526.68 363.42 535.83 352.82 C 541.36 346.70 542.80 337.82 541.64 329.87 C 540.85 323.75 537.97 317.75 532.98 313.97 C 526.60 309.20 517.87 308.44 510.35 310.53 M 628.74 310.52 C 628.76 323.03 628.74 335.55 628.75 348.07 C 619.47 336.06 610.07 324.15 600.81 312.12 C 599.49 309.54 596.29 310.75 594.01 310.48 C 593.99 326.82 594.00 343.16 594.00 359.50 C 595.99 359.50 597.99 359.50 600.00 359.50 C 600.00 347.10 599.99 334.70 600.00 322.30 C 609.83 334.67 619.60 347.08 629.36 359.50 C 631.23 359.50 633.11 359.50 635.00 359.50 C 634.98 343.16 635.05 326.81 634.96 310.47 C 632.88 310.49 630.81 310.50 628.74 310.52 M 693.20 310.16 C 686.46 326.58 679.86 343.06 673.15 359.50 C 675.23 359.50 677.32 359.50 679.41 359.50 C 681.08 355.08 682.92 350.73 684.57 346.30 C 690.55 346.19 696.53 346.28 702.52 346.25 C 704.09 350.66 705.81 355.03 707.31 359.47 C 709.71 359.50 712.11 359.50 714.53 359.52 C 708.51 343.13 702.39 326.77 696.41 310.37 C 695.33 310.29 694.26 310.22 693.20 310.16 M 820.39 310.68 C 814.83 312.80 811.25 319.16 812.93 324.99 C 814.09 330.82 819.83 333.72 824.49 336.47 C 828.51 339.01 833.70 341.05 835.27 345.98 C 836.44 350.08 832.94 354.05 829.09 354.94 C 823.69 356.01 818.18 354.39 813.26 352.22 C 812.51 353.87 811.81 355.55 811.11 357.22 C 819.31 360.85 829.97 362.59 837.56 356.68 C 843.26 352.61 844.33 343.59 839.49 338.45 C 835.84 334.64 830.99 332.32 826.57 329.56 C 823.66 327.71 820.08 325.77 819.25 322.14 C 818.41 319.24 820.44 316.16 823.22 315.29 C 828.16 313.69 833.50 315.11 838.17 316.96 C 838.85 315.30 839.55 313.64 840.25 311.99 C 834.02 309.54 826.83 308.34 820.39 310.68 M 548.75 310.50 C 548.79 322.33 548.66 334.15 548.81 345.97 C 548.93 351.37 552.33 356.45 557.32 358.54 C 563.12 360.99 569.90 361.16 575.87 359.19 C 582.17 357.08 586.72 350.68 586.52 344.03 C 586.49 332.85 586.51 321.67 586.50 310.50 C 584.49 310.49 582.49 310.49 580.50 310.49 C 580.49 321.69 580.50 332.89 580.50 344.08 C 580.69 349.06 576.91 353.70 572.10 354.80 C 567.99 355.69 563.41 355.40 559.72 353.27 C 556.56 351.38 555.49 347.47 555.51 344.01 C 555.48 332.84 555.51 321.66 555.50 310.49 C 553.24 310.49 550.99 310.50 548.75 310.50 M 642.24 315.50 C 647.49 315.50 652.74 315.50 658.00 315.50 C 658.00 330.17 658.00 344.84 658.00 359.50 C 660.25 359.50 662.50 359.50 664.76 359.49 C 664.74 344.83 664.76 330.17 664.75 315.51 C 669.92 315.49 675.08 315.51 680.25 315.50 C 680.24 313.83 680.24 312.16 680.25 310.50 C 667.59 310.49 654.93 310.51 642.27 310.49 C 642.24 312.15 642.24 313.83 642.24 315.50 M 720.21 359.47 C 722.30 359.49 724.39 359.50 726.50 359.51 C 726.52 347.17 726.47 334.83 726.52 322.49 C 736.36 334.79 746.00 347.25 755.87 359.53 C 757.65 359.51 759.44 359.49 761.25 359.49 C 761.25 343.16 761.25 326.84 761.25 310.51 C 759.25 310.49 757.26 310.49 755.28 310.47 C 755.19 323.04 755.28 335.61 755.24 348.19 C 745.49 335.61 735.68 323.08 725.91 310.51 C 724.03 310.49 722.14 310.49 720.28 310.47 C 720.18 326.80 720.32 343.14 720.21 359.47 M 768.75 310.50 C 768.74 312.16 768.74 313.83 768.75 315.50 C 773.91 315.51 779.08 315.48 784.25 315.52 C 784.25 330.18 784.22 344.85 784.27 359.51 C 786.50 359.50 788.75 359.50 791.00 359.50 C 791.00 344.83 791.00 330.17 791.00 315.50 C 796.25 315.50 801.50 315.50 806.76 315.50 C 806.74 313.83 806.74 312.15 806.73 310.49 C 794.07 310.51 781.41 310.49 768.75 310.50 M 476.83 410.81 C 471.14 412.56 466.97 418.00 466.35 423.86 C 465.32 430.59 468.88 437.93 475.20 440.71 C 480.86 443.08 487.42 442.13 492.97 439.85 C 493.01 435.89 493.01 431.95 492.99 428.00 C 491.57 428.00 490.15 428.00 488.74 428.01 C 488.74 431.24 488.74 434.47 488.73 437.70 C 484.22 438.87 478.75 439.27 475.06 435.86 C 468.51 430.32 469.91 418.43 477.58 414.58 C 481.82 412.42 486.63 413.97 490.88 415.26 C 491.26 414.17 491.66 413.08 492.06 412.00 C 487.26 410.15 481.84 409.27 476.83 410.81 M 827.30 411.34 C 823.16 413.33 822.01 419.49 825.05 422.90 C 828.32 426.54 833.52 427.70 836.74 431.39 C 838.44 433.29 837.68 436.32 835.59 437.58 C 832.01 439.97 827.55 438.18 823.93 436.85 C 823.37 437.90 822.83 438.96 822.30 440.03 C 827.43 442.16 833.92 443.35 838.74 439.88 C 842.15 437.60 843.33 432.54 840.91 429.13 C 837.90 424.94 832.48 423.64 828.81 420.19 C 827.01 418.54 827.05 415.33 829.36 414.16 C 832.54 412.62 836.19 413.80 839.36 414.78 C 839.71 413.98 840.42 412.36 840.77 411.55 C 836.46 410.23 831.49 409.01 827.30 411.34 M 360.24 410.76 C 360.33 421.05 360.10 431.35 360.36 441.64 C 361.40 441.59 363.47 441.50 364.50 441.45 C 364.51 431.21 364.50 420.98 364.50 410.74 C 363.08 410.74 361.66 410.75 360.24 410.76 M 369.75 410.70 C 369.74 420.97 369.75 431.24 369.75 441.52 C 371.09 441.49 372.43 441.47 373.79 441.45 C 373.75 433.82 373.69 426.19 373.82 418.57 C 380.09 426.05 385.94 433.88 392.05 441.51 C 392.91 441.50 394.64 441.50 395.50 441.50 C 395.50 431.25 395.51 421.00 395.50 410.75 C 394.56 410.75 392.68 410.75 391.74 410.75 C 391.75 418.57 391.73 426.40 391.75 434.23 C 385.75 426.42 379.55 418.77 373.67 410.87 C 372.36 410.80 371.05 410.75 369.75 410.70 M 414.75 410.75 C 414.70 420.97 414.82 431.19 414.69 441.41 C 420.53 441.60 426.38 441.47 432.23 441.50 C 432.24 440.41 432.25 439.33 432.27 438.26 C 427.84 438.24 423.42 438.25 419.01 438.25 C 418.99 434.58 418.99 430.91 419.01 427.25 C 422.09 427.25 425.17 427.26 428.26 427.25 C 428.26 426.44 428.25 424.81 428.25 424.00 C 425.17 424.00 422.08 424.00 419.00 424.00 C 418.99 420.66 418.99 417.33 419.00 414.00 C 423.25 414.00 427.50 414.00 431.76 414.00 C 431.75 413.18 431.74 411.56 431.74 410.75 C 426.07 410.75 420.41 410.74 414.75 410.75 M 436.75 410.76 C 436.74 421.01 436.75 431.25 436.75 441.49 C 437.68 441.50 439.56 441.50 440.50 441.51 C 440.55 433.91 440.42 426.30 440.57 418.70 C 447.09 425.94 452.69 433.98 458.89 441.50 C 459.79 441.50 461.60 441.50 462.50 441.49 C 462.50 431.25 462.51 421.01 462.50 410.77 C 461.51 410.75 459.54 410.72 458.55 410.70 C 458.45 418.54 458.47 426.38 458.55 434.22 C 452.44 426.39 446.37 418.52 440.23 410.72 C 439.36 410.73 437.62 410.75 436.75 410.76 M 498.50 410.74 C 498.49 421.00 498.49 431.25 498.50 441.50 C 503.75 441.51 509.00 441.50 514.25 441.50 C 514.25 440.69 514.26 439.06 514.26 438.25 C 510.42 438.24 506.59 438.25 502.76 438.25 C 502.75 429.08 502.75 419.92 502.76 410.76 C 501.33 410.75 499.91 410.74 498.50 410.74 M 528.66 412.66 C 524.88 422.29 520.84 431.83 517.08 441.47 C 518.08 441.48 520.06 441.50 521.05 441.51 C 522.15 438.77 523.21 436.02 524.29 433.27 C 528.00 433.24 531.73 433.25 535.45 433.27 C 536.27 435.52 537.01 437.81 537.90 440.04 C 538.25 442.55 541.43 441.06 543.01 441.62 C 539.20 431.06 535.38 420.49 531.31 410.03 C 529.91 410.40 529.02 411.27 528.66 412.66 M 546.22 410.81 C 546.34 421.08 546.11 431.34 546.34 441.61 C 547.32 441.57 549.28 441.50 550.25 441.46 C 550.26 433.81 550.26 426.16 550.25 418.51 C 556.62 426.01 562.39 434.02 568.70 441.58 C 569.53 441.55 571.18 441.50 572.00 441.47 C 572.00 431.23 572.00 420.98 572.00 410.74 C 570.74 410.74 569.48 410.75 568.24 410.77 C 568.24 418.56 568.29 426.34 568.21 434.13 C 562.06 426.38 556.00 418.57 549.95 410.75 C 548.70 410.76 547.45 410.78 546.22 410.81 M 576.75 410.76 C 576.73 421.00 576.75 431.24 576.74 441.49 C 583.03 441.36 590.13 442.56 595.49 438.43 C 603.75 432.88 604.14 418.81 595.79 413.20 C 590.11 409.58 583.09 411.02 576.75 410.76 M 618.07 441.46 C 619.06 441.47 621.05 441.50 622.04 441.51 C 623.15 438.76 624.25 436.00 625.35 433.25 C 629.05 433.25 632.75 433.24 636.46 433.28 C 637.46 436.03 638.47 438.78 639.52 441.52 C 640.65 441.52 642.92 441.51 644.06 441.51 C 640.64 432.04 637.05 422.63 633.63 413.16 C 633.03 411.95 632.79 409.54 630.75 410.48 C 626.27 420.69 622.33 431.14 618.07 441.46 M 647.50 410.72 C 647.49 420.98 647.50 431.24 647.50 441.49 C 648.44 441.50 650.31 441.50 651.25 441.50 C 651.26 433.81 651.23 426.12 651.27 418.43 C 657.60 426.01 663.41 434.02 669.75 441.60 C 670.56 441.57 672.18 441.50 673.00 441.47 C 673.00 431.22 673.00 420.98 673.00 410.74 C 671.74 410.74 670.48 410.75 669.24 410.77 C 669.24 418.54 669.27 426.32 669.22 434.09 C 663.08 426.38 657.07 418.57 651.03 410.78 C 650.15 410.77 648.39 410.74 647.50 410.72 M 677.76 410.75 C 677.73 421.00 677.75 431.24 677.74 441.49 C 683.86 441.32 690.66 442.54 696.03 438.82 C 704.32 433.72 705.37 420.42 698.04 414.06 C 692.32 409.42 684.54 411.00 677.76 410.75 M 718.20 410.72 C 721.26 421.06 724.40 431.37 727.48 441.71 C 727.99 441.72 729.02 441.75 729.53 441.76 C 731.64 436.08 733.64 430.36 735.79 424.70 C 738.16 430.22 739.34 436.17 741.32 441.84 C 741.82 441.78 742.84 441.68 743.34 441.62 C 747.03 431.32 750.87 421.07 754.58 410.77 C 753.60 410.75 751.64 410.73 750.66 410.71 C 747.87 417.98 745.52 425.41 742.63 432.64 C 740.53 425.32 738.65 417.92 736.35 410.66 C 734.86 410.70 733.37 410.74 731.90 410.78 C 732.72 413.48 733.54 416.18 734.35 418.89 C 732.60 423.60 730.86 428.31 729.17 433.05 C 726.92 425.68 724.83 418.26 722.83 410.83 C 721.27 410.78 719.73 410.75 718.20 410.72 M 750.12 441.49 C 751.12 441.49 753.12 441.50 754.11 441.50 C 755.19 438.76 756.29 436.02 757.37 433.28 C 761.08 433.24 764.80 433.24 768.53 433.27 C 769.50 435.96 770.47 438.66 771.35 441.39 C 772.91 441.44 774.47 441.50 776.05 441.57 C 772.36 431.23 768.54 420.93 764.67 410.65 C 764.20 410.60 763.26 410.49 762.79 410.43 C 758.35 420.69 754.31 431.12 750.12 441.49 M 780.50 410.73 C 780.49 420.98 780.49 431.24 780.50 441.50 C 785.75 441.50 791.00 441.51 796.26 441.50 C 796.25 440.68 796.24 439.06 796.24 438.25 C 792.41 438.25 788.58 438.25 784.76 438.24 C 784.76 429.10 784.72 419.95 784.78 410.80 C 783.34 410.77 781.92 410.75 780.50 410.73 M 800.75 410.75 C 800.72 420.99 800.77 431.23 800.73 441.47 C 806.56 441.55 812.39 441.49 818.23 441.49 C 818.23 440.41 818.24 439.33 818.26 438.26 C 813.84 438.24 809.42 438.25 805.01 438.25 C 804.99 434.58 804.99 430.91 805.02 427.25 C 808.09 427.25 811.17 427.26 814.25 427.25 C 814.25 426.44 814.25 424.82 814.26 424.00 C 811.16 424.00 808.08 424.00 805.00 424.00 C 804.99 420.66 804.99 417.33 805.00 414.00 C 809.25 414.00 813.50 414.00 817.75 414.00 C 817.75 413.19 817.74 411.56 817.73 410.74 C 812.07 410.75 806.41 410.74 800.75 410.75 M 198.18 437.99 C 196.76 438.70 196.66 439.38 197.87 440.03 C 199.28 439.31 199.38 438.63 198.18 437.99 Z" />
<path fill="#ffffff" opacity="1.00" d=" M 381.50 237.70 C 387.40 235.78 394.45 237.70 398.32 242.62 C 401.80 246.92 402.95 252.61 402.99 258.01 C 402.82 264.20 400.92 270.93 395.82 274.85 C 389.36 280.05 378.82 278.74 373.90 272.04 C 369.51 266.06 368.76 258.02 370.34 250.93 C 371.60 245.08 375.51 239.39 381.50 237.70 Z" />
<path fill="#ffffff" opacity="1.00" d=" M 617.29 237.73 C 621.56 237.82 626.49 237.06 629.99 240.14 C 633.82 243.15 633.17 249.66 629.21 252.28 C 625.77 254.87 621.29 254.56 617.24 254.49 C 617.27 248.90 617.21 243.32 617.29 237.73 Z" />
<path fill="#ffffff" opacity="1.00" d=" M 732.00 237.76 C 736.35 237.81 741.36 237.04 744.93 240.13 C 748.51 243.00 748.19 248.94 744.68 251.74 C 741.31 255.00 736.30 254.50 732.00 254.50 C 731.99 248.92 732.00 243.34 732.00 237.76 Z" />
<path fill="#ffffff" opacity="1.00" d=" M 809.25 238.01 C 815.97 237.96 823.59 237.33 829.05 242.08 C 838.48 250.62 836.92 268.42 825.61 274.68 C 820.68 277.67 814.73 276.94 809.25 276.99 C 809.25 264.00 809.25 251.00 809.25 238.01 Z" />
<path fill="#ffffff" opacity="1.00" d=" M 224.10 240.16 C 227.93 237.60 233.13 237.97 237.17 239.87 C 238.73 241.58 241.03 243.26 240.52 245.90 C 240.14 248.96 240.71 251.95 241.38 254.92 C 241.24 259.48 237.69 262.69 234.99 265.96 C 231.61 270.06 233.52 276.49 237.50 279.48 C 240.34 281.89 244.23 281.99 247.51 283.45 C 249.27 284.68 249.72 286.94 250.47 288.82 C 249.90 294.86 249.59 300.92 248.90 306.95 C 248.51 310.37 248.72 314.19 250.91 317.01 C 252.92 319.13 255.56 320.50 257.97 322.12 C 261.11 324.05 263.99 326.46 267.44 327.86 L 269.85 326.40 C 269.89 326.99 269.97 328.16 270.01 328.74 C 271.21 329.11 272.42 329.49 273.63 329.86 C 273.68 332.41 273.08 334.82 270.57 335.92 C 270.86 337.07 271.16 338.22 271.46 339.37 C 272.43 338.35 273.32 337.24 273.83 335.92 C 277.75 326.51 281.75 317.14 285.69 307.75 C 287.16 304.20 289.04 300.83 291.18 297.65 C 290.04 304.83 286.69 311.34 284.05 318.04 C 281.13 325.35 277.95 332.55 275.17 339.91 C 276.06 341.98 276.44 344.21 276.28 346.47 C 274.60 349.17 271.54 350.58 268.48 349.23 C 265.48 346.52 265.77 342.07 268.49 339.31 C 268.33 337.90 268.23 336.48 267.87 335.11 C 266.90 334.45 265.82 333.97 264.78 333.46 C 257.91 330.13 251.42 326.07 245.03 321.90 C 242.04 320.20 242.98 316.24 242.00 313.43 C 241.38 313.49 240.12 313.60 239.49 313.65 C 238.16 316.61 238.17 319.94 239.19 323.00 C 242.55 334.33 244.15 346.17 243.97 357.99 C 244.18 373.02 242.68 388.00 240.93 402.91 C 240.57 405.79 240.08 408.65 239.57 411.51 C 238.76 409.19 237.97 406.86 237.14 404.55 C 233.29 393.42 229.32 382.34 225.49 371.21 C 226.20 370.41 226.92 369.62 227.64 368.84 C 228.84 372.30 230.05 375.75 231.20 379.23 C 231.61 378.87 232.41 378.14 232.81 377.77 C 231.37 372.99 229.83 368.20 227.31 363.86 C 226.22 365.00 225.13 366.14 224.05 367.30 C 222.62 362.93 221.00 358.62 219.56 354.26 C 220.25 353.47 220.93 352.70 221.62 351.93 C 222.90 355.31 224.12 358.73 225.21 362.18 C 225.64 361.88 226.50 361.29 226.93 360.99 C 225.44 356.18 224.09 351.23 221.30 346.98 C 220.26 348.08 219.22 349.18 218.20 350.29 C 215.87 344.17 213.92 337.92 211.57 331.81 C 215.03 323.96 222.22 318.81 229.49 314.77 C 227.97 310.43 223.78 313.94 221.38 315.42 C 219.58 316.22 216.96 318.52 215.21 316.96 C 215.81 313.58 216.30 308.61 212.04 307.50 C 207.06 309.81 206.63 316.65 202.03 319.53 C 194.92 320.48 188.32 316.74 181.90 314.24 C 185.73 332.28 189.26 350.38 192.29 368.56 C 192.80 372.77 194.11 376.94 193.61 381.22 C 190.29 367.58 187.30 353.87 184.11 340.20 C 182.02 331.13 179.93 322.05 177.86 312.96 C 176.74 312.55 175.59 312.20 174.52 311.66 C 172.86 309.35 172.19 304.89 175.75 304.05 C 175.06 300.66 174.35 297.26 174.19 293.80 C 175.42 294.14 176.97 294.16 177.62 295.49 C 180.15 299.06 178.83 304.06 181.42 307.61 C 183.55 308.78 186.01 309.07 188.33 309.69 C 192.79 310.35 198.65 313.55 202.07 309.04 C 206.45 302.91 207.95 295.32 209.98 288.19 C 211.01 284.65 213.46 281.24 217.25 280.39 C 215.97 282.66 214.13 285.14 215.20 287.89 C 217.02 293.97 225.11 295.71 230.33 293.25 C 232.25 292.53 233.37 290.35 232.52 288.41 C 230.78 285.05 227.45 282.97 224.61 280.65 C 225.90 278.50 228.56 277.23 229.25 274.79 C 228.74 270.35 225.79 266.48 225.74 261.95 C 226.37 258.93 230.52 257.45 230.06 254.03 C 230.01 252.29 228.55 251.14 227.48 249.96 C 225.15 249.54 221.76 248.67 220.30 251.21 C 220.02 252.64 219.79 254.09 219.61 255.54 C 215.67 254.62 215.43 249.56 216.64 246.44 C 217.82 243.13 221.38 241.91 224.10 240.16 M 270.79 342.46 C 269.05 343.64 270.01 345.37 270.99 346.71 C 273.37 346.14 273.56 342.12 270.79 342.46 Z" />
<path fill="#ffffff" opacity="1.00" d=" M 575.79 263.98 C 578.36 257.89 580.56 251.65 583.21 245.60 C 585.49 251.73 587.75 257.86 589.99 264.00 C 585.25 264.00 580.52 264.02 575.79 263.98 Z" />
<path fill="#ffffff" opacity="1.00" d=" M 512.29 315.53 C 519.04 312.79 527.53 315.41 531.24 321.75 C 535.68 329.25 535.81 339.07 532.03 346.87 C 528.88 353.39 520.90 357.03 513.93 354.93 C 505.96 353.06 501.63 344.57 501.44 336.91 C 500.76 328.66 503.90 318.70 512.29 315.53 Z" />
<path fill="#ffffff" opacity="1.00" d=" M 381.86 322.92 C 384.15 329.11 386.45 335.30 388.73 341.49 C 383.99 341.50 379.25 341.50 374.51 341.49 C 377.00 335.31 379.40 329.11 381.86 322.92 Z" />
<path fill="#ffffff" opacity="1.00" d=" M 693.89 323.00 C 696.27 329.14 698.49 335.34 700.77 341.52 C 696.03 341.48 691.29 341.50 686.56 341.50 C 689.00 335.34 691.41 329.16 693.89 323.00 Z" />
<path fill="#ffffff" opacity="1.00" d=" M 581.00 414.00 C 585.01 414.01 589.51 413.46 592.90 416.12 C 599.22 421.07 598.49 432.39 591.59 436.53 C 588.46 438.55 584.56 438.17 581.01 438.28 C 580.99 430.19 581.00 422.09 581.00 414.00 Z" />
<path fill="#ffffff" opacity="1.00" d=" M 682.00 414.00 C 686.01 414.00 690.52 413.47 693.92 416.11 C 700.32 421.07 699.53 432.45 692.58 436.58 C 689.42 438.52 685.55 438.18 682.01 438.28 C 681.99 430.19 682.00 422.09 682.00 414.00 Z" />
<path fill="#ffffff" opacity="1.00" d=" M 525.62 430.00 C 527.10 426.29 528.45 422.53 530.12 418.90 C 531.50 422.59 532.86 426.30 534.23 430.00 C 531.36 430.00 528.49 430.00 525.62 430.00 Z" />
<path fill="#ffffff" opacity="1.00" d=" M 626.69 429.99 C 628.11 426.28 629.45 422.53 631.19 418.95 C 632.55 422.62 633.89 426.31 635.24 430.00 C 632.38 430.00 629.53 430.00 626.69 429.99 Z" />
<path fill="#ffffff" opacity="1.00" d=" M 763.15 418.90 C 764.60 422.57 765.93 426.29 767.29 430.00 C 764.42 430.00 761.54 430.00 758.68 429.99 C 760.12 426.27 761.58 422.56 763.15 418.90 Z" />
</g>
<g id="#980000ff">
<path fill="#980000" opacity="1.00" d=" M 238.85 155.60 C 260.23 155.36 281.62 155.59 303.01 155.50 C 305.98 155.25 308.80 156.96 310.21 159.55 L 309.03 158.95 C 302.36 155.17 294.50 157.76 287.27 157.13 C 281.04 157.27 274.71 156.53 268.54 157.57 C 266.93 159.71 266.06 162.31 264.42 164.43 C 263.13 165.61 261.46 166.22 259.94 167.04 C 260.96 169.71 261.80 172.45 262.26 175.27 C 260.87 175.28 259.48 175.29 258.10 175.30 C 259.83 180.89 261.48 186.51 263.18 192.12 C 262.89 192.63 262.30 193.66 262.01 194.17 C 260.73 190.18 259.53 186.17 258.41 182.14 C 256.00 184.22 254.04 186.73 252.21 189.32 C 251.98 189.35 251.52 189.42 251.29 189.45 C 251.28 188.77 251.26 187.41 251.25 186.73 C 248.59 186.72 245.93 186.72 243.28 186.72 C 243.27 183.90 243.27 181.08 243.27 178.27 C 246.94 178.27 250.60 178.27 254.26 178.25 C 254.26 177.50 254.26 176.01 254.26 175.26 C 249.42 175.25 244.58 175.25 239.75 175.26 C 239.73 184.09 239.73 192.92 239.74 201.75 C 244.73 201.76 249.71 201.75 254.69 201.77 L 254.66 202.79 C 248.29 204.45 239.59 200.55 235.17 206.95 C 233.70 211.43 230.48 214.94 228.34 219.08 C 221.44 218.81 214.46 219.62 207.62 218.37 C 211.03 211.04 216.45 204.81 222.18 199.19 C 224.04 196.80 228.27 197.81 229.25 194.65 C 229.88 197.06 230.75 199.41 231.63 201.75 C 232.63 201.75 234.62 201.75 235.61 201.74 C 232.38 192.98 229.17 184.21 225.90 175.47 C 224.98 176.05 224.05 176.61 223.11 177.13 C 223.68 175.44 224.91 174.15 226.51 173.37 C 224.63 173.34 222.75 173.23 220.87 173.12 C 221.40 170.52 221.44 167.81 222.34 165.30 C 224.41 162.36 227.17 159.99 229.40 157.18 C 239.64 157.09 249.87 156.86 260.10 156.46 C 253.02 155.97 245.89 156.65 238.85 155.60 Z" />
</g>
<g id="#000000ff">
<path fill="#000000" opacity="1.00" d=" M 438.25 155.50 C 440.58 155.50 442.91 155.50 445.25 155.50 C 445.24 171.92 445.26 188.34 445.24 204.76 C 442.91 204.75 440.58 204.75 438.25 204.75 C 438.24 197.17 438.25 189.58 438.25 182.00 C 430.25 182.00 422.25 182.00 414.25 182.00 C 414.25 189.59 414.25 197.18 414.25 204.76 C 411.98 204.76 409.71 204.75 407.45 204.70 C 407.56 188.30 407.46 171.90 407.50 155.50 C 409.75 155.50 412.00 155.50 414.25 155.50 C 414.25 162.58 414.25 169.66 414.25 176.75 C 422.25 176.75 430.24 176.74 438.24 176.75 C 438.25 169.67 438.24 162.58 438.25 155.50 Z" />
<path fill="#000000" opacity="1.00" d=" M 525.75 155.50 C 527.58 155.50 529.42 155.50 531.26 155.51 C 541.03 168.01 550.72 180.56 560.50 193.06 C 560.50 180.54 560.50 168.02 560.50 155.51 C 562.56 155.50 564.64 155.49 566.72 155.47 C 566.80 171.90 566.72 188.32 566.76 204.75 C 564.93 204.75 563.10 204.75 561.29 204.75 C 551.44 192.27 541.61 179.77 531.77 167.29 C 531.73 179.78 531.77 192.26 531.75 204.75 C 529.75 204.75 527.75 204.75 525.75 204.76 C 525.74 188.34 525.75 171.92 525.75 155.50 Z" />
<path fill="#000000" opacity="1.00" d=" M 581.01 157.07 C 587.71 152.83 596.32 154.33 603.33 157.02 C 602.63 158.70 601.92 160.38 601.19 162.05 C 596.73 160.10 591.70 159.03 586.88 160.12 C 584.25 160.71 581.89 163.16 582.22 165.99 C 582.21 170.50 586.80 172.78 590.09 174.88 C 595.21 178.29 601.70 180.74 604.54 186.59 C 607.24 192.02 605.02 198.95 600.02 202.22 C 592.39 207.53 582.00 205.94 574.05 202.17 C 574.83 200.57 575.63 198.98 576.41 197.37 C 580.95 199.33 585.92 200.83 590.91 200.29 C 595.21 199.84 599.60 195.67 598.33 191.09 C 597.27 187.06 593.31 185.01 590.03 182.98 C 585.97 180.42 581.31 178.46 578.22 174.66 C 573.95 169.42 575.18 160.65 581.01 157.07 Z" />
<path fill="#000000" opacity="1.00" d=" M 767.50 155.50 C 780.17 155.50 792.83 155.49 805.50 155.50 C 805.49 157.17 805.49 158.83 805.50 160.50 C 800.25 160.51 795.00 160.49 789.75 160.51 C 789.75 175.26 789.76 190.01 789.75 204.76 C 787.49 204.75 785.25 204.75 783.01 204.75 C 782.94 189.98 783.10 175.20 782.92 160.43 C 777.78 160.57 772.64 160.48 767.50 160.50 C 767.49 158.83 767.49 157.16 767.50 155.50 Z" />
<path fill="#000000" opacity="1.00" d=" M 360.75 155.50 C 373.42 155.50 386.09 155.49 398.76 155.50 C 398.74 157.17 398.75 158.83 398.75 160.50 C 393.58 160.50 388.41 160.49 383.25 160.51 C 383.26 175.26 383.25 190.01 383.25 204.76 C 380.97 204.76 378.70 204.75 376.42 204.68 C 376.59 189.95 376.45 175.23 376.49 160.50 C 371.24 160.50 365.99 160.51 360.75 160.50 C 360.74 158.83 360.74 157.16 360.75 155.50 Z" />
<path fill="#000000" opacity="1.00" d=" M 453.75 155.50 C 462.74 155.48 471.73 155.52 480.73 155.48 C 480.74 157.15 480.74 158.83 480.76 160.50 C 474.01 160.50 467.25 160.50 460.50 160.51 C 460.50 165.92 460.50 171.33 460.50 176.75 C 465.49 176.75 470.48 176.75 475.47 176.75 C 475.50 178.47 475.52 180.19 475.57 181.92 C 470.55 182.08 465.52 181.97 460.50 182.00 C 460.50 187.83 460.50 193.66 460.50 199.50 C 467.59 199.50 474.67 199.50 481.75 199.49 C 481.75 201.24 481.75 203.00 481.75 204.75 C 472.43 204.79 463.12 204.68 453.80 204.81 C 453.68 188.37 453.78 171.94 453.75 155.50 Z" />
<path fill="#000000" opacity="1.00" d=" M 511.00 155.50 C 513.33 155.50 515.66 155.50 518.00 155.50 C 518.00 171.92 518.01 188.34 517.99 204.76 C 515.66 204.75 513.33 204.75 511.01 204.75 C 510.99 188.34 511.00 171.92 511.00 155.50 Z" />
<path fill="#000000" opacity="1.00" d=" M 612.01 155.50 C 624.59 155.51 637.18 155.48 649.76 155.51 C 649.74 157.17 649.75 158.84 649.75 160.51 C 644.59 160.49 639.44 160.53 634.29 160.47 C 634.20 175.23 634.28 190.00 634.25 204.76 C 631.99 204.75 629.73 204.75 627.49 204.73 C 627.51 189.99 627.49 175.24 627.49 160.50 C 622.32 160.49 617.15 160.52 611.98 160.48 C 611.98 158.82 611.99 157.16 612.01 155.50 Z" />
<path fill="#000000" opacity="1.00" d=" M 658.50 155.50 C 660.74 155.50 662.99 155.50 665.25 155.50 C 665.25 171.91 665.26 188.33 665.24 204.74 C 663.01 204.75 660.77 204.76 658.55 204.81 C 658.44 188.37 658.52 171.94 658.50 155.50 Z" />
<path fill="#000000" opacity="1.00" d=" M 673.75 155.50 C 686.42 155.50 699.09 155.49 711.76 155.50 C 711.74 157.17 711.75 158.83 711.74 160.50 C 706.56 160.52 701.37 160.46 696.20 160.55 C 696.37 175.25 696.12 189.96 696.32 204.67 C 694.04 204.75 691.76 204.76 689.49 204.75 C 689.51 190.00 689.50 175.25 689.49 160.50 C 684.24 160.50 678.99 160.51 673.75 160.50 C 673.74 158.83 673.74 157.16 673.75 155.50 Z" />
<path fill="#000000" opacity="1.00" d=" M 720.50 155.50 C 722.74 155.50 724.99 155.50 727.25 155.50 C 727.26 166.67 727.24 177.84 727.25 189.02 C 727.22 192.50 728.30 196.36 731.41 198.33 C 735.15 200.62 739.91 200.64 744.10 199.82 C 748.96 198.74 752.47 193.94 752.25 189.01 C 752.24 177.84 752.25 166.67 752.24 155.51 C 754.32 155.50 756.40 155.49 758.50 155.49 C 758.48 166.33 758.53 177.17 758.48 188.00 C 758.49 193.25 756.38 198.68 752.09 201.87 C 746.45 206.10 738.77 206.19 732.15 204.74 C 725.76 203.39 720.64 197.58 720.55 190.97 C 720.42 179.15 720.54 167.32 720.50 155.50 Z" />
<path fill="#000000" opacity="1.00" d=" M 814.75 155.50 C 823.75 155.50 832.76 155.49 841.76 155.51 C 841.73 157.17 841.75 158.84 841.75 160.51 C 835.00 160.50 828.25 160.50 821.50 160.51 C 821.50 165.92 821.50 171.33 821.50 176.75 C 826.41 176.75 831.33 176.74 836.25 176.75 C 836.24 178.50 836.24 180.25 836.25 182.00 C 831.33 182.00 826.42 182.00 821.50 182.00 C 821.50 187.83 821.50 193.66 821.50 199.50 C 828.58 199.50 835.67 199.50 842.75 199.50 C 842.74 201.25 842.74 203.00 842.76 204.75 C 833.42 204.76 824.09 204.75 814.76 204.76 C 814.74 188.34 814.75 171.92 814.75 155.50 Z" />
<path fill="#000000" opacity="1.00" d=" M 380.44 232.57 C 388.23 230.95 397.19 232.34 403.05 238.07 C 408.14 242.94 410.19 250.15 410.27 257.02 C 410.41 264.01 408.22 271.26 403.28 276.34 C 393.64 286.10 375.13 285.32 367.01 274.01 C 361.94 266.62 361.07 256.82 363.64 248.36 C 365.95 240.64 372.45 234.17 380.44 232.57 M 381.50 237.70 C 375.51 239.39 371.60 245.08 370.34 250.93 C 368.76 258.02 369.51 266.06 373.90 272.04 C 378.82 278.74 389.36 280.05 395.82 274.85 C 400.92 270.93 402.82 264.20 402.99 258.01 C 402.95 252.61 401.80 246.92 398.32 242.62 C 394.45 237.70 387.40 235.78 381.50 237.70 Z" />
<path fill="#000000" opacity="1.00" d=" M 486.72 232.73 C 494.32 231.01 502.71 231.78 509.60 235.58 C 508.95 237.24 508.30 238.90 507.68 240.57 C 500.88 237.45 492.38 235.47 485.56 239.57 C 474.42 246.21 472.97 263.83 482.39 272.57 C 489.09 279.38 500.37 278.68 508.15 274.16 C 508.97 275.60 509.83 277.02 510.66 278.49 C 504.40 282.57 496.56 283.65 489.26 282.67 C 478.59 281.21 470.27 271.60 469.07 261.10 C 467.22 249.11 474.62 235.80 486.72 232.73 Z" />
<path fill="#000000" opacity="1.00" d=" M 417.24 233.01 C 425.83 232.99 434.41 233.00 443.00 233.00 C 442.99 234.66 443.00 236.33 443.00 238.00 C 436.75 238.00 430.50 237.99 424.25 238.00 C 424.26 243.42 424.24 248.83 424.26 254.25 C 428.59 254.24 432.92 254.24 437.25 254.25 C 437.25 255.91 437.24 257.58 437.25 259.25 C 432.91 259.25 428.58 259.25 424.25 259.25 C 424.25 266.83 424.25 274.42 424.25 282.00 C 421.91 282.00 419.57 282.00 417.24 281.99 C 417.25 265.66 417.25 249.33 417.24 233.01 Z" />
<path fill="#000000" opacity="1.00" d=" M 517.75 232.75 C 519.99 232.75 522.24 232.74 524.49 232.74 C 524.52 239.83 524.49 246.91 524.50 254.00 C 532.51 253.98 540.52 254.04 548.52 253.96 C 548.47 246.89 548.51 239.82 548.50 232.75 C 550.75 232.75 552.99 232.75 555.25 232.75 C 555.25 249.17 555.25 265.59 555.25 282.00 C 552.99 282.00 550.74 282.00 548.49 281.98 C 548.52 274.41 548.47 266.84 548.51 259.27 C 540.51 259.22 532.51 259.27 524.51 259.24 C 524.50 266.82 524.49 274.40 524.52 281.98 C 522.26 282.00 520.00 282.00 517.75 282.00 C 517.75 265.59 517.75 249.17 517.75 232.75 Z" />
<path fill="#000000" opacity="1.00" d=" M 562.43 282.00 C 569.13 265.56 575.70 249.06 582.49 232.66 C 583.28 232.70 584.86 232.80 585.65 232.84 C 591.61 249.26 597.72 265.62 603.75 282.01 C 601.31 282.01 598.88 282.00 596.46 281.92 C 595.01 277.50 593.29 273.18 591.79 268.78 C 585.83 268.72 579.87 268.77 573.91 268.75 C 572.21 273.18 570.37 277.55 568.70 281.98 C 566.60 282.00 564.51 282.00 562.43 282.00 M 575.79 263.98 C 580.52 264.02 585.25 264.00 589.99 264.00 C 587.75 257.86 585.49 251.73 583.21 245.60 C 580.56 251.65 578.36 257.89 575.79 263.98 Z" />
<path fill="#000000" opacity="1.00" d=" M 610.46 233.05 C 615.67 233.00 620.89 232.93 626.11 233.04 C 631.59 233.21 637.57 236.34 639.01 241.98 C 640.92 248.77 635.95 255.83 629.54 257.92 C 634.57 265.97 639.54 274.05 644.54 282.12 C 642.06 282.38 639.60 282.62 637.13 282.85 C 632.28 274.94 627.37 267.07 622.65 259.08 C 620.93 259.05 619.21 258.97 617.50 258.97 C 617.47 266.67 617.57 274.36 617.45 282.06 C 615.12 282.01 612.79 281.99 610.47 281.96 C 610.51 265.65 610.53 249.35 610.46 233.05 M 617.29 237.73 C 617.21 243.32 617.27 248.90 617.24 254.49 C 621.29 254.56 625.77 254.87 629.21 252.28 C 633.17 249.66 633.82 243.15 629.99 240.14 C 626.49 237.06 621.56 237.82 617.29 237.73 Z" />
<path fill="#000000" opacity="1.00" d=" M 643.75 233.00 C 656.42 233.00 669.08 233.00 681.75 233.00 C 681.74 234.66 681.74 236.33 681.76 238.00 C 676.50 238.00 671.25 238.00 666.00 238.00 C 666.00 252.67 666.00 267.33 666.00 282.00 C 663.74 282.00 661.49 282.00 659.24 282.00 C 659.25 267.33 659.24 252.67 659.25 238.00 C 654.08 238.00 648.91 238.00 643.75 238.00 C 643.74 236.33 643.74 234.66 643.75 233.00 Z" />
<path fill="#000000" opacity="1.00" d=" M 689.47 233.04 C 698.48 232.96 707.49 233.02 716.50 233.00 C 716.49 234.67 716.49 236.33 716.50 238.00 C 709.75 238.01 703.00 237.99 696.25 238.01 C 696.26 243.42 696.22 248.84 696.28 254.26 C 701.18 254.23 706.09 254.25 711.00 254.25 C 710.99 255.91 710.99 257.58 711.00 259.25 C 706.08 259.25 701.16 259.25 696.25 259.25 C 696.24 265.16 696.26 271.08 696.24 276.99 C 703.24 277.01 710.25 276.99 717.25 277.00 C 717.24 278.66 717.24 280.33 717.25 282.00 C 707.98 281.98 698.72 282.05 689.46 281.96 C 689.53 265.65 689.51 249.34 689.47 233.04 Z" />
<path fill="#000000" opacity="1.00" d=" M 725.52 282.02 C 725.48 265.68 725.50 249.34 725.51 233.00 C 732.32 233.39 739.36 232.06 746.01 234.02 C 751.75 235.73 755.76 242.20 753.85 248.08 C 752.73 252.76 748.89 256.31 744.49 257.96 C 749.44 266.05 754.47 274.08 759.47 282.14 C 756.95 282.36 754.43 282.60 751.93 282.81 C 747.11 274.83 742.23 266.88 737.34 258.94 C 735.63 258.97 733.93 259.01 732.24 259.03 C 732.26 266.68 732.25 274.34 732.25 281.99 C 730.00 282.00 727.75 282.00 725.52 282.02 M 732.00 237.76 C 732.00 243.34 731.99 248.92 732.00 254.50 C 736.30 254.50 741.31 255.00 744.68 251.74 C 748.19 248.94 748.51 243.00 744.93 240.13 C 741.36 237.04 736.35 237.81 732.00 237.76 Z" />
<path fill="#000000" opacity="1.00" d=" M 766.75 233.00 C 775.75 233.00 784.75 233.00 793.75 233.00 C 793.74 234.66 793.74 236.33 793.76 238.00 C 787.01 238.01 780.25 237.99 773.51 238.00 C 773.50 243.42 773.50 248.83 773.50 254.24 C 778.42 254.25 783.34 254.24 788.26 254.26 C 788.24 255.92 788.24 257.58 788.24 259.25 C 783.33 259.25 778.41 259.25 773.50 259.25 C 773.52 265.18 773.46 271.10 773.53 277.03 C 780.60 276.96 787.68 277.01 794.76 277.00 C 794.74 278.66 794.74 280.33 794.75 281.99 C 785.42 282.01 776.08 282.00 766.75 282.00 C 766.75 265.67 766.75 249.33 766.75 233.00 Z" />
<path fill="#000000" opacity="1.00" d=" M 802.46 233.05 C 812.43 233.41 823.38 231.22 832.36 236.74 C 843.42 243.59 845.41 260.15 838.60 270.64 C 834.05 277.84 825.52 282.38 817.00 282.02 C 812.16 281.99 807.32 282.01 802.49 281.98 C 802.48 265.67 802.54 249.36 802.46 233.05 M 809.25 238.01 C 809.25 251.00 809.25 264.00 809.25 276.99 C 814.73 276.94 820.68 277.67 825.61 274.68 C 836.92 268.42 838.48 250.62 829.05 242.08 C 823.59 237.33 815.97 237.96 809.25 238.01 Z" />
<path fill="#000000" opacity="1.00" d=" M 381.14 310.20 C 382.20 310.23 383.27 310.27 384.35 310.32 C 390.32 326.74 396.45 343.10 402.48 359.50 C 400.08 359.50 397.67 359.50 395.28 359.46 C 393.74 355.05 392.04 350.71 390.52 346.29 C 384.54 346.20 378.56 346.27 372.59 346.25 C 370.84 350.67 369.05 355.07 367.37 359.51 C 365.28 359.50 363.19 359.49 361.11 359.48 C 367.80 343.06 374.41 326.60 381.14 310.20 M 381.86 322.92 C 379.40 329.11 377.00 335.31 374.51 341.49 C 379.25 341.50 383.99 341.50 388.73 341.49 C 386.45 335.30 384.15 329.11 381.86 322.92 Z" />
<path fill="#000000" opacity="1.00" d=" M 404.27 328.89 C 406.29 319.31 414.25 311.02 424.12 309.73 C 431.01 309.01 438.46 309.56 444.44 313.37 C 443.71 314.98 442.95 316.58 442.25 318.21 C 435.37 314.73 426.35 312.98 419.57 317.61 C 408.93 324.68 407.92 342.09 417.55 350.46 C 424.32 356.90 435.30 356.07 442.94 351.64 C 443.76 353.08 444.58 354.53 445.40 355.99 C 438.01 360.69 428.44 361.70 420.10 359.23 C 407.95 355.26 401.16 341.02 404.27 328.89 Z" />
<path fill="#000000" opacity="1.00" d=" M 455.95 316.08 C 464.52 307.56 478.80 307.75 488.95 313.21 C 488.24 314.87 487.55 316.55 486.84 318.22 C 479.69 314.58 470.08 312.86 463.32 318.21 C 453.47 325.60 452.76 341.93 461.82 350.23 C 468.61 356.87 479.75 356.14 487.48 351.61 C 488.32 353.07 489.14 354.54 489.98 356.02 C 483.83 359.93 476.24 361.08 469.09 360.25 C 461.30 359.32 454.41 354.08 450.97 347.10 C 445.90 337.12 447.74 323.87 455.95 316.08 Z" />
<path fill="#000000" opacity="1.00" d=" M 510.35 310.53 C 517.87 308.44 526.60 309.20 532.98 313.97 C 537.97 317.75 540.85 323.75 541.64 329.87 C 542.80 337.82 541.36 346.70 535.83 352.82 C 526.68 363.42 507.70 363.12 499.17 351.91 C 494.17 345.35 493.16 336.42 494.72 328.50 C 496.26 320.32 502.25 312.91 510.35 310.53 M 512.29 315.53 C 503.90 318.70 500.76 328.66 501.44 336.91 C 501.63 344.57 505.96 353.06 513.93 354.93 C 520.90 357.03 528.88 353.39 532.03 346.87 C 535.81 339.07 535.68 329.25 531.24 321.75 C 527.53 315.41 519.04 312.79 512.29 315.53 Z" />
<path fill="#000000" opacity="1.00" d=" M 628.74 310.52 C 630.81 310.50 632.88 310.49 634.96 310.47 C 635.05 326.81 634.98 343.16 635.00 359.50 C 633.11 359.50 631.23 359.50 629.36 359.50 C 619.60 347.08 609.83 334.67 600.00 322.30 C 599.99 334.70 600.00 347.10 600.00 359.50 C 597.99 359.50 595.99 359.50 594.00 359.50 C 594.00 343.16 593.99 326.82 594.01 310.48 C 596.29 310.75 599.49 309.54 600.81 312.12 C 610.07 324.15 619.47 336.06 628.75 348.07 C 628.74 335.55 628.76 323.03 628.74 310.52 Z" />
<path fill="#000000" opacity="1.00" d=" M 693.20 310.16 C 694.26 310.22 695.33 310.29 696.41 310.37 C 702.39 326.77 708.51 343.13 714.53 359.52 C 712.11 359.50 709.71 359.50 707.31 359.47 C 705.81 355.03 704.09 350.66 702.52 346.25 C 696.53 346.28 690.55 346.19 684.57 346.30 C 682.92 350.73 681.08 355.08 679.41 359.50 C 677.32 359.50 675.23 359.50 673.15 359.50 C 679.86 343.06 686.46 326.58 693.20 310.16 M 693.89 323.00 C 691.41 329.16 689.00 335.34 686.56 341.50 C 691.29 341.50 696.03 341.48 700.77 341.52 C 698.49 335.34 696.27 329.14 693.89 323.00 Z" />
<path fill="#000000" opacity="1.00" d=" M 820.39 310.68 C 826.83 308.34 834.02 309.54 840.25 311.99 C 839.55 313.64 838.85 315.30 838.17 316.96 C 833.50 315.11 828.16 313.69 823.22 315.29 C 820.44 316.16 818.41 319.24 819.25 322.14 C 820.08 325.77 823.66 327.71 826.57 329.56 C 830.99 332.32 835.84 334.64 839.49 338.45 C 844.33 343.59 843.26 352.61 837.56 356.68 C 829.97 362.59 819.31 360.85 811.11 357.22 C 811.81 355.55 812.51 353.87 813.26 352.22 C 818.18 354.39 823.69 356.01 829.09 354.94 C 832.94 354.05 836.44 350.08 835.27 345.98 C 833.70 341.05 828.51 339.01 824.49 336.47 C 819.83 333.72 814.09 330.82 812.93 324.99 C 811.25 319.16 814.83 312.80 820.39 310.68 Z" />
<path fill="#000000" opacity="1.00" d=" M 548.75 310.50 C 550.99 310.50 553.24 310.49 555.50 310.49 C 555.51 321.66 555.48 332.84 555.51 344.01 C 555.49 347.47 556.56 351.38 559.72 353.27 C 563.41 355.40 567.99 355.69 572.10 354.80 C 576.91 353.70 580.69 349.06 580.50 344.08 C 580.50 332.89 580.49 321.69 580.50 310.49 C 582.49 310.49 584.49 310.49 586.50 310.50 C 586.51 321.67 586.49 332.85 586.52 344.03 C 586.72 350.68 582.17 357.08 575.87 359.19 C 569.90 361.16 563.12 360.99 557.32 358.54 C 552.33 356.45 548.93 351.37 548.81 345.97 C 548.66 334.15 548.79 322.33 548.75 310.50 Z" />
<path fill="#000000" opacity="1.00" d=" M 642.24 315.50 C 642.24 313.83 642.24 312.15 642.27 310.49 C 654.93 310.51 667.59 310.49 680.25 310.50 C 680.24 312.16 680.24 313.83 680.25 315.50 C 675.08 315.51 669.92 315.49 664.75 315.51 C 664.76 330.17 664.74 344.83 664.76 359.49 C 662.50 359.50 660.25 359.50 658.00 359.50 C 658.00 344.84 658.00 330.17 658.00 315.50 C 652.74 315.50 647.49 315.50 642.24 315.50 Z" />
<path fill="#000000" opacity="1.00" d=" M 720.21 359.47 C 720.32 343.14 720.18 326.80 720.28 310.47 C 722.14 310.49 724.03 310.49 725.91 310.51 C 735.68 323.08 745.49 335.61 755.24 348.19 C 755.28 335.61 755.19 323.04 755.28 310.47 C 757.26 310.49 759.25 310.49 761.25 310.51 C 761.25 326.84 761.25 343.16 761.25 359.49 C 759.44 359.49 757.65 359.51 755.87 359.53 C 746.00 347.25 736.36 334.79 726.52 322.49 C 726.47 334.83 726.52 347.17 726.50 359.51 C 724.39 359.50 722.30 359.49 720.21 359.47 Z" />
<path fill="#000000" opacity="1.00" d=" M 768.75 310.50 C 781.41 310.49 794.07 310.51 806.73 310.49 C 806.74 312.15 806.74 313.83 806.76 315.50 C 801.50 315.50 796.25 315.50 791.00 315.50 C 791.00 330.17 791.00 344.83 791.00 359.50 C 788.75 359.50 786.50 359.50 784.27 359.51 C 784.22 344.85 784.25 330.18 784.25 315.52 C 779.08 315.48 773.91 315.51 768.75 315.50 C 768.74 313.83 768.74 312.16 768.75 310.50 Z" />
</g>
<g id="#760000ff">
<path fill="#760000" opacity="1.00" d=" M 155.65 160.46 C 156.54 157.47 159.86 155.27 163.01 155.48 C 188.29 155.57 213.57 155.38 238.85 155.60 C 245.89 156.65 253.02 155.97 260.10 156.46 C 249.87 156.86 239.64 157.09 229.40 157.18 C 222.26 157.00 215.11 157.02 207.97 157.28 C 202.96 157.39 201.25 163.06 199.89 166.98 C 200.74 167.45 201.59 167.92 202.44 168.39 C 200.66 169.50 198.62 170.48 197.64 172.45 C 201.97 172.77 206.53 173.01 210.17 175.68 C 209.81 175.73 209.10 175.82 208.74 175.87 C 204.42 175.20 199.86 173.85 195.64 175.75 C 187.66 178.96 185.01 190.21 190.19 196.92 C 192.34 200.10 195.97 201.74 199.62 202.50 C 192.88 204.74 188.43 197.89 185.34 193.05 C 185.27 196.30 185.11 199.56 184.89 202.81 C 182.61 203.08 180.34 203.34 178.06 203.59 C 178.45 205.48 179.92 207.63 178.57 209.46 C 176.59 212.66 174.03 215.46 171.98 218.62 C 175.47 218.74 178.94 219.11 182.40 219.60 C 173.74 220.41 165.04 219.60 156.36 219.63 C 156.35 202.77 156.44 185.90 156.51 169.03 C 156.54 166.15 156.10 163.30 155.65 160.46 M 179.50 175.25 C 179.48 184.08 179.49 192.92 179.49 201.75 C 180.75 201.75 182.00 201.76 183.26 201.77 C 183.27 192.93 183.28 184.08 183.25 175.24 C 182.00 175.24 180.75 175.24 179.50 175.25 Z" />
</g>
<g id="#880000ff">
<path fill="#880000" opacity="1.00" d=" M 199.89 166.98 C 201.25 163.06 202.96 157.39 207.97 157.28 C 215.11 157.02 222.26 157.00 229.40 157.18 C 227.17 159.99 224.41 162.36 222.34 165.30 C 221.44 167.81 221.40 170.52 220.87 173.12 C 222.75 173.23 224.63 173.34 226.51 173.37 C 224.91 174.15 223.68 175.44 223.11 177.13 C 220.08 185.43 216.47 193.50 213.32 201.76 C 214.20 201.74 215.95 201.72 216.83 201.70 C 217.74 199.29 218.70 196.89 219.66 194.50 C 222.86 194.50 226.05 194.47 229.25 194.65 C 228.27 197.81 224.04 196.80 222.18 199.19 C 216.45 204.81 211.03 211.04 207.62 218.37 C 214.46 219.62 221.44 218.81 228.34 219.08 C 229.14 219.27 230.73 219.66 231.52 219.85 C 215.19 221.28 198.77 219.65 182.40 219.60 C 178.94 219.11 175.47 218.74 171.98 218.62 C 174.03 215.46 176.59 212.66 178.57 209.46 C 179.92 207.63 178.45 205.48 178.06 203.59 C 180.34 203.34 182.61 203.08 184.89 202.81 C 185.11 199.56 185.27 196.30 185.34 193.05 C 188.43 197.89 192.88 204.74 199.62 202.50 C 203.23 202.23 206.85 201.63 210.10 199.96 C 209.63 199.14 209.16 198.31 208.69 197.49 C 204.83 199.15 200.04 200.35 196.30 197.71 C 190.05 193.63 190.04 183.29 196.32 179.24 C 200.07 176.55 204.76 178.25 208.70 179.52 C 208.72 178.30 208.73 177.09 208.74 175.87 C 209.10 175.82 209.81 175.73 210.17 175.68 C 206.53 173.01 201.97 172.77 197.64 172.45 C 198.62 170.48 200.66 169.50 202.44 168.39 C 201.59 167.92 200.74 167.45 199.89 166.98 Z" />
</g>
<g id="#a50000ff">
<path fill="#a50000" opacity="1.00" d=" M 268.54 157.57 C 274.71 156.53 281.04 157.27 287.27 157.13 C 284.71 159.94 281.69 162.36 279.36 165.38 C 277.76 168.10 276.46 171.09 275.90 174.21 C 276.61 178.65 277.63 183.15 279.84 187.12 C 280.37 185.30 280.85 183.48 281.48 181.69 C 282.07 181.49 283.27 181.09 283.87 180.89 C 282.34 185.32 280.76 189.73 279.14 194.12 C 277.35 187.83 275.61 181.54 273.79 175.26 C 272.48 175.27 271.17 175.27 269.87 175.29 C 270.53 178.23 272.54 181.29 271.25 184.33 C 270.10 187.70 268.75 191.00 267.50 194.34 C 265.80 187.97 263.62 181.72 262.26 175.27 C 261.80 172.45 260.96 169.71 259.94 167.04 C 261.46 166.22 263.13 165.61 264.42 164.43 C 266.06 162.31 266.93 159.71 268.54 157.57 Z" />
</g>
<g id="#b30000ff">
<path fill="#b30000" opacity="1.00" d=" M 287.27 157.13 C 294.50 157.76 302.36 155.17 309.03 158.95 C 309.11 162.52 309.80 166.21 308.80 169.70 C 306.65 172.04 303.74 173.92 303.32 177.37 C 302.37 177.76 301.43 178.16 300.48 178.55 C 300.14 182.74 298.39 186.51 295.57 189.59 C 292.75 194.87 291.39 201.60 285.79 204.84 C 287.13 207.56 284.28 209.05 282.88 210.92 C 281.44 212.97 280.93 215.54 279.48 217.60 C 277.91 218.84 275.78 218.92 273.89 219.31 C 265.94 218.75 257.97 218.85 250.01 218.71 C 251.13 218.30 252.26 217.89 253.39 217.49 C 254.46 211.35 258.91 206.68 261.88 201.41 C 264.29 202.38 266.98 204.08 269.59 202.69 C 270.67 200.78 271.17 198.61 271.82 196.53 C 272.66 196.37 273.50 196.20 274.33 196.01 C 274.90 198.09 275.45 200.17 276.02 202.25 C 276.33 201.69 276.95 200.55 277.25 199.98 C 277.58 201.22 278.03 202.50 279.58 201.86 C 283.01 193.11 286.17 184.23 289.27 175.35 C 288.47 175.31 286.88 175.21 286.09 175.17 C 285.35 177.08 284.60 178.98 283.87 180.89 C 283.27 181.09 282.07 181.49 281.48 181.69 C 280.85 183.48 280.37 185.30 279.84 187.12 C 277.63 183.15 276.61 178.65 275.90 174.21 C 276.46 171.09 277.76 168.10 279.36 165.38 C 281.69 162.36 284.71 159.94 287.27 157.13 Z" />
</g>
<g id="#be0000ff">
<path fill="#be0000" opacity="1.00" d=" M 309.03 158.95 L 310.21 159.55 C 311.45 162.17 310.98 165.20 311.09 168.02 C 310.89 185.25 311.45 202.51 310.82 219.73 C 298.51 219.37 286.19 219.92 273.89 219.31 C 275.78 218.92 277.91 218.84 279.48 217.60 C 280.93 215.54 281.44 212.97 282.88 210.92 C 284.28 209.05 287.13 207.56 285.79 204.84 C 291.39 201.60 292.75 194.87 295.57 189.59 C 298.39 186.51 300.14 182.74 300.48 178.55 C 301.43 178.16 302.37 177.76 303.32 177.37 C 303.74 173.92 306.65 172.04 308.80 169.70 C 309.80 166.21 309.11 162.52 309.03 158.95 Z" />
<path fill="#be0000" opacity="1.00" d=" M 298.72 285.77 C 302.21 282.26 305.61 278.64 309.48 275.53 C 309.67 297.17 309.56 318.81 309.71 340.45 C 308.01 355.73 303.25 370.68 296.11 384.29 C 284.92 405.76 266.28 422.94 244.53 433.39 C 243.38 430.58 242.31 427.73 241.25 424.89 C 240.45 425.56 239.65 426.24 238.85 426.92 C 238.88 425.59 238.92 424.25 239.05 422.93 C 239.22 422.49 239.55 421.61 239.71 421.17 C 238.84 418.01 237.36 415.04 236.34 411.92 L 235.16 412.94 C 235.80 410.14 236.36 407.32 237.14 404.55 C 237.97 406.86 238.76 409.19 239.57 411.51 C 240.08 408.65 240.57 405.79 240.93 402.91 C 241.09 404.44 241.28 405.96 241.51 407.49 C 243.66 401.20 242.89 394.46 244.10 388.01 C 244.48 385.78 244.86 383.55 245.18 381.32 C 247.78 377.21 251.96 373.99 252.74 368.91 C 258.62 365.27 259.06 357.37 263.17 352.21 C 264.92 351.49 266.80 351.16 268.64 350.73 C 268.60 350.35 268.52 349.60 268.48 349.23 C 271.54 350.58 274.60 349.17 276.28 346.47 C 276.67 346.04 277.43 345.17 277.81 344.73 C 277.60 341.71 277.21 338.52 278.66 335.73 C 283.63 325.05 288.01 314.11 292.18 303.11 C 293.35 300.42 292.37 297.49 292.69 294.70 C 293.79 291.22 296.23 288.35 298.72 285.77 Z" />
</g>
<g id="#5b0504ff">
<path fill="#5b0504" opacity="1.00" d=" M 155.25 169.02 C 155.27 166.17 155.03 163.27 155.65 160.46 C 156.10 163.30 156.54 166.15 156.51 169.03 C 156.44 185.90 156.35 202.77 156.36 219.63 C 165.04 219.60 173.74 220.41 182.40 219.60 C 198.77 219.65 215.19 221.28 231.52 219.85 C 237.12 220.19 242.73 220.25 248.33 220.64 C 217.31 220.80 186.29 220.67 155.26 220.73 C 155.26 203.49 155.26 186.26 155.25 169.02 Z" />
<path fill="#5b0504" opacity="1.00" d=" M 155.26 223.49 C 177.99 223.60 200.74 223.33 223.46 223.64 C 236.64 225.40 250.00 223.47 263.22 224.66 C 254.01 224.52 244.80 224.85 235.59 224.73 C 223.19 224.50 210.79 224.61 198.39 224.81 C 185.00 224.65 171.62 225.11 158.24 225.28 C 157.84 228.50 157.42 231.73 157.28 234.98 C 156.77 250.65 156.95 266.34 156.69 282.02 C 156.65 288.53 156.40 295.05 156.97 301.54 C 156.46 307.67 156.67 313.83 156.60 319.97 C 156.66 336.13 156.26 352.29 156.71 368.45 C 156.26 395.46 156.44 422.49 156.36 449.51 C 158.04 449.62 159.72 449.75 161.40 449.76 C 168.09 449.61 174.77 449.61 181.46 449.72 C 172.77 450.72 163.99 450.87 155.25 450.93 C 155.36 375.12 155.22 299.30 155.26 223.49 Z" />
</g>
<g id="#fff9f8ff">
<path fill="#fff9f8" opacity="1.00" d=" M 179.50 175.25 C 180.75 175.24 182.00 175.24 183.25 175.24 C 183.28 184.08 183.27 192.93 183.26 201.77 C 182.00 201.76 180.75 201.75 179.49 201.75 C 179.49 192.92 179.48 184.08 179.50 175.25 Z" />
<path fill="#fff9f8" opacity="1.00" d=" M 239.75 175.26 C 244.58 175.25 249.42 175.25 254.26 175.26 C 254.26 176.01 254.26 177.50 254.26 178.25 C 250.60 178.27 246.94 178.27 243.27 178.27 C 243.27 181.08 243.27 183.90 243.28 186.72 C 245.93 186.72 248.59 186.72 251.25 186.73 C 251.26 187.41 251.28 188.77 251.29 189.45 C 248.62 189.57 245.96 189.52 243.29 189.51 C 243.27 192.58 243.27 195.65 243.28 198.72 C 247.07 198.75 250.87 198.74 254.67 198.63 C 254.66 199.67 254.67 200.72 254.69 201.77 C 249.71 201.75 244.73 201.76 239.74 201.75 C 239.73 192.92 239.73 184.09 239.75 175.26 Z" />
</g>
<g id="#fffbfbff">
<path fill="#fffbfb" opacity="1.00" d=" M 195.64 175.75 C 199.86 173.85 204.42 175.20 208.74 175.87 C 208.73 177.09 208.72 178.30 208.70 179.52 C 204.76 178.25 200.07 176.55 196.32 179.24 C 190.04 183.29 190.05 193.63 196.30 197.71 C 200.04 200.35 204.83 199.15 208.69 197.49 C 209.16 198.31 209.63 199.14 210.10 199.96 C 206.85 201.63 203.23 202.23 199.62 202.50 C 195.97 201.74 192.34 200.10 190.19 196.92 C 185.01 190.21 187.66 178.96 195.64 175.75 Z" />
</g>
<g id="#fffafaff">
<path fill="#fffafa" opacity="1.00" d=" M 258.10 175.30 C 259.48 175.29 260.87 175.28 262.26 175.27 C 263.62 181.72 265.80 187.97 267.50 194.34 C 268.75 191.00 270.10 187.70 271.25 184.33 C 272.54 181.29 270.53 178.23 269.87 175.29 C 271.17 175.27 272.48 175.27 273.79 175.26 C 275.61 181.54 277.35 187.83 279.14 194.12 C 280.76 189.73 282.34 185.32 283.87 180.89 C 284.60 178.98 285.35 177.08 286.09 175.17 C 286.88 175.21 288.47 175.31 289.27 175.35 C 286.17 184.23 283.01 193.11 279.58 201.86 C 278.03 202.50 277.58 201.22 277.25 199.98 C 275.98 195.64 274.66 191.31 273.31 186.99 C 271.46 191.96 269.96 197.08 267.75 201.90 C 267.39 201.94 266.67 202.01 266.31 202.05 C 265.00 198.82 264.21 195.43 263.18 192.12 C 261.48 186.51 259.83 180.89 258.10 175.30 Z" />
<path fill="#fffafa" opacity="1.00" d=" M 223.11 177.13 C 224.05 176.61 224.98 176.05 225.90 175.47 C 229.17 184.21 232.38 192.98 235.61 201.74 C 234.62 201.75 232.63 201.75 231.63 201.75 C 230.75 199.41 229.88 197.06 229.25 194.65 C 226.05 194.47 222.86 194.50 219.66 194.50 C 218.70 196.89 217.74 199.29 216.83 201.70 C 215.95 201.72 214.20 201.74 213.32 201.76 C 216.47 193.50 220.08 185.43 223.11 177.13 M 224.38 182.63 C 223.09 185.72 221.89 188.85 220.69 191.98 C 223.15 192.01 225.62 192.00 228.09 191.95 C 226.86 188.84 225.90 185.61 224.38 182.63 Z" />
</g>
<g id="#a40000ff">
<path fill="#a40000" opacity="1.00" d=" M 252.21 189.32 C 254.04 186.73 256.00 184.22 258.41 182.14 C 259.53 186.17 260.73 190.18 262.01 194.17 C 262.30 193.66 262.89 192.63 263.18 192.12 C 264.21 195.43 265.00 198.82 266.31 202.05 C 266.67 202.01 267.39 201.94 267.75 201.90 C 269.96 197.08 271.46 191.96 273.31 186.99 C 274.66 191.31 275.98 195.64 277.25 199.98 C 276.95 200.55 276.33 201.69 276.02 202.25 C 275.45 200.17 274.90 198.09 274.33 196.01 C 273.50 196.20 272.66 196.37 271.82 196.53 C 271.17 198.61 270.67 200.78 269.59 202.69 C 266.98 204.08 264.29 202.38 261.88 201.41 C 258.91 206.68 254.46 211.35 253.39 217.49 C 252.26 217.89 251.13 218.30 250.01 218.71 C 257.97 218.85 265.94 218.75 273.89 219.31 C 286.19 219.92 298.51 219.37 310.82 219.73 L 311.42 220.60 C 290.39 220.79 269.36 220.76 248.33 220.64 C 242.73 220.25 237.12 220.19 231.52 219.85 C 230.73 219.66 229.14 219.27 228.34 219.08 C 230.48 214.94 233.70 211.43 235.17 206.95 C 239.59 200.55 248.29 204.45 254.66 202.79 L 254.69 201.77 C 254.67 200.72 254.66 199.67 254.67 198.63 C 250.87 198.74 247.07 198.75 243.28 198.72 C 243.27 195.65 243.27 192.58 243.29 189.51 C 245.96 189.52 248.62 189.57 251.29 189.45 C 251.52 189.42 251.98 189.35 252.21 189.32 Z" />
</g>
<g id="#910302ff">
<path fill="#910302" opacity="1.00" d=" M 224.38 182.63 C 225.90 185.61 226.86 188.84 228.09 191.95 C 225.62 192.00 223.15 192.01 220.69 191.98 C 221.89 188.85 223.09 185.72 224.38 182.63 Z" />
<path fill="#910302" opacity="1.00" d=" M 200.95 447.43 C 214.37 440.49 227.86 433.24 239.05 422.93 C 238.92 424.25 238.88 425.59 238.85 426.92 C 232.03 432.95 224.03 437.50 215.89 441.50 C 210.97 443.62 206.22 446.27 200.95 447.43 Z" />
</g>
<g id="#820000ff">
<path fill="#820000" opacity="1.00" d=" M 223.46 223.64 C 252.60 223.30 281.76 223.64 310.90 223.50 C 311.27 252.67 310.71 281.84 311.06 311.01 C 310.65 320.82 311.44 330.73 309.71 340.45 C 309.56 318.81 309.67 297.17 309.48 275.53 C 309.46 258.63 309.72 241.70 309.26 224.80 C 298.73 224.31 288.20 225.33 277.67 225.03 C 272.85 224.92 268.03 224.96 263.22 224.66 C 250.00 223.47 236.64 225.40 223.46 223.64 Z" />
<path fill="#820000" opacity="1.00" d=" M 198.39 224.81 C 210.79 224.61 223.19 224.50 235.59 224.73 C 234.69 227.13 234.07 229.63 232.93 231.94 C 231.43 234.00 229.17 235.28 227.05 236.61 C 230.13 236.65 233.29 236.46 236.31 237.24 C 236.52 237.89 236.96 239.21 237.17 239.87 C 233.13 237.97 227.93 237.60 224.10 240.16 C 221.38 241.91 217.82 243.13 216.64 246.44 C 215.43 249.56 215.67 254.62 219.61 255.54 C 219.79 254.09 220.02 252.64 220.30 251.21 C 221.76 248.67 225.15 249.54 227.48 249.96 C 225.69 250.72 223.89 251.44 222.08 252.16 C 221.56 253.71 221.02 255.25 220.50 256.81 C 218.45 256.76 216.38 256.60 214.33 256.85 C 211.38 260.98 208.19 265.11 207.05 270.18 C 202.59 277.10 197.81 283.89 194.44 291.45 C 190.94 296.81 186.16 302.86 188.33 309.69 C 186.01 309.07 183.55 308.78 181.42 307.61 C 178.83 304.06 180.15 299.06 177.62 295.49 C 176.97 294.16 175.42 294.14 174.19 293.80 C 174.35 297.26 175.06 300.66 175.75 304.05 C 172.19 304.89 172.86 309.35 174.52 311.66 C 175.59 312.20 176.74 312.55 177.86 312.96 C 179.93 322.05 182.02 331.13 184.11 340.20 C 183.45 339.98 182.12 339.53 181.45 339.30 C 181.01 336.48 180.64 333.65 180.32 330.82 C 175.68 332.22 175.62 337.78 173.21 341.22 C 168.27 348.34 164.56 356.30 158.95 362.94 C 157.86 364.61 157.32 366.57 156.71 368.45 C 156.26 352.29 156.66 336.13 156.60 319.97 C 156.67 313.83 156.46 307.67 156.97 301.54 C 158.35 298.10 157.40 293.90 159.91 290.95 C 162.70 287.02 165.61 283.12 167.61 278.71 C 171.12 270.85 177.44 264.63 180.71 256.64 C 183.00 250.97 186.90 246.22 190.04 241.03 C 193.36 235.92 195.97 230.39 198.39 224.81 Z" />
<path fill="#820000" opacity="1.00" d=" M 270.79 342.46 C 273.56 342.12 273.37 346.14 270.99 346.71 C 270.01 345.37 269.05 343.64 270.79 342.46 Z" />
</g>
<g id="#730000ff">
<path fill="#730000" opacity="1.00" d=" M 158.24 225.28 C 171.62 225.11 185.00 224.65 198.39 224.81 C 195.97 230.39 193.36 235.92 190.04 241.03 C 186.90 246.22 183.00 250.97 180.71 256.64 C 177.44 264.63 171.12 270.85 167.61 278.71 C 165.61 283.12 162.70 287.02 159.91 290.95 C 157.40 293.90 158.35 298.10 156.97 301.54 C 156.40 295.05 156.65 288.53 156.69 282.02 C 156.95 266.34 156.77 250.65 157.28 234.98 C 157.42 231.73 157.84 228.50 158.24 225.28 Z" />
</g>
<g id="#960000ff">
<path fill="#960000" opacity="1.00" d=" M 235.59 224.73 C 244.80 224.85 254.01 224.52 263.22 224.66 C 268.03 224.96 272.85 224.92 277.67 225.03 C 276.72 227.01 276.05 229.10 275.47 231.21 C 270.71 233.44 270.10 239.30 267.28 243.24 C 264.14 247.64 264.04 254.42 258.65 256.88 C 257.08 265.66 249.17 271.38 247.49 280.07 C 249.55 282.55 252.23 285.38 250.47 288.82 C 249.72 286.94 249.27 284.68 247.51 283.45 C 244.23 281.99 240.34 281.89 237.50 279.48 C 233.52 276.49 231.61 270.06 234.99 265.96 C 237.69 262.69 241.24 259.48 241.38 254.92 C 240.71 251.95 240.14 248.96 240.52 245.90 C 241.03 243.26 238.73 241.58 237.17 239.87 C 236.96 239.21 236.52 237.89 236.31 237.24 C 233.29 236.46 230.13 236.65 227.05 236.61 C 229.17 235.28 231.43 234.00 232.93 231.94 C 234.07 229.63 234.69 227.13 235.59 224.73 Z" />
</g>
<g id="#a80000ff">
<path fill="#a80000" opacity="1.00" d=" M 277.67 225.03 C 288.20 225.33 298.73 224.31 309.26 224.80 C 309.72 241.70 309.46 258.63 309.48 275.53 C 305.61 278.64 302.21 282.26 298.72 285.77 C 296.23 288.35 293.79 291.22 292.69 294.70 C 292.37 297.49 293.35 300.42 292.18 303.11 C 288.01 314.11 283.63 325.05 278.66 335.73 C 277.21 338.52 277.60 341.71 277.81 344.73 C 277.43 345.17 276.67 346.04 276.28 346.47 C 276.44 344.21 276.06 341.98 275.17 339.91 C 277.95 332.55 281.13 325.35 284.05 318.04 C 286.69 311.34 290.04 304.83 291.18 297.65 C 289.04 300.83 287.16 304.20 285.69 307.75 C 281.75 317.14 277.75 326.51 273.83 335.92 C 273.32 337.24 272.43 338.35 271.46 339.37 C 271.16 338.22 270.86 337.07 270.57 335.92 C 273.08 334.82 273.68 332.41 273.63 329.86 C 272.42 329.49 271.21 329.11 270.01 328.74 C 269.97 328.16 269.89 326.99 269.85 326.40 C 268.39 315.11 268.82 303.43 265.32 292.49 L 265.02 293.24 C 262.46 297.83 263.88 303.21 264.35 308.13 C 264.61 306.71 264.87 305.28 265.08 303.85 C 265.91 311.85 266.46 319.88 267.44 327.86 C 263.99 326.46 261.11 324.05 257.97 322.12 C 255.56 320.50 252.92 319.13 250.91 317.01 C 248.72 314.19 248.51 310.37 248.90 306.95 C 249.59 300.92 249.90 294.86 250.47 288.82 C 252.23 285.38 249.55 282.55 247.49 280.07 C 249.17 271.38 257.08 265.66 258.65 256.88 C 264.04 254.42 264.14 247.64 267.28 243.24 C 270.10 239.30 270.71 233.44 275.47 231.21 C 276.05 229.10 276.72 227.01 277.67 225.03 Z" />
</g>
<g id="#8c0000ff">
<path fill="#8c0000" opacity="1.00" d=" M 227.48 249.96 C 228.55 251.14 230.01 252.29 230.06 254.03 C 230.52 257.45 226.37 258.93 225.74 261.95 C 225.79 266.48 228.74 270.35 229.25 274.79 C 228.56 277.23 225.90 278.50 224.61 280.65 C 227.45 282.97 230.78 285.05 232.52 288.41 C 233.37 290.35 232.25 292.53 230.33 293.25 C 225.11 295.71 217.02 293.97 215.20 287.89 C 214.13 285.14 215.97 282.66 217.25 280.39 C 213.46 281.24 211.01 284.65 209.98 288.19 C 207.95 295.32 206.45 302.91 202.07 309.04 C 198.65 313.55 192.79 310.35 188.33 309.69 C 186.16 302.86 190.94 296.81 194.44 291.45 C 197.81 283.89 202.59 277.10 207.05 270.18 C 208.19 265.11 211.38 260.98 214.33 256.85 C 216.38 256.60 218.45 256.76 220.50 256.81 C 221.02 255.25 221.56 253.71 222.08 252.16 C 223.89 251.44 225.69 250.72 227.48 249.96 Z" />
</g>
<g id="#ffefefff">
<path fill="#ffefef" opacity="1.00" d=" M 265.32 292.49 C 268.82 303.43 268.39 315.11 269.85 326.40 L 267.44 327.86 C 266.46 319.88 265.91 311.85 265.08 303.85 C 264.89 300.32 264.92 296.77 265.02 293.24 L 265.32 292.49 Z" />
</g>
<g id="#871919ff">
<path fill="#871919" opacity="1.00" d=" M 264.35 308.13 C 263.88 303.21 262.46 297.83 265.02 293.24 C 264.92 296.77 264.89 300.32 265.08 303.85 C 264.87 305.28 264.61 306.71 264.35 308.13 Z" />
</g>
<g id="#930101ff">
<path fill="#930101" opacity="1.00" d=" M 202.03 319.53 C 206.63 316.65 207.06 309.81 212.04 307.50 C 216.30 308.61 215.81 313.58 215.21 316.96 C 216.96 318.52 219.58 316.22 221.38 315.42 C 223.78 313.94 227.97 310.43 229.49 314.77 C 222.22 318.81 215.03 323.96 211.57 331.81 C 213.92 337.92 215.87 344.17 218.20 350.29 C 219.22 349.18 220.26 348.08 221.30 346.98 C 224.09 351.23 225.44 356.18 226.93 360.99 C 226.50 361.29 225.64 361.88 225.21 362.18 C 224.12 358.73 222.90 355.31 221.62 351.93 C 220.93 352.70 220.25 353.47 219.56 354.26 C 221.00 358.62 222.62 362.93 224.05 367.30 C 225.13 366.14 226.22 365.00 227.31 363.86 C 229.83 368.20 231.37 372.99 232.81 377.77 C 232.41 378.14 231.61 378.87 231.20 379.23 C 230.05 375.75 228.84 372.30 227.64 368.84 C 226.92 369.62 226.20 370.41 225.49 371.21 C 229.32 382.34 233.29 393.42 237.14 404.55 C 236.36 407.32 235.80 410.14 235.16 412.94 C 234.68 414.10 233.79 415.02 233.03 416.00 C 223.07 427.62 210.28 436.38 196.96 443.73 C 210.75 434.26 224.25 423.77 234.00 410.00 C 234.77 409.15 234.92 408.20 234.47 407.16 C 233.38 403.97 232.07 400.86 230.86 397.72 C 223.38 412.34 212.74 425.22 200.68 436.27 C 209.72 425.90 218.13 414.92 225.06 403.02 C 226.62 400.10 228.54 397.25 229.42 394.04 C 222.86 376.19 215.85 358.50 209.19 340.68 C 208.69 339.28 207.98 337.97 207.31 336.66 C 206.07 338.64 204.88 340.67 203.72 342.71 C 206.46 350.00 209.59 357.17 211.89 364.61 C 208.02 361.70 207.58 356.57 205.57 352.49 C 203.97 349.21 203.12 345.68 202.51 342.11 C 202.40 340.59 201.09 339.71 200.17 338.67 C 196.47 342.45 189.83 345.75 191.16 352.04 C 192.45 357.47 194.14 363.00 192.29 368.56 C 189.26 350.38 185.73 332.28 181.90 314.24 C 188.32 316.74 194.92 320.48 202.03 319.53 M 203.57 325.74 C 202.34 327.89 201.02 329.99 199.70 332.08 C 200.61 334.51 201.55 336.94 202.51 339.35 C 203.92 337.41 205.17 335.35 206.33 333.24 C 205.33 330.77 204.40 328.27 203.57 325.74 Z" />
</g>
<g id="#a60101ff">
<path fill="#a60101" opacity="1.00" d=" M 239.49 313.65 C 240.12 313.60 241.38 313.49 242.00 313.43 C 242.98 316.24 242.04 320.20 245.03 321.90 C 251.42 326.07 257.91 330.13 264.78 333.46 C 264.38 333.69 263.58 334.15 263.19 334.38 C 260.06 333.37 257.24 331.61 254.25 330.28 C 251.34 333.32 247.88 335.91 245.52 339.43 C 244.88 342.58 245.27 345.82 245.26 349.00 C 245.57 359.78 244.91 370.55 245.18 381.32 C 244.86 383.55 244.48 385.78 244.10 388.01 C 242.89 394.46 243.66 401.20 241.51 407.49 C 241.28 405.96 241.09 404.44 240.93 402.91 C 242.68 388.00 244.18 373.02 243.97 357.99 C 244.15 346.17 242.55 334.33 239.19 323.00 C 238.17 319.94 238.16 316.61 239.49 313.65 Z" />
</g>
<g id="#fffcfbff">
<path fill="#fffcfb" opacity="1.00" d=" M 203.57 325.74 C 204.40 328.27 205.33 330.77 206.33 333.24 C 205.17 335.35 203.92 337.41 202.51 339.35 C 201.55 336.94 200.61 334.51 199.70 332.08 C 201.02 329.99 202.34 327.89 203.57 325.74 Z" />
</g>
<g id="#b00000ff">
<path fill="#b00000" opacity="1.00" d=" M 254.25 330.28 C 257.24 331.61 260.06 333.37 263.19 334.38 C 263.58 334.15 264.38 333.69 264.78 333.46 C 265.82 333.97 266.90 334.45 267.87 335.11 C 268.23 336.48 268.33 337.90 268.49 339.31 C 265.77 342.07 265.48 346.52 268.48 349.23 C 268.52 349.60 268.60 350.35 268.64 350.73 C 266.80 351.16 264.92 351.49 263.17 352.21 C 259.06 357.37 258.62 365.27 252.74 368.91 C 251.96 373.99 247.78 377.21 245.18 381.32 C 244.91 370.55 245.57 359.78 245.26 349.00 C 245.27 345.82 244.88 342.58 245.52 339.43 C 247.88 335.91 251.34 333.32 254.25 330.28 Z" />
</g>
<g id="#990000ff">
<path fill="#990000" opacity="1.00" d=" M 173.21 341.22 C 175.62 337.78 175.68 332.22 180.32 330.82 C 180.64 333.65 181.01 336.48 181.45 339.30 C 182.12 339.53 183.45 339.98 184.11 340.20 C 187.30 353.87 190.29 367.58 193.61 381.22 C 194.11 376.94 192.80 372.77 192.29 368.56 C 194.14 363.00 192.45 357.47 191.16 352.04 C 189.83 345.75 196.47 342.45 200.17 338.67 C 201.09 339.71 202.40 340.59 202.51 342.11 C 203.12 345.68 203.97 349.21 205.57 352.49 C 207.58 356.57 208.02 361.70 211.89 364.61 C 214.20 369.04 215.56 373.98 217.48 378.61 C 219.69 384.04 220.00 390.25 217.60 395.69 C 216.55 389.74 218.08 383.36 215.34 377.76 C 213.38 373.53 211.39 369.31 210.15 364.80 C 208.57 367.05 208.66 369.85 208.18 372.45 C 203.06 374.91 200.00 379.89 197.93 384.99 C 196.56 388.97 193.51 392.06 191.98 395.98 C 189.94 401.00 186.05 404.98 184.00 409.99 C 181.84 415.25 177.72 419.40 175.64 424.71 C 173.70 429.51 169.69 433.09 167.89 437.96 C 166.33 442.22 163.09 445.56 161.40 449.76 C 159.72 449.75 158.04 449.62 156.36 449.51 C 156.44 422.49 156.26 395.46 156.71 368.45 C 157.32 366.57 157.86 364.61 158.95 362.94 C 164.56 356.30 168.27 348.34 173.21 341.22 Z" />
</g>
<g id="#a60000ff">
<path fill="#a60000" opacity="1.00" d=" M 208.18 372.45 C 208.66 369.85 208.57 367.05 210.15 364.80 C 211.39 369.31 213.38 373.53 215.34 377.76 C 218.08 383.36 216.55 389.74 217.60 395.69 C 215.01 404.72 210.05 412.96 204.47 420.48 C 198.71 428.66 194.44 438.22 193.94 448.33 C 189.79 448.92 185.65 449.62 181.46 449.72 C 174.77 449.61 168.09 449.61 161.40 449.76 C 163.09 445.56 166.33 442.22 167.89 437.96 C 169.69 433.09 173.70 429.51 175.64 424.71 C 177.72 419.40 181.84 415.25 184.00 409.99 C 186.05 404.98 189.94 401.00 191.98 395.98 C 193.51 392.06 196.56 388.97 197.93 384.99 C 200.00 379.89 203.06 374.91 208.18 372.45 Z" />
</g>
<g id="#666666ff">
<path fill="#666666" opacity="1.00" d=" M 476.83 410.81 C 481.84 409.27 487.26 410.15 492.06 412.00 C 491.66 413.08 491.26 414.17 490.88 415.26 C 486.63 413.97 481.82 412.42 477.58 414.58 C 469.91 418.43 468.51 430.32 475.06 435.86 C 478.75 439.27 484.22 438.87 488.73 437.70 C 488.74 434.47 488.74 431.24 488.74 428.01 C 490.15 428.00 491.57 428.00 492.99 428.00 C 493.01 431.95 493.01 435.89 492.97 439.85 C 487.42 442.13 480.86 443.08 475.20 440.71 C 468.88 437.93 465.32 430.59 466.35 423.86 C 466.97 418.00 471.14 412.56 476.83 410.81 Z" />
<path fill="#666666" opacity="1.00" d=" M 827.30 411.34 C 831.49 409.01 836.46 410.23 840.77 411.55 C 840.42 412.36 839.71 413.98 839.36 414.78 C 836.19 413.80 832.54 412.62 829.36 414.16 C 827.05 415.33 827.01 418.54 828.81 420.19 C 832.48 423.64 837.90 424.94 840.91 429.13 C 843.33 432.54 842.15 437.60 838.74 439.88 C 833.92 443.35 827.43 442.16 822.30 440.03 C 822.83 438.96 823.37 437.90 823.93 436.85 C 827.55 438.18 832.01 439.97 835.59 437.58 C 837.68 436.32 838.44 433.29 836.74 431.39 C 833.52 427.70 828.32 426.54 825.05 422.90 C 822.01 419.49 823.16 413.33 827.30 411.34 Z" />
<path fill="#666666" opacity="1.00" d=" M 360.24 410.76 C 361.66 410.75 363.08 410.74 364.50 410.74 C 364.50 420.98 364.51 431.21 364.50 441.45 C 363.47 441.50 361.40 441.59 360.36 441.64 C 360.10 431.35 360.33 421.05 360.24 410.76 Z" />
<path fill="#666666" opacity="1.00" d=" M 369.75 410.70 C 371.05 410.75 372.36 410.80 373.67 410.87 C 379.55 418.77 385.75 426.42 391.75 434.23 C 391.73 426.40 391.75 418.57 391.74 410.75 C 392.68 410.75 394.56 410.75 395.50 410.75 C 395.51 421.00 395.50 431.25 395.50 441.50 C 394.64 441.50 392.91 441.50 392.05 441.51 C 385.94 433.88 380.09 426.05 373.82 418.57 C 373.69 426.19 373.75 433.82 373.79 441.45 C 372.43 441.47 371.09 441.49 369.75 441.52 C 369.75 431.24 369.74 420.97 369.75 410.70 Z" />
<path fill="#666666" opacity="1.00" d=" M 414.75 410.75 C 420.41 410.74 426.07 410.75 431.74 410.75 C 431.74 411.56 431.75 413.18 431.76 414.00 C 427.50 414.00 423.25 414.00 419.00 414.00 C 418.99 417.33 418.99 420.66 419.00 424.00 C 422.08 424.00 425.17 424.00 428.25 424.00 C 428.25 424.81 428.26 426.44 428.26 427.25 C 425.17 427.26 422.09 427.25 419.01 427.25 C 418.99 430.91 418.99 434.58 419.01 438.25 C 423.42 438.25 427.84 438.24 432.27 438.26 C 432.25 439.33 432.24 440.41 432.23 441.50 C 426.38 441.47 420.53 441.60 414.69 441.41 C 414.82 431.19 414.70 420.97 414.75 410.75 Z" />
<path fill="#666666" opacity="1.00" d=" M 436.75 410.76 C 437.62 410.75 439.36 410.73 440.23 410.72 C 446.37 418.52 452.44 426.39 458.55 434.22 C 458.47 426.38 458.45 418.54 458.55 410.70 C 459.54 410.72 461.51 410.75 462.50 410.77 C 462.51 421.01 462.50 431.25 462.50 441.49 C 461.60 441.50 459.79 441.50 458.89 441.50 C 452.69 433.98 447.09 425.94 440.57 418.70 C 440.42 426.30 440.55 433.91 440.50 441.51 C 439.56 441.50 437.68 441.50 436.75 441.49 C 436.75 431.25 436.74 421.01 436.75 410.76 Z" />
<path fill="#666666" opacity="1.00" d=" M 498.50 410.74 C 499.91 410.74 501.33 410.75 502.76 410.76 C 502.75 419.92 502.75 429.08 502.76 438.25 C 506.59 438.25 510.42 438.24 514.26 438.25 C 514.26 439.06 514.25 440.69 514.25 441.50 C 509.00 441.50 503.75 441.51 498.50 441.50 C 498.49 431.25 498.49 421.00 498.50 410.74 Z" />
<path fill="#666666" opacity="1.00" d=" M 528.66 412.66 C 529.02 411.27 529.91 410.40 531.31 410.03 C 535.38 420.49 539.20 431.06 543.01 441.62 C 541.43 441.06 538.25 442.55 537.90 440.04 C 537.01 437.81 536.27 435.52 535.45 433.27 C 531.73 433.25 528.00 433.24 524.29 433.27 C 523.21 436.02 522.15 438.77 521.05 441.51 C 520.06 441.50 518.08 441.48 517.08 441.47 C 520.84 431.83 524.88 422.29 528.66 412.66 M 525.62 430.00 C 528.49 430.00 531.36 430.00 534.23 430.00 C 532.86 426.30 531.50 422.59 530.12 418.90 C 528.45 422.53 527.10 426.29 525.62 430.00 Z" />
<path fill="#666666" opacity="1.00" d=" M 546.22 410.81 C 547.45 410.78 548.70 410.76 549.95 410.75 C 556.00 418.57 562.06 426.38 568.21 434.13 C 568.29 426.34 568.24 418.56 568.24 410.77 C 569.48 410.75 570.74 410.74 572.00 410.74 C 572.00 420.98 572.00 431.23 572.00 441.47 C 571.18 441.50 569.53 441.55 568.70 441.58 C 562.39 434.02 556.62 426.01 550.25 418.51 C 550.26 426.16 550.26 433.81 550.25 441.46 C 549.28 441.50 547.32 441.57 546.34 441.61 C 546.11 431.34 546.34 421.08 546.22 410.81 Z" />
<path fill="#666666" opacity="1.00" d=" M 576.75 410.76 C 583.09 411.02 590.11 409.58 595.79 413.20 C 604.14 418.81 603.75 432.88 595.49 438.43 C 590.13 442.56 583.03 441.36 576.74 441.49 C 576.75 431.24 576.73 421.00 576.75 410.76 M 581.00 414.00 C 581.00 422.09 580.99 430.19 581.01 438.28 C 584.56 438.17 588.46 438.55 591.59 436.53 C 598.49 432.39 599.22 421.07 592.90 416.12 C 589.51 413.46 585.01 414.01 581.00 414.00 Z" />
<path fill="#666666" opacity="1.00" d=" M 618.07 441.46 C 622.33 431.14 626.27 420.69 630.75 410.48 C 632.79 409.54 633.03 411.95 633.63 413.16 C 637.05 422.63 640.64 432.04 644.06 441.51 C 642.92 441.51 640.65 441.52 639.52 441.52 C 638.47 438.78 637.46 436.03 636.46 433.28 C 632.75 433.24 629.05 433.25 625.35 433.25 C 624.25 436.00 623.15 438.76 622.04 441.51 C 621.05 441.50 619.06 441.47 618.07 441.46 M 626.69 429.99 C 629.53 430.00 632.38 430.00 635.24 430.00 C 633.89 426.31 632.55 422.62 631.19 418.95 C 629.45 422.53 628.11 426.28 626.69 429.99 Z" />
<path fill="#666666" opacity="1.00" d=" M 647.50 410.72 C 648.39 410.74 650.15 410.77 651.03 410.78 C 657.07 418.57 663.08 426.38 669.22 434.09 C 669.27 426.32 669.24 418.54 669.24 410.77 C 670.48 410.75 671.74 410.74 673.00 410.74 C 673.00 420.98 673.00 431.22 673.00 441.47 C 672.18 441.50 670.56 441.57 669.75 441.60 C 663.41 434.02 657.60 426.01 651.27 418.43 C 651.23 426.12 651.26 433.81 651.25 441.50 C 650.31 441.50 648.44 441.50 647.50 441.49 C 647.50 431.24 647.49 420.98 647.50 410.72 Z" />
<path fill="#666666" opacity="1.00" d=" M 677.76 410.75 C 684.54 411.00 692.32 409.42 698.04 414.06 C 705.37 420.42 704.32 433.72 696.03 438.82 C 690.66 442.54 683.86 441.32 677.74 441.49 C 677.75 431.24 677.73 421.00 677.76 410.75 M 682.00 414.00 C 682.00 422.09 681.99 430.19 682.01 438.28 C 685.55 438.18 689.42 438.52 692.58 436.58 C 699.53 432.45 700.32 421.07 693.92 416.11 C 690.52 413.47 686.01 414.00 682.00 414.00 Z" />
<path fill="#666666" opacity="1.00" d=" M 718.20 410.72 C 719.73 410.75 721.27 410.78 722.83 410.83 C 724.83 418.26 726.92 425.68 729.17 433.05 C 730.86 428.31 732.60 423.60 734.35 418.89 C 733.54 416.18 732.72 413.48 731.90 410.78 C 733.37 410.74 734.86 410.70 736.35 410.66 C 738.65 417.92 740.53 425.32 742.63 432.64 C 745.52 425.41 747.87 417.98 750.66 410.71 C 751.64 410.73 753.60 410.75 754.58 410.77 C 750.87 421.07 747.03 431.32 743.34 441.62 C 742.84 441.68 741.82 441.78 741.32 441.84 C 739.34 436.17 738.16 430.22 735.79 424.70 C 733.64 430.36 731.64 436.08 729.53 441.76 C 729.02 441.75 727.99 441.72 727.48 441.71 C 724.40 431.37 721.26 421.06 718.20 410.72 Z" />
<path fill="#666666" opacity="1.00" d=" M 750.12 441.49 C 754.31 431.12 758.35 420.69 762.79 410.43 C 763.26 410.49 764.20 410.60 764.67 410.65 C 768.54 420.93 772.36 431.23 776.05 441.57 C 774.47 441.50 772.91 441.44 771.35 441.39 C 770.47 438.66 769.50 435.96 768.53 433.27 C 764.80 433.24 761.08 433.24 757.37 433.28 C 756.29 436.02 755.19 438.76 754.11 441.50 C 753.12 441.50 751.12 441.49 750.12 441.49 M 763.15 418.90 C 761.58 422.56 760.12 426.27 758.68 429.99 C 761.54 430.00 764.42 430.00 767.29 430.00 C 765.93 426.29 764.60 422.57 763.15 418.90 Z" />
<path fill="#666666" opacity="1.00" d=" M 780.50 410.73 C 781.92 410.75 783.34 410.77 784.78 410.80 C 784.72 419.95 784.76 429.10 784.76 438.24 C 788.58 438.25 792.41 438.25 796.24 438.25 C 796.24 439.06 796.25 440.68 796.26 441.50 C 791.00 441.51 785.75 441.50 780.50 441.50 C 780.49 431.24 780.49 420.98 780.50 410.73 Z" />
<path fill="#666666" opacity="1.00" d=" M 800.75 410.75 C 806.41 410.74 812.07 410.75 817.73 410.74 C 817.74 411.56 817.75 413.19 817.75 414.00 C 813.50 414.00 809.25 414.00 805.00 414.00 C 804.99 417.33 804.99 420.66 805.00 424.00 C 808.08 424.00 811.16 424.00 814.26 424.00 C 814.25 424.82 814.25 426.44 814.25 427.25 C 811.17 427.26 808.09 427.25 805.02 427.25 C 804.99 430.91 804.99 434.58 805.01 438.25 C 809.42 438.25 813.84 438.24 818.26 438.26 C 818.24 439.33 818.23 440.41 818.23 441.49 C 812.39 441.49 806.56 441.55 800.73 441.47 C 800.77 431.23 800.72 420.99 800.75 410.75 Z" />
</g>
<g id="#e2dbd9ff">
<path fill="#e2dbd9" opacity="1.00" d=" M 198.18 437.99 C 199.38 438.63 199.28 439.31 197.87 440.03 C 196.66 439.38 196.76 438.70 198.18 437.99 Z" />
</g>
</svg>
