<?xml version="1.0" encoding="UTF-8" ?>
<!DOCTYPE svg PUBLIC "-//W3C//DTD SVG 1.1//EN" "http://www.w3.org/Graphics/SVG/1.1/DTD/svg11.dtd">
<svg width="1177pt" height="654pt" viewBox="0 0 1177 654" preserveAspectRatio="xMidYMid meet" version="1.1" xmlns="http://www.w3.org/2000/svg" xmlns:xlink="http://www.w3.org/1999/xlink">
  <style type="text/css">
    .blur {
      filter: url(#svgFilter);
    }
  </style>
  <filter id="svgFilter" x="-50%" y="-50%" width="200%" height="200%">
    <feGaussianBlur id="svgFilterBlur" in="SourceGraphic" result="Blur" stdDeviation="7"/>
  </filter>
  <animate
    xlink:href="#svgFilterBlur"
    attributeName="stdDeviation"
    values="7;0;7"
    dur="3s"
    fill="freeze"
    repeatCount="indefinite"
    />
    <g>
  <path fill="#b3358c" stroke="#b3358c" stroke-width="0.09375" opacity="1.00" d=" M 293.3 87.5 C 302.1 84.3 312.3 82.9 320.9 87.2 C 333.0 92.9 342.7 102.6 351.8 112.3 C 370.0 132.6 385.4 155.4 398.4 179.3 C 402.4 186.8 406.2 194.4 409.3 202.3 C 400.8 189.6 386.4 182.5 372.0 178.9 C 365.3 177.1 358.4 175.9 351.5 174.9 C 342.6 172.9 333.5 171.9 324.5 170.7 C 297.7 167.6 270.6 166.4 243.6 167.9 C 248.0 149.2 254.0 130.5 264.2 114.0 C 271.2 102.8 280.8 92.4 293.3 87.5 Z" />
  <path fill="#a42325" stroke="#a42325" stroke-width="0.09375" opacity="1.00" d=" M 243.6 167.9 C 270.6 166.4 297.7 167.6 324.5 170.7 C 333.5 171.9 342.6 172.9 351.5 174.9 C 329.0 173.0 306.2 172.8 284.0 177.3 C 270.9 180.0 257.7 184.6 247.6 193.7 C 243.0 197.7 239.8 203.1 237.0 208.5 C 237.9 194.9 240.9 181.6 243.3 168.1 L 243.3 167.9 L 243.6 167.9 Z" />
  <path fill="#eb5e0b" stroke="#eb5e0b" stroke-width="0.09375" opacity="1.00" d=" M 205.5 175.3 C 217.6 171.0 230.5 169.2 243.3 168.1 C 240.9 181.6 237.9 194.9 237.0 208.5 C 235.4 219.8 234.6 231.3 235.4 242.6 C 235.1 263.7 235.4 284.8 236.9 305.9 C 224.2 293.1 212.5 279.5 202.4 264.6 C 193.9 251.9 186.4 238.3 182.7 223.5 C 179.9 212.4 179.6 199.8 185.8 189.7 C 190.0 182.4 197.8 178.2 205.5 175.3 Z" />
  <path fill="#172a67" stroke="#172a67" stroke-width="0.09375" opacity="1.00" d=" M 284.0 177.3 C 306.2 172.8 329.0 173.0 351.5 174.9 C 358.4 175.9 365.3 177.1 372.0 178.9 C 386.4 182.5 400.8 189.6 409.3 202.3 C 411.3 206.1 412.8 210.1 414.1 214.2 C 414.5 217.4 414.8 220.7 414.9 224.0 C 415.0 252.7 408.0 281.7 393.5 306.7 C 393.5 302.7 393.5 298.8 393.5 294.9 C 382.4 294.9 371.4 294.9 360.3 294.9 C 360.3 288.0 360.3 281.1 360.3 274.2 C 373.3 274.2 386.3 274.2 399.2 274.2 C 399.2 269.4 399.2 264.5 399.2 259.6 C 380.8 259.6 362.3 259.6 343.9 259.6 C 343.9 287.6 343.9 315.6 343.9 343.7 C 349.4 343.7 354.8 343.7 360.3 343.7 C 360.3 332.3 360.3 320.9 360.3 309.6 C 370.8 309.6 381.3 309.6 391.8 309.6 C 377.9 332.6 358.4 352.3 335.3 366.3 C 332.0 368.3 328.5 370.0 324.9 371.6 C 314.6 367.5 305.7 360.7 296.7 354.4 C 290.8 348.9 284.6 343.8 279.2 337.9 C 259.5 317.1 245.4 291.1 239.0 263.1 C 237.5 256.4 236.4 249.5 235.4 242.6 C 234.6 231.3 235.4 219.8 237.0 208.5 C 239.8 203.1 243.0 197.7 247.6 193.7 C 257.7 184.6 270.9 180.0 284.0 177.3 M 299.6 259.6 C 299.6 287.6 299.6 315.6 299.6 343.6 C 305.1 343.7 310.6 343.7 316.0 343.7 C 316.1 315.7 316.0 287.6 316.1 259.6 C 310.6 259.6 305.1 259.6 299.6 259.6 Z" />
  <path fill="#5bc5ed" stroke="#5bc5ed" stroke-width="0.09375" opacity="1.00" d=" M 398.4 179.3 C 428.1 182.7 457.6 187.2 486.6 194.3 C 503.9 198.7 521.3 203.7 537.2 212.0 C 545.9 216.8 554.8 222.5 559.5 231.6 C 563.5 239.3 561.4 248.3 559.2 256.2 C 554.4 271.3 544.4 284.3 533.3 295.4 C 516.4 312.1 496.3 325.3 475.3 336.4 C 466.0 310.8 456.7 285.2 447.2 259.5 C 443.0 259.6 438.7 259.6 434.4 259.5 C 428.1 244.2 421.3 229.1 414.1 214.2 C 412.8 210.1 411.3 206.1 409.3 202.3 C 406.2 194.4 402.4 186.8 398.4 179.3 Z" />
  <path fill="#8f9343" stroke="#8f9343" stroke-width="0.09375" opacity="1.00" d=" M 414.1 214.2 C 421.3 229.1 428.1 244.2 434.4 259.5 C 424.1 287.6 414.0 315.6 403.8 343.7 C 409.5 343.7 415.2 343.7 420.9 343.7 C 422.7 338.7 424.4 333.8 426.0 328.8 C 436.0 328.8 445.9 328.8 455.8 328.8 C 457.5 333.8 459.1 338.8 460.8 343.7 C 443.3 352.0 425.0 358.8 406.4 364.4 C 391.1 369.1 375.5 373.1 359.7 375.6 C 353.3 376.6 346.7 377.6 340.2 376.4 C 336.6 375.6 333.0 374.7 329.3 373.8 C 327.7 373.3 326.2 372.4 324.7 371.7 L 324.9 371.6 C 328.5 370.0 332.0 368.3 335.3 366.3 C 358.4 352.3 377.9 332.6 391.8 309.6 C 392.2 309.6 393.1 309.6 393.5 309.6 C 393.5 308.8 393.5 307.4 393.5 306.7 C 408.0 281.7 415.0 252.7 414.9 224.0 C 414.8 220.7 414.5 217.4 414.1 214.2 Z" />
  <path fill="#a42325" stroke="#a42325" stroke-width="0.09375" opacity="1.00" d=" M 235.4 242.6 C 236.4 249.5 237.5 256.4 239.0 263.1 C 245.4 291.1 259.5 317.1 279.2 337.9 C 284.6 343.8 290.8 348.9 296.7 354.4 C 290.2 351.0 284.6 346.5 278.7 342.2 C 263.9 331.3 250.1 319.0 236.9 306.2 L 236.9 305.9 C 235.4 284.8 235.1 263.7 235.4 242.6 Z" />
  <path fill="#ffffff" stroke="#ffffff" stroke-width="0.09375" opacity="1.00" d=" M 299.6 259.6 C 305.1 259.6 310.6 259.6 316.1 259.6 C 316.0 287.6 316.1 315.7 316.0 343.7 C 310.6 343.7 305.1 343.7 299.6 343.6 C 299.6 315.6 299.6 287.6 299.6 259.6 Z" />
  <path fill="#ffffff" stroke="#ffffff" stroke-width="0.09375" opacity="1.00" d=" M 343.9 259.6 C 362.3 259.6 380.8 259.6 399.2 259.6 C 399.2 264.5 399.2 269.4 399.2 274.2 C 386.3 274.2 373.3 274.2 360.3 274.2 C 360.3 281.1 360.3 288.0 360.3 294.9 C 371.4 294.9 382.4 294.9 393.5 294.9 C 393.5 298.8 393.5 302.7 393.5 306.7 C 393.5 307.4 393.5 308.8 393.5 309.6 C 393.1 309.6 392.2 309.6 391.8 309.6 C 381.3 309.6 370.8 309.6 360.3 309.6 C 360.3 320.9 360.3 332.3 360.3 343.7 C 354.8 343.7 349.4 343.7 343.9 343.7 C 343.9 315.6 343.9 287.6 343.9 259.6 Z" />
  <path fill="#ffffff" stroke="#ffffff" stroke-width="0.09375" opacity="1.00" d=" M 434.4 259.5 C 438.7 259.6 443.0 259.6 447.2 259.5 C 456.7 285.2 466.0 310.8 475.3 336.4 C 476.2 338.8 477.1 341.3 478.0 343.7 C 472.3 343.7 466.5 343.6 460.8 343.7 C 459.1 338.8 457.5 333.8 455.8 328.8 C 445.9 328.8 436.0 328.8 426.0 328.8 C 424.4 333.8 422.7 338.7 420.9 343.7 C 415.2 343.7 409.5 343.7 403.8 343.7 C 414.0 315.6 424.1 287.6 434.4 259.5 M 430.7 314.9 C 437.6 314.9 444.5 314.9 451.4 314.9 C 448.0 304.9 444.7 294.8 441.2 284.7 C 437.6 294.7 434.2 304.9 430.7 314.9 Z" />
  <path fill="#8f9343" stroke="#8f9343" stroke-width="0.09375" opacity="1.00" d=" M 430.7 314.9 C 434.2 304.9 437.6 294.7 441.2 284.7 C 444.7 294.8 448.0 304.9 451.4 314.9 C 444.5 314.9 437.6 314.9 430.7 314.9 Z" />
  <path fill="#b3358c" stroke="#b3358c" stroke-width="0.09375" opacity="1.00" d=" M 236.9 306.2 C 250.1 319.0 263.9 331.3 278.7 342.2 C 284.6 346.5 290.2 351.0 296.7 354.4 C 305.7 360.7 314.6 367.5 324.9 371.6 L 324.7 371.7 C 310.8 377.6 296.2 382.1 281.0 382.7 C 275.0 382.8 268.4 383.1 263.0 379.9 C 254.8 375.3 250.2 366.5 246.8 358.1 C 240.6 341.5 238.4 323.8 236.9 306.2 Z" />
  <path fill="#ee7202" stroke="#ee7202" stroke-width="0.09375" opacity="1.00" d=" M 406.4 364.4 C 425.0 358.8 443.3 352.0 460.8 343.7 C 462.5 353.5 462.6 363.8 459.3 373.3 C 457.0 379.9 452.6 386.2 446.1 389.2 C 431.2 396.3 414.3 397.7 398.1 396.0 C 374.0 393.4 350.7 385.1 329.3 373.8 C 333.0 374.7 336.6 375.6 340.2 376.4 C 346.7 377.6 353.3 376.6 359.7 375.6 C 375.5 373.1 391.1 369.1 406.4 364.4 Z" />
  <path fill="#172a67" stroke="#172a67" stroke-width="0.09375" opacity="1.00" d=" M 509.5 355.2 C 510.3 356.3 510.6 357.6 510.5 359.0 C 510.5 409.3 510.5 459.7 510.5 510.1 C 510.6 511.3 510.3 512.4 509.5 513.3 C 508.9 498.3 509.4 483.1 509.3 468.0 C 509.3 434.7 509.3 401.3 509.3 368.0 C 509.3 363.7 509.1 359.5 509.5 355.2 Z" />
  <path fill="#172a67" stroke="#172a67" stroke-width="0.09375" opacity="1.00" d=" M 542.7 355.8 C 543.5 355.8 545.2 355.8 546.0 355.8 C 546.0 369.8 546.0 383.8 546.0 397.8 C 545.2 397.8 543.5 397.8 542.7 397.8 C 542.7 383.8 542.7 369.8 542.7 355.8 Z" />
  <path fill="#172a67" stroke="#172a67" stroke-width="0.09375" opacity="1.00" d=" M 562.8 355.8 C 563.6 355.8 565.2 355.8 566.0 355.8 C 574.0 367.9 582.0 379.9 590.1 391.9 C 590.1 379.9 590.1 367.9 590.1 355.8 C 590.9 355.8 592.5 355.8 593.3 355.8 C 593.3 369.8 593.3 383.8 593.3 397.8 C 592.5 397.8 590.9 397.8 590.1 397.8 C 582.1 385.7 574.1 373.6 566.0 361.6 C 566.0 373.7 566.0 385.8 566.0 397.9 C 565.2 397.8 563.6 397.8 562.8 397.8 C 562.7 383.8 562.7 369.8 562.8 355.8 Z" />
  <path fill="#172a67" stroke="#172a67" stroke-width="0.09375" opacity="1.00" d=" M 613.0 357.2 C 619.3 354.0 627.4 355.3 632.8 359.9 C 632.2 360.4 631.2 361.5 630.7 362.1 C 626.5 358.5 620.4 357.0 615.2 359.3 C 610.5 361.3 609.1 368.6 612.8 372.2 C 617.9 376.5 625.6 374.2 630.9 378.1 C 636.7 382.5 635.8 393.0 629.2 396.2 C 621.9 399.8 612.4 398.5 606.5 392.8 C 607.2 392.0 608.0 391.2 608.7 390.4 C 613.5 395.3 621.4 396.8 627.5 393.7 C 632.5 391.1 633.0 382.8 628.1 380.0 C 622.8 377.5 616.4 378.8 611.5 375.3 C 605.4 371.1 606.5 360.5 613.0 357.2 Z" />
  <path fill="#172a67" stroke="#172a67" stroke-width="0.09375" opacity="1.00" d=" M 643.8 355.8 C 653.2 355.8 662.7 355.8 672.1 355.8 C 672.1 356.6 672.1 358.0 672.1 358.7 C 667.9 358.7 663.7 358.7 659.6 358.8 C 659.6 371.8 659.6 384.8 659.6 397.8 C 658.5 397.8 657.4 397.8 656.3 397.8 C 656.2 384.8 656.3 371.8 656.2 358.8 C 652.1 358.7 648.0 358.7 643.9 358.8 C 643.8 358.0 643.8 356.6 643.8 355.8 Z" />
  <path fill="#172a67" stroke="#172a67" stroke-width="0.09375" opacity="1.00" d=" M 684.2 355.8 C 685.0 355.8 686.6 355.8 687.4 355.8 C 687.4 369.8 687.4 383.8 687.4 397.8 C 686.6 397.8 685.0 397.8 684.2 397.8 C 684.2 383.8 684.2 369.8 684.2 355.8 Z" />
  <path fill="#172a67" stroke="#172a67" stroke-width="0.09375" opacity="1.00" d=" M 699.2 358.7 C 699.3 357.8 699.5 356.8 699.8 355.9 C 709.1 355.7 718.4 355.8 727.7 355.9 C 727.7 356.6 727.7 358.0 727.6 358.8 C 723.5 358.7 719.3 358.7 715.2 358.8 C 715.2 371.8 715.2 384.8 715.2 397.8 C 714.4 397.8 712.7 397.8 711.9 397.8 C 711.9 384.8 711.9 371.8 711.9 358.8 C 707.7 358.7 703.4 358.8 699.2 358.7 Z" />
  <path fill="#172a67" stroke="#172a67" stroke-width="0.09375" opacity="1.00" d=" M 739.2 355.8 C 740.0 355.8 741.6 355.8 742.4 355.8 C 742.4 364.9 742.4 374.0 742.4 383.0 C 742.4 385.9 742.9 388.9 744.7 391.2 C 748.8 396.6 758.1 396.6 762.3 391.3 C 764.2 389.0 764.7 386.0 764.7 383.1 C 764.7 374.0 764.7 364.9 764.7 355.8 C 765.5 355.8 767.2 355.8 768.0 355.8 C 768.0 364.9 768.0 373.9 768.0 383.0 C 768.1 386.5 767.4 390.2 765.1 393.0 C 760.5 398.9 751.3 399.7 745.2 395.8 C 741.2 393.4 739.0 388.7 739.2 384.1 C 739.1 374.7 739.2 365.2 739.2 355.8 Z" />
  <path fill="#172a67" stroke="#172a67" stroke-width="0.09375" opacity="1.00" d=" M 779.4 358.7 C 779.4 357.8 779.5 356.8 779.5 355.8 C 788.9 355.9 798.3 355.7 807.7 355.9 C 807.7 356.6 807.7 358.0 807.7 358.7 C 803.5 358.7 799.3 358.7 795.2 358.8 C 795.2 371.8 795.2 384.8 795.2 397.8 C 794.4 397.8 792.7 397.8 791.9 397.8 C 791.9 384.8 791.9 371.8 791.9 358.8 C 787.7 358.7 783.5 358.8 779.4 358.7 Z" />
  <path fill="#172a67" stroke="#172a67" stroke-width="0.09375" opacity="1.00" d=" M 819.8 355.8 C 828.3 355.8 836.8 355.8 845.3 355.8 C 845.3 356.6 845.2 358.0 845.2 358.8 C 837.8 358.7 830.4 358.8 823.0 358.8 C 823.0 364.2 823.0 369.7 823.0 375.2 C 829.3 375.2 835.6 375.2 841.9 375.2 C 841.9 375.9 841.9 377.4 841.9 378.1 C 835.6 378.1 829.3 378.1 823.0 378.1 C 823.0 383.7 823.0 389.3 823.0 394.9 C 830.4 394.9 837.8 394.9 845.2 394.9 C 845.2 395.7 845.2 397.1 845.2 397.8 C 836.7 397.8 828.2 397.8 819.8 397.8 C 819.7 383.8 819.7 369.8 819.8 355.8 Z" />
  <path fill="#172a67" stroke="#172a67" stroke-width="0.09375" opacity="1.00" d=" M 886.1 356.1 C 892.7 354.0 900.7 357.0 903.5 363.4 C 905.4 368.0 904.7 373.1 904.9 378.0 C 904.7 383.2 905.4 389.3 901.4 393.5 C 896.0 399.5 885.7 399.7 880.0 394.0 C 877.0 391.2 876.2 386.9 876.2 383.0 C 876.1 377.4 875.8 371.7 876.6 366.2 C 877.4 361.3 881.5 357.5 886.1 356.1 M 888.4 358.6 C 884.0 359.3 880.2 363.0 879.8 367.5 C 879.1 373.7 879.1 380.0 879.8 386.2 C 880.3 391.3 885.0 395.2 890.0 395.3 C 895.4 395.6 900.8 391.5 901.2 386.0 C 901.8 379.7 901.9 373.3 901.1 367.0 C 900.4 361.2 894.0 357.4 888.4 358.6 Z" />
  <path fill="#172a67" stroke="#172a67" stroke-width="0.09375" opacity="1.00" d=" M 920.0 355.8 C 928.6 355.8 937.1 355.8 945.7 355.8 C 945.6 356.5 945.4 357.9 945.4 358.6 C 938.0 359.0 930.6 358.6 923.2 358.8 C 923.3 364.5 923.2 370.2 923.2 375.9 C 929.6 375.9 935.9 375.9 942.2 375.9 C 942.2 376.6 942.2 378.0 942.2 378.8 C 935.9 378.7 929.6 378.7 923.3 378.7 C 923.2 385.1 923.2 391.4 923.3 397.8 C 922.2 397.8 921.1 397.8 920.0 397.9 C 920.0 383.9 920.0 369.8 920.0 355.8 Z" />
  <path fill="#172a67" stroke="#172a67" stroke-width="0.09375" opacity="1.00" d=" M 541.2 413.2 C 550.4 413.2 559.7 413.2 568.9 413.2 C 568.9 415.6 568.9 418.0 568.9 420.5 C 562.4 420.5 555.9 420.5 549.4 420.5 C 549.4 423.9 549.4 427.3 549.4 430.7 C 554.9 430.8 560.5 430.7 566.0 430.8 C 566.0 433.2 566.0 435.7 566.0 438.2 C 560.5 438.2 554.9 438.2 549.4 438.2 C 549.4 443.9 549.4 449.6 549.4 455.3 C 546.7 455.2 543.9 455.2 541.2 455.2 C 541.2 441.2 541.2 427.2 541.2 413.2 Z" />
  <path fill="#172a67" stroke="#172a67" stroke-width="0.09375" opacity="1.00" d=" M 579.7 413.2 C 582.4 413.2 585.2 413.2 587.9 413.2 C 587.9 427.2 587.9 441.2 587.9 455.3 C 585.2 455.2 582.4 455.2 579.7 455.2 C 579.7 441.2 579.7 427.2 579.7 413.2 Z" />
  <path fill="#172a67" stroke="#172a67" stroke-width="0.09375" opacity="1.00" d=" M 600.9 413.1 C 603.4 413.2 605.9 413.2 608.5 413.2 C 613.9 421.8 619.4 430.3 624.9 438.8 C 624.9 430.2 624.9 421.7 624.9 413.2 C 627.7 413.2 630.4 413.2 633.2 413.2 C 633.2 427.2 633.2 441.2 633.2 455.2 C 630.7 455.2 628.2 455.2 625.8 455.3 C 620.2 446.7 614.8 438.1 609.2 429.6 C 609.2 438.1 609.2 446.7 609.2 455.2 C 606.4 455.2 603.7 455.2 600.9 455.2 C 600.9 441.2 600.9 427.2 600.9 413.1 Z" />
  <path fill="#172a67" stroke="#172a67" stroke-width="0.09375" opacity="1.00" d=" M 658.2 413.2 C 660.4 413.2 662.6 413.2 664.8 413.2 C 669.9 427.2 675.0 441.2 680.2 455.2 C 677.3 455.2 674.4 455.3 671.6 455.3 C 670.7 452.8 669.8 450.3 669.0 447.8 C 664.0 447.8 659.1 447.8 654.1 447.8 C 653.3 450.3 652.5 452.7 651.7 455.2 C 648.8 455.2 645.9 455.3 642.9 455.3 C 648.0 441.2 653.2 427.2 658.2 413.2 M 661.7 425.8 C 660.0 430.8 658.2 435.8 656.5 440.8 C 659.9 440.8 663.4 440.8 666.8 440.8 C 665.1 435.8 663.5 430.8 661.7 425.8 Z" />
  <path fill="#172a67" stroke="#172a67" stroke-width="0.09375" opacity="1.00" d=" M 689.9 413.2 C 692.9 413.6 697.3 411.7 698.8 415.3 C 703.8 423.1 708.8 430.9 713.9 438.7 C 713.9 430.2 713.9 421.7 713.9 413.2 C 716.7 413.2 719.4 413.2 722.2 413.2 C 722.2 427.2 722.2 441.2 722.2 455.2 C 719.7 455.2 717.3 455.2 714.8 455.3 C 709.3 446.8 703.9 438.2 698.3 429.8 C 698.2 438.3 698.3 446.8 698.2 455.2 C 695.5 455.2 692.7 455.2 689.9 455.2 C 689.9 441.2 689.9 427.2 689.9 413.2 Z" />
  <path fill="#172a67" stroke="#172a67" stroke-width="0.09375" opacity="1.00" d=" M 736.8 419.0 C 742.2 411.2 755.1 410.6 761.3 417.6 C 763.5 420.0 764.4 423.1 765.3 426.1 C 762.5 426.2 759.7 426.2 756.9 426.1 C 756.0 424.4 755.3 422.4 753.6 421.3 C 750.0 418.8 744.0 420.5 743.1 425.0 C 742.1 431.0 742.1 437.1 743.0 443.1 C 743.8 448.1 750.9 449.9 754.4 446.4 C 755.5 445.2 756.1 443.7 757.1 442.4 C 759.8 442.1 762.5 442.3 765.3 442.3 C 764.4 445.2 763.6 448.2 761.6 450.5 C 755.4 457.8 742.1 457.2 736.7 449.2 C 733.7 444.8 734.2 439.1 734.1 434.0 C 734.2 429.0 733.8 423.4 736.8 419.0 Z" />
  <path fill="#172a67" stroke="#172a67" stroke-width="0.09375" opacity="1.00" d=" M 775.8 413.2 C 778.6 413.2 781.3 413.2 784.1 413.2 C 784.1 427.2 784.1 441.2 784.1 455.2 C 781.3 455.2 778.6 455.2 775.8 455.2 C 775.8 441.2 775.8 427.2 775.8 413.2 Z" />
  <path fill="#172a67" stroke="#172a67" stroke-width="0.09375" opacity="1.00" d=" M 809.1 413.2 C 811.3 413.2 813.5 413.2 815.7 413.2 C 820.8 427.2 825.9 441.2 831.0 455.3 C 828.1 455.3 825.2 455.2 822.3 455.2 C 821.5 452.7 820.7 450.3 819.9 447.8 C 814.9 447.8 810.0 447.8 805.0 447.8 C 804.1 450.3 803.3 452.8 802.4 455.3 C 799.5 455.2 796.7 455.2 793.8 455.2 C 798.9 441.2 804.0 427.2 809.1 413.2 M 807.3 440.8 C 810.8 440.8 814.2 440.8 817.7 440.8 C 816.0 435.8 814.3 430.8 812.6 425.8 C 810.8 430.8 809.1 435.8 807.3 440.8 Z" />
  <path fill="#172a67" stroke="#172a67" stroke-width="0.09375" opacity="1.00" d=" M 840.8 413.2 C 843.6 413.2 846.3 413.2 849.1 413.2 C 849.1 424.7 849.1 436.3 849.1 447.8 C 855.4 447.8 861.8 447.8 868.2 447.8 C 868.2 450.3 868.2 452.8 868.2 455.2 C 859.1 455.3 849.9 455.3 840.8 455.2 C 840.8 441.2 840.8 427.2 840.8 413.2 Z" />
  <path fill="#172a67" stroke="#172a67" stroke-width="0.09375" opacity="1.00" d=" M 583.4 476.5 C 588.8 468.8 601.6 468.1 607.8 475.2 C 609.9 477.6 610.8 480.7 611.6 483.6 C 608.9 483.7 606.1 483.7 603.4 483.7 C 602.3 481.8 601.5 479.4 599.4 478.4 C 595.6 476.4 590.0 478.5 589.3 483.0 C 588.6 488.7 588.6 494.5 589.3 500.2 C 589.9 504.5 595.1 506.8 598.9 505.1 C 601.3 504.3 602.3 501.7 603.4 499.7 C 606.2 499.7 608.9 499.7 611.7 499.7 C 610.8 502.6 610.0 505.6 607.9 507.9 C 601.9 515.1 589.3 514.7 583.7 507.3 C 580.2 503.0 580.6 497.2 580.6 492.0 C 580.7 486.8 580.1 480.9 583.4 476.5 Z" />
  <path fill="#172a67" stroke="#172a67" stroke-width="0.09375" opacity="1.00" d=" M 673.4 470.6 C 681.6 468.7 691.2 474.2 692.0 482.9 C 692.5 489.7 692.9 496.7 691.3 503.3 C 688.1 513.5 673.5 516.2 666.0 509.0 C 662.0 505.6 661.2 500.0 661.3 495.0 C 661.4 489.8 660.8 484.4 662.5 479.4 C 664.3 474.8 668.7 471.5 673.4 470.6 M 673.4 478.5 C 670.2 480.0 669.7 483.9 669.6 487.1 C 669.6 491.7 669.3 496.4 670.2 501.0 C 671.5 505.8 678.4 507.2 681.8 503.7 C 684.1 501.5 683.9 498.0 684.1 495.0 C 684.1 490.8 684.3 486.6 683.4 482.5 C 682.4 478.3 677.0 476.5 673.4 478.5 Z" />
  <path fill="#172a67" stroke="#172a67" stroke-width="0.09375" opacity="1.00" d=" M 956.2 472.2 C 963.3 468.8 972.4 469.9 978.3 475.1 C 976.6 476.8 974.9 478.6 973.1 480.3 C 969.5 477.8 964.5 476.5 960.4 478.4 C 957.3 480.0 957.0 485.2 960.4 486.6 C 965.4 488.5 971.6 487.4 975.8 491.2 C 981.4 496.5 980.1 507.3 973.0 510.8 C 965.1 514.7 954.7 513.7 948.2 507.6 C 949.9 505.8 951.7 504.0 953.4 502.2 C 957.7 505.4 963.6 506.8 968.7 504.7 C 972.3 503.1 971.9 496.8 968.0 496.0 C 963.1 494.6 957.3 495.3 953.3 491.7 C 947.7 486.4 949.3 475.6 956.2 472.2 Z" />
  <path fill="#172a67" stroke="#172a67" stroke-width="0.09375" opacity="1.00" d=" M 536.5 512.6 C 541.6 498.6 546.7 484.7 551.8 470.7 C 553.9 470.7 556.1 470.7 558.3 470.7 C 563.4 484.7 568.5 498.7 573.6 512.7 C 570.7 512.7 567.9 512.7 565.0 512.7 C 564.1 510.2 563.3 507.7 562.5 505.3 C 557.5 505.2 552.6 505.2 547.6 505.3 C 546.7 507.7 546.3 510.4 544.8 512.6 C 542.1 512.8 539.3 512.7 536.5 512.6 M 555.2 483.6 C 553.3 488.4 551.7 493.4 550.0 498.3 C 553.4 498.2 556.8 498.3 560.3 498.2 C 558.6 493.4 557.1 488.4 555.2 483.6 Z" />
  <path fill="#172a67" stroke="#172a67" stroke-width="0.09375" opacity="1.00" d=" M 623.6 476.6 C 629.0 468.9 641.6 468.1 647.9 475.0 C 650.2 477.3 651.1 480.5 652.0 483.6 C 649.3 483.7 646.5 483.7 643.7 483.7 C 642.6 481.5 641.6 478.8 639.0 478.1 C 635.0 476.6 630.0 479.1 629.6 483.5 C 629.0 489.0 628.9 494.7 629.7 500.3 C 630.3 504.8 636.0 506.9 639.8 504.9 C 641.9 503.9 642.7 501.6 643.7 499.7 C 646.5 499.7 649.3 499.7 652.0 499.7 C 651.1 502.6 650.3 505.8 648.2 508.1 C 641.9 515.3 628.9 514.5 623.5 506.6 C 620.6 502.3 621.0 496.9 620.9 492.0 C 621.0 486.8 620.5 481.0 623.6 476.6 Z" />
  <path fill="#172a67" stroke="#172a67" stroke-width="0.09375" opacity="1.00" d=" M 703.8 470.7 C 706.6 470.7 709.4 470.7 712.2 470.7 C 712.2 479.5 712.2 488.3 712.2 497.1 C 712.1 499.7 712.6 502.6 714.8 504.2 C 718.9 507.4 726.1 505.1 726.4 499.6 C 726.8 489.9 726.5 480.3 726.6 470.7 C 729.3 470.7 732.1 470.7 734.8 470.7 C 734.8 479.4 734.9 488.2 734.8 497.0 C 734.9 500.5 734.3 504.2 732.1 507.0 C 726.4 514.8 713.3 515.1 707.2 507.7 C 704.8 505.1 703.8 501.5 703.9 498.0 C 703.8 488.9 703.9 479.8 703.8 470.7 Z" />
  <path fill="#172a67" stroke="#172a67" stroke-width="0.09375" opacity="1.00" d=" M 747.8 470.7 C 750.2 470.7 752.6 470.7 755.1 470.7 C 760.6 479.2 766.1 487.7 771.6 496.1 C 771.6 487.6 771.6 479.2 771.6 470.7 C 774.4 470.7 777.1 470.7 779.9 470.7 C 779.9 484.7 779.9 498.7 779.9 512.7 C 777.4 512.7 775.0 512.7 772.5 512.7 C 767.0 504.1 761.5 495.6 756.0 487.1 C 756.0 495.6 756.0 504.2 756.0 512.7 C 753.2 512.7 750.5 512.7 747.7 512.6 C 747.8 498.6 747.7 484.7 747.8 470.7 Z" />
  <path fill="#172a67" stroke="#172a67" stroke-width="0.09375" opacity="1.00" d=" M 790.3 478.1 C 790.3 475.6 790.3 473.1 790.4 470.6 C 800.4 470.7 810.5 470.6 820.5 470.7 C 820.5 473.1 820.5 475.6 820.5 478.1 C 816.9 478.1 813.2 478.1 809.6 478.1 C 809.6 489.6 809.6 501.1 809.6 512.7 C 806.8 512.7 804.0 512.7 801.3 512.7 C 801.2 501.1 801.3 489.6 801.2 478.1 C 797.6 478.1 794.0 478.1 790.3 478.1 Z" />
  <path fill="#172a67" stroke="#172a67" stroke-width="0.09375" opacity="1.00" d=" M 838.1 470.7 C 840.2 470.7 842.3 470.6 844.5 470.6 C 849.7 484.6 854.8 498.7 859.9 512.7 C 857.0 512.7 854.1 512.7 851.3 512.7 C 850.4 510.2 849.6 507.7 848.8 505.2 C 843.8 505.2 838.9 505.3 834.0 505.2 C 833.1 507.7 832.3 510.2 831.4 512.7 C 828.6 512.7 825.7 512.7 822.8 512.7 C 827.9 498.7 833.0 484.7 838.1 470.7 M 841.5 483.4 C 839.7 488.3 838.0 493.3 836.3 498.2 C 839.7 498.2 843.1 498.2 846.6 498.2 C 844.9 493.3 843.3 488.3 841.5 483.4 Z" />
  <path fill="#172a67" stroke="#172a67" stroke-width="0.09375" opacity="1.00" d=" M 868.8 470.7 C 871.3 470.7 873.7 470.7 876.2 470.7 C 881.7 479.2 887.2 487.7 892.7 496.2 C 892.8 487.7 892.7 479.2 892.8 470.7 C 895.5 470.7 898.2 470.7 901.0 470.7 C 901.0 484.7 901.0 498.7 901.0 512.7 C 898.5 512.7 896.0 512.7 893.6 512.6 C 888.1 504.1 882.6 495.6 877.1 487.1 C 877.1 495.6 877.1 504.1 877.1 512.7 C 874.3 512.7 871.6 512.7 868.8 512.7 C 868.8 498.7 868.8 484.7 868.8 470.7 Z" />
  <path fill="#172a67" stroke="#172a67" stroke-width="0.09375" opacity="1.00" d=" M 911.5 470.7 C 921.5 470.7 931.5 470.7 941.6 470.7 C 941.6 473.1 941.6 475.6 941.6 478.0 C 938.0 478.1 934.3 478.1 930.7 478.1 C 930.7 489.6 930.7 501.1 930.7 512.7 C 927.9 512.7 925.2 512.7 922.4 512.7 C 922.4 501.1 922.4 489.6 922.4 478.1 C 918.8 478.1 915.1 478.1 911.5 478.1 C 911.5 475.6 911.5 473.1 911.5 470.7 Z" />
  <path fill="#172a67" stroke="#172a67" stroke-width="0.09375" opacity="1.00" d=" M 986.3 471.3 C 990.8 468.9 996.8 473.0 996.2 478.0 C 996.1 483.1 989.7 486.3 985.5 483.4 C 981.1 480.8 981.5 473.4 986.3 471.3 M 988.4 472.4 C 984.3 472.9 982.7 478.6 985.7 481.4 C 988.2 484.0 993.2 482.8 994.2 479.3 C 995.6 475.7 992.2 471.5 988.4 472.4 Z" />
  <path fill="#172a67" stroke="#172a67" stroke-width="0.09375" opacity="1.00" d=" M 986.8 473.7 C 988.6 474.1 991.9 473.3 992.3 476.0 C 992.0 476.6 991.5 478.0 991.2 478.6 C 991.6 479.6 992.0 480.6 992.4 481.6 C 990.3 481.4 989.7 479.4 988.6 478.1 C 988.5 478.9 988.4 480.5 988.4 481.4 L 986.8 481.2 C 986.7 478.7 986.7 476.2 986.8 473.7 M 988.4 475.4 C 987.3 476.7 989.5 478.3 990.4 477.0 C 991.5 475.7 989.3 474.0 988.4 475.4 Z" />
  <path fill="#172a67" stroke="#172a67" stroke-width="0.09375" opacity="1.00" d=" M 546.7 548.0 C 547.4 548.1 548.8 548.3 549.5 548.3 C 552.0 555.6 554.8 562.8 557.4 570.0 C 556.5 570.0 554.7 570.0 553.8 570.0 C 553.3 568.6 552.8 567.1 552.3 565.7 C 549.4 565.7 546.6 565.7 543.8 565.7 C 543.3 567.1 542.7 568.6 542.2 570.0 C 541.3 570.0 539.5 570.0 538.7 570.0 C 541.4 562.7 544.0 555.3 546.7 548.0 M 544.8 562.7 C 547.0 562.7 549.1 562.7 551.3 562.7 C 550.3 559.7 549.3 556.7 548.2 553.7 C 546.9 556.6 545.8 559.7 544.8 562.7 Z" />
  <path fill="#172a67" stroke="#172a67" stroke-width="0.09375" opacity="1.00" d=" M 567.7 548.2 C 568.5 548.2 570.2 548.2 571.1 548.2 C 573.2 552.6 575.3 557.1 577.4 561.6 C 579.5 557.2 581.5 552.7 583.5 548.2 C 584.7 548.2 585.8 548.1 587.0 548.1 C 587.0 555.4 587.0 562.7 587.0 570.0 C 586.1 570.0 584.4 570.0 583.6 570.0 C 583.6 565.2 583.6 560.5 583.6 555.7 C 581.9 559.1 580.3 562.5 578.8 566.0 C 578.1 566.0 576.8 566.1 576.2 566.1 C 574.5 562.7 572.8 559.2 571.2 555.8 C 571.0 560.5 571.1 565.2 571.1 570.0 C 570.2 570.0 568.5 570.0 567.7 570.0 C 567.7 562.7 567.7 555.4 567.7 548.2 Z" />
  <path fill="#172a67" stroke="#172a67" stroke-width="0.09375" opacity="1.00" d=" M 592.2 548.2 C 596.8 548.2 601.5 548.2 606.2 548.2 C 606.2 548.9 606.2 550.5 606.2 551.2 C 602.6 551.3 599.1 551.3 595.6 551.2 C 595.5 553.3 595.5 555.4 595.5 557.5 C 598.5 557.5 601.5 557.5 604.6 557.5 C 604.6 558.5 604.6 559.5 604.6 560.5 C 601.6 560.5 598.5 560.5 595.5 560.5 C 595.5 562.7 595.5 564.8 595.5 567.0 C 599.1 567.0 602.6 567.0 606.2 567.0 C 606.2 567.8 606.2 569.2 606.2 570.0 C 601.5 570.0 596.8 570.0 592.2 570.0 C 592.2 562.7 592.2 555.4 592.2 548.2 Z" />
  <path fill="#172a67" stroke="#172a67" stroke-width="0.09375" opacity="1.00" d=" M 610.3 548.2 C 611.4 548.2 612.5 548.2 613.6 548.2 C 615.7 552.6 617.7 557.0 619.8 561.3 C 622.2 557.1 624.0 552.6 626.1 548.2 C 627.0 548.2 628.6 548.2 629.5 548.2 C 629.5 555.4 629.5 562.7 629.5 570.0 C 628.6 570.0 626.9 570.0 626.1 570.0 C 626.1 565.3 626.1 560.6 626.0 555.9 C 624.3 559.4 622.7 562.9 621.0 566.4 C 620.4 566.2 619.2 565.8 618.5 565.6 C 616.7 562.4 615.3 559.0 613.6 555.8 C 613.6 560.5 613.6 565.3 613.6 570.0 C 612.7 570.0 611.1 570.0 610.2 570.0 C 610.3 562.7 610.2 555.4 610.3 548.2 Z" />
  <path fill="#172a67" stroke="#172a67" stroke-width="0.09375" opacity="1.00" d=" M 634.7 548.2 C 638.5 548.3 642.6 547.7 646.4 548.7 C 650.5 550.3 650.8 556.1 647.6 558.7 C 651.1 561.4 651.1 567.8 646.6 569.5 C 642.7 570.5 638.6 569.8 634.7 570.0 C 634.7 562.7 634.7 555.4 634.7 548.2 M 638.1 551.2 C 638.1 553.3 638.1 555.3 638.1 557.4 C 640.3 557.3 642.7 557.6 644.9 557.0 C 647.1 556.0 646.9 552.3 644.6 551.5 C 642.4 551.1 640.2 551.3 638.1 551.2 M 638.1 560.4 C 638.1 562.6 638.1 564.8 638.1 567.0 C 640.3 567.0 642.6 567.2 644.8 566.7 C 647.5 565.7 647.4 561.2 644.6 560.6 C 642.4 560.3 640.2 560.4 638.1 560.4 Z" />
  <path fill="#172a67" stroke="#172a67" stroke-width="0.09375" opacity="1.00" d=" M 654.5 548.2 C 659.2 548.2 663.8 548.2 668.5 548.2 C 668.5 549.2 668.5 550.2 668.5 551.3 C 665.0 551.2 661.4 551.2 657.9 551.3 C 657.9 553.3 657.9 555.4 658.0 557.5 C 660.9 557.5 663.9 557.5 666.9 557.5 C 666.9 558.3 666.9 559.8 666.9 560.5 C 663.9 560.5 661.0 560.5 658.0 560.5 C 657.9 562.6 657.9 564.8 657.9 567.0 C 661.4 567.0 665.0 567.0 668.5 567.0 C 668.5 567.8 668.5 569.2 668.5 570.0 C 663.8 570.0 659.2 570.0 654.5 570.0 C 654.5 562.7 654.5 555.4 654.5 548.2 Z" />
  <path fill="#172a67" stroke="#172a67" stroke-width="0.09375" opacity="1.00" d=" M 672.6 548.2 C 677.0 548.6 682.3 546.9 686.0 550.0 C 689.4 553.2 687.8 558.9 683.7 560.7 C 685.3 563.8 687.0 566.9 688.6 570.1 C 687.2 570.0 685.8 569.9 684.4 569.9 C 683.0 566.8 681.5 563.8 680.0 560.8 C 678.7 560.8 677.3 560.8 676.0 560.8 C 676.0 563.9 676.0 566.9 676.0 570.0 C 675.1 570.0 673.4 570.0 672.6 570.0 C 672.6 562.7 672.6 555.4 672.6 548.2 M 676.0 551.2 C 676.0 553.5 676.0 555.7 676.0 558.0 C 679.1 557.9 684.9 558.9 684.5 554.0 C 683.6 550.1 678.9 551.5 676.0 551.2 Z" />
  <path fill="#172a67" stroke="#172a67" stroke-width="0.09375" opacity="1.00" d=" M 705.1 548.2 C 709.2 547.1 714.1 549.7 714.6 554.1 C 715.0 557.8 715.2 561.8 714.3 565.5 C 712.2 571.5 702.5 571.8 699.9 566.1 C 698.7 562.5 699.1 558.6 699.3 554.9 C 699.3 551.6 701.9 548.8 705.1 548.2 M 705.3 551.3 C 703.7 551.9 702.8 553.4 702.7 555.0 C 702.4 558.3 702.2 561.7 703.1 564.8 C 704.5 567.9 709.5 567.9 710.9 564.8 C 711.8 561.3 711.7 557.6 711.1 554.1 C 710.6 551.6 707.5 550.3 705.3 551.3 Z" />
  <path fill="#172a67" stroke="#172a67" stroke-width="0.09375" opacity="1.00" d=" M 719.4 548.2 C 724.1 548.2 728.7 548.1 733.4 548.2 C 733.3 549.2 733.3 550.2 733.3 551.3 C 729.8 551.2 726.3 551.2 722.8 551.2 C 722.7 553.4 722.7 555.6 722.7 557.7 C 725.8 557.7 728.8 557.7 731.8 557.7 C 731.8 558.8 731.8 559.8 731.9 560.8 C 728.8 560.8 725.8 560.8 722.8 560.8 C 722.7 563.9 722.7 566.9 722.8 570.0 C 721.6 570.0 720.5 570.0 719.4 570.0 C 719.4 562.7 719.4 555.4 719.4 548.2 Z" />
  <path fill="#172a67" stroke="#172a67" stroke-width="0.09375" opacity="1.00" d=" M 742.6 548.2 C 747.7 548.1 752.9 548.2 758.0 548.2 C 758.0 548.9 758.0 550.5 758.0 551.2 C 756.0 551.2 754.0 551.2 752.0 551.2 C 752.0 557.5 752.0 563.7 752.0 570.0 C 751.2 570.0 749.5 570.0 748.7 570.0 C 748.7 563.7 748.7 557.5 748.7 551.3 C 746.7 551.2 744.7 551.2 742.7 551.2 C 742.7 550.2 742.6 549.2 742.6 548.2 Z" />
  <path fill="#172a67" stroke="#172a67" stroke-width="0.09375" opacity="1.00" d=" M 761.8 548.2 C 762.6 548.2 764.2 548.2 765.1 548.2 C 765.1 551.3 765.1 554.4 765.1 557.5 C 768.0 557.5 770.9 557.5 773.8 557.5 C 773.8 554.4 773.8 551.3 773.8 548.2 C 774.7 548.2 776.4 548.2 777.2 548.2 C 777.3 555.4 777.2 562.7 777.3 570.0 C 776.4 570.0 774.7 570.0 773.8 570.0 C 773.8 566.8 773.8 563.7 773.8 560.5 C 770.9 560.5 768.0 560.5 765.1 560.5 C 765.1 563.7 765.1 566.8 765.1 570.0 C 764.2 570.0 762.6 570.0 761.8 570.0 C 761.7 562.7 761.7 555.4 761.8 548.2 Z" />
  <path fill="#172a67" stroke="#172a67" stroke-width="0.09375" opacity="1.00" d=" M 782.4 548.2 C 787.1 548.2 791.8 548.1 796.5 548.2 C 796.4 549.2 796.4 550.2 796.4 551.3 C 792.9 551.2 789.3 551.2 785.8 551.2 C 785.8 553.3 785.8 555.4 785.8 557.5 C 788.8 557.5 791.8 557.5 794.8 557.5 C 794.8 558.5 794.8 559.5 794.8 560.5 C 791.8 560.5 788.8 560.5 785.8 560.5 C 785.8 562.7 785.8 564.8 785.8 567.0 C 789.4 567.0 792.9 567.0 796.4 567.0 C 796.4 567.8 796.4 569.2 796.4 570.0 C 791.7 570.0 787.1 570.0 782.4 570.0 C 782.4 562.7 782.4 555.4 782.4 548.2 Z" />
  <path fill="#172a67" stroke="#172a67" stroke-width="0.09375" opacity="1.00" d=" M 808.2 548.2 C 809.3 548.2 810.4 548.2 811.6 548.2 C 811.6 555.4 811.6 562.7 811.6 570.0 C 810.4 570.0 809.3 570.0 808.2 570.0 C 808.2 562.7 808.2 555.4 808.2 548.2 Z" />
  <path fill="#172a67" stroke="#172a67" stroke-width="0.09375" opacity="1.00" d=" M 816.7 548.2 C 820.3 548.3 824.0 547.8 827.6 548.6 C 832.4 549.8 833.5 556.9 829.8 559.9 C 827.1 562.1 823.3 561.3 820.1 561.4 C 820.1 564.3 820.1 567.1 820.1 570.0 C 819.2 570.0 817.5 570.0 816.7 570.0 C 816.7 562.7 816.7 555.4 816.7 548.2 M 820.1 551.2 C 820.1 553.6 820.1 556.0 820.1 558.5 C 822.3 558.4 824.6 558.7 826.8 558.0 C 829.3 556.8 829.2 552.4 826.5 551.5 C 824.4 551.1 822.2 551.3 820.1 551.2 Z" />
  <path fill="#172a67" stroke="#172a67" stroke-width="0.09375" opacity="1.00" d=" M 840.1 548.1 C 840.7 548.2 842.1 548.2 842.8 548.2 C 845.4 555.5 848.1 562.7 850.8 570.0 C 849.6 570.0 848.3 570.0 847.1 570.0 C 846.7 568.6 846.2 567.1 845.7 565.7 C 842.8 565.7 840.0 565.7 837.1 565.7 C 836.6 567.1 836.2 568.5 835.7 570.0 C 834.5 570.0 833.3 570.0 832.0 570.0 C 834.7 562.7 837.4 555.4 840.1 548.1 M 841.4 553.5 C 840.3 556.6 839.2 559.7 838.2 562.7 C 840.3 562.7 842.5 562.7 844.7 562.7 C 843.7 559.6 842.6 556.5 841.4 553.5 Z" />
  <path fill="#172a67" stroke="#172a67" stroke-width="0.09375" opacity="1.00" d=" M 861.9 550.9 C 864.5 547.4 869.9 547.1 873.3 549.6 C 874.9 550.9 875.5 553.0 876.4 554.8 C 875.5 554.8 873.9 554.8 873.0 554.8 C 871.9 552.6 869.9 550.2 867.1 551.1 C 863.1 552.1 863.7 556.9 863.6 560.0 C 863.4 563.0 864.2 567.2 868.0 567.2 C 871.5 567.5 872.9 564.0 873.0 561.2 C 871.4 561.1 869.7 561.1 868.1 561.1 C 868.1 560.3 868.1 558.9 868.1 558.2 C 870.8 558.2 873.5 558.2 876.3 558.2 C 876.1 560.9 876.4 563.8 875.2 566.3 C 872.7 571.1 865.0 571.6 861.8 567.2 C 860.1 564.9 860.4 561.8 860.3 559.0 C 860.4 556.3 860.1 553.2 861.9 550.9 Z" />
  <path fill="#172a67" stroke="#172a67" stroke-width="0.09375" opacity="1.00" d=" M 880.6 548.2 C 885.0 548.6 890.3 546.9 894.0 549.9 C 897.5 553.1 895.9 558.9 891.7 560.7 C 893.4 563.8 895.0 566.9 896.6 570.1 C 895.2 570.0 893.8 569.9 892.5 569.9 C 891.0 566.8 889.5 563.8 888.0 560.8 C 886.7 560.8 885.3 560.8 884.0 560.8 C 884.0 563.9 884.0 566.9 884.0 570.0 C 883.1 570.0 881.4 570.0 880.6 570.0 C 880.6 562.7 880.6 555.4 880.6 548.2 M 884.0 551.2 C 884.0 553.4 884.0 555.7 884.0 558.0 C 886.2 557.9 888.4 558.1 890.6 557.6 C 893.2 556.7 893.1 552.4 890.5 551.5 C 888.4 551.1 886.2 551.3 884.0 551.2 Z" />
  <path fill="#172a67" stroke="#172a67" stroke-width="0.09375" opacity="1.00" d=" M 904.4 548.5 C 908.7 546.7 914.6 549.1 915.2 554.0 C 915.6 557.9 915.8 562.0 914.7 565.8 C 912.3 571.7 902.6 571.7 900.4 565.7 C 899.4 562.2 899.6 558.5 899.8 555.0 C 899.9 552.1 901.8 549.5 904.4 548.5 M 906.2 551.2 C 904.5 551.7 903.4 553.2 903.3 554.9 C 903.0 558.1 902.8 561.4 903.6 564.6 C 904.8 568.0 910.3 568.0 911.5 564.6 C 912.3 561.4 912.1 558.1 911.8 554.9 C 911.8 552.2 908.7 550.3 906.2 551.2 Z" />
  <path fill="#172a67" stroke="#172a67" stroke-width="0.09375" opacity="1.00" d=" M 919.7 548.2 C 920.5 548.2 922.2 548.2 923.1 548.2 C 923.2 553.4 922.8 558.7 923.3 564.0 C 924.0 568.2 931.0 568.2 931.8 564.0 C 932.3 558.7 931.9 553.4 932.0 548.2 C 932.9 548.2 934.6 548.2 935.4 548.2 C 935.2 553.8 935.9 559.4 935.1 565.0 C 933.6 570.7 925.0 572.0 921.4 567.6 C 919.8 565.8 919.7 563.2 919.6 561.0 C 919.6 556.7 919.7 552.4 919.7 548.2 Z" />
  <path fill="#172a67" stroke="#172a67" stroke-width="0.09375" opacity="1.00" d=" M 940.3 548.2 C 944.0 548.3 947.8 547.8 951.5 548.6 C 956.0 550.1 957.1 556.7 953.6 559.7 C 950.9 562.1 947.0 561.2 943.7 561.5 C 943.7 564.3 943.7 567.1 943.8 570.0 C 942.6 570.0 941.4 570.0 940.3 570.0 C 940.3 562.7 940.3 555.4 940.3 548.2 M 943.8 551.2 C 943.7 553.6 943.7 556.0 943.8 558.5 C 945.8 558.4 947.9 558.5 949.9 558.2 C 953.0 557.4 953.1 552.2 950.0 551.5 C 947.9 551.1 945.8 551.2 943.8 551.2 Z" />
</g>
</svg>
