<?xml version="1.0" encoding="UTF-8" ?>
<!DOCTYPE svg PUBLIC "-//W3C//DTD SVG 1.1//EN" "http://www.w3.org/Graphics/SVG/1.1/DTD/svg11.dtd">
<svg width="400pt" height="150pt" viewBox="0 0 400 150" version="1.1" xmlns="http://www.w3.org/2000/svg">
<g id="#ffffffff">
<path fill="#ffffff" opacity="1.00" d=" M 0.00 0.00 L 400.00 0.00 L 400.00 150.00 L 0.00 150.00 L 0.00 0.00 M 16.76 6.87 C 16.74 52.66 16.75 98.45 16.76 144.24 C 24.68 144.28 32.61 144.25 40.54 144.27 C 40.61 125.02 40.58 105.77 40.55 86.52 C 52.13 86.54 63.71 86.46 75.29 86.56 C 78.75 79.01 82.24 71.48 85.60 63.89 C 70.60 63.87 55.59 63.87 40.59 63.89 C 40.56 52.50 40.59 41.10 40.57 29.71 C 60.81 29.65 81.06 29.81 101.30 29.63 C 104.45 21.98 108.38 14.66 111.24 6.89 C 79.74 6.85 48.25 6.89 16.76 6.87 M 118.87 6.87 C 108.03 30.60 97.27 54.37 86.53 78.15 C 97.30 72.79 107.98 67.21 118.59 61.56 C 122.31 54.60 125.17 47.17 128.65 40.07 C 130.80 44.52 132.76 49.05 134.85 53.52 C 141.59 50.01 148.31 46.46 155.08 43.02 C 150.03 31.80 144.81 20.66 139.73 9.46 C 139.13 8.46 138.74 6.65 137.19 6.91 C 131.09 6.78 124.98 6.93 118.87 6.87 M 206.92 7.47 C 194.56 8.86 182.18 14.41 174.60 24.56 C 167.16 34.23 165.77 47.71 169.76 59.07 C 172.68 67.36 179.51 73.67 187.19 77.60 C 198.29 83.43 210.79 85.47 222.86 88.36 C 229.49 90.28 236.83 92.05 241.60 97.41 C 245.80 102.81 244.70 111.18 240.08 116.00 C 236.45 119.84 231.21 121.76 226.07 122.47 C 214.10 123.97 201.81 122.93 190.23 119.56 C 183.59 104.85 176.78 90.23 170.07 75.56 C 163.40 79.14 156.67 82.63 149.94 86.10 C 158.67 105.56 167.70 124.89 176.60 144.28 C 190.40 144.28 204.21 144.18 218.01 144.34 C 233.10 144.79 249.39 140.26 259.51 128.46 C 268.39 118.28 270.64 103.03 265.69 90.54 C 262.24 82.12 254.85 75.98 246.79 72.17 C 236.19 66.85 224.38 65.06 213.01 62.19 C 207.08 60.51 200.93 58.79 195.98 54.96 C 189.78 50.22 190.13 39.80 195.92 34.85 C 202.36 28.98 211.80 28.18 220.09 29.16 C 232.16 30.24 242.99 36.58 251.99 44.38 C 256.75 38.30 261.50 32.21 266.19 26.08 C 259.87 21.10 253.29 16.33 245.85 13.16 C 233.69 7.75 220.10 6.30 206.92 7.47 M 275.23 20.98 C 275.23 62.05 275.22 103.12 275.24 144.19 C 296.15 144.21 317.06 144.18 337.97 144.20 C 348.29 144.02 358.89 142.66 368.20 137.94 C 376.63 133.69 383.55 126.23 386.41 117.16 C 389.46 107.63 389.08 96.69 384.17 87.83 C 380.43 81.06 374.07 76.14 367.19 72.85 C 368.34 71.81 369.52 70.80 370.64 69.72 C 384.32 56.96 384.93 32.65 371.38 19.57 C 362.07 10.45 348.66 7.18 335.98 6.91 C 315.79 6.78 295.60 6.99 275.42 6.80 C 275.07 11.52 275.26 16.25 275.23 20.98 M 81.55 88.61 C 79.83 92.25 78.16 95.91 76.70 99.67 C 104.75 85.03 132.94 70.65 161.06 56.13 C 160.05 53.92 159.05 51.71 158.05 49.50 C 132.57 62.57 107.04 75.56 81.55 88.61 M 74.41 108.48 C 73.45 109.10 72.09 109.41 71.62 110.57 C 69.95 113.91 68.54 117.38 66.99 120.77 C 100.42 103.65 133.78 86.40 167.17 69.20 C 166.09 67.05 165.03 64.88 163.97 62.72 C 134.14 78.01 104.29 93.28 74.41 108.48 M 63.65 130.64 C 62.49 131.14 61.61 132.06 61.18 133.25 C 59.49 136.90 57.87 140.58 56.14 144.22 C 64.46 144.30 72.79 144.26 81.12 144.24 C 85.69 134.35 90.11 124.38 94.69 114.48 C 84.32 119.82 74.00 125.25 63.65 130.64 Z" />
<path fill="#ffffff" opacity="1.00" d=" M 299.06 29.42 C 311.38 29.47 323.70 29.37 336.01 29.46 C 342.14 29.77 348.85 31.11 353.23 35.76 C 359.86 42.76 357.64 55.59 349.24 60.20 C 340.42 65.42 329.77 64.03 319.98 64.21 C 313.07 64.02 306.08 64.58 299.22 63.97 C 298.71 52.54 298.82 40.92 299.06 29.42 Z" />
<path fill="#ffffff" opacity="1.00" d=" M 299.00 86.43 C 312.03 86.45 325.06 86.34 338.09 86.49 C 345.67 86.89 353.96 87.97 359.85 93.23 C 366.20 99.17 365.46 110.43 358.96 115.99 C 353.49 120.68 346.02 122.07 339.01 122.28 C 325.70 122.35 312.40 122.22 299.09 122.34 C 298.70 110.38 298.91 98.40 299.00 86.43 Z" />
</g>
<g id="#035e97ff">
<path fill="#035e97" opacity="1.00" d=" M 16.76 6.87 C 48.25 6.89 79.74 6.85 111.24 6.89 C 108.38 14.66 104.45 21.98 101.30 29.63 C 81.06 29.81 60.81 29.65 40.57 29.71 C 40.59 41.10 40.56 52.50 40.59 63.89 C 55.59 63.87 70.60 63.87 85.60 63.89 C 82.24 71.48 78.75 79.01 75.29 86.56 C 63.71 86.46 52.13 86.54 40.55 86.52 C 40.58 105.77 40.61 125.02 40.54 144.27 C 32.61 144.25 24.68 144.28 16.76 144.24 C 16.75 98.45 16.74 52.66 16.76 6.87 Z" />
<path fill="#035e97" opacity="1.00" d=" M 118.87 6.87 C 124.98 6.93 131.09 6.78 137.19 6.91 C 138.74 6.65 139.13 8.46 139.73 9.46 C 144.81 20.66 150.03 31.80 155.08 43.02 C 148.31 46.46 141.59 50.01 134.85 53.52 C 132.76 49.05 130.80 44.52 128.65 40.07 C 125.17 47.17 122.31 54.60 118.59 61.56 C 107.98 67.21 97.30 72.79 86.53 78.15 C 97.27 54.37 108.03 30.60 118.87 6.87 Z" />
<path fill="#035e97" opacity="1.00" d=" M 206.92 7.47 C 220.10 6.30 233.69 7.75 245.85 13.16 C 253.29 16.33 259.87 21.10 266.19 26.08 C 261.50 32.21 256.75 38.30 251.99 44.38 C 242.99 36.58 232.16 30.24 220.09 29.16 C 211.80 28.18 202.36 28.98 195.92 34.85 C 190.13 39.80 189.78 50.22 195.98 54.96 C 200.93 58.79 207.08 60.51 213.01 62.19 C 224.38 65.06 236.19 66.85 246.79 72.17 C 254.85 75.98 262.24 82.12 265.69 90.54 C 270.64 103.03 268.39 118.28 259.51 128.46 C 249.39 140.26 233.10 144.79 218.01 144.34 C 204.21 144.18 190.40 144.28 176.60 144.28 C 167.70 124.89 158.67 105.56 149.94 86.10 C 156.67 82.63 163.40 79.14 170.07 75.56 C 176.78 90.23 183.59 104.85 190.23 119.56 C 201.81 122.93 214.10 123.97 226.07 122.47 C 231.21 121.76 236.45 119.84 240.08 116.00 C 244.70 111.18 245.80 102.81 241.60 97.41 C 236.83 92.05 229.49 90.28 222.86 88.36 C 210.79 85.47 198.29 83.43 187.19 77.60 C 179.51 73.67 172.68 67.36 169.76 59.07 C 165.77 47.71 167.16 34.23 174.60 24.56 C 182.18 14.41 194.56 8.86 206.92 7.47 Z" />
<path fill="#035e97" opacity="1.00" d=" M 275.23 20.98 C 275.26 16.25 275.07 11.52 275.42 6.80 C 295.60 6.99 315.79 6.78 335.98 6.91 C 348.66 7.18 362.07 10.45 371.38 19.57 C 384.93 32.65 384.32 56.96 370.64 69.72 C 369.52 70.80 368.34 71.81 367.19 72.85 C 374.07 76.14 380.43 81.06 384.17 87.83 C 389.08 96.69 389.46 107.63 386.41 117.16 C 383.55 126.23 376.63 133.69 368.20 137.94 C 358.89 142.66 348.29 144.02 337.97 144.20 C 317.06 144.18 296.15 144.21 275.24 144.19 C 275.22 103.12 275.23 62.05 275.23 20.98 M 299.06 29.42 C 298.82 40.92 298.71 52.54 299.22 63.97 C 306.08 64.58 313.07 64.02 319.98 64.21 C 329.77 64.03 340.42 65.42 349.24 60.20 C 357.64 55.59 359.86 42.76 353.23 35.76 C 348.85 31.11 342.14 29.77 336.01 29.46 C 323.70 29.37 311.38 29.47 299.06 29.42 M 299.00 86.43 C 298.91 98.40 298.70 110.38 299.09 122.34 C 312.40 122.22 325.70 122.35 339.01 122.28 C 346.02 122.07 353.49 120.68 358.96 115.99 C 365.46 110.43 366.20 99.17 359.85 93.23 C 353.96 87.97 345.67 86.89 338.09 86.49 C 325.06 86.34 312.03 86.45 299.00 86.43 Z" />
<path fill="#035e97" opacity="1.00" d=" M 81.55 88.61 C 107.04 75.56 132.57 62.57 158.05 49.50 C 159.05 51.71 160.05 53.92 161.06 56.13 C 132.94 70.65 104.75 85.03 76.70 99.67 C 78.16 95.91 79.83 92.25 81.55 88.61 Z" />
<path fill="#035e97" opacity="1.00" d=" M 63.65 130.64 C 74.00 125.25 84.32 119.82 94.69 114.48 C 90.11 124.38 85.69 134.35 81.12 144.24 C 72.79 144.26 64.46 144.30 56.14 144.22 C 57.87 140.58 59.49 136.90 61.18 133.25 C 61.61 132.06 62.49 131.14 63.65 130.64 Z" />
</g>
<g id="#012d55ff">
<path fill="#012d55" opacity="1.00" d=" M 74.41 108.48 C 104.29 93.28 134.14 78.01 163.97 62.72 C 165.03 64.88 166.09 67.05 167.17 69.20 C 133.78 86.40 100.42 103.65 66.99 120.77 C 68.54 117.38 69.95 113.91 71.62 110.57 C 72.09 109.41 73.45 109.10 74.41 108.48 Z" />
</g>
</svg>
